<?xml version="1.0" encoding="UTF-8" standalone="yes"?><svg xmlns="http://www.w3.org/2000/svg" height="702pt" style="width:862px;height:702px;" version="1.1" viewBox="0 0 862 702" width="862pt"><defs/><g><rect fill="#C8C8C8" height="73.91015625" rx="1.0" ry="1.0" style="stroke: null; stroke-width: 1;" width="147.0" x="239.75" y="628.0"/><rect fill="#B9B9B9" height="72.91015625" rx="1.0" ry="1.0" style="stroke: null; stroke-width: 1;" width="146.0" x="240.25" y="628.5"/><rect fill="#AAAAAA" height="71.91015625" rx="1.0" ry="1.0" style="stroke: null; stroke-width: 1;" width="145.0" x="240.75" y="629.0"/><rect fill="#9B9B9B" height="70.91015625" rx="1.0" ry="1.0" style="stroke: null; stroke-width: 1;" width="144.0" x="241.25" y="629.5"/><rect fill="#8C8C8C" height="69.91015625" rx="1.0" ry="1.0" style="stroke: null; stroke-width: 1;" width="143.0" x="241.75" y="630.0"/><rect fill="#7D7D7D" height="68.91015625" rx="1.0" ry="1.0" style="stroke: null; stroke-width: 1;" width="142.0" x="242.25" y="630.5"/><rect fill="#6E6E6E" height="67.91015625" rx="1.0" ry="1.0" style="stroke: null; stroke-width: 1;" width="141.0" x="242.75" y="631.0"/><rect fill="#5F5F5F" height="66.91015625" rx="1.0" ry="1.0" style="stroke: null; stroke-width: 1;" width="140.0" x="243.25" y="631.5"/><rect fill="#505050" height="65.91015625" rx="1.0" ry="1.0" style="stroke: null; stroke-width: 1;" width="139.0" x="243.75" y="632.0"/><rect fill="#FEFECE" height="73.91015625" style="stroke: #A80036; stroke-width: 1.5;" width="147.0" x="235.75" y="624.0"/><ellipse cx="280.0" cy="640.0" fill="#ADD1B2" rx="11.0" ry="11.0" style="stroke: #A80036; stroke-width: 1.0;"/><path d="M282.7031,635.9292 Q282.8691,635.6304 283.0435,635.5059 Q283.2178,635.3813 283.4834,635.3813 Q283.8901,635.3813 284.0603,635.5972 Q284.2305,635.813 284.2305,636.3359 L284.2471,638.4941 Q284.2471,639.0669 284.0603,639.2661 Q283.8735,639.4653 283.3838,639.4653 Q283.0352,639.4653 282.8484,639.2993 Q282.6616,639.1333 282.5288,638.6851 Q282.313,637.8965 281.8398,637.552 Q281.3667,637.2075 280.5283,637.2075 Q279.25,637.2075 278.5693,638.0708 Q277.8887,638.9341 277.8887,640.5693 Q277.8887,642.1963 278.5776,643.0679 Q279.2666,643.9395 280.5449,643.9395 Q281.4165,643.9395 282.4666,643.3584 Q283.5166,642.7773 283.7905,642.7773 Q284.1143,642.7773 284.3342,643.0513 Q284.5542,643.3252 284.5542,643.7319 Q284.5542,644.4624 283.2676,645.1099 Q281.981,645.7573 280.3706,645.7573 Q278.1958,645.7573 276.8511,644.3213 Q275.5063,642.8853 275.5063,640.5693 Q275.5063,638.3364 276.8677,636.8589 Q278.229,635.3813 280.3208,635.3813 Q280.9102,635.3813 281.4829,635.5142 Q282.0557,635.647 282.7031,635.9292 Z "/><text fill="#000000" font-size="12" lengthAdjust="spacingAndGlyphs" textLength="50.0" x="300.5" y="644.93359375">Message</text><text fill="#000000" font-size="11" lengthAdjust="spacingAndGlyphs" textLength="48.0" x="241.75" y="671.0">publish()</text><text fill="#000000" font-size="11" lengthAdjust="spacingAndGlyphs" textLength="135.0" x="241.75" y="691.955078125">on_error(onError : Block)</text><rect fill="#C8C8C8" height="159.640625" rx="1.0" ry="1.0" style="stroke: null; stroke-width: 1.0; stroke-dasharray: 1.0,2.0;" width="298.0" x="164.0" y="387.0"/><rect fill="#B9B9B9" height="158.640625" rx="1.0" ry="1.0" style="stroke: null; stroke-width: 1.0; stroke-dasharray: 1.0,2.0;" width="297.0" x="164.5" y="387.5"/><rect fill="#AAAAAA" height="157.640625" rx="1.0" ry="1.0" style="stroke: null; stroke-width: 1.0; stroke-dasharray: 1.0,2.0;" width="296.0" x="165.0" y="388.0"/><rect fill="#9B9B9B" height="156.640625" rx="1.0" ry="1.0" style="stroke: null; stroke-width: 1.0; stroke-dasharray: 1.0,2.0;" width="295.0" x="165.5" y="388.5"/><rect fill="#8C8C8C" height="155.640625" rx="1.0" ry="1.0" style="stroke: null; stroke-width: 1.0; stroke-dasharray: 1.0,2.0;" width="294.0" x="166.0" y="389.0"/><rect fill="#7D7D7D" height="154.640625" rx="1.0" ry="1.0" style="stroke: null; stroke-width: 1.0; stroke-dasharray: 1.0,2.0;" width="293.0" x="166.5" y="389.5"/><rect fill="#6E6E6E" height="153.640625" rx="1.0" ry="1.0" style="stroke: null; stroke-width: 1.0; stroke-dasharray: 1.0,2.0;" width="292.0" x="167.0" y="390.0"/><rect fill="#5F5F5F" height="152.640625" rx="1.0" ry="1.0" style="stroke: null; stroke-width: 1.0; stroke-dasharray: 1.0,2.0;" width="291.0" x="167.5" y="390.5"/><rect fill="#505050" height="151.640625" rx="1.0" ry="1.0" style="stroke: null; stroke-width: 1.0; stroke-dasharray: 1.0,2.0;" width="290.0" x="168.0" y="391.0"/><rect fill="#FEFECE" height="159.640625" style="stroke: #A80036; stroke-width: 1.5;" width="298.0" x="160.0" y="383.0"/><ellipse cx="288.75" cy="399.0" fill="#ADD1B2" rx="11.0" ry="11.0" style="stroke: #A80036; stroke-width: 1.0;"/><path d="M291.4531,394.9292 Q291.6191,394.6304 291.7935,394.5059 Q291.9678,394.3813 292.2334,394.3813 Q292.6401,394.3813 292.8103,394.5972 Q292.9805,394.813 292.9805,395.3359 L292.9971,397.4941 Q292.9971,398.0669 292.8103,398.2661 Q292.6235,398.4653 292.1338,398.4653 Q291.7852,398.4653 291.5984,398.2993 Q291.4116,398.1333 291.2788,397.6851 Q291.063,396.8965 290.5898,396.552 Q290.1167,396.2075 289.2783,396.2075 Q288,396.2075 287.3193,397.0708 Q286.6387,397.9341 286.6387,399.5693 Q286.6387,401.1963 287.3276,402.0679 Q288.0166,402.9395 289.2949,402.9395 Q290.1665,402.9395 291.2166,402.3584 Q292.2666,401.7773 292.5405,401.7773 Q292.8643,401.7773 293.0842,402.0513 Q293.3042,402.3252 293.3042,402.7319 Q293.3042,403.4624 292.0176,404.1099 Q290.731,404.7573 289.1206,404.7573 Q286.9458,404.7573 285.6011,403.3213 Q284.2563,401.8853 284.2563,399.5693 Q284.2563,397.3364 285.6177,395.8589 Q286.979,394.3813 289.0708,394.3813 Q289.6602,394.3813 290.2329,394.5142 Q290.8057,394.647 291.4531,394.9292 Z "/><text fill="#000000" font-size="12" lengthAdjust="spacingAndGlyphs" textLength="32.0" x="309.25" y="403.93359375">Topic</text><text fill="#000000" font-size="11" lengthAdjust="spacingAndGlyphs" textLength="196.0" x="166.0" y="430.0">create_message(message) : Message</text><text fill="#000000" font-size="11" lengthAdjust="spacingAndGlyphs" textLength="158.0" x="166.0" y="442.955078125">subscribe(onMessage : Block)</text><text fill="#000000" font-size="11" lengthAdjust="spacingAndGlyphs" textLength="75.0" x="166.0" y="455.91015625">unsubscribe()</text><text fill="#000000" font-size="11" lengthAdjust="spacingAndGlyphs" textLength="46.0" x="166.0" y="476.865234375">release()</text><text fill="#000000" font-size="11" lengthAdjust="spacingAndGlyphs" textLength="135.0" x="166.0" y="489.8203125">on_error(onError : Block)</text><text fill="#000000" font-size="11" lengthAdjust="spacingAndGlyphs" textLength="115.0" x="166.0" y="510.775390625">// Create 'sub' topics</text><text fill="#000000" font-size="11" lengthAdjust="spacingAndGlyphs" textLength="286.0" x="166.0" y="523.73046875">create(topic_name : String, onMessage : Block) : Topic</text><text fill="#000000" font-size="11" lengthAdjust="spacingAndGlyphs" textLength="270.0" x="166.0" y="536.685546875">get(topic_name : String, onMessage : Block) : Topic</text><rect fill="#C8C8C8" height="73.91015625" rx="1.0" ry="1.0" style="stroke: null; stroke-width: 1.0; stroke-dasharray: 1.0,2.0;" width="350.0" x="10.0" y="176.0"/><rect fill="#B9B9B9" height="72.91015625" rx="1.0" ry="1.0" style="stroke: null; stroke-width: 1.0; stroke-dasharray: 1.0,2.0;" width="349.0" x="10.5" y="176.5"/><rect fill="#AAAAAA" height="71.91015625" rx="1.0" ry="1.0" style="stroke: null; stroke-width: 1.0; stroke-dasharray: 1.0,2.0;" width="348.0" x="11.0" y="177.0"/><rect fill="#9B9B9B" height="70.91015625" rx="1.0" ry="1.0" style="stroke: null; stroke-width: 1.0; stroke-dasharray: 1.0,2.0;" width="347.0" x="11.5" y="177.5"/><rect fill="#8C8C8C" height="69.91015625" rx="1.0" ry="1.0" style="stroke: null; stroke-width: 1.0; stroke-dasharray: 1.0,2.0;" width="346.0" x="12.0" y="178.0"/><rect fill="#7D7D7D" height="68.91015625" rx="1.0" ry="1.0" style="stroke: null; stroke-width: 1.0; stroke-dasharray: 1.0,2.0;" width="345.0" x="12.5" y="178.5"/><rect fill="#6E6E6E" height="67.91015625" rx="1.0" ry="1.0" style="stroke: null; stroke-width: 1.0; stroke-dasharray: 1.0,2.0;" width="344.0" x="13.0" y="179.0"/><rect fill="#5F5F5F" height="66.91015625" rx="1.0" ry="1.0" style="stroke: null; stroke-width: 1.0; stroke-dasharray: 1.0,2.0;" width="343.0" x="13.5" y="179.5"/><rect fill="#505050" height="65.91015625" rx="1.0" ry="1.0" style="stroke: null; stroke-width: 1.0; stroke-dasharray: 1.0,2.0;" width="342.0" x="14.0" y="180.0"/><rect fill="#FEFECE" height="73.91015625" style="stroke: #A80036; stroke-width: 1.5;" width="350.0" x="6.0" y="172.0"/><ellipse cx="140.25" cy="188.0" fill="#ADD1B2" rx="11.0" ry="11.0" style="stroke: #A80036; stroke-width: 1.0;"/><path d="M142.9531,183.9292 Q143.1191,183.6304 143.2935,183.5059 Q143.4678,183.3813 143.7334,183.3813 Q144.1401,183.3813 144.3103,183.5972 Q144.4805,183.813 144.4805,184.3359 L144.4971,186.4941 Q144.4971,187.0669 144.3103,187.2661 Q144.1235,187.4653 143.6338,187.4653 Q143.2852,187.4653 143.0984,187.2993 Q142.9116,187.1333 142.7788,186.6851 Q142.563,185.8965 142.0898,185.552 Q141.6167,185.2075 140.7783,185.2075 Q139.5,185.2075 138.8193,186.0708 Q138.1387,186.9341 138.1387,188.5693 Q138.1387,190.1963 138.8276,191.0679 Q139.5166,191.9395 140.7949,191.9395 Q141.6665,191.9395 142.7166,191.3584 Q143.7666,190.7773 144.0405,190.7773 Q144.3643,190.7773 144.5842,191.0513 Q144.8042,191.3252 144.8042,191.7319 Q144.8042,192.4624 143.5176,193.1099 Q142.231,193.7573 140.6206,193.7573 Q138.4458,193.7573 137.1011,192.3213 Q135.7563,190.8853 135.7563,188.5693 Q135.7563,186.3364 137.1177,184.8589 Q138.479,183.3813 140.5708,183.3813 Q141.1602,183.3813 141.7329,183.5142 Q142.3057,183.647 142.9531,183.9292 Z "/><text fill="#000000" font-size="12" lengthAdjust="spacingAndGlyphs" textLength="73.0" x="160.75" y="192.93359375">TopicFactory</text><text fill="#000000" font-size="11" lengthAdjust="spacingAndGlyphs" textLength="338.0" x="12.0" y="227.0">create(absolute_topic_name : String, onMessage : Block) : Topic</text><text fill="#000000" font-size="11" lengthAdjust="spacingAndGlyphs" textLength="322.0" x="12.0" y="239.955078125">get(absolute_topic_name : String, onMessage : Block) : Topic</text><rect fill="#C8C8C8" height="112.775390625" rx="1.0" ry="1.0" style="stroke: null; stroke-width: 1.5;" width="440.0" x="421.0" y="158.0"/><rect fill="#B9B9B9" height="111.775390625" rx="1.0" ry="1.0" style="stroke: null; stroke-width: 1.5;" width="439.0" x="421.5" y="158.5"/><rect fill="#AAAAAA" height="110.775390625" rx="1.0" ry="1.0" style="stroke: null; stroke-width: 1.5;" width="438.0" x="422.0" y="159.0"/><rect fill="#9B9B9B" height="109.775390625" rx="1.0" ry="1.0" style="stroke: null; stroke-width: 1.5;" width="437.0" x="422.5" y="159.5"/><rect fill="#8C8C8C" height="108.775390625" rx="1.0" ry="1.0" style="stroke: null; stroke-width: 1.5;" width="436.0" x="423.0" y="160.0"/><rect fill="#7D7D7D" height="107.775390625" rx="1.0" ry="1.0" style="stroke: null; stroke-width: 1.5;" width="435.0" x="423.5" y="160.5"/><rect fill="#6E6E6E" height="106.775390625" rx="1.0" ry="1.0" style="stroke: null; stroke-width: 1.5;" width="434.0" x="424.0" y="161.0"/><rect fill="#5F5F5F" height="105.775390625" rx="1.0" ry="1.0" style="stroke: null; stroke-width: 1.5;" width="433.0" x="424.5" y="161.5"/><rect fill="#505050" height="104.775390625" rx="1.0" ry="1.0" style="stroke: null; stroke-width: 1.5;" width="432.0" x="425.0" y="162.0"/><rect fill="#FEFECE" height="112.775390625" style="stroke: #A80036; stroke-width: 1.5;" width="440.0" x="417.0" y="154.0"/><ellipse cx="582.75" cy="170.0" fill="#ADD1B2" rx="11.0" ry="11.0" style="stroke: #A80036; stroke-width: 1.0;"/><path d="M585.4531,165.9292 Q585.6191,165.6304 585.7935,165.5059 Q585.9678,165.3813 586.2334,165.3813 Q586.6401,165.3813 586.8103,165.5972 Q586.9805,165.813 586.9805,166.3359 L586.9971,168.4941 Q586.9971,169.0669 586.8103,169.2661 Q586.6235,169.4653 586.1338,169.4653 Q585.7852,169.4653 585.5984,169.2993 Q585.4116,169.1333 585.2788,168.6851 Q585.063,167.8965 584.5898,167.552 Q584.1167,167.2075 583.2783,167.2075 Q582,167.2075 581.3193,168.0708 Q580.6387,168.9341 580.6387,170.5693 Q580.6387,172.1963 581.3276,173.0679 Q582.0166,173.9395 583.2949,173.9395 Q584.1665,173.9395 585.2166,173.3584 Q586.2666,172.7773 586.5405,172.7773 Q586.8643,172.7773 587.0842,173.0513 Q587.3042,173.3252 587.3042,173.7319 Q587.3042,174.4624 586.0176,175.1099 Q584.731,175.7573 583.1206,175.7573 Q580.9458,175.7573 579.6011,174.3213 Q578.2563,172.8853 578.2563,170.5693 Q578.2563,168.3364 579.6177,166.8589 Q580.979,165.3813 583.0708,165.3813 Q583.6602,165.3813 584.2329,165.5142 Q584.8057,165.647 585.4531,165.9292 Z "/><text fill="#000000" font-size="12" lengthAdjust="spacingAndGlyphs" textLength="100.0" x="603.25" y="174.93359375">ResourceAdapter</text><text fill="#000000" font-size="11" lengthAdjust="spacingAndGlyphs" textLength="265.0" x="423.0" y="201.0">configure(configuration: Hash, on_inform : Block)</text><text fill="#000000" font-size="11" lengthAdjust="spacingAndGlyphs" textLength="428.0" x="423.0" y="213.955078125">request(property_names : Array || nil, conditions : Hash || nil, on_inform : Block)</text><text fill="#000000" font-size="11" lengthAdjust="spacingAndGlyphs" textLength="248.0" x="423.0" y="226.91015625">on_inform(context : Object, on_inform : Block)</text><text fill="#000000" font-size="11" lengthAdjust="spacingAndGlyphs" textLength="46.0" x="423.0" y="239.865234375">release()</text><text fill="#000000" font-size="11" lengthAdjust="spacingAndGlyphs" textLength="349.0" x="423.0" y="260.8203125">get(resource_name : String) : ResourceAdapter  // child resource</text><rect fill="#C8C8C8" height="60.955078125" rx="1.0" ry="1.0" style="stroke: null; stroke-width: 1.0; stroke-dasharray: 1.0,2.0;" width="315.0" x="483.75" y="12.5"/><rect fill="#B9B9B9" height="59.955078125" rx="1.0" ry="1.0" style="stroke: null; stroke-width: 1.0; stroke-dasharray: 1.0,2.0;" width="314.0" x="484.25" y="13.0"/><rect fill="#AAAAAA" height="58.955078125" rx="1.0" ry="1.0" style="stroke: null; stroke-width: 1.0; stroke-dasharray: 1.0,2.0;" width="313.0" x="484.75" y="13.5"/><rect fill="#9B9B9B" height="57.955078125" rx="1.0" ry="1.0" style="stroke: null; stroke-width: 1.0; stroke-dasharray: 1.0,2.0;" width="312.0" x="485.25" y="14.0"/><rect fill="#8C8C8C" height="56.955078125" rx="1.0" ry="1.0" style="stroke: null; stroke-width: 1.0; stroke-dasharray: 1.0,2.0;" width="311.0" x="485.75" y="14.5"/><rect fill="#7D7D7D" height="55.955078125" rx="1.0" ry="1.0" style="stroke: null; stroke-width: 1.0; stroke-dasharray: 1.0,2.0;" width="310.0" x="486.25" y="15.0"/><rect fill="#6E6E6E" height="54.955078125" rx="1.0" ry="1.0" style="stroke: null; stroke-width: 1.0; stroke-dasharray: 1.0,2.0;" width="309.0" x="486.75" y="15.5"/><rect fill="#5F5F5F" height="53.955078125" rx="1.0" ry="1.0" style="stroke: null; stroke-width: 1.0; stroke-dasharray: 1.0,2.0;" width="308.0" x="487.25" y="16.0"/><rect fill="#505050" height="52.955078125" rx="1.0" ry="1.0" style="stroke: null; stroke-width: 1.0; stroke-dasharray: 1.0,2.0;" width="307.0" x="487.75" y="16.5"/><rect fill="#FEFECE" height="60.955078125" style="stroke: #A80036; stroke-width: 1.5;" width="315.0" x="479.75" y="8.5"/><ellipse cx="562.5" cy="24.5" fill="#ADD1B2" rx="11.0" ry="11.0" style="stroke: #A80036; stroke-width: 1.0;"/><path d="M565.2031,20.4292 Q565.3691,20.1304 565.5435,20.0059 Q565.7178,19.8813 565.9834,19.8813 Q566.3901,19.8813 566.5603,20.0972 Q566.7305,20.313 566.7305,20.8359 L566.7471,22.9941 Q566.7471,23.5669 566.5603,23.7661 Q566.3735,23.9653 565.8838,23.9653 Q565.5352,23.9653 565.3484,23.7993 Q565.1616,23.6333 565.0288,23.1851 Q564.813,22.3965 564.3398,22.052 Q563.8667,21.7075 563.0283,21.7075 Q561.75,21.7075 561.0693,22.5708 Q560.3887,23.4341 560.3887,25.0693 Q560.3887,26.6963 561.0776,27.5679 Q561.7666,28.4395 563.0449,28.4395 Q563.9165,28.4395 564.9666,27.8584 Q566.0166,27.2773 566.2905,27.2773 Q566.6143,27.2773 566.8342,27.5513 Q567.0542,27.8252 567.0542,28.2319 Q567.0542,28.9624 565.7676,29.6099 Q564.481,30.2573 562.8706,30.2573 Q560.6958,30.2573 559.3511,28.8213 Q558.0063,27.3853 558.0063,25.0693 Q558.0063,22.8364 559.3677,21.3589 Q560.729,19.8813 562.8208,19.8813 Q563.4102,19.8813 563.9829,20.0142 Q564.5557,20.147 565.2031,20.4292 Z "/><text fill="#000000" font-size="12" lengthAdjust="spacingAndGlyphs" textLength="141.0" x="583.0" y="29.43359375">ResourceAdapterFactory</text><text fill="#000000" font-size="11" lengthAdjust="spacingAndGlyphs" textLength="303.0" x="485.75" y="63.5">get(absolute_resource_name : String) : ResourceAdapter</text><path d="M309,542.028 C309,566.339 309,592.363 309,613.7667 " fill="none" style="stroke: #A80036; stroke-width: 1.0; stroke-dasharray: 7.0,7.0;"/><polygon fill="#A80036" points="309.0,623.8749,313.5,613.8749,309.0,618.8749,309.0,613.8749,309.0,613.8749,309.0,613.8749,309.0,618.8749,304.5,613.8748,309.0,623.8749,309.0,623.8749" style="stroke: #A80036; stroke-width: 1.0;"/><path d="M199.339,246.105 C216.219,279.337 241.94,329.975 264.23,373.859 " fill="none" style="stroke: #A80036; stroke-width: 1.0; stroke-dasharray: 7.0,7.0;"/><polygon fill="#A80036" points="268.784,382.825,268.267,371.871,266.52,378.367,264.255,373.909,264.255,373.909,264.255,373.909,266.52,378.367,260.243,375.947,268.784,382.825,268.784,382.825" style="stroke: #A80036; stroke-width: 1.0;"/><path d="M555.379,273.46 C512.072,306.6 458.415,347.661 412.241,382.996 " fill="none" style="stroke: #A80036; stroke-width: 1.0;"/><polygon fill="#A80036" points="565.019,266.083,557.701875,266.39392499999997,555.4895,273.3755,562.8066249999999,273.06457499999993" style="stroke: #A80036; stroke-width: 1.0;"/><text fill="#000000" font-size="13" lengthAdjust="spacingAndGlyphs" textLength="32.0" x="492.0" y="329.0">topic</text><text fill="#000000" font-size="13" lengthAdjust="spacingAndGlyphs" textLength="8.0" x="529.67720625" y="287.97003564453127">1</text><text fill="#000000" font-size="13" lengthAdjust="spacingAndGlyphs" textLength="8.0" x="435.43664375" y="372.72408439941404">1</text><path d="M637,69.825 C637,90.32 637,118.336 637,143.861 " fill="none" style="stroke: #A80036; stroke-width: 1.0; stroke-dasharray: 7.0,7.0;"/><polygon fill="#A80036" points="637.0,153.87,641.5,143.87,637.0,148.87,637.0,143.87,637.0,143.87,637.0,143.87,637.0,148.87,632.5,143.87,637.0,153.87,637.0,153.87" style="stroke: #A80036; stroke-width: 1.0;"/><line style="stroke: #A80036; stroke-width: 1.5;" x1="235.75" x2="382.75" y1="656.0" y2="656.0"/><line style="stroke: #A80036; stroke-width: 1.0; stroke-dasharray: 1.0,2.0;" x1="235.75" x2="382.75" y1="676.955078125" y2="676.955078125"/><line style="stroke: #A80036; stroke-width: 1.5;" x1="160.0" x2="458.0" y1="415.0" y2="415.0"/><line style="stroke: #A80036; stroke-width: 1.0; stroke-dasharray: 1.0,2.0;" x1="160.0" x2="458.0" y1="461.865234375" y2="461.865234375"/><line style="stroke: #A80036; stroke-width: 1.0; stroke-dasharray: 1.0,2.0;" x1="160.0" x2="458.0" y1="495.775390625" y2="495.775390625"/><line style="stroke: #A80036; stroke-width: 1.5;" x1="6.0" x2="356.0" y1="204.0" y2="204.0"/><line style="stroke: #A80036; stroke-width: 1.5;" x1="6.0" x2="356.0" y1="212.0" y2="212.0"/><line style="stroke: #A80036; stroke-width: 1.5;" x1="417.0" x2="857.0" y1="186.0" y2="186.0"/><line style="stroke: #A80036; stroke-width: 1.0; stroke-dasharray: 1.0,2.0;" x1="417.0" x2="857.0" y1="245.8203125" y2="245.8203125"/><line style="stroke: #A80036; stroke-width: 1.5;" x1="479.75" x2="794.75" y1="40.5" y2="40.5"/><line style="stroke: #A80036; stroke-width: 1.5;" x1="479.75" x2="794.75" y1="48.5" y2="48.5"/></g></svg>