<?xml version="1.0" encoding="UTF-8" standalone="no"?>
<!-- Created with Inkscape (http://www.inkscape.org/) -->

<svg
   xmlns:svg="http://www.w3.org/2000/svg"
   xmlns="http://www.w3.org/2000/svg"
   xmlns:xlink="http://www.w3.org/1999/xlink"
   version="1.0"
   width="128"
   height="128"
   id="svg7429">
  <defs
     id="defs7431">
    <linearGradient
       id="linearGradient4862">
      <stop
         id="stop4864"
         style="stop-color:#ffffff;stop-opacity:1"
         offset="0" />
      <stop
         id="stop4866"
         style="stop-color:#ffffff;stop-opacity:0"
         offset="1" />
    </linearGradient>
    <linearGradient
       id="linearGradient3494">
      <stop
         id="stop3496"
         style="stop-color:#2e3436;stop-opacity:0.82474226"
         offset="0" />
      <stop
         id="stop3498"
         style="stop-color:#2e3436;stop-opacity:0"
         offset="1" />
    </linearGradient>
    <linearGradient
       id="linearGradient3506">
      <stop
         id="stop3508"
         style="stop-color:#555753;stop-opacity:1"
         offset="0" />
      <stop
         id="stop3510"
         style="stop-color:#555753;stop-opacity:0.22680412"
         offset="1" />
    </linearGradient>
    <filter
       color-interpolation-filters="sRGB"
       id="filter3974">
      <feGaussianBlur
         stdDeviation="0.56874997"
         id="feGaussianBlur3976" />
    </filter>
    <linearGradient
       id="linearGradient3161">
      <stop
         id="stop3163"
         style="stop-color:#d3d7cf;stop-opacity:1"
         offset="0" />
      <stop
         id="stop3165"
         style="stop-color:#bbc1b5;stop-opacity:1"
         offset="1" />
    </linearGradient>
    <linearGradient
       x1="23.334524"
       y1="-18.569054"
       x2="23.334524"
       y2="-4.1229234"
       id="linearGradient2430"
       xlink:href="#linearGradient3161"
       gradientUnits="userSpaceOnUse"
       gradientTransform="matrix(0.9999999,0,0,0.9375,3.0396233,-28.149694)" />
    <linearGradient
       x1="20.405081"
       y1="6.9878068"
       x2="20.405081"
       y2="9.1187258"
       id="linearGradient2432"
       xlink:href="#linearGradient3494"
       gradientUnits="userSpaceOnUse"
       gradientTransform="matrix(1.3246753,0,0,1.3246756,-4.9551548,-52.928592)" />
    <linearGradient
       x1="21.718279"
       y1="6.1796846"
       x2="21.718279"
       y2="10.010373"
       id="linearGradient2434"
       xlink:href="#linearGradient3506"
       gradientUnits="userSpaceOnUse"
       gradientTransform="matrix(1.3246753,0,0,1.3246756,-4.9551548,-52.928592)" />
    <linearGradient
       x1="20.405081"
       y1="6.9878068"
       x2="20.405081"
       y2="9.1187258"
       id="linearGradient2436"
       xlink:href="#linearGradient3494"
       gradientUnits="userSpaceOnUse"
       gradientTransform="matrix(1.3246753,0,0,1.3246756,0.04484516,-52.92859)" />
    <linearGradient
       x1="21.718279"
       y1="6.1796846"
       x2="21.718279"
       y2="10.010373"
       id="linearGradient2438"
       xlink:href="#linearGradient3506"
       gradientUnits="userSpaceOnUse"
       gradientTransform="matrix(1.3246753,0,0,1.3246756,0.04484516,-52.92859)" />
    <linearGradient
       x1="20.971928"
       y1="7.2287936"
       x2="29.019531"
       y2="32.576614"
       id="linearGradient2440"
       xlink:href="#linearGradient4862"
       gradientUnits="userSpaceOnUse"
       gradientTransform="translate(0.4609375,0.5859375)" />
  </defs>
  <g
     id="layer1">
    <g
       transform="matrix(2.1907663,0,0,2.1907663,11.351359,8.6860486)"
       id="g2414">
      <rect
         width="14.5"
         height="7.9696693"
         rx="0.55623782"
         ry="0.55615067"
         x="6.5"
         y="2.0303304"
         transform="matrix(1.12925,0,0,0.3575833,8.9728127,43.149425)"
         id="rect3891"
         style="opacity:0.19262294;fill:#000000;fill-opacity:1;stroke:#000000;stroke-width:0.98492777;stroke-linejoin:miter;stroke-miterlimit:4;stroke-opacity:1;stroke-dasharray:none;filter:url(#filter3974)" />
      <g
         id="g3883">
        <rect
           width="11.324758"
           height="9.5293684"
           rx="0.62499982"
           ry="0.625"
           x="18.960255"
           y="35.053764"
           id="rect4383"
           style="fill:#ffffff;fill-opacity:1;stroke:none" />
        <rect
           width="13.960377"
           height="14.930945"
           rx="0.56470513"
           ry="0.56470573"
           x="17.539623"
           y="-46.430946"
           transform="scale(1,-1)"
           id="rect3448"
           style="fill:url(#linearGradient2430);fill-opacity:1;stroke:#555753;stroke-width:0.9999997;stroke-linejoin:miter;stroke-miterlimit:4;stroke-opacity:1;stroke-dasharray:none" />
        <path
           d="m 19.039623,44.930945 11,0 0,-4.079151 -11,-0.851794 0,4.930945 z"
           id="path3562"
           style="opacity:0.3627959;fill:#eeeeec;fill-opacity:1;stroke:none" />
        <rect
           width="3.0787354"
           height="3.1132526"
           x="20.499622"
           y="-43.404442"
           transform="scale(1,-1)"
           id="rect3450"
           style="opacity:0.88172045;fill:url(#linearGradient2432);fill-opacity:1;stroke:url(#linearGradient2434);stroke-width:0.9199999;stroke-linejoin:miter;stroke-miterlimit:4;stroke-opacity:1;stroke-dasharray:none" />
        <rect
           width="11.960376"
           height="13.034528"
           x="18.539623"
           y="-45.430946"
           transform="scale(1,-1)"
           id="rect3458"
           style="opacity:0.71505372;fill:none;stroke:#eeeeec;stroke-width:0.99999976;stroke-linejoin:miter;stroke-miterlimit:4;stroke-opacity:1;stroke-dasharray:none" />
        <rect
           width="3.0787354"
           height="3.1132526"
           x="25.499622"
           y="-43.404442"
           transform="scale(1,-1)"
           id="rect2874"
           style="opacity:0.88172045;fill:url(#linearGradient2436);fill-opacity:1;stroke:url(#linearGradient2438);stroke-width:0.9199999;stroke-linejoin:miter;stroke-miterlimit:4;stroke-opacity:1;stroke-dasharray:none" />
      </g>
      <path
         d="m 24.51172,1.406659 c 4.946046,0 9.933671,1.6437865 9.93474,7.5150179 8.33e-4,4.5712981 0.06131,19.5587581 0.06131,26.9366951 0,0.90025 -0.724749,1.625001 -1.624999,1.625001 l -16.704253,0 c -0.90025,0 -1.625,-0.724751 -1.625,-1.625001 -0.02019,-7.402295 0.0026,-22.40494 0.01619,-26.984266 0.01755,-5.8621342 4.995719,-7.467447 9.942006,-7.467447 z"
         id="rect5391"
         style="fill:#3465a4;fill-opacity:1;stroke:#686a65;stroke-width:1;stroke-linecap:round;stroke-linejoin:round;stroke-miterlimit:4;stroke-opacity:1;display:inline" />
      <path
         d="m 15.461056,7.4816199 c 2.305873,-4.6315699 5.579788,-4.7499456 9.099308,-4.7085755 4.289881,-0.060026 8.05582,1.7297838 8.339643,5.2676456 -3.604443,4.137024 -7.202904,7.283507 -8.293324,12.083026 -1.349222,5.938646 -9.136462,16.462222 -9.136462,16.462222 0,0 0.01189,-27.5266441 -0.0092,-29.1043181 z"
         id="path6765"
         style="opacity:0.3;fill:url(#linearGradient2440);fill-opacity:1;stroke:none;display:inline" />
      <path
         d="m 24.51172,2.2855653 c 2.74878,0 8.957108,0.7648802 8.958177,6.6361116 8.33e-4,4.5712981 0.06131,18.6310241 0.06131,26.0089611 0,0.90025 0.03484,1.625001 -0.865412,1.625001 l -16.284604,0 c -0.90025,0 -0.899939,-0.724751 -0.899939,-1.625001 -0.02019,-7.402295 0.0026,-21.477206 0.01619,-26.056532 0.01755,-5.8621342 6.265058,-6.5885407 9.014272,-6.5885407 z"
         id="path3803"
         style="fill:none;stroke:#729fcf;stroke-width:1;stroke-linecap:round;stroke-linejoin:round;stroke-miterlimit:4;stroke-opacity:1;display:inline" />
      <path
         d="m 28.500346,14.5 c -0.995309,-0.948144 -2.371568,-1.530849 -3.879594,-1.530849 -1.508026,0 -2.884286,0.582705 -3.879595,1.530849"
         id="path3488"
         style="fill:none;stroke:#ffffff;stroke-width:1;stroke-linecap:round;stroke-linejoin:miter;stroke-miterlimit:4;stroke-opacity:1;stroke-dasharray:none;stroke-dashoffset:0;marker:none;visibility:visible;display:inline;overflow:visible" />
      <path
         d="m 29.804773,12.093686 c -1.32996,-1.266938 -3.168957,-2.045566 -5.184024,-2.045566 -2.015066,0 -3.854063,0.778628 -5.184022,2.045566"
         id="path3494"
         style="fill:none;stroke:#ffffff;stroke-width:1;stroke-linecap:round;stroke-linejoin:miter;stroke-miterlimit:4;stroke-opacity:1;stroke-dasharray:none;stroke-dashoffset:0;marker:none;visibility:visible;display:inline;overflow:visible" />
      <path
         d="M 31.646318,9.8415242 C 29.843909,8.1245273 27.351636,7.0693034 24.620747,7.0693034 c -2.730887,0 -5.223161,1.0552239 -7.025569,2.7722208"
         id="path3496"
         style="fill:none;stroke:#ffffff;stroke-width:1;stroke-linecap:round;stroke-linejoin:miter;stroke-miterlimit:4;stroke-opacity:1;stroke-dasharray:none;stroke-dashoffset:0;marker:none;visibility:visible;display:inline;overflow:visible" />
    </g>
  </g>
</svg>
