<?xml version="1.0" encoding="UTF-8" standalone="no"?>
<!-- Created with Inkscape (http://www.inkscape.org/) -->

<svg
   xmlns:svg="http://www.w3.org/2000/svg"
   xmlns="http://www.w3.org/2000/svg"
   xmlns:xlink="http://www.w3.org/1999/xlink"
   version="1.0"
   width="128"
   height="128"
   id="svg2108">
  <defs
     id="defs3">
    <linearGradient
       id="linearGradient4356">
      <stop
         id="stop4358"
         style="stop-color:#000000;stop-opacity:1"
         offset="0" />
      <stop
         id="stop4360"
         style="stop-color:#000000;stop-opacity:0"
         offset="1" />
    </linearGradient>
    <linearGradient
       id="linearGradient4344">
      <stop
         id="stop4346"
         style="stop-color:#727e0a;stop-opacity:1"
         offset="0" />
      <stop
         id="stop4348"
         style="stop-color:#5b6508;stop-opacity:1"
         offset="1" />
    </linearGradient>
    <linearGradient
       id="linearGradient4338">
      <stop
         id="stop4340"
         style="stop-color:#e9b15e;stop-opacity:1"
         offset="0" />
      <stop
         id="stop4342"
         style="stop-color:#966416;stop-opacity:1"
         offset="1" />
    </linearGradient>
    <linearGradient
       id="linearGradient3816">
      <stop
         id="stop3818"
         style="stop-color:#000000;stop-opacity:1"
         offset="0" />
      <stop
         id="stop3820"
         style="stop-color:#000000;stop-opacity:0"
         offset="1" />
    </linearGradient>
    <radialGradient
       cx="31.112698"
       cy="19.008621"
       r="8.6620579"
       fx="31.112698"
       fy="19.008621"
       id="radialGradient4179"
       xlink:href="#linearGradient3816"
       gradientUnits="userSpaceOnUse" />
    <radialGradient
       cx="31.112698"
       cy="19.008621"
       r="8.6620579"
       fx="31.112698"
       fy="19.008621"
       id="radialGradient2339"
       xlink:href="#linearGradient3816"
       gradientUnits="userSpaceOnUse" />
    <radialGradient
       cx="29.344931"
       cy="17.064077"
       r="9.1620579"
       fx="29.344931"
       fy="17.064077"
       id="radialGradient2341"
       xlink:href="#linearGradient4338"
       gradientUnits="userSpaceOnUse"
       gradientTransform="matrix(0.787998,0,0,0.787998,6.221198,3.617627)" />
    <linearGradient
       x1="20.661695"
       y1="35.817974"
       x2="22.626925"
       y2="36.217758"
       id="linearGradient2374"
       xlink:href="#linearGradient4356"
       gradientUnits="userSpaceOnUse"
       gradientTransform="matrix(2.8512357,0.5265033,-0.5265033,2.8512357,-8.70906,-27.407511)" />
    <radialGradient
       cx="16.214741"
       cy="19.836468"
       r="13.56536"
       fx="16.214741"
       fy="19.836468"
       id="radialGradient2383"
       xlink:href="#linearGradient4344"
       gradientUnits="userSpaceOnUse"
       gradientTransform="matrix(2.8994389,0,0,1.9771767,11.79611,24.952566)" />
    <linearGradient
       x1="20.661695"
       y1="35.817974"
       x2="22.626925"
       y2="36.217758"
       id="linearGradient2387"
       xlink:href="#linearGradient4356"
       gradientUnits="userSpaceOnUse"
       gradientTransform="matrix(-2.8512357,0.5265033,0.5265033,2.8512357,133.59163,-26.137463)" />
    <linearGradient
       id="linearGradient5048">
      <stop
         id="stop5050"
         style="stop-color:#000000;stop-opacity:0"
         offset="0" />
      <stop
         id="stop5056"
         style="stop-color:#000000;stop-opacity:1"
         offset="0.5" />
      <stop
         id="stop5052"
         style="stop-color:#000000;stop-opacity:0"
         offset="1" />
    </linearGradient>
    <linearGradient
       id="linearGradient5060">
      <stop
         id="stop5062"
         style="stop-color:#000000;stop-opacity:1"
         offset="0" />
      <stop
         id="stop5064"
         style="stop-color:#000000;stop-opacity:0"
         offset="1" />
    </linearGradient>
    <linearGradient
       x1="13.357142"
       y1="14.428571"
       x2="42.214283"
       y2="28.428572"
       id="linearGradient2582"
       xlink:href="#linearGradient2526"
       gradientUnits="userSpaceOnUse"
       gradientTransform="translate(0,0.785718)" />
    <linearGradient
       x1="6.7857146"
       y1="30.785713"
       x2="42.214283"
       y2="30.785713"
       id="linearGradient2569"
       xlink:href="#linearGradient2563"
       gradientUnits="userSpaceOnUse"
       gradientTransform="translate(0,0.785718)" />
    <linearGradient
       id="linearGradient2526">
      <stop
         id="stop2528"
         style="stop-color:#e7ebeb;stop-opacity:1"
         offset="0" />
      <stop
         id="stop2534"
         style="stop-color:#e6ebeb;stop-opacity:1"
         offset="0.5" />
      <stop
         id="stop2530"
         style="stop-color:#ffffff;stop-opacity:1"
         offset="1" />
    </linearGradient>
    <linearGradient
       id="linearGradient2563">
      <stop
         id="stop2565"
         style="stop-color:#e2e2e2;stop-opacity:1"
         offset="0" />
      <stop
         id="stop2567"
         style="stop-color:#9f9f9f;stop-opacity:1"
         offset="1" />
    </linearGradient>
    <linearGradient
       x1="302.85715"
       y1="366.64789"
       x2="302.85715"
       y2="609.50507"
       id="linearGradient6834"
       xlink:href="#linearGradient5048"
       gradientUnits="userSpaceOnUse"
       gradientTransform="matrix(2.774389,0,0,1.969706,-1892.179,-872.8854)" />
    <radialGradient
       cx="605.71429"
       cy="486.64789"
       r="117.14286"
       fx="605.71429"
       fy="486.64789"
       id="radialGradient6836"
       xlink:href="#linearGradient5060"
       gradientUnits="userSpaceOnUse"
       gradientTransform="matrix(2.774389,0,0,1.969706,-1891.633,-872.8854)" />
    <radialGradient
       cx="605.71429"
       cy="486.64789"
       r="117.14286"
       fx="605.71429"
       fy="486.64789"
       id="radialGradient6838"
       xlink:href="#linearGradient5060"
       gradientUnits="userSpaceOnUse"
       gradientTransform="matrix(-2.774389,0,0,1.969706,112.7623,-872.8854)" />
  </defs>
  <g
     id="layer1"
     style="display:inline" />
  <g
     id="layer2"
     style="display:inline">
    <path
       d="m 39.774755,19.008621 a 8.6620579,8.6620579 0 1 1 -17.324115,0 8.6620579,8.6620579 0 1 1 17.324115,0 z"
       transform="matrix(5.1479827,0,0,1.6932259,-96.037255,70.585083)"
       id="path4306"
       style="fill:url(#radialGradient4179);fill-opacity:1;fill-rule:evenodd;stroke:none;stroke-width:1px;marker:none;visibility:visible;display:inline;overflow:visible" />
    <path
       d="m 49.0863,101.50432 30.7532,0 c 8.7134,0 17.34004,-3.194983 20.50212,-12.301276 3.00278,-8.647507 0.51256,-25.115108 -18.96446,-38.441492 l -36.39128,0 C 25.50885,63.062828 23.07484,79.885926 27.55907,89.715595 32.12741,99.729647 39.86034,101.50432 49.0863,101.50432 z"
       id="path2329"
       style="fill:url(#radialGradient2383);fill-opacity:1;fill-rule:evenodd;stroke:#404604;stroke-width:2.89943886px;stroke-linecap:round;stroke-linejoin:round;stroke-miterlimit:4;stroke-opacity:1;stroke-dasharray:none;stroke-dashoffset:0;marker:none;visibility:visible;display:inline;overflow:visible" />
    <path
       d="m 63.78992,58.449852 c 0,0 -6.23763,4.81404 -5.70028,10.613492 -5.91841,-5.221292 -6.08845,-15.226473 -6.08845,-15.226473 l 11.78873,4.612981 z"
       id="path3812"
       style="fill:#9db029;fill-opacity:1;fill-rule:evenodd;stroke:none;stroke-width:1px;marker:none;visibility:visible;display:inline;overflow:visible" />
    <path
       d="m 49.39209,98.41873 29.91256,0 c 7.65371,0 15.23122,-2.806422 18.00874,-10.805243 2.63758,-7.595834 -0.27465,-22.060711 -17.38295,-33.766392 l -33.41524,0 C 29.4069,64.652338 26.54404,79.429479 30.48291,88.063703 34.49567,96.859888 41.28816,98.41873 49.39209,98.41873 z"
       id="path3838"
       style="opacity:0.21518986;fill:none;stroke:#ffffff;stroke-width:2.89943814px;stroke-linecap:round;stroke-linejoin:round;stroke-miterlimit:4;stroke-opacity:1;stroke-dasharray:none;stroke-dashoffset:0;marker:none;visibility:visible;display:inline;overflow:visible" />
    <path
       d="m 64.62681,59.449852 c 0,0 6.23763,4.81404 5.70027,10.613492 5.91841,-5.221292 6.08845,-15.226473 6.08845,-15.226473 l -11.78872,4.612981 z"
       id="path3810"
       style="fill:#9db029;fill-opacity:1;fill-rule:evenodd;stroke:none;stroke-width:1px;marker:none;visibility:visible;display:inline;overflow:visible" />
    <path
       d="m 39.774755,19.008621 a 8.6620579,8.6620579 0 1 1 -17.324115,0 8.6620579,8.6620579 0 1 1 17.324115,0 z"
       transform="matrix(2.8994389,0,0,2.8994389,-26.62145,-9.068792)"
       id="path3814"
       style="fill:url(#radialGradient2339);fill-opacity:1;fill-rule:evenodd;stroke:none;stroke-width:1px;marker:none;visibility:visible;display:inline;overflow:visible" />
    <path
       d="m 39.774755,19.008621 a 8.6620579,8.6620579 0 1 1 -17.324115,0 8.6620579,8.6620579 0 1 1 17.324115,0 z"
       transform="matrix(2.8994389,0,0,2.8994389,-26.25902,-19.216828)"
       id="path2327"
       style="fill:url(#radialGradient2341);fill-opacity:1;fill-rule:evenodd;stroke:#6f4709;stroke-width:1px;stroke-linecap:round;stroke-linejoin:round;stroke-miterlimit:4;stroke-opacity:1;stroke-dasharray:none;stroke-dashoffset:0;marker:none;visibility:visible;display:inline;overflow:visible" />
    <path
       d="m 39.774755,19.008621 a 8.6620579,8.6620579 0 1 1 -17.324115,0 8.6620579,8.6620579 0 1 1 17.324115,0 z"
       transform="matrix(2.5430833,0,0,2.5430833,-15.17178,-12.442965)"
       id="path3834"
       style="opacity:0.12658231;fill:none;stroke:#ffffff;stroke-width:1.14012825px;stroke-linecap:round;stroke-linejoin:round;stroke-miterlimit:4;stroke-opacity:1;stroke-dasharray:none;stroke-dashoffset:0;marker:none;visibility:visible;display:inline;overflow:visible" />
    <path
       d="m 36.58038,98.505455 c -3.61736,-1.580104 -5.23637,-5.38796 -5.23637,-5.38796 2.43925,-11.798211 10.7857,-20.430073 10.7857,-20.430073 0,0 -6.60875,18.589793 -5.54933,25.818033 z"
       id="path4368"
       style="opacity:0.22784807;fill:url(#linearGradient2374);fill-opacity:1;fill-rule:evenodd;stroke:none;stroke-width:1px;marker:none;visibility:visible;display:inline;overflow:visible" />
    <path
       d="m 88.302187,99.7755 c 3.61736,-1.5801 5.23637,-5.38796 5.23637,-5.38796 -2.43925,-11.79821 -10.7857,-20.43007 -10.7857,-20.43007 0,0 6.60875,18.58979 5.54933,25.81803 z"
       id="path2385"
       style="opacity:0.22784807;fill:url(#linearGradient2387);fill-opacity:1;fill-rule:evenodd;stroke:none;stroke-width:1px;marker:none;visibility:visible;display:inline;overflow:visible" />
    <g
       transform="matrix(1.349036,0,0,1.349036,0.03860856,61.125151)"
       id="g6811">
      <g
         transform="matrix(0.02294847,0,0,0.02276812,44.75587,36.74254)"
         id="g6813">
        <rect
           width="1339.6335"
           height="478.35718"
           x="-1559.2523"
           y="-150.69685"
           id="rect6815"
           style="opacity:0.40206185;fill:url(#linearGradient6834);fill-opacity:1;fill-rule:nonzero;stroke:none;stroke-width:1;marker:none;visibility:visible;display:inline;overflow:visible" />
        <path
           d="m -219.61876,-150.68038 c 0,0 0,478.33079 0,478.33079 142.874166,0.90045 345.40022,-107.16966 345.40014,-239.196175 0,-132.026537 -159.436816,-239.134595 -345.40014,-239.134615 z"
           id="path6817"
           style="opacity:0.40206185;fill:url(#radialGradient6836);fill-opacity:1;fill-rule:nonzero;stroke:none;stroke-width:1;marker:none;visibility:visible;display:inline;overflow:visible" />
        <path
           d="m -1559.2523,-150.68038 c 0,0 0,478.33079 0,478.33079 -142.8742,0.90045 -345.4002,-107.16966 -345.4002,-239.196175 0,-132.026537 159.4368,-239.134595 345.4002,-239.134615 z"
           id="path6819"
           style="opacity:0.40206185;fill:url(#radialGradient6838);fill-opacity:1;fill-rule:nonzero;stroke:none;stroke-width:1;marker:none;visibility:visible;display:inline;overflow:visible" />
      </g>
      <path
         d="m 4.857143,38.428571 c -0.2142858,1 0.6071429,2.035714 1.9642857,2 l 36.1785713,0 c 1.285714,-0.03571 1.714286,-1.214286 1.428572,-2.178572 l -7.857143,-28.8214277 -26,0 -5.714286,28.9999997 z"
         id="path1316"
         style="fill:#a7a7a7;fill-opacity:1;fill-rule:evenodd;stroke:#656565;stroke-width:1px;stroke-linecap:butt;stroke-linejoin:miter;stroke-opacity:1" />
      <path
         d="m 9.162504,30.806458 30.232591,0 c 0.857202,0 1.547297,0.672286 1.547297,1.507367 l 1.327188,4.800935 c 0,0.835081 -0.690094,1.507367 -1.547297,1.507367 l -32.4445716,0 c -0.8572026,0 -1.5472972,-0.672286 -1.5472972,-1.507367 l 0.8847926,-4.800935 c 0,-0.835081 0.6900946,-1.507367 1.5472972,-1.507367 z"
         id="path2575"
         style="opacity:0.10857143;fill:#000000;fill-opacity:1;fill-rule:evenodd;stroke:#000000;stroke-width:0.99999958;stroke-linecap:butt;stroke-linejoin:miter;stroke-miterlimit:4;stroke-opacity:1;stroke-dasharray:none;stroke-dashoffset:0;marker:none;visibility:visible;display:inline;overflow:visible;font-family:Bitstream Vera Sans" />
      <path
         d="m 6.0478436,37.805569 c -0.1998613,0.932686 -0.3986473,1.579658 0.474919,1.579658 l 36.3146764,0 c 0.916057,0 0.741748,-0.73969 0.475266,-1.639066 l -7.542533,-27.2742 -24.249836,0 -5.4724924,27.333608 z"
         id="path2520"
         style="fill:none;stroke:#ffffff;stroke-width:0.9999997px;stroke-linecap:butt;stroke-linejoin:miter;stroke-opacity:0.3446328" />
      <path
         d="m 9.6418018,29.928574 29.2878242,0 c 0.830415,0 1.498944,0.651277 1.498944,1.460261 l 1.285714,4.650907 c 0,0.808984 -0.668529,1.460261 -1.498944,1.460261 l -31.4306811,0 c -0.8304151,0 -1.4989443,-0.651277 -1.4989443,-1.460261 l 0.8571429,-4.650907 c 0,-0.808984 0.6685292,-1.460261 1.4989443,-1.460261 z"
         id="path2518"
         style="fill:#c5c5c5;fill-opacity:1;fill-rule:evenodd;stroke:#696969;stroke-width:0.99999964;stroke-linecap:butt;stroke-linejoin:miter;stroke-miterlimit:4;stroke-opacity:1;stroke-dasharray:none;stroke-dashoffset:0;marker:none;visibility:visible;display:inline;overflow:visible;font-family:Bitstream Vera Sans" />
      <path
         d="m 9.6418018,27.785717 29.2878242,0 c 0.830415,0 1.498944,0.651277 1.498944,1.460261 l 1.285714,4.650907 c 0,0.808984 -0.668529,1.460261 -1.498944,1.460261 l -31.4306811,0 c -0.8304151,0 -1.4989443,-0.651277 -1.4989443,-1.460261 l 0.8571429,-4.650907 c 0,-0.808984 0.6685292,-1.460261 1.4989443,-1.460261 z"
         id="rect2225"
         style="fill:url(#linearGradient2569);fill-opacity:1;fill-rule:evenodd;stroke:#696969;stroke-width:0.99999964;stroke-linecap:butt;stroke-linejoin:miter;stroke-miterlimit:4;stroke-opacity:1;stroke-dashoffset:0;marker:none;visibility:visible;display:inline;overflow:visible" />
      <g
         transform="matrix(0.942549,0,0,0.942549,-0.222619,1.85586)"
         id="g2578">
        <path
           d="M 10.891973,11.500004 6.5714281,33.21429 c 0,0 26.2857149,1e-6 26.2857149,1e-6 12.584832,0 15.228163,-4.000001 15.228163,-4.000001 0,0 -3.357142,-1.178571 -4.785713,-6.142857 0,0 -3.060953,-11.571429 -3.060953,-11.571429 l -29.346667,0 z"
           id="path2524"
           style="fill:url(#linearGradient2582);fill-opacity:1;fill-rule:evenodd;stroke:#696969;stroke-width:1.06095243px;stroke-linecap:butt;stroke-linejoin:miter;stroke-opacity:1" />
        <path
           d="M 11.803734,12.474609 7.8122567,32.239668 c 0,0 17.1442613,10e-7 24.4261253,10e-7 11.226639,0 14.110429,-2.850865 14.110429,-2.850865 0,0 -2.99306,-1.862842 -4.293392,-6.381499 0,0 -2.738563,-10.461267 -2.738563,-10.461267 l -27.513122,-0.07143 z"
           id="path2571"
           style="fill:none;stroke:#ffffff;stroke-width:1.06095195px;stroke-linecap:butt;stroke-linejoin:miter;stroke-opacity:1" />
      </g>
      <path
         d="m 11.315699,7.4285707 25.178816,0 c 0.873117,0 1.576024,0.6687707 1.576024,1.4994859 l 0.357143,2.1438854 c 0,0.830715 -0.702907,1.499486 -1.576024,1.499486 l -25.893102,0 c -0.873117,0 -1.5760237,-0.668771 -1.5760237,-1.499486 L 9.7396752,8.9280566 c 0,-0.8307152 0.7029068,-1.4994859 1.5760238,-1.4994859 z"
         id="rect2522"
         style="fill:#9b9b9b;fill-opacity:1;fill-rule:evenodd;stroke:#696969;stroke-width:0.99999952;stroke-linecap:butt;stroke-linejoin:miter;stroke-miterlimit:4;stroke-opacity:1;stroke-dashoffset:0;marker:none;visibility:visible;display:inline;overflow:visible" />
      <path
         d="m 20.969159,22.39302 c 0.988415,0.09376 1.722384,0.372403 2.201904,0.835941 0.480118,0.45834 0.677991,1.044278 0.593617,1.757818 -0.12381,1.04688 -0.688772,1.890633 -1.694884,2.531258 -1.006129,0.640628 -2.30754,0.96094 -3.904237,0.960941 -1.225818,-1e-6 -2.259114,-0.192709 -3.099891,-0.578127 l 0.240212,-2.031257 c 0.883441,0.609379 1.887779,0.914067 3.013017,0.914066 0.898927,10e-7 1.607657,-0.145832 2.126195,-0.437501 0.519141,-0.296875 0.810435,-0.713542 0.873883,-1.250005 0.06651,-0.562498 -0.142564,-0.973957 -0.627231,-1.234379 -0.484681,-0.260413 -1.292778,-0.390621 -2.424294,-0.390626 l -1.272962,0 0.206952,-1.750005 1.357826,0 c 0.892639,6e-6 1.590709,-0.135411 2.094211,-0.406252 0.504105,-0.276035 0.786032,-0.666661 0.845785,-1.171879 0.05604,-0.473951 -0.09073,-0.85416 -0.440302,-1.140628 -0.349591,-0.28645 -0.904699,-0.42968 -1.665326,-0.429689 -0.961798,9e-6 -1.903418,0.28126 -2.824862,0.843752 l 0.23005,-1.945318 c 1.032386,-0.437491 2.189775,-0.656241 3.472171,-0.656252 1.238381,1.1e-5 2.188543,0.257824 2.850491,0.773439 0.668216,0.515637 0.954902,1.174493 0.860059,1.976569 -0.08809,0.744803 -0.383313,1.354179 -0.885674,1.828131 -0.501765,0.468758 -1.210668,0.802092 -2.12671,1.000003"
         id="text2541"
         style="font-size:17.57787704px;font-style:normal;font-variant:normal;font-weight:bold;font-stretch:normal;line-height:100%;writing-mode:lr-tb;text-anchor:start;fill:#000000;fill-opacity:1;stroke:none;font-family:Segoe" />
      <path
         d="m 33.007379,28.45554 -2.508206,0 -1.111298,-9.359406 -3.092502,0.796878 -0.208716,-1.757818 5.54134,-1.29688 1.379382,11.617226"
         id="text2545"
         style="font-size:17.57787704px;font-style:normal;font-variant:normal;font-weight:bold;font-stretch:normal;line-height:100%;writing-mode:lr-tb;text-anchor:start;fill:#000000;fill-opacity:1;stroke:none;font-family:Segoe" />
      <path
         d="m 12.857143,9.9285717 a 1.357143,1.357143 0 1 1 -2.714286,0 1.357143,1.357143 0 1 1 2.714286,0 z"
         transform="matrix(0.684211,0,0,0.684211,3.560154,2.278197)"
         id="path2559"
         style="opacity:0.52571429;fill:#fefefe;fill-opacity:1;fill-rule:evenodd;stroke:none;stroke-width:0.99999964;marker:none;visibility:visible;display:inline;overflow:visible" />
      <path
         d="m 13.042053,8.6010151 23.329256,0"
         id="path2561"
         style="opacity:0.3028571;fill:none;stroke:#ffffff;stroke-width:1.00000012px;stroke-linecap:round;stroke-linejoin:miter;stroke-opacity:1" />
    </g>
  </g>
</svg>
