<?xml version="1.0" encoding="UTF-8" standalone="no"?>
<!-- Created with Inkscape (http://www.inkscape.org/) -->

<svg
   xmlns:svg="http://www.w3.org/2000/svg"
   xmlns="http://www.w3.org/2000/svg"
   xmlns:xlink="http://www.w3.org/1999/xlink"
   version="1.0"
   width="128"
   height="128"
   id="svg2108">
  <defs
     id="defs3">
    <linearGradient
       id="linearGradient20210">
      <stop
         id="stop20212"
         style="stop-color:#000000;stop-opacity:0.51546389"
         offset="0" />
      <stop
         id="stop20218"
         style="stop-color:#000000;stop-opacity:0.14432989"
         offset="0.55172414" />
      <stop
         id="stop20214"
         style="stop-color:#000000;stop-opacity:0"
         offset="1" />
    </linearGradient>
    <linearGradient
       id="linearGradient2254">
      <stop
         id="stop2256"
         style="stop-color:#ffffff;stop-opacity:1"
         offset="0" />
      <stop
         id="stop2258"
         style="stop-color:#ffffff;stop-opacity:0"
         offset="1" />
    </linearGradient>
    <linearGradient
       id="linearGradient5060">
      <stop
         id="stop5062"
         style="stop-color:#000000;stop-opacity:1"
         offset="0" />
      <stop
         id="stop5064"
         style="stop-color:#000000;stop-opacity:0"
         offset="1" />
    </linearGradient>
    <linearGradient
       id="linearGradient5048">
      <stop
         id="stop5050"
         style="stop-color:#000000;stop-opacity:0"
         offset="0" />
      <stop
         id="stop5056"
         style="stop-color:#000000;stop-opacity:1"
         offset="0.5" />
      <stop
         id="stop5052"
         style="stop-color:#000000;stop-opacity:0"
         offset="1" />
    </linearGradient>
    <radialGradient
       cx="14.772334"
       cy="74.20993"
       r="7.8289828"
       fx="14.772334"
       fy="74.20993"
       id="radialGradient8165"
       xlink:href="#linearGradient20210"
       gradientUnits="userSpaceOnUse"
       gradientTransform="matrix(8.434833,0,0,1.6573179,-62.896089,-18.583678)" />
    <linearGradient
       x1="302.85715"
       y1="366.64789"
       x2="302.85715"
       y2="609.50507"
       id="linearGradient8238"
       xlink:href="#linearGradient5048"
       gradientUnits="userSpaceOnUse"
       gradientTransform="matrix(2.774389,0,0,1.969706,-1892.179,-872.8854)" />
    <radialGradient
       cx="605.71429"
       cy="486.64789"
       r="117.14286"
       fx="605.71429"
       fy="486.64789"
       id="radialGradient8240"
       xlink:href="#linearGradient5060"
       gradientUnits="userSpaceOnUse"
       gradientTransform="matrix(2.774389,0,0,1.969706,-1891.633,-872.8854)" />
    <radialGradient
       cx="605.71429"
       cy="486.64789"
       r="117.14286"
       fx="605.71429"
       fy="486.64789"
       id="radialGradient8242"
       xlink:href="#linearGradient5060"
       gradientUnits="userSpaceOnUse"
       gradientTransform="matrix(-2.774389,0,0,1.969706,112.7623,-872.8854)" />
    <radialGradient
       cx="29.913452"
       cy="30.442923"
       r="4.001883"
       fx="29.913452"
       fy="30.442923"
       id="radialGradient10485"
       xlink:href="#linearGradient2254"
       gradientUnits="userSpaceOnUse"
       gradientTransform="matrix(3.0708221,0,0,2.5766766,46.58453,-43.148563)" />
    <radialGradient
       cx="29.913452"
       cy="30.442923"
       r="4.001883"
       fx="29.913452"
       fy="30.442923"
       id="radialGradient5782"
       xlink:href="#linearGradient2254"
       gradientUnits="userSpaceOnUse"
       gradientTransform="matrix(3.0708221,0,0,2.5766766,46.58453,-43.148563)" />
    <radialGradient
       cx="29.913452"
       cy="30.442923"
       r="4.001883"
       fx="29.913452"
       fy="30.442923"
       id="radialGradient5792"
       xlink:href="#linearGradient2254"
       gradientUnits="userSpaceOnUse"
       gradientTransform="matrix(3.0708221,0,0,2.5766766,46.58453,-43.148563)" />
    <radialGradient
       cx="29.913452"
       cy="30.442923"
       r="4.001883"
       fx="29.913452"
       fy="30.442923"
       id="radialGradient5802"
       xlink:href="#linearGradient2254"
       gradientUnits="userSpaceOnUse"
       gradientTransform="matrix(3.0708221,0,0,2.5766766,46.58453,-43.148563)" />
    <radialGradient
       cx="29.913452"
       cy="30.442923"
       r="4.001883"
       fx="29.913452"
       fy="30.442923"
       id="radialGradient5880"
       xlink:href="#linearGradient2254"
       gradientUnits="userSpaceOnUse"
       gradientTransform="matrix(3.0708221,0,0,2.5766766,46.58453,-43.148563)" />
    <radialGradient
       cx="29.913452"
       cy="30.442923"
       r="4.001883"
       fx="29.913452"
       fy="30.442923"
       id="radialGradient5882"
       xlink:href="#linearGradient2254"
       gradientUnits="userSpaceOnUse"
       gradientTransform="matrix(3.0708221,0,0,2.5766766,46.58453,-43.148563)" />
    <radialGradient
       cx="29.913452"
       cy="30.442923"
       r="4.001883"
       fx="29.913452"
       fy="30.442923"
       id="radialGradient5884"
       xlink:href="#linearGradient2254"
       gradientUnits="userSpaceOnUse"
       gradientTransform="matrix(3.0708221,0,0,2.5766766,46.58453,-43.148563)" />
    <radialGradient
       cx="29.913452"
       cy="30.442923"
       r="4.001883"
       fx="29.913452"
       fy="30.442923"
       id="radialGradient5886"
       xlink:href="#linearGradient2254"
       gradientUnits="userSpaceOnUse"
       gradientTransform="matrix(3.0708221,0,0,2.5766766,46.58453,-43.148563)" />
    <radialGradient
       cx="29.913452"
       cy="30.442923"
       r="4.001883"
       fx="29.913452"
       fy="30.442923"
       id="radialGradient5953"
       xlink:href="#linearGradient2254"
       gradientUnits="userSpaceOnUse"
       gradientTransform="matrix(4.0282167,0,0,5.7533935,-89.497634,-106.58108)" />
    <radialGradient
       cx="29.913452"
       cy="30.442923"
       r="4.001883"
       fx="29.913452"
       fy="30.442923"
       id="radialGradient5957"
       xlink:href="#linearGradient2254"
       gradientUnits="userSpaceOnUse"
       gradientTransform="matrix(3.0708221,0,0,2.5766766,46.58453,-43.148563)" />
  </defs>
  <g
     id="g3252">
    <path
       d="m 127.74222,104.40581 c 0,7.16596 -29.56539,12.97512 -66.036151,12.97512 -36.470761,0 -66.0361518,-5.80916 -66.0361518,-12.97512 0,-7.16596 29.5653908,-12.975113 66.0361518,-12.975113 36.470761,0 66.036151,5.809153 66.036151,12.975113 z"
       id="path20208"
       style="opacity:0.8;fill:url(#radialGradient8165);fill-opacity:1;fill-rule:nonzero;stroke:none;stroke-width:2;marker:none;visibility:visible;display:inline;overflow:visible" />
    <path
       d="m 126.96356,80.842102 c 0.006,15.743217 -28.185363,28.507108 -62.963561,28.507108 -34.778198,0 -62.9697594,-12.763891 -62.963561,-28.507108 -0.0062,-15.743217 28.185363,-28.507104 62.963561,-28.507104 34.778198,0 62.969761,12.763887 62.963561,28.507104 l 0,0 z"
       transform="matrix(0.9965912,0,0,0.8879244,0.2181598,6.339786)"
       id="path7049"
       style="fill:#727e0a;fill-opacity:1;fill-rule:nonzero;stroke:#404604;stroke-width:1.5;stroke-linecap:round;stroke-linejoin:round;stroke-miterlimit:4;stroke-opacity:1;stroke-dasharray:none;stroke-dashoffset:0;marker:none;visibility:visible;display:inline;overflow:visible;enable-background:accumulate" />
    <g
       id="layer1"
       style="display:inline" />
    <g
       transform="matrix(0.05218049,0,0,0.02404604,111.40442,83.030952)"
       id="g7202"
       style="display:inline">
      <rect
         width="1339.6335"
         height="478.35718"
         x="-1559.2523"
         y="-150.69685"
         id="rect7204"
         style="opacity:0.40206185;fill:url(#linearGradient8238);fill-opacity:1;fill-rule:nonzero;stroke:none;stroke-width:1;marker:none;visibility:visible;display:inline;overflow:visible" />
      <path
         d="m -219.61876,-150.68038 c 0,0 0,478.33079 0,478.33079 142.874166,0.90045 345.40022,-107.16966 345.40014,-239.196175 0,-132.026537 -159.436816,-239.134595 -345.40014,-239.134615 z"
         id="path7206"
         style="opacity:0.40206185;fill:url(#radialGradient8240);fill-opacity:1;fill-rule:nonzero;stroke:none;stroke-width:1;marker:none;visibility:visible;display:inline;overflow:visible" />
      <path
         d="m -1559.2523,-150.68038 c 0,0 0,478.33079 0,478.33079 -142.8742,0.90045 -345.4002,-107.16966 -345.4002,-239.196175 0,-132.026537 159.4368,-239.134595 345.4002,-239.134615 z"
         id="path7208"
         style="opacity:0.40206185;fill:url(#radialGradient8242);fill-opacity:1;fill-rule:nonzero;stroke:none;stroke-width:1;marker:none;visibility:visible;display:inline;overflow:visible" />
    </g>
    <rect
       width="86.692299"
       height="57.816307"
       rx="0.74524319"
       ry="0.2132891"
       x="22.680233"
       y="27.118233"
       id="rect10235"
       style="fill:#eeeeee;fill-opacity:1;fill-rule:nonzero;stroke:#aaaaaa;stroke-width:2;stroke-linecap:round;stroke-linejoin:round;stroke-miterlimit:4;stroke-opacity:1;stroke-dasharray:none;stroke-dashoffset:0;marker:none;visibility:visible;display:inline;overflow:visible;enable-background:accumulate" />
    <rect
       width="11.721827"
       height="18.914438"
       rx="0"
       ry="0"
       x="26.595551"
       y="65.424042"
       id="rect15901"
       style="fill:#d9bb7a;fill-opacity:1;fill-rule:nonzero;stroke:#666666;stroke-width:0.83734936;stroke-linecap:round;stroke-linejoin:round;stroke-miterlimit:4;stroke-opacity:1;stroke-dasharray:none;stroke-dashoffset:0;marker:none;visibility:visible;display:inline;overflow:visible;enable-background:accumulate" />
    <path
       d="m 26.425881,37.926121 79.538729,0"
       id="path10265"
       style="fill:#888888;fill-rule:evenodd;stroke:#aaaaaa;stroke-width:0.96050024;stroke-linecap:butt;stroke-linejoin:miter;stroke-miterlimit:4;stroke-opacity:1;stroke-dasharray:none" />
    <path
       d="m 26.930489,54.560082 79.204981,0"
       id="path10481"
       style="fill:#816647;fill-rule:evenodd;stroke:#aaaaaa;stroke-width:0.95848292;stroke-linecap:butt;stroke-linejoin:miter;stroke-miterlimit:4;stroke-opacity:1;stroke-dasharray:none" />
    <g
       transform="translate(129.25553,-1.5605821)"
       id="g15805"
       style="display:inline" />
    <g
       id="g5862">
      <g
         transform="matrix(1.1728767,0,0,1.1728767,-114.08543,25.921191)"
         id="g10465">
        <path
           d="m 135.89863,33.326889 7.39977,0 c 0.63078,0 1.13859,0.50781 1.13859,1.138589 l -0.007,7.431884 c 0,0.630778 -0.48812,1.036271 -1.1189,1.036271 l -7.41294,0 c -0.63078,0 -1.13859,-0.507812 -1.13859,-1.138591 l 0,-7.329564 c 0,-0.630779 0.50781,-1.138589 1.13859,-1.138589 z"
           id="path10467"
           style="opacity:0.31818183;fill:none;stroke:#ffffff;stroke-width:0.81855905;stroke-linecap:butt;stroke-linejoin:miter;stroke-miterlimit:4;stroke-opacity:1;stroke-dashoffset:0;marker:none;visibility:visible;display:inline;overflow:visible" />
        <rect
           width="8.1866875"
           height="8.1548634"
           rx="0.31210217"
           ry="0.31210217"
           x="135.41202"
           y="33.977177"
           id="rect10469"
           style="fill:#3465a4;fill-opacity:1;fill-rule:nonzero;stroke:#757575;stroke-width:0.81855911;stroke-linecap:butt;stroke-linejoin:miter;stroke-miterlimit:4;stroke-opacity:1;stroke-dasharray:none;stroke-dashoffset:0;marker:none;visibility:visible;display:inline;overflow:visible" />
        <path
           d="m 135.90263,38.801773 c 2.96153,0.271089 4.52477,-1.183395 7.25911,-1.27101 l 0.0202,-3.151038 -7.29468,-0.0049 0.0153,4.426984 z"
           id="path10471"
           style="opacity:0.39772728;fill:url(#radialGradient10485);fill-opacity:1;fill-rule:nonzero;stroke:none;stroke-width:0.99999958;marker:none;visibility:visible;display:inline;overflow:visible" />
      </g>
      <g
         transform="matrix(1.1728767,0,0,1.1728767,-97.48032,25.921191)"
         id="g5774">
        <path
           d="m 135.89863,33.326889 7.39977,0 c 0.63078,0 1.13859,0.50781 1.13859,1.138589 l -0.007,7.431884 c 0,0.630778 -0.48812,1.036271 -1.1189,1.036271 l -7.41294,0 c -0.63078,0 -1.13859,-0.507812 -1.13859,-1.138591 l 0,-7.329564 c 0,-0.630779 0.50781,-1.138589 1.13859,-1.138589 z"
           id="path5776"
           style="opacity:0.31818183;fill:none;stroke:#ffffff;stroke-width:0.81855905;stroke-linecap:butt;stroke-linejoin:miter;stroke-miterlimit:4;stroke-opacity:1;stroke-dashoffset:0;marker:none;visibility:visible;display:inline;overflow:visible" />
        <rect
           width="8.1866875"
           height="8.1548634"
           rx="0.31210217"
           ry="0.31210217"
           x="135.41202"
           y="33.977177"
           id="rect5778"
           style="fill:#3465a4;fill-opacity:1;fill-rule:nonzero;stroke:#757575;stroke-width:0.81855911;stroke-linecap:butt;stroke-linejoin:miter;stroke-miterlimit:4;stroke-opacity:1;stroke-dasharray:none;stroke-dashoffset:0;marker:none;visibility:visible;display:inline;overflow:visible" />
        <path
           d="m 135.90263,38.801773 c 2.96153,0.271089 4.52477,-1.183395 7.25911,-1.27101 l 0.0202,-3.151038 -7.29468,-0.0049 0.0153,4.426984 z"
           id="path5780"
           style="opacity:0.39772728;fill:url(#radialGradient5782);fill-opacity:1;fill-rule:nonzero;stroke:none;stroke-width:0.99999958;marker:none;visibility:visible;display:inline;overflow:visible" />
      </g>
      <g
         transform="matrix(1.1728767,0,0,1.1728767,-80.875213,25.921191)"
         id="g5784">
        <path
           d="m 135.89863,33.326889 7.39977,0 c 0.63078,0 1.13859,0.50781 1.13859,1.138589 l -0.007,7.431884 c 0,0.630778 -0.48812,1.036271 -1.1189,1.036271 l -7.41294,0 c -0.63078,0 -1.13859,-0.507812 -1.13859,-1.138591 l 0,-7.329564 c 0,-0.630779 0.50781,-1.138589 1.13859,-1.138589 z"
           id="path5786"
           style="opacity:0.31818183;fill:none;stroke:#ffffff;stroke-width:0.81855905;stroke-linecap:butt;stroke-linejoin:miter;stroke-miterlimit:4;stroke-opacity:1;stroke-dashoffset:0;marker:none;visibility:visible;display:inline;overflow:visible" />
        <rect
           width="8.1866875"
           height="8.1548634"
           rx="0.31210217"
           ry="0.31210217"
           x="135.41202"
           y="33.977177"
           id="rect5788"
           style="fill:#3465a4;fill-opacity:1;fill-rule:nonzero;stroke:#757575;stroke-width:0.81855911;stroke-linecap:butt;stroke-linejoin:miter;stroke-miterlimit:4;stroke-opacity:1;stroke-dasharray:none;stroke-dashoffset:0;marker:none;visibility:visible;display:inline;overflow:visible" />
        <path
           d="m 135.90263,38.801773 c 2.96153,0.271089 4.52477,-1.183395 7.25911,-1.27101 l 0.0202,-3.151038 -7.29468,-0.0049 0.0153,4.426984 z"
           id="path5790"
           style="opacity:0.39772728;fill:url(#radialGradient5792);fill-opacity:1;fill-rule:nonzero;stroke:none;stroke-width:0.99999958;marker:none;visibility:visible;display:inline;overflow:visible" />
      </g>
      <g
         transform="matrix(1.1728767,0,0,1.1728767,-64.270102,25.921191)"
         id="g5794">
        <path
           d="m 135.89863,33.326889 7.39977,0 c 0.63078,0 1.13859,0.50781 1.13859,1.138589 l -0.007,7.431884 c 0,0.630778 -0.48812,1.036271 -1.1189,1.036271 l -7.41294,0 c -0.63078,0 -1.13859,-0.507812 -1.13859,-1.138591 l 0,-7.329564 c 0,-0.630779 0.50781,-1.138589 1.13859,-1.138589 z"
           id="path5796"
           style="opacity:0.31818183;fill:none;stroke:#ffffff;stroke-width:0.81855905;stroke-linecap:butt;stroke-linejoin:miter;stroke-miterlimit:4;stroke-opacity:1;stroke-dashoffset:0;marker:none;visibility:visible;display:inline;overflow:visible" />
        <rect
           width="8.1866875"
           height="8.1548634"
           rx="0.31210217"
           ry="0.31210217"
           x="135.41202"
           y="33.977177"
           id="rect5798"
           style="fill:#3465a4;fill-opacity:1;fill-rule:nonzero;stroke:#757575;stroke-width:0.81855911;stroke-linecap:butt;stroke-linejoin:miter;stroke-miterlimit:4;stroke-opacity:1;stroke-dasharray:none;stroke-dashoffset:0;marker:none;visibility:visible;display:inline;overflow:visible" />
        <path
           d="m 135.90263,38.801773 c 2.96153,0.271089 4.52477,-1.183395 7.25911,-1.27101 l 0.0202,-3.151038 -7.29468,-0.0049 0.0153,4.426984 z"
           id="path5800"
           style="opacity:0.39772728;fill:url(#radialGradient5802);fill-opacity:1;fill-rule:nonzero;stroke:none;stroke-width:0.99999958;marker:none;visibility:visible;display:inline;overflow:visible" />
      </g>
    </g>
    <g
       transform="translate(0.25329,0)"
       id="g5844">
      <g
         transform="matrix(1.1728767,0,0,1.1728767,-114.33872,1.0404387)"
         id="g5804">
        <path
           d="m 135.89863,33.326889 7.39977,0 c 0.63078,0 1.13859,0.50781 1.13859,1.138589 l -0.007,7.431884 c 0,0.630778 -0.48812,1.036271 -1.1189,1.036271 l -7.41294,0 c -0.63078,0 -1.13859,-0.507812 -1.13859,-1.138591 l 0,-7.329564 c 0,-0.630779 0.50781,-1.138589 1.13859,-1.138589 z"
           id="path5806"
           style="opacity:0.31818183;fill:none;stroke:#ffffff;stroke-width:0.81855905;stroke-linecap:butt;stroke-linejoin:miter;stroke-miterlimit:4;stroke-opacity:1;stroke-dashoffset:0;marker:none;visibility:visible;display:inline;overflow:visible" />
        <rect
           width="8.1866875"
           height="8.1548634"
           rx="0.31210217"
           ry="0.31210217"
           x="135.41202"
           y="33.977177"
           id="rect5808"
           style="fill:#3465a4;fill-opacity:1;fill-rule:nonzero;stroke:#757575;stroke-width:0.81855911;stroke-linecap:butt;stroke-linejoin:miter;stroke-miterlimit:4;stroke-opacity:1;stroke-dasharray:none;stroke-dashoffset:0;marker:none;visibility:visible;display:inline;overflow:visible" />
        <path
           d="m 135.90263,38.801773 c 2.96153,0.271089 4.52477,-1.183395 7.25911,-1.27101 l 0.0202,-3.151038 -7.29468,-0.0049 0.0153,4.426984 z"
           id="path5810"
           style="opacity:0.39772728;fill:url(#radialGradient5880);fill-opacity:1;fill-rule:nonzero;stroke:none;stroke-width:0.99999958;marker:none;visibility:visible;display:inline;overflow:visible" />
      </g>
      <g
         transform="matrix(1.1728767,0,0,1.1728767,-97.733612,1.0404387)"
         id="g5812">
        <path
           d="m 135.89863,33.326889 7.39977,0 c 0.63078,0 1.13859,0.50781 1.13859,1.138589 l -0.007,7.431884 c 0,0.630778 -0.48812,1.036271 -1.1189,1.036271 l -7.41294,0 c -0.63078,0 -1.13859,-0.507812 -1.13859,-1.138591 l 0,-7.329564 c 0,-0.630779 0.50781,-1.138589 1.13859,-1.138589 z"
           id="path5814"
           style="opacity:0.31818183;fill:none;stroke:#ffffff;stroke-width:0.81855905;stroke-linecap:butt;stroke-linejoin:miter;stroke-miterlimit:4;stroke-opacity:1;stroke-dashoffset:0;marker:none;visibility:visible;display:inline;overflow:visible" />
        <rect
           width="8.1866875"
           height="8.1548634"
           rx="0.31210217"
           ry="0.31210217"
           x="135.41202"
           y="33.977177"
           id="rect5816"
           style="fill:#3465a4;fill-opacity:1;fill-rule:nonzero;stroke:#757575;stroke-width:0.81855911;stroke-linecap:butt;stroke-linejoin:miter;stroke-miterlimit:4;stroke-opacity:1;stroke-dasharray:none;stroke-dashoffset:0;marker:none;visibility:visible;display:inline;overflow:visible" />
        <path
           d="m 135.90263,38.801773 c 2.96153,0.271089 4.52477,-1.183395 7.25911,-1.27101 l 0.0202,-3.151038 -7.29468,-0.0049 0.0153,4.426984 z"
           id="path5818"
           style="opacity:0.39772728;fill:url(#radialGradient5882);fill-opacity:1;fill-rule:nonzero;stroke:none;stroke-width:0.99999958;marker:none;visibility:visible;display:inline;overflow:visible" />
      </g>
      <g
         transform="matrix(1.1728767,0,0,1.1728767,-81.128502,1.0404387)"
         id="g5820">
        <path
           d="m 135.89863,33.326889 7.39977,0 c 0.63078,0 1.13859,0.50781 1.13859,1.138589 l -0.007,7.431884 c 0,0.630778 -0.48812,1.036271 -1.1189,1.036271 l -7.41294,0 c -0.63078,0 -1.13859,-0.507812 -1.13859,-1.138591 l 0,-7.329564 c 0,-0.630779 0.50781,-1.138589 1.13859,-1.138589 z"
           id="path5822"
           style="opacity:0.31818183;fill:none;stroke:#ffffff;stroke-width:0.81855905;stroke-linecap:butt;stroke-linejoin:miter;stroke-miterlimit:4;stroke-opacity:1;stroke-dashoffset:0;marker:none;visibility:visible;display:inline;overflow:visible" />
        <rect
           width="8.1866875"
           height="8.1548634"
           rx="0.31210217"
           ry="0.31210217"
           x="135.41202"
           y="33.977177"
           id="rect5824"
           style="fill:#3465a4;fill-opacity:1;fill-rule:nonzero;stroke:#757575;stroke-width:0.81855911;stroke-linecap:butt;stroke-linejoin:miter;stroke-miterlimit:4;stroke-opacity:1;stroke-dasharray:none;stroke-dashoffset:0;marker:none;visibility:visible;display:inline;overflow:visible" />
        <path
           d="m 135.90263,38.801773 c 2.96153,0.271089 4.52477,-1.183395 7.25911,-1.27101 l 0.0202,-3.151038 -7.29468,-0.0049 0.0153,4.426984 z"
           id="path5826"
           style="opacity:0.39772728;fill:url(#radialGradient5884);fill-opacity:1;fill-rule:nonzero;stroke:none;stroke-width:0.99999958;marker:none;visibility:visible;display:inline;overflow:visible" />
      </g>
      <g
         transform="matrix(1.1728767,0,0,1.1728767,-64.523392,1.0404387)"
         id="g5828">
        <path
           d="m 135.89863,33.326889 7.39977,0 c 0.63078,0 1.13859,0.50781 1.13859,1.138589 l -0.007,7.431884 c 0,0.630778 -0.48812,1.036271 -1.1189,1.036271 l -7.41294,0 c -0.63078,0 -1.13859,-0.507812 -1.13859,-1.138591 l 0,-7.329564 c 0,-0.630779 0.50781,-1.138589 1.13859,-1.138589 z"
           id="path5830"
           style="opacity:0.31818183;fill:none;stroke:#ffffff;stroke-width:0.81855905;stroke-linecap:butt;stroke-linejoin:miter;stroke-miterlimit:4;stroke-opacity:1;stroke-dashoffset:0;marker:none;visibility:visible;display:inline;overflow:visible" />
        <rect
           width="8.1866875"
           height="8.1548634"
           rx="0.31210217"
           ry="0.31210217"
           x="135.41202"
           y="33.977177"
           id="rect5832"
           style="fill:#3465a4;fill-opacity:1;fill-rule:nonzero;stroke:#757575;stroke-width:0.81855911;stroke-linecap:butt;stroke-linejoin:miter;stroke-miterlimit:4;stroke-opacity:1;stroke-dasharray:none;stroke-dashoffset:0;marker:none;visibility:visible;display:inline;overflow:visible" />
        <path
           d="m 135.90263,38.801773 c 2.96153,0.271089 4.52477,-1.183395 7.25911,-1.27101 l 0.0202,-3.151038 -7.29468,-0.0049 0.0153,4.426984 z"
           id="path5834"
           style="opacity:0.39772728;fill:url(#radialGradient5886);fill-opacity:1;fill-rule:nonzero;stroke:none;stroke-width:0.99999958;marker:none;visibility:visible;display:inline;overflow:visible" />
      </g>
    </g>
    <path
       d="m 26.761625,62.480211 79.204985,0"
       id="path5888"
       style="fill:#816647;fill-rule:evenodd;stroke:#aaaaaa;stroke-width:0.95848292;stroke-linecap:butt;stroke-linejoin:miter;stroke-miterlimit:4;stroke-opacity:1;stroke-dasharray:none" />
    <rect
       width="10.285391"
       height="17.478003"
       rx="0"
       ry="0"
       x="27.363899"
       y="66.152809"
       id="rect5890"
       style="fill:#cccccf;fill-opacity:1;fill-rule:nonzero;stroke:#888888;stroke-width:0.7539953;stroke-linecap:round;stroke-linejoin:round;stroke-miterlimit:4;stroke-opacity:1;stroke-dasharray:none;stroke-dashoffset:0;marker:none;visibility:visible;display:inline;overflow:visible;enable-background:accumulate" />
    <path
       d="m 27.667297,76.403673 c 3.884851,0.605307 5.935465,-2.642371 9.522293,-2.838005 l 0.02655,-7.03587 -9.568953,-0.01102 0.02011,9.884896 z"
       id="path5900"
       style="opacity:0.39772728;fill:url(#radialGradient5953);fill-opacity:1;fill-rule:nonzero;stroke:none;stroke-width:0.99999958;marker:none;visibility:visible;display:inline;overflow:visible" />
    <g
       transform="matrix(1.1728767,0,0,1.1728767,-130.66237,1.0404387)"
       id="g5902">
      <path
         d="m 135.89863,33.326889 7.39977,0 c 0.63078,0 1.13859,0.50781 1.13859,1.138589 l -0.007,7.431884 c 0,0.630778 -0.48812,1.036271 -1.1189,1.036271 l -7.41294,0 c -0.63078,0 -1.13859,-0.507812 -1.13859,-1.138591 l 0,-7.329564 c 0,-0.630779 0.50781,-1.138589 1.13859,-1.138589 z"
         id="path5904"
         style="opacity:0.31818183;fill:none;stroke:#ffffff;stroke-width:0.81855905;stroke-linecap:butt;stroke-linejoin:miter;stroke-miterlimit:4;stroke-opacity:1;stroke-dashoffset:0;marker:none;visibility:visible;display:inline;overflow:visible" />
      <rect
         width="8.1866875"
         height="8.1548634"
         rx="0.31210217"
         ry="0.31210217"
         x="135.41202"
         y="33.977177"
         id="rect5906"
         style="fill:#3465a4;fill-opacity:1;fill-rule:nonzero;stroke:#757575;stroke-width:0.81855911;stroke-linecap:butt;stroke-linejoin:miter;stroke-miterlimit:4;stroke-opacity:1;stroke-dasharray:none;stroke-dashoffset:0;marker:none;visibility:visible;display:inline;overflow:visible" />
      <path
         d="m 135.90263,38.801773 c 2.96153,0.271089 4.52477,-1.183395 7.25911,-1.27101 l 0.0202,-3.151038 -7.29468,-0.0049 0.0153,4.426984 z"
         id="path5908"
         style="opacity:0.39772728;fill:url(#radialGradient5957);fill-opacity:1;fill-rule:nonzero;stroke:none;stroke-width:0.99999958;marker:none;visibility:visible;display:inline;overflow:visible" />
    </g>
    <rect
       width="95.062393"
       height="3.885699"
       rx="0.36798415"
       ry="0.2054441"
       x="18.326323"
       y="25.070301"
       id="rect5959"
       style="fill:#816647;fill-opacity:1;fill-rule:nonzero;stroke:#565248;stroke-width:1.50225008;stroke-linecap:round;stroke-linejoin:round;stroke-miterlimit:4;stroke-opacity:1;stroke-dasharray:none;stroke-dashoffset:0;marker:none;visibility:visible;display:inline;overflow:visible;enable-background:accumulate" />
  </g>
</svg>
