<?xml version="1.0" encoding="UTF-8" standalone="no"?>
<!-- Created with Inkscape (http://www.inkscape.org/) -->

<svg
   xmlns:svg="http://www.w3.org/2000/svg"
   xmlns="http://www.w3.org/2000/svg"
   xmlns:xlink="http://www.w3.org/1999/xlink"
   version="1.0"
   width="128"
   height="128"
   id="svg2108">
  <defs
     id="defs3">
    <linearGradient
       id="linearGradient20210">
      <stop
         id="stop20212"
         style="stop-color:#000000;stop-opacity:0.51546389"
         offset="0" />
      <stop
         id="stop20218"
         style="stop-color:#000000;stop-opacity:0.14432989"
         offset="0.55172414" />
      <stop
         id="stop20214"
         style="stop-color:#000000;stop-opacity:0"
         offset="1" />
    </linearGradient>
    <linearGradient
       id="linearGradient2406">
      <stop
         id="stop2408"
         style="stop-color:#7c7e79;stop-opacity:1"
         offset="0" />
      <stop
         id="stop2414"
         style="stop-color:#848681;stop-opacity:1"
         offset="0.1724138" />
      <stop
         id="stop2410"
         style="stop-color:#898c86;stop-opacity:1"
         offset="1" />
    </linearGradient>
    <linearGradient
       id="linearGradient2378">
      <stop
         id="stop2380"
         style="stop-color:#575757;stop-opacity:1"
         offset="0" />
      <stop
         id="stop11457"
         style="stop-color:#575757;stop-opacity:0"
         offset="1" />
    </linearGradient>
    <linearGradient
       id="linearGradient2341">
      <stop
         id="stop2343"
         style="stop-color:#000000;stop-opacity:1"
         offset="0" />
      <stop
         id="stop2345"
         style="stop-color:#000000;stop-opacity:0"
         offset="1" />
    </linearGradient>
    <linearGradient
       x1="64.387703"
       y1="65.124001"
       x2="64.387703"
       y2="35.569"
       id="XMLID_39_"
       gradientUnits="userSpaceOnUse"
       gradientTransform="matrix(0.354101,0,0,0.354101,1.638679,-0.08364921)">
      <stop
         id="stop336"
         style="stop-color:#ffffff;stop-opacity:1"
         offset="0" />
      <stop
         id="stop338"
         style="stop-color:#ff6200;stop-opacity:1"
         offset="0.85390002" />
      <stop
         id="stop340"
         style="stop-color:#f25d00;stop-opacity:1"
         offset="1" />
      <midPointStop
         offset="0"
         style="stop-color:#FFFFFF"
         id="midPointStop335" />
      <midPointStop
         offset="0.5"
         style="stop-color:#FFFFFF"
         id="midPointStop337" />
      <midPointStop
         offset="0.8539"
         style="stop-color:#FF6200"
         id="midPointStop339" />
      <midPointStop
         offset="0.5"
         style="stop-color:#FF6200"
         id="midPointStop341" />
      <midPointStop
         offset="1"
         style="stop-color:#F25D00"
         id="midPointStop343" />
    </linearGradient>
    <linearGradient
       id="linearGradient2254">
      <stop
         id="stop2256"
         style="stop-color:#ffffff;stop-opacity:1"
         offset="0" />
      <stop
         id="stop2258"
         style="stop-color:#ffffff;stop-opacity:0"
         offset="1" />
    </linearGradient>
    <linearGradient
       id="linearGradient5060">
      <stop
         id="stop5062"
         style="stop-color:#000000;stop-opacity:1"
         offset="0" />
      <stop
         id="stop5064"
         style="stop-color:#000000;stop-opacity:0"
         offset="1" />
    </linearGradient>
    <linearGradient
       id="linearGradient5048">
      <stop
         id="stop5050"
         style="stop-color:#000000;stop-opacity:0"
         offset="0" />
      <stop
         id="stop5056"
         style="stop-color:#000000;stop-opacity:1"
         offset="0.5" />
      <stop
         id="stop5052"
         style="stop-color:#000000;stop-opacity:0"
         offset="1" />
    </linearGradient>
    <linearGradient
       id="linearGradient2329">
      <stop
         id="stop2331"
         style="stop-color:#ffffff;stop-opacity:1"
         offset="0" />
      <stop
         id="stop2333"
         style="stop-color:#ffffff;stop-opacity:0"
         offset="1" />
    </linearGradient>
    <linearGradient
       x1="302.85715"
       y1="366.64789"
       x2="302.85715"
       y2="609.50507"
       id="linearGradient7070"
       xlink:href="#linearGradient5048"
       gradientUnits="userSpaceOnUse"
       gradientTransform="matrix(2.774389,0,0,1.969706,-1892.179,-872.8854)" />
    <radialGradient
       cx="605.71429"
       cy="486.64789"
       r="117.14286"
       fx="605.71429"
       fy="486.64789"
       id="radialGradient7072"
       xlink:href="#linearGradient5060"
       gradientUnits="userSpaceOnUse"
       gradientTransform="matrix(2.774389,0,0,1.969706,-1891.633,-872.8854)" />
    <radialGradient
       cx="605.71429"
       cy="486.64789"
       r="117.14286"
       fx="605.71429"
       fy="486.64789"
       id="radialGradient7074"
       xlink:href="#linearGradient5060"
       gradientUnits="userSpaceOnUse"
       gradientTransform="matrix(-2.774389,0,0,1.969706,112.7623,-872.8854)" />
    <radialGradient
       cx="29.913452"
       cy="30.442923"
       r="4.001883"
       fx="29.913452"
       fy="30.442923"
       id="radialGradient7093"
       xlink:href="#linearGradient2254"
       gradientUnits="userSpaceOnUse"
       gradientTransform="matrix(3.0708221,0,0,2.5766766,-14.600817,-29.957918)" />
    <radialGradient
       cx="11.68129"
       cy="19.554111"
       r="8.2452126"
       fx="11.68129"
       fy="19.554111"
       id="radialGradient7098"
       xlink:href="#linearGradient2341"
       gradientUnits="userSpaceOnUse"
       gradientTransform="matrix(3.3561646,0,0,-3.4390323,48.273531,110.06532)" />
    <radialGradient
       cx="7.5326638"
       cy="24.202574"
       r="8.2452126"
       fx="7.5326638"
       fy="24.202574"
       id="radialGradient7101"
       xlink:href="#linearGradient2254"
       gradientUnits="userSpaceOnUse"
       gradientTransform="matrix(3.3561646,0,0,3.4390323,31.724752,-40.462193)" />
    <linearGradient
       x1="64.387703"
       y1="65.124001"
       x2="64.387703"
       y2="35.569"
       id="linearGradient7105"
       xlink:href="#XMLID_39_"
       gradientUnits="userSpaceOnUse"
       gradientTransform="matrix(0.2898528,0,0,0.2898528,53.869849,23.758735)" />
    <linearGradient
       x1="17.850183"
       y1="28.939463"
       x2="19.040216"
       y2="41.03223"
       id="linearGradient7108"
       xlink:href="#linearGradient2406"
       gradientUnits="userSpaceOnUse"
       gradientTransform="matrix(0.7275235,0,0,0.8916733,54.502032,22.579447)" />
    <radialGradient
       cx="24.195112"
       cy="10.577631"
       r="15.242914"
       fx="24.195112"
       fy="10.577631"
       id="radialGradient7111"
       xlink:href="#linearGradient2378"
       gradientUnits="userSpaceOnUse"
       gradientTransform="matrix(0.9210948,-2.9348774e-8,3.4951011e-8,1.0969181,50.067326,24.936678)" />
    <linearGradient
       x1="17.602522"
       y1="26.057423"
       x2="17.682528"
       y2="32.654099"
       id="linearGradient7115"
       xlink:href="#linearGradient2329"
       gradientUnits="userSpaceOnUse"
       gradientTransform="matrix(0.7357123,0,0,0.8774255,52.919785,22.123917)" />
    <linearGradient
       x1="302.85715"
       y1="366.64789"
       x2="302.85715"
       y2="609.50507"
       id="linearGradient7180"
       xlink:href="#linearGradient5048"
       gradientUnits="userSpaceOnUse"
       gradientTransform="matrix(2.774389,0,0,1.969706,-1892.179,-872.8854)" />
    <radialGradient
       cx="605.71429"
       cy="486.64789"
       r="117.14286"
       fx="605.71429"
       fy="486.64789"
       id="radialGradient7182"
       xlink:href="#linearGradient5060"
       gradientUnits="userSpaceOnUse"
       gradientTransform="matrix(2.774389,0,0,1.969706,-1891.633,-872.8854)" />
    <radialGradient
       cx="605.71429"
       cy="486.64789"
       r="117.14286"
       fx="605.71429"
       fy="486.64789"
       id="radialGradient7184"
       xlink:href="#linearGradient5060"
       gradientUnits="userSpaceOnUse"
       gradientTransform="matrix(-2.774389,0,0,1.969706,112.7623,-872.8854)" />
    <linearGradient
       x1="17.602522"
       y1="26.057423"
       x2="17.682528"
       y2="32.654099"
       id="linearGradient7186"
       xlink:href="#linearGradient2329"
       gradientUnits="userSpaceOnUse"
       gradientTransform="matrix(0.7357123,0,0,0.8774255,52.919785,22.123917)" />
    <radialGradient
       cx="24.195112"
       cy="10.577631"
       r="15.242914"
       fx="24.195112"
       fy="10.577631"
       id="radialGradient7188"
       xlink:href="#linearGradient2378"
       gradientUnits="userSpaceOnUse"
       gradientTransform="matrix(0.9210948,-2.9348774e-8,3.4951011e-8,1.0969181,50.067326,24.936678)" />
    <linearGradient
       x1="17.850183"
       y1="28.939463"
       x2="19.040216"
       y2="41.03223"
       id="linearGradient7190"
       xlink:href="#linearGradient2406"
       gradientUnits="userSpaceOnUse"
       gradientTransform="matrix(0.7275235,0,0,0.8916733,54.502032,22.579447)" />
    <linearGradient
       x1="64.387703"
       y1="65.124001"
       x2="64.387703"
       y2="35.569"
       id="linearGradient7192"
       xlink:href="#XMLID_39_"
       gradientUnits="userSpaceOnUse"
       gradientTransform="matrix(0.2898528,0,0,0.2898528,53.869849,23.758735)" />
    <radialGradient
       cx="7.5326638"
       cy="24.202574"
       r="8.2452126"
       fx="7.5326638"
       fy="24.202574"
       id="radialGradient7194"
       xlink:href="#linearGradient2254"
       gradientUnits="userSpaceOnUse"
       gradientTransform="matrix(3.3561646,0,0,3.4390323,31.724752,-40.462193)" />
    <radialGradient
       cx="11.68129"
       cy="19.554111"
       r="8.2452126"
       fx="11.68129"
       fy="19.554111"
       id="radialGradient7196"
       xlink:href="#linearGradient2341"
       gradientUnits="userSpaceOnUse"
       gradientTransform="matrix(3.3561646,0,0,-3.4390323,48.273531,110.06532)" />
    <radialGradient
       cx="29.913452"
       cy="30.442923"
       r="4.001883"
       fx="29.913452"
       fy="30.442923"
       id="radialGradient7198"
       xlink:href="#linearGradient2254"
       gradientUnits="userSpaceOnUse"
       gradientTransform="matrix(3.0708221,0,0,2.5766766,-14.600817,-29.957918)" />
    <linearGradient
       x1="302.85715"
       y1="366.64789"
       x2="302.85715"
       y2="609.50507"
       id="linearGradient7236"
       xlink:href="#linearGradient5048"
       gradientUnits="userSpaceOnUse"
       gradientTransform="matrix(2.774389,0,0,1.969706,-1892.179,-872.8854)" />
    <radialGradient
       cx="605.71429"
       cy="486.64789"
       r="117.14286"
       fx="605.71429"
       fy="486.64789"
       id="radialGradient7238"
       xlink:href="#linearGradient5060"
       gradientUnits="userSpaceOnUse"
       gradientTransform="matrix(2.774389,0,0,1.969706,-1891.633,-872.8854)" />
    <radialGradient
       cx="605.71429"
       cy="486.64789"
       r="117.14286"
       fx="605.71429"
       fy="486.64789"
       id="radialGradient7240"
       xlink:href="#linearGradient5060"
       gradientUnits="userSpaceOnUse"
       gradientTransform="matrix(-2.774389,0,0,1.969706,112.7623,-872.8854)" />
    <linearGradient
       x1="17.602522"
       y1="26.057423"
       x2="17.682528"
       y2="32.654099"
       id="linearGradient7242"
       xlink:href="#linearGradient2329"
       gradientUnits="userSpaceOnUse"
       gradientTransform="matrix(0.7357123,0,0,0.8774255,52.919785,22.123917)" />
    <radialGradient
       cx="24.195112"
       cy="10.577631"
       r="15.242914"
       fx="24.195112"
       fy="10.577631"
       id="radialGradient7244"
       xlink:href="#linearGradient2378"
       gradientUnits="userSpaceOnUse"
       gradientTransform="matrix(0.9210948,-2.9348774e-8,3.4951011e-8,1.0969181,50.067326,24.936678)" />
    <linearGradient
       x1="17.850183"
       y1="28.939463"
       x2="19.040216"
       y2="41.03223"
       id="linearGradient7246"
       xlink:href="#linearGradient2406"
       gradientUnits="userSpaceOnUse"
       gradientTransform="matrix(0.7275235,0,0,0.8916733,54.502032,22.579447)" />
    <linearGradient
       x1="64.387703"
       y1="65.124001"
       x2="64.387703"
       y2="35.569"
       id="linearGradient7248"
       xlink:href="#XMLID_39_"
       gradientUnits="userSpaceOnUse"
       gradientTransform="matrix(0.2898528,0,0,0.2898528,53.869849,23.758735)" />
    <radialGradient
       cx="7.5326638"
       cy="24.202574"
       r="8.2452126"
       fx="7.5326638"
       fy="24.202574"
       id="radialGradient7250"
       xlink:href="#linearGradient2254"
       gradientUnits="userSpaceOnUse"
       gradientTransform="matrix(3.3561646,0,0,3.4390323,31.724752,-40.462193)" />
    <radialGradient
       cx="11.68129"
       cy="19.554111"
       r="8.2452126"
       fx="11.68129"
       fy="19.554111"
       id="radialGradient7252"
       xlink:href="#linearGradient2341"
       gradientUnits="userSpaceOnUse"
       gradientTransform="matrix(3.3561646,0,0,-3.4390323,48.273531,110.06532)" />
    <radialGradient
       cx="29.913452"
       cy="30.442923"
       r="4.001883"
       fx="29.913452"
       fy="30.442923"
       id="radialGradient7254"
       xlink:href="#linearGradient2254"
       gradientUnits="userSpaceOnUse"
       gradientTransform="matrix(3.0708221,0,0,2.5766766,-14.600817,-29.957918)" />
    <linearGradient
       x1="302.85715"
       y1="366.64789"
       x2="302.85715"
       y2="609.50507"
       id="linearGradient7292"
       xlink:href="#linearGradient5048"
       gradientUnits="userSpaceOnUse"
       gradientTransform="matrix(2.774389,0,0,1.969706,-1892.179,-872.8854)" />
    <radialGradient
       cx="605.71429"
       cy="486.64789"
       r="117.14286"
       fx="605.71429"
       fy="486.64789"
       id="radialGradient7294"
       xlink:href="#linearGradient5060"
       gradientUnits="userSpaceOnUse"
       gradientTransform="matrix(2.774389,0,0,1.969706,-1891.633,-872.8854)" />
    <radialGradient
       cx="605.71429"
       cy="486.64789"
       r="117.14286"
       fx="605.71429"
       fy="486.64789"
       id="radialGradient7296"
       xlink:href="#linearGradient5060"
       gradientUnits="userSpaceOnUse"
       gradientTransform="matrix(-2.774389,0,0,1.969706,112.7623,-872.8854)" />
    <linearGradient
       x1="17.602522"
       y1="26.057423"
       x2="17.682528"
       y2="32.654099"
       id="linearGradient7298"
       xlink:href="#linearGradient2329"
       gradientUnits="userSpaceOnUse"
       gradientTransform="matrix(0.7357123,0,0,0.8774255,52.919785,22.123917)" />
    <radialGradient
       cx="24.195112"
       cy="10.577631"
       r="15.242914"
       fx="24.195112"
       fy="10.577631"
       id="radialGradient7300"
       xlink:href="#linearGradient2378"
       gradientUnits="userSpaceOnUse"
       gradientTransform="matrix(0.9210948,-2.9348774e-8,3.4951011e-8,1.0969181,50.067326,24.936678)" />
    <linearGradient
       x1="17.850183"
       y1="28.939463"
       x2="19.040216"
       y2="41.03223"
       id="linearGradient7302"
       xlink:href="#linearGradient2406"
       gradientUnits="userSpaceOnUse"
       gradientTransform="matrix(0.7275235,0,0,0.8916733,54.502032,22.579447)" />
    <linearGradient
       x1="64.387703"
       y1="65.124001"
       x2="64.387703"
       y2="35.569"
       id="linearGradient7304"
       xlink:href="#XMLID_39_"
       gradientUnits="userSpaceOnUse"
       gradientTransform="matrix(0.2898528,0,0,0.2898528,53.869849,23.758735)" />
    <radialGradient
       cx="7.5326638"
       cy="24.202574"
       r="8.2452126"
       fx="7.5326638"
       fy="24.202574"
       id="radialGradient7306"
       xlink:href="#linearGradient2254"
       gradientUnits="userSpaceOnUse"
       gradientTransform="matrix(3.3561646,0,0,3.4390323,31.724752,-40.462193)" />
    <radialGradient
       cx="11.68129"
       cy="19.554111"
       r="8.2452126"
       fx="11.68129"
       fy="19.554111"
       id="radialGradient7308"
       xlink:href="#linearGradient2341"
       gradientUnits="userSpaceOnUse"
       gradientTransform="matrix(3.3561646,0,0,-3.4390323,48.273531,110.06532)" />
    <radialGradient
       cx="29.913452"
       cy="30.442923"
       r="4.001883"
       fx="29.913452"
       fy="30.442923"
       id="radialGradient7310"
       xlink:href="#linearGradient2254"
       gradientUnits="userSpaceOnUse"
       gradientTransform="matrix(3.0708221,0,0,2.5766766,-14.600817,-29.957918)" />
    <radialGradient
       cx="14.772334"
       cy="74.20993"
       r="7.8289828"
       fx="14.772334"
       fy="74.20993"
       id="radialGradient2608"
       xlink:href="#linearGradient20210"
       gradientUnits="userSpaceOnUse"
       gradientTransform="matrix(8.434833,0,0,1.6573179,-62.896089,-20.583678)" />
  </defs>
  <g
     id="g3380">
    <path
       d="m 127.74222,102.40581 c 0,7.16596 -29.56539,12.97512 -66.036151,12.97512 -36.470761,0 -66.0361518,-5.80916 -66.0361518,-12.97512 0,-7.165956 29.5653908,-12.975113 66.0361518,-12.975113 36.470761,0 66.036151,5.809157 66.036151,12.975113 z"
       id="path20208"
       style="opacity:0.8;fill:url(#radialGradient2608);fill-opacity:1;fill-rule:nonzero;stroke:none;stroke-width:2;marker:none;visibility:visible;display:inline;overflow:visible" />
    <path
       d="M 126.74893,78.121461 C 126.75511,92.100248 98.659642,103.43362 63.999996,103.43362 29.34035,103.43362 1.2448875,92.100248 1.2510648,78.121461 1.2448875,64.142675 29.34035,52.809308 63.999996,52.809308 c 34.659646,0 62.755114,11.333367 62.748934,25.312153 l 0,0 z"
       id="path7049"
       style="fill:#727e0a;fill-opacity:1;fill-rule:nonzero;stroke:#404604;stroke-width:1.41103494;stroke-linecap:round;stroke-linejoin:round;stroke-miterlimit:4;stroke-opacity:1;stroke-dasharray:none;stroke-dashoffset:0;marker:none;visibility:visible;display:inline;overflow:visible;enable-background:accumulate" />
    <g
       id="g7125">
      <g
         transform="matrix(0.01766612,0,0,0.01522076,87.826835,57.91012)"
         id="g6993"
         style="display:inline">
        <rect
           width="1339.6335"
           height="478.35718"
           x="-1559.2523"
           y="-150.69685"
           id="rect6995"
           style="opacity:0.40206185;fill:url(#linearGradient7070);fill-opacity:1;fill-rule:nonzero;stroke:none;stroke-width:1;marker:none;visibility:visible;display:inline;overflow:visible" />
        <path
           d="m -219.61876,-150.68038 c 0,0 0,478.33079 0,478.33079 142.874166,0.90045 345.40022,-107.16966 345.40014,-239.196175 0,-132.026537 -159.436816,-239.134595 -345.40014,-239.134615 z"
           id="path6997"
           style="opacity:0.40206185;fill:url(#radialGradient7072);fill-opacity:1;fill-rule:nonzero;stroke:none;stroke-width:1;marker:none;visibility:visible;display:inline;overflow:visible" />
        <path
           d="m -1559.2523,-150.68038 c 0,0 0,478.33079 0,478.33079 -142.8742,0.90045 -345.4002,-107.16966 -345.4002,-239.196175 0,-132.026537 159.4368,-239.134595 345.4002,-239.134615 z"
           id="path6999"
           style="opacity:0.40206185;fill:url(#radialGradient7074);fill-opacity:1;fill-rule:nonzero;stroke:none;stroke-width:1;marker:none;visibility:visible;display:inline;overflow:visible" />
      </g>
      <path
         d="m 70.225403,30.525785 4.876536,0 c 0.68737,0 11.366906,12.634736 11.366906,13.375803 l -0.363046,15.140687 c 0,0.741071 -0.553373,1.337672 -1.240742,1.337672 l -25.749657,0 c -0.687371,0 -1.240741,-0.596601 -1.240741,-1.337672 l 0.04623,-15.140687 c 0,-0.741067 11.617144,-13.375803 12.304514,-13.375803 z"
         id="path7001"
         style="fill:#eeeeee;fill-opacity:1;fill-rule:nonzero;stroke:#757575;stroke-width:0.81856006;stroke-linecap:butt;stroke-linejoin:miter;stroke-miterlimit:4;stroke-opacity:1;stroke-dashoffset:0;marker:none;visibility:visible;display:inline;overflow:visible" />
      <path
         d="m 90.970978,61.264497 -37.101131,0 0,-37.101128 37.101131,0 0,37.101128 z"
         id="path7003"
         style="fill:none" />
      <path
         d="m 71.355363,47.565434 -0.03744,12.352834 -9.69403,0 -0.09124,-12.352834 9.822715,0 z"
         id="path7005"
         style="fill:url(#linearGradient7115);fill-opacity:1;fill-rule:evenodd" />
      <path
         d="m 70.357096,31.526238 4.550452,0 c 0.641408,0 10.641985,11.78692 10.641985,12.478263 l -0.28417,14.90786 c 0,0.375933 -0.117656,0.5349 -0.419408,0.5349 l -25.692295,0.01169 c -0.301752,0 -0.47801,-0.06542 -0.47801,-0.371257 l 0.176271,-15.083191 c 0,-0.691343 10.863769,-12.478263 11.505175,-12.478263 z"
         id="path7007"
         style="opacity:0.3125;fill:none;stroke:#ffffff;stroke-width:0.81855971;stroke-linecap:butt;stroke-linejoin:miter;stroke-miterlimit:4;stroke-opacity:1;stroke-dashoffset:0;marker:none;visibility:visible;display:inline;overflow:visible" />
      <path
         d="m 58.428285,46.70026 -0.04441,2.124321 15.035436,-10.788004 12.512825,9.130564 0.05837,-0.255157 L 72.590312,33.893506 58.428285,46.70026 z"
         id="path7009"
         style="opacity:0.2;fill:url(#radialGradient7111);fill-opacity:1;fill-rule:evenodd" />
      <path
         d="m 70.536803,48.383994 0,11.534274 -8.030911,0 -0.154684,-11.534274 8.185595,0 z"
         id="path7011"
         style="fill:url(#linearGradient7108);fill-opacity:1;fill-rule:evenodd" />
      <path
         d="m 72.540431,33.289213 15.492927,14.054559 0.404923,0.320869 0.330434,-0.140289 -0.305219,-0.623475 -0.227241,-0.182896 -15.695824,-12.74686 -15.871473,12.886858 -0.194492,0.117971 -0.17739,0.578546 0.35478,0.105797 0.31478,-0.252462 15.573795,-14.118618 z"
         id="path7013"
         style="fill:url(#linearGradient7105)" />
      <path
         d="m 72.444184,25.686433 -17.911506,14.817022 -0.511378,5.865739 1.637067,1.689771 c 0,0 16.704657,-14.04426 16.882049,-14.18397 l 16.070404,14.360204 1.553971,-1.90233 -1.32262,-5.821083 -16.301755,-14.91086 -0.09623,0.08551 z"
         id="path7015"
         style="fill:#ef2929;stroke:#a40000;stroke-width:0.81855959" />
      <path
         d="M 54.854302,40.700281 54.615647,46.1219 72.47615,31.177933 l -0.05757,-4.824042 -17.56428,14.34639 z"
         id="path7017"
         style="opacity:0.40909089;fill:url(#radialGradient7101);fill-opacity:1;fill-rule:nonzero;stroke:none;stroke-width:1;marker:none;visibility:visible;display:inline;overflow:visible" />
      <path
         d="m 72.569911,30.990412 0.08141,-4.78129 15.821907,14.449176 1.221136,5.321302 -17.124457,-14.989188 z"
         id="path7019"
         style="opacity:0.13636367;fill:url(#radialGradient7098);fill-opacity:1;fill-rule:nonzero;stroke:none;stroke-width:1;marker:none;visibility:visible;display:inline;overflow:visible" />
      <path
         d="m 74.713281,46.517534 7.399774,0 c 0.630778,0 1.13859,0.50781 1.13859,1.138589 l -0.0065,7.431884 c 0,0.630778 -0.488125,1.036271 -1.118904,1.036271 l -7.412943,0 c -0.63078,0 -1.13859,-0.507812 -1.13859,-1.138591 l 0,-7.329564 c 0,-0.630779 0.50781,-1.138589 1.13859,-1.138589 z"
         id="path7021"
         style="opacity:0.31818183;fill:none;stroke:#ffffff;stroke-width:0.81855905;stroke-linecap:butt;stroke-linejoin:miter;stroke-miterlimit:4;stroke-opacity:1;stroke-dashoffset:0;marker:none;visibility:visible;display:inline;overflow:visible" />
      <rect
         width="8.1866875"
         height="8.1548634"
         rx="0.31210217"
         ry="0.31210217"
         x="74.226677"
         y="47.167824"
         id="rect7023"
         style="fill:#3465a4;fill-opacity:1;fill-rule:nonzero;stroke:#757575;stroke-width:0.81855911;stroke-linecap:butt;stroke-linejoin:miter;stroke-miterlimit:4;stroke-opacity:1;stroke-dasharray:none;stroke-dashoffset:0;marker:none;visibility:visible;display:inline;overflow:visible" />
      <path
         d="m 74.717284,51.992418 c 2.961534,0.271089 4.524771,-1.183395 7.25911,-1.27101 l 0.02024,-3.151038 -7.294685,-0.0049 0.01533,4.426984 z"
         id="path7025"
         style="opacity:0.39772728;fill:url(#radialGradient7093);fill-opacity:1;fill-rule:nonzero;stroke:none;stroke-width:0.99999958;marker:none;visibility:visible;display:inline;overflow:visible" />
    </g>
    <g
       id="layer1"
       style="display:inline" />
    <g
       transform="translate(-38.866398,13.991902)"
       id="g7144">
      <g
         transform="matrix(0.01766612,0,0,0.01522076,87.826835,57.91012)"
         id="g7146"
         style="display:inline">
        <rect
           width="1339.6335"
           height="478.35718"
           x="-1559.2523"
           y="-150.69685"
           id="rect7148"
           style="opacity:0.40206185;fill:url(#linearGradient7180);fill-opacity:1;fill-rule:nonzero;stroke:none;stroke-width:1;marker:none;visibility:visible;display:inline;overflow:visible" />
        <path
           d="m -219.61876,-150.68038 c 0,0 0,478.33079 0,478.33079 142.874166,0.90045 345.40022,-107.16966 345.40014,-239.196175 0,-132.026537 -159.436816,-239.134595 -345.40014,-239.134615 z"
           id="path7150"
           style="opacity:0.40206185;fill:url(#radialGradient7182);fill-opacity:1;fill-rule:nonzero;stroke:none;stroke-width:1;marker:none;visibility:visible;display:inline;overflow:visible" />
        <path
           d="m -1559.2523,-150.68038 c 0,0 0,478.33079 0,478.33079 -142.8742,0.90045 -345.4002,-107.16966 -345.4002,-239.196175 0,-132.026537 159.4368,-239.134595 345.4002,-239.134615 z"
           id="path7152"
           style="opacity:0.40206185;fill:url(#radialGradient7184);fill-opacity:1;fill-rule:nonzero;stroke:none;stroke-width:1;marker:none;visibility:visible;display:inline;overflow:visible" />
      </g>
      <path
         d="m 70.225403,30.525785 4.876536,0 c 0.68737,0 11.366906,12.634736 11.366906,13.375803 l -0.363046,15.140687 c 0,0.741071 -0.553373,1.337672 -1.240742,1.337672 l -25.749657,0 c -0.687371,0 -1.240741,-0.596601 -1.240741,-1.337672 l 0.04623,-15.140687 c 0,-0.741067 11.617144,-13.375803 12.304514,-13.375803 z"
         id="path7154"
         style="fill:#eeeeee;fill-opacity:1;fill-rule:nonzero;stroke:#757575;stroke-width:0.81856006;stroke-linecap:butt;stroke-linejoin:miter;stroke-miterlimit:4;stroke-opacity:1;stroke-dashoffset:0;marker:none;visibility:visible;display:inline;overflow:visible" />
      <path
         d="m 90.970978,61.264497 -37.101131,0 0,-37.101128 37.101131,0 0,37.101128 z"
         id="path7156"
         style="fill:none" />
      <path
         d="m 71.355363,47.565434 -0.03744,12.352834 -9.69403,0 -0.09124,-12.352834 9.822715,0 z"
         id="path7158"
         style="fill:url(#linearGradient7186);fill-opacity:1;fill-rule:evenodd" />
      <path
         d="m 70.357096,31.526238 4.550452,0 c 0.641408,0 10.641985,11.78692 10.641985,12.478263 l -0.28417,14.90786 c 0,0.375933 -0.117656,0.5349 -0.419408,0.5349 l -25.692295,0.01169 c -0.301752,0 -0.47801,-0.06542 -0.47801,-0.371257 l 0.176271,-15.083191 c 0,-0.691343 10.863769,-12.478263 11.505175,-12.478263 z"
         id="path7160"
         style="opacity:0.3125;fill:none;stroke:#ffffff;stroke-width:0.81855971;stroke-linecap:butt;stroke-linejoin:miter;stroke-miterlimit:4;stroke-opacity:1;stroke-dashoffset:0;marker:none;visibility:visible;display:inline;overflow:visible" />
      <path
         d="m 58.428285,46.70026 -0.04441,2.124321 15.035436,-10.788004 12.512825,9.130564 0.05837,-0.255157 L 72.590312,33.893506 58.428285,46.70026 z"
         id="path7162"
         style="opacity:0.2;fill:url(#radialGradient7188);fill-opacity:1;fill-rule:evenodd" />
      <path
         d="m 70.536803,48.383994 0,11.534274 -8.030911,0 -0.154684,-11.534274 8.185595,0 z"
         id="path7164"
         style="fill:url(#linearGradient7190);fill-opacity:1;fill-rule:evenodd" />
      <path
         d="m 72.540431,33.289213 15.492927,14.054559 0.404923,0.320869 0.330434,-0.140289 -0.305219,-0.623475 -0.227241,-0.182896 -15.695824,-12.74686 -15.871473,12.886858 -0.194492,0.117971 -0.17739,0.578546 0.35478,0.105797 0.31478,-0.252462 15.573795,-14.118618 z"
         id="path7166"
         style="fill:url(#linearGradient7192)" />
      <path
         d="m 72.444184,25.686433 -17.911506,14.817022 -0.511378,5.865739 1.637067,1.689771 c 0,0 16.704657,-14.04426 16.882049,-14.18397 l 16.070404,14.360204 1.553971,-1.90233 -1.32262,-5.821083 -16.301755,-14.91086 -0.09623,0.08551 z"
         id="path7168"
         style="fill:#ef2929;stroke:#a40000;stroke-width:0.81855959" />
      <path
         d="M 54.854302,40.700281 54.615647,46.1219 72.47615,31.177933 l -0.05757,-4.824042 -17.56428,14.34639 z"
         id="path7170"
         style="opacity:0.40909089;fill:url(#radialGradient7194);fill-opacity:1;fill-rule:nonzero;stroke:none;stroke-width:1;marker:none;visibility:visible;display:inline;overflow:visible" />
      <path
         d="m 72.569911,30.990412 0.08141,-4.78129 15.821907,14.449176 1.221136,5.321302 -17.124457,-14.989188 z"
         id="path7172"
         style="opacity:0.13636367;fill:url(#radialGradient7196);fill-opacity:1;fill-rule:nonzero;stroke:none;stroke-width:1;marker:none;visibility:visible;display:inline;overflow:visible" />
      <path
         d="m 74.713281,46.517534 7.399774,0 c 0.630778,0 1.13859,0.50781 1.13859,1.138589 l -0.0065,7.431884 c 0,0.630778 -0.488125,1.036271 -1.118904,1.036271 l -7.412943,0 c -0.63078,0 -1.13859,-0.507812 -1.13859,-1.138591 l 0,-7.329564 c 0,-0.630779 0.50781,-1.138589 1.13859,-1.138589 z"
         id="path7174"
         style="opacity:0.31818183;fill:none;stroke:#ffffff;stroke-width:0.81855905;stroke-linecap:butt;stroke-linejoin:miter;stroke-miterlimit:4;stroke-opacity:1;stroke-dashoffset:0;marker:none;visibility:visible;display:inline;overflow:visible" />
      <rect
         width="8.1866875"
         height="8.1548634"
         rx="0.31210217"
         ry="0.31210217"
         x="74.226677"
         y="47.167824"
         id="rect7176"
         style="fill:#3465a4;fill-opacity:1;fill-rule:nonzero;stroke:#757575;stroke-width:0.81855911;stroke-linecap:butt;stroke-linejoin:miter;stroke-miterlimit:4;stroke-opacity:1;stroke-dasharray:none;stroke-dashoffset:0;marker:none;visibility:visible;display:inline;overflow:visible" />
      <path
         d="m 74.717284,51.992418 c 2.961534,0.271089 4.524771,-1.183395 7.25911,-1.27101 l 0.02024,-3.151038 -7.294685,-0.0049 0.01533,4.426984 z"
         id="path7178"
         style="opacity:0.39772728;fill:url(#radialGradient7198);fill-opacity:1;fill-rule:nonzero;stroke:none;stroke-width:0.99999958;marker:none;visibility:visible;display:inline;overflow:visible" />
    </g>
    <g
       transform="translate(-16.323888,36.793523)"
       id="g7200">
      <g
         transform="matrix(0.01766612,0,0,0.01522076,87.826835,57.91012)"
         id="g7202"
         style="display:inline">
        <rect
           width="1339.6335"
           height="478.35718"
           x="-1559.2523"
           y="-150.69685"
           id="rect7204"
           style="opacity:0.40206185;fill:url(#linearGradient7236);fill-opacity:1;fill-rule:nonzero;stroke:none;stroke-width:1;marker:none;visibility:visible;display:inline;overflow:visible" />
        <path
           d="m -219.61876,-150.68038 c 0,0 0,478.33079 0,478.33079 142.874166,0.90045 345.40022,-107.16966 345.40014,-239.196175 0,-132.026537 -159.436816,-239.134595 -345.40014,-239.134615 z"
           id="path7206"
           style="opacity:0.40206185;fill:url(#radialGradient7238);fill-opacity:1;fill-rule:nonzero;stroke:none;stroke-width:1;marker:none;visibility:visible;display:inline;overflow:visible" />
        <path
           d="m -1559.2523,-150.68038 c 0,0 0,478.33079 0,478.33079 -142.8742,0.90045 -345.4002,-107.16966 -345.4002,-239.196175 0,-132.026537 159.4368,-239.134595 345.4002,-239.134615 z"
           id="path7208"
           style="opacity:0.40206185;fill:url(#radialGradient7240);fill-opacity:1;fill-rule:nonzero;stroke:none;stroke-width:1;marker:none;visibility:visible;display:inline;overflow:visible" />
      </g>
      <path
         d="m 70.225403,30.525785 4.876536,0 c 0.68737,0 11.366906,12.634736 11.366906,13.375803 l -0.363046,15.140687 c 0,0.741071 -0.553373,1.337672 -1.240742,1.337672 l -25.749657,0 c -0.687371,0 -1.240741,-0.596601 -1.240741,-1.337672 l 0.04623,-15.140687 c 0,-0.741067 11.617144,-13.375803 12.304514,-13.375803 z"
         id="path7210"
         style="fill:#eeeeee;fill-opacity:1;fill-rule:nonzero;stroke:#757575;stroke-width:0.81856006;stroke-linecap:butt;stroke-linejoin:miter;stroke-miterlimit:4;stroke-opacity:1;stroke-dashoffset:0;marker:none;visibility:visible;display:inline;overflow:visible" />
      <path
         d="m 90.970978,61.264497 -37.101131,0 0,-37.101128 37.101131,0 0,37.101128 z"
         id="path7212"
         style="fill:none" />
      <path
         d="m 71.355363,47.565434 -0.03744,12.352834 -9.69403,0 -0.09124,-12.352834 9.822715,0 z"
         id="path7214"
         style="fill:url(#linearGradient7242);fill-opacity:1;fill-rule:evenodd" />
      <path
         d="m 70.357096,31.526238 4.550452,0 c 0.641408,0 10.641985,11.78692 10.641985,12.478263 l -0.28417,14.90786 c 0,0.375933 -0.117656,0.5349 -0.419408,0.5349 l -25.692295,0.01169 c -0.301752,0 -0.47801,-0.06542 -0.47801,-0.371257 l 0.176271,-15.083191 c 0,-0.691343 10.863769,-12.478263 11.505175,-12.478263 z"
         id="path7216"
         style="opacity:0.3125;fill:none;stroke:#ffffff;stroke-width:0.81855971;stroke-linecap:butt;stroke-linejoin:miter;stroke-miterlimit:4;stroke-opacity:1;stroke-dashoffset:0;marker:none;visibility:visible;display:inline;overflow:visible" />
      <path
         d="m 58.428285,46.70026 -0.04441,2.124321 15.035436,-10.788004 12.512825,9.130564 0.05837,-0.255157 L 72.590312,33.893506 58.428285,46.70026 z"
         id="path7218"
         style="opacity:0.2;fill:url(#radialGradient7244);fill-opacity:1;fill-rule:evenodd" />
      <path
         d="m 70.536803,48.383994 0,11.534274 -8.030911,0 -0.154684,-11.534274 8.185595,0 z"
         id="path7220"
         style="fill:url(#linearGradient7246);fill-opacity:1;fill-rule:evenodd" />
      <path
         d="m 72.540431,33.289213 15.492927,14.054559 0.404923,0.320869 0.330434,-0.140289 -0.305219,-0.623475 -0.227241,-0.182896 -15.695824,-12.74686 -15.871473,12.886858 -0.194492,0.117971 -0.17739,0.578546 0.35478,0.105797 0.31478,-0.252462 15.573795,-14.118618 z"
         id="path7222"
         style="fill:url(#linearGradient7248)" />
      <path
         d="m 72.444184,25.686433 -17.911506,14.817022 -0.511378,5.865739 1.637067,1.689771 c 0,0 16.704657,-14.04426 16.882049,-14.18397 l 16.070404,14.360204 1.553971,-1.90233 -1.32262,-5.821083 -16.301755,-14.91086 -0.09623,0.08551 z"
         id="path7224"
         style="fill:#ef2929;stroke:#a40000;stroke-width:0.81855959" />
      <path
         d="M 54.854302,40.700281 54.615647,46.1219 72.47615,31.177933 l -0.05757,-4.824042 -17.56428,14.34639 z"
         id="path7226"
         style="opacity:0.40909089;fill:url(#radialGradient7250);fill-opacity:1;fill-rule:nonzero;stroke:none;stroke-width:1;marker:none;visibility:visible;display:inline;overflow:visible" />
      <path
         d="m 72.569911,30.990412 0.08141,-4.78129 15.821907,14.449176 1.221136,5.321302 -17.124457,-14.989188 z"
         id="path7228"
         style="opacity:0.13636367;fill:url(#radialGradient7252);fill-opacity:1;fill-rule:nonzero;stroke:none;stroke-width:1;marker:none;visibility:visible;display:inline;overflow:visible" />
      <path
         d="m 74.713281,46.517534 7.399774,0 c 0.630778,0 1.13859,0.50781 1.13859,1.138589 l -0.0065,7.431884 c 0,0.630778 -0.488125,1.036271 -1.118904,1.036271 l -7.412943,0 c -0.63078,0 -1.13859,-0.507812 -1.13859,-1.138591 l 0,-7.329564 c 0,-0.630779 0.50781,-1.138589 1.13859,-1.138589 z"
         id="path7230"
         style="opacity:0.31818183;fill:none;stroke:#ffffff;stroke-width:0.81855905;stroke-linecap:butt;stroke-linejoin:miter;stroke-miterlimit:4;stroke-opacity:1;stroke-dashoffset:0;marker:none;visibility:visible;display:inline;overflow:visible" />
      <rect
         width="8.1866875"
         height="8.1548634"
         rx="0.31210217"
         ry="0.31210217"
         x="74.226677"
         y="47.167824"
         id="rect7232"
         style="fill:#3465a4;fill-opacity:1;fill-rule:nonzero;stroke:#757575;stroke-width:0.81855911;stroke-linecap:butt;stroke-linejoin:miter;stroke-miterlimit:4;stroke-opacity:1;stroke-dasharray:none;stroke-dashoffset:0;marker:none;visibility:visible;display:inline;overflow:visible" />
      <path
         d="m 74.717284,51.992418 c 2.961534,0.271089 4.524771,-1.183395 7.25911,-1.27101 l 0.02024,-3.151038 -7.294685,-0.0049 0.01533,4.426984 z"
         id="path7234"
         style="opacity:0.39772728;fill:url(#radialGradient7254);fill-opacity:1;fill-rule:nonzero;stroke:none;stroke-width:0.99999958;marker:none;visibility:visible;display:inline;overflow:visible" />
    </g>
    <g
       transform="translate(22.542509,23.319838)"
       id="g7256">
      <g
         transform="matrix(0.01766612,0,0,0.01522076,87.826835,57.91012)"
         id="g7258"
         style="display:inline">
        <rect
           width="1339.6335"
           height="478.35718"
           x="-1559.2523"
           y="-150.69685"
           id="rect7260"
           style="opacity:0.40206185;fill:url(#linearGradient7292);fill-opacity:1;fill-rule:nonzero;stroke:none;stroke-width:1;marker:none;visibility:visible;display:inline;overflow:visible" />
        <path
           d="m -219.61876,-150.68038 c 0,0 0,478.33079 0,478.33079 142.874166,0.90045 345.40022,-107.16966 345.40014,-239.196175 0,-132.026537 -159.436816,-239.134595 -345.40014,-239.134615 z"
           id="path7262"
           style="opacity:0.40206185;fill:url(#radialGradient7294);fill-opacity:1;fill-rule:nonzero;stroke:none;stroke-width:1;marker:none;visibility:visible;display:inline;overflow:visible" />
        <path
           d="m -1559.2523,-150.68038 c 0,0 0,478.33079 0,478.33079 -142.8742,0.90045 -345.4002,-107.16966 -345.4002,-239.196175 0,-132.026537 159.4368,-239.134595 345.4002,-239.134615 z"
           id="path7264"
           style="opacity:0.40206185;fill:url(#radialGradient7296);fill-opacity:1;fill-rule:nonzero;stroke:none;stroke-width:1;marker:none;visibility:visible;display:inline;overflow:visible" />
      </g>
      <path
         d="m 70.225403,30.525785 4.876536,0 c 0.68737,0 11.366906,12.634736 11.366906,13.375803 l -0.363046,15.140687 c 0,0.741071 -0.553373,1.337672 -1.240742,1.337672 l -25.749657,0 c -0.687371,0 -1.240741,-0.596601 -1.240741,-1.337672 l 0.04623,-15.140687 c 0,-0.741067 11.617144,-13.375803 12.304514,-13.375803 z"
         id="path7266"
         style="fill:#eeeeee;fill-opacity:1;fill-rule:nonzero;stroke:#757575;stroke-width:0.81856006;stroke-linecap:butt;stroke-linejoin:miter;stroke-miterlimit:4;stroke-opacity:1;stroke-dashoffset:0;marker:none;visibility:visible;display:inline;overflow:visible" />
      <path
         d="m 90.970978,61.264497 -37.101131,0 0,-37.101128 37.101131,0 0,37.101128 z"
         id="path7268"
         style="fill:none" />
      <path
         d="m 71.355363,47.565434 -0.03744,12.352834 -9.69403,0 -0.09124,-12.352834 9.822715,0 z"
         id="path7270"
         style="fill:url(#linearGradient7298);fill-opacity:1;fill-rule:evenodd" />
      <path
         d="m 70.357096,31.526238 4.550452,0 c 0.641408,0 10.641985,11.78692 10.641985,12.478263 l -0.28417,14.90786 c 0,0.375933 -0.117656,0.5349 -0.419408,0.5349 l -25.692295,0.01169 c -0.301752,0 -0.47801,-0.06542 -0.47801,-0.371257 l 0.176271,-15.083191 c 0,-0.691343 10.863769,-12.478263 11.505175,-12.478263 z"
         id="path7272"
         style="opacity:0.3125;fill:none;stroke:#ffffff;stroke-width:0.81855971;stroke-linecap:butt;stroke-linejoin:miter;stroke-miterlimit:4;stroke-opacity:1;stroke-dashoffset:0;marker:none;visibility:visible;display:inline;overflow:visible" />
      <path
         d="m 58.428285,46.70026 -0.04441,2.124321 15.035436,-10.788004 12.512825,9.130564 0.05837,-0.255157 L 72.590312,33.893506 58.428285,46.70026 z"
         id="path7274"
         style="opacity:0.2;fill:url(#radialGradient7300);fill-opacity:1;fill-rule:evenodd" />
      <path
         d="m 70.536803,48.383994 0,11.534274 -8.030911,0 -0.154684,-11.534274 8.185595,0 z"
         id="path7276"
         style="fill:url(#linearGradient7302);fill-opacity:1;fill-rule:evenodd" />
      <path
         d="m 72.540431,33.289213 15.492927,14.054559 0.404923,0.320869 0.330434,-0.140289 -0.305219,-0.623475 -0.227241,-0.182896 -15.695824,-12.74686 -15.871473,12.886858 -0.194492,0.117971 -0.17739,0.578546 0.35478,0.105797 0.31478,-0.252462 15.573795,-14.118618 z"
         id="path7278"
         style="fill:url(#linearGradient7304)" />
      <path
         d="m 72.444184,25.686433 -17.911506,14.817022 -0.511378,5.865739 1.637067,1.689771 c 0,0 16.704657,-14.04426 16.882049,-14.18397 l 16.070404,14.360204 1.553971,-1.90233 -1.32262,-5.821083 -16.301755,-14.91086 -0.09623,0.08551 z"
         id="path7280"
         style="fill:#ef2929;stroke:#a40000;stroke-width:0.81855959" />
      <path
         d="M 54.854302,40.700281 54.615647,46.1219 72.47615,31.177933 l -0.05757,-4.824042 -17.56428,14.34639 z"
         id="path7282"
         style="opacity:0.40909089;fill:url(#radialGradient7306);fill-opacity:1;fill-rule:nonzero;stroke:none;stroke-width:1;marker:none;visibility:visible;display:inline;overflow:visible" />
      <path
         d="m 72.569911,30.990412 0.08141,-4.78129 15.821907,14.449176 1.221136,5.321302 -17.124457,-14.989188 z"
         id="path7284"
         style="opacity:0.13636367;fill:url(#radialGradient7308);fill-opacity:1;fill-rule:nonzero;stroke:none;stroke-width:1;marker:none;visibility:visible;display:inline;overflow:visible" />
      <path
         d="m 74.713281,46.517534 7.399774,0 c 0.630778,0 1.13859,0.50781 1.13859,1.138589 l -0.0065,7.431884 c 0,0.630778 -0.488125,1.036271 -1.118904,1.036271 l -7.412943,0 c -0.63078,0 -1.13859,-0.507812 -1.13859,-1.138591 l 0,-7.329564 c 0,-0.630779 0.50781,-1.138589 1.13859,-1.138589 z"
         id="path7286"
         style="opacity:0.31818183;fill:none;stroke:#ffffff;stroke-width:0.81855905;stroke-linecap:butt;stroke-linejoin:miter;stroke-miterlimit:4;stroke-opacity:1;stroke-dashoffset:0;marker:none;visibility:visible;display:inline;overflow:visible" />
      <rect
         width="8.1866875"
         height="8.1548634"
         rx="0.31210217"
         ry="0.31210217"
         x="74.226677"
         y="47.167824"
         id="rect7288"
         style="fill:#3465a4;fill-opacity:1;fill-rule:nonzero;stroke:#757575;stroke-width:0.81855911;stroke-linecap:butt;stroke-linejoin:miter;stroke-miterlimit:4;stroke-opacity:1;stroke-dasharray:none;stroke-dashoffset:0;marker:none;visibility:visible;display:inline;overflow:visible" />
      <path
         d="m 74.717284,51.992418 c 2.961534,0.271089 4.524771,-1.183395 7.25911,-1.27101 l 0.02024,-3.151038 -7.294685,-0.0049 0.01533,4.426984 z"
         id="path7290"
         style="opacity:0.39772728;fill:url(#radialGradient7310);fill-opacity:1;fill-rule:nonzero;stroke:none;stroke-width:0.99999958;marker:none;visibility:visible;display:inline;overflow:visible" />
    </g>
  </g>
</svg>
