<?xml version="1.0" encoding="UTF-8" standalone="no"?>
<!-- Created with Inkscape (http://www.inkscape.org/) -->

<svg
   xmlns:svg="http://www.w3.org/2000/svg"
   xmlns="http://www.w3.org/2000/svg"
   xmlns:xlink="http://www.w3.org/1999/xlink"
   version="1.0"
   width="128"
   height="128"
   id="svg2108">
  <defs
     id="defs3">
    <linearGradient
       id="linearGradient4356">
      <stop
         id="stop4358"
         style="stop-color:#000000;stop-opacity:1"
         offset="0" />
      <stop
         id="stop4360"
         style="stop-color:#000000;stop-opacity:0"
         offset="1" />
    </linearGradient>
    <linearGradient
       id="linearGradient4163">
      <stop
         id="stop4165"
         style="stop-color:#3b74bc;stop-opacity:1"
         offset="0" />
      <stop
         id="stop4167"
         style="stop-color:#2d5990;stop-opacity:1"
         offset="1" />
    </linearGradient>
    <linearGradient
       id="linearGradient3824">
      <stop
         id="stop3826"
         style="stop-color:#ffffff;stop-opacity:1"
         offset="0" />
      <stop
         id="stop3828"
         style="stop-color:#c9c9c9;stop-opacity:1"
         offset="1" />
    </linearGradient>
    <linearGradient
       id="linearGradient3816">
      <stop
         id="stop3818"
         style="stop-color:#000000;stop-opacity:1"
         offset="0" />
      <stop
         id="stop3820"
         style="stop-color:#000000;stop-opacity:0"
         offset="1" />
    </linearGradient>
    <linearGradient
       id="linearGradient3800">
      <stop
         id="stop3802"
         style="stop-color:#f4d9b1;stop-opacity:1"
         offset="0" />
      <stop
         id="stop3804"
         style="stop-color:#df9725;stop-opacity:1"
         offset="1" />
    </linearGradient>
    <radialGradient
       cx="31.112698"
       cy="19.008621"
       r="8.6620579"
       fx="31.112698"
       fy="19.008621"
       id="radialGradient2499"
       xlink:href="#linearGradient3816"
       gradientUnits="userSpaceOnUse" />
    <linearGradient
       x1="20.661695"
       y1="35.817974"
       x2="22.626925"
       y2="36.217758"
       id="linearGradient2501"
       xlink:href="#linearGradient4356"
       gradientUnits="userSpaceOnUse"
       gradientTransform="matrix(2.8512357,0.5265033,-0.5265033,2.8512357,-32.043584,-34.478579)" />
    <linearGradient
       x1="30.935921"
       y1="29.553486"
       x2="30.935921"
       y2="35.803486"
       id="linearGradient2503"
       xlink:href="#linearGradient3824"
       gradientUnits="userSpaceOnUse"
       gradientTransform="matrix(2.8994389,0,0,2.8994389,-129.55196,15.415418)" />
    <linearGradient
       x1="22.686766"
       y1="36.3904"
       x2="21.408455"
       y2="35.739632"
       id="linearGradient2505"
       xlink:href="#linearGradient4356"
       gradientUnits="userSpaceOnUse"
       gradientTransform="matrix(-2.8347379,0.6090996,0.6090996,2.8347379,27.6662,3.4736145)" />
    <radialGradient
       cx="28.089741"
       cy="27.203083"
       r="13.56536"
       fx="28.089741"
       fy="27.203083"
       id="radialGradient2507"
       xlink:href="#linearGradient4163"
       gradientUnits="userSpaceOnUse"
       gradientTransform="matrix(3.7622075,0,0,2.5655134,-117.78202,50.036078)" />
    <linearGradient
       x1="30.935921"
       y1="29.553486"
       x2="30.935921"
       y2="35.803486"
       id="linearGradient2509"
       xlink:href="#linearGradient3824"
       gradientUnits="userSpaceOnUse"
       gradientTransform="matrix(2.8994389,0,0,2.8994389,-93.54705,35.71149)" />
    <radialGradient
       cx="31.112698"
       cy="19.008621"
       r="8.6620579"
       fx="31.112698"
       fy="19.008621"
       id="radialGradient2511"
       xlink:href="#linearGradient3816"
       gradientUnits="userSpaceOnUse" />
    <radialGradient
       cx="29.344931"
       cy="17.064077"
       r="9.1620579"
       fx="29.344931"
       fy="17.064077"
       id="radialGradient2513"
       xlink:href="#linearGradient3800"
       gradientUnits="userSpaceOnUse"
       gradientTransform="matrix(0.787998,0,0,0.787998,6.221198,3.617627)" />
    <linearGradient
       x1="20.661695"
       y1="35.817974"
       x2="22.626925"
       y2="36.217758"
       id="linearGradient2515"
       xlink:href="#linearGradient4356"
       gradientUnits="userSpaceOnUse"
       gradientTransform="matrix(2.8512357,0.5265033,-0.5265033,2.8512357,-75.47857,28.023726)" />
    <linearGradient
       x1="22.686766"
       y1="36.3904"
       x2="21.408455"
       y2="35.739632"
       id="linearGradient2517"
       xlink:href="#linearGradient4356"
       gradientUnits="userSpaceOnUse"
       gradientTransform="matrix(-2.8347379,0.6090996,0.6090996,2.8347379,66.23987,24.272598)" />
    <radialGradient
       cx="24.8125"
       cy="39.125"
       r="17.6875"
       fx="24.8125"
       fy="39.125"
       id="radialGradient2260"
       xlink:href="#linearGradient3041"
       gradientUnits="userSpaceOnUse"
       gradientTransform="matrix(1,0,0,0.374558,0,24.47041)" />
    <linearGradient
       x1="31.177404"
       y1="19.821514"
       x2="40.859177"
       y2="9.6568537"
       id="linearGradient2256"
       xlink:href="#linearGradient2250"
       gradientUnits="userSpaceOnUse" />
    <linearGradient
       x1="14.017542"
       y1="36.942543"
       x2="15.415793"
       y2="38.268368"
       id="linearGradient2271"
       xlink:href="#linearGradient2265"
       gradientUnits="userSpaceOnUse"
       gradientTransform="matrix(0.878099,-0.0173237,0.0173237,0.878099,2.163687,4.067899)" />
    <linearGradient
       x1="12.004697"
       y1="35.688461"
       x2="10.650805"
       y2="33.194965"
       id="linearGradient2263"
       xlink:href="#linearGradient2257"
       gradientUnits="userSpaceOnUse"
       gradientTransform="matrix(1.007254,-0.02636526,0.02636526,1.007254,1.593411,0.079191)" />
    <linearGradient
       x1="9.7503242"
       y1="32.28376"
       x2="16.915297"
       y2="39.443218"
       id="linearGradient3093"
       xlink:href="#linearGradient3087"
       gradientUnits="userSpaceOnUse"
       gradientTransform="matrix(0.87827,0,0,0.87827,2.536988,4.967681)" />
    <linearGradient
       x1="38.227654"
       y1="13.602527"
       x2="37.53537"
       y2="6.6285896"
       id="linearGradient3083"
       xlink:href="#linearGradient3077"
       gradientUnits="userSpaceOnUse"
       gradientTransform="matrix(0.87827,0,0,0.87827,2.847503,5.588712)" />
    <linearGradient
       x1="50.152931"
       y1="-3.6324477"
       x2="25.291086"
       y2="-4.3002653"
       id="linearGradient3067"
       xlink:href="#linearGradient3061"
       gradientUnits="userSpaceOnUse"
       gradientTransform="matrix(0.87827,0,0,0.87827,5.328299,1.650243)" />
    <linearGradient
       x1="19.648342"
       y1="42.253601"
       x2="20.631224"
       y2="6.7758031"
       id="linearGradient3055"
       xlink:href="#linearGradient3049"
       gradientUnits="userSpaceOnUse"
       gradientTransform="matrix(0.87827,0,0,0.87827,2.536988,4.967681)" />
    <radialGradient
       cx="24.8125"
       cy="39.125"
       r="17.6875"
       fx="24.8125"
       fy="39.125"
       id="radialGradient3047"
       xlink:href="#linearGradient3041"
       gradientUnits="userSpaceOnUse"
       gradientTransform="matrix(1,0,0,0.374558,0,24.47041)" />
    <linearGradient
       id="linearGradient3041">
      <stop
         id="stop3043"
         style="stop-color:#000000;stop-opacity:1"
         offset="0" />
      <stop
         id="stop3045"
         style="stop-color:#000000;stop-opacity:0"
         offset="1" />
    </linearGradient>
    <linearGradient
       id="linearGradient3049">
      <stop
         id="stop3051"
         style="stop-color:#b6b6b6;stop-opacity:1"
         offset="0" />
      <stop
         id="stop2262"
         style="stop-color:#f2f2f2;stop-opacity:1"
         offset="0.5" />
      <stop
         id="stop2264"
         style="stop-color:#fafafa;stop-opacity:1"
         offset="0.67612958" />
      <stop
         id="stop2268"
         style="stop-color:#d8d8d8;stop-opacity:1"
         offset="0.84051722" />
      <stop
         id="stop2266"
         style="stop-color:#f2f2f2;stop-opacity:1"
         offset="0.875" />
      <stop
         id="stop3053"
         style="stop-color:#dbdbdb;stop-opacity:1"
         offset="1" />
    </linearGradient>
    <linearGradient
       id="linearGradient3061">
      <stop
         id="stop3063"
         style="stop-color:#ffffff;stop-opacity:1"
         offset="0" />
      <stop
         id="stop3065"
         style="stop-color:#000000;stop-opacity:1"
         offset="1" />
    </linearGradient>
    <linearGradient
       id="linearGradient3077">
      <stop
         id="stop3079"
         style="stop-color:#98a0a9;stop-opacity:1"
         offset="0" />
      <stop
         id="stop3081"
         style="stop-color:#c3d0dd;stop-opacity:1"
         offset="1" />
    </linearGradient>
    <linearGradient
       id="linearGradient3087">
      <stop
         id="stop3089"
         style="stop-color:#3465a4;stop-opacity:1"
         offset="0" />
      <stop
         id="stop3095"
         style="stop-color:#9fbce1;stop-opacity:1"
         offset="0" />
      <stop
         id="stop2242"
         style="stop-color:#6b95ca;stop-opacity:1"
         offset="0" />
      <stop
         id="stop2244"
         style="stop-color:#3d6aa5;stop-opacity:1"
         offset="0.75" />
      <stop
         id="stop3091"
         style="stop-color:#386eb4;stop-opacity:1"
         offset="1" />
    </linearGradient>
    <linearGradient
       id="linearGradient2257">
      <stop
         id="stop2259"
         style="stop-color:#ffffff;stop-opacity:1"
         offset="0" />
      <stop
         id="stop2261"
         style="stop-color:#ffffff;stop-opacity:0"
         offset="1" />
    </linearGradient>
    <linearGradient
       id="linearGradient2265">
      <stop
         id="stop2267"
         style="stop-color:#000000;stop-opacity:1"
         offset="0" />
      <stop
         id="stop2269"
         style="stop-color:#000000;stop-opacity:0"
         offset="1" />
    </linearGradient>
    <linearGradient
       id="linearGradient2250">
      <stop
         id="stop2252"
         style="stop-color:#ffffff;stop-opacity:1"
         offset="0" />
      <stop
         id="stop2254"
         style="stop-color:#ffffff;stop-opacity:0"
         offset="1" />
    </linearGradient>
    <radialGradient
       cx="31.112698"
       cy="19.008621"
       r="8.6620579"
       fx="31.112698"
       fy="19.008621"
       id="radialGradient2937"
       xlink:href="#linearGradient3816"
       gradientUnits="userSpaceOnUse" />
    <linearGradient
       x1="20.661695"
       y1="35.817974"
       x2="22.626925"
       y2="36.217758"
       id="linearGradient2939"
       xlink:href="#linearGradient4356"
       gradientUnits="userSpaceOnUse"
       gradientTransform="matrix(2.8512357,0.5265033,-0.5265033,2.8512357,-32.043584,-34.478579)" />
    <linearGradient
       x1="30.935921"
       y1="29.553486"
       x2="30.935921"
       y2="35.803486"
       id="linearGradient2941"
       xlink:href="#linearGradient3824"
       gradientUnits="userSpaceOnUse"
       gradientTransform="matrix(2.8994389,0,0,2.8994389,-129.55196,15.415418)" />
    <linearGradient
       x1="22.686766"
       y1="36.3904"
       x2="21.408455"
       y2="35.739632"
       id="linearGradient2943"
       xlink:href="#linearGradient4356"
       gradientUnits="userSpaceOnUse"
       gradientTransform="matrix(-2.8347379,0.6090996,0.6090996,2.8347379,27.6662,3.4736145)" />
    <radialGradient
       cx="28.089741"
       cy="27.203083"
       r="13.56536"
       fx="28.089741"
       fy="27.203083"
       id="radialGradient2945"
       xlink:href="#linearGradient4163"
       gradientUnits="userSpaceOnUse"
       gradientTransform="matrix(3.7622075,0,0,2.5655134,-117.78202,50.036078)" />
    <linearGradient
       x1="30.935921"
       y1="29.553486"
       x2="30.935921"
       y2="35.803486"
       id="linearGradient2947"
       xlink:href="#linearGradient3824"
       gradientUnits="userSpaceOnUse"
       gradientTransform="matrix(2.8994389,0,0,2.8994389,-93.54705,35.71149)" />
    <radialGradient
       cx="31.112698"
       cy="19.008621"
       r="8.6620579"
       fx="31.112698"
       fy="19.008621"
       id="radialGradient2949"
       xlink:href="#linearGradient3816"
       gradientUnits="userSpaceOnUse" />
    <radialGradient
       cx="29.344931"
       cy="17.064077"
       r="9.1620579"
       fx="29.344931"
       fy="17.064077"
       id="radialGradient2951"
       xlink:href="#linearGradient3800"
       gradientUnits="userSpaceOnUse"
       gradientTransform="matrix(0.787998,0,0,0.787998,6.221198,3.617627)" />
    <linearGradient
       x1="20.661695"
       y1="35.817974"
       x2="22.626925"
       y2="36.217758"
       id="linearGradient2953"
       xlink:href="#linearGradient4356"
       gradientUnits="userSpaceOnUse"
       gradientTransform="matrix(2.8512357,0.5265033,-0.5265033,2.8512357,-75.47857,28.023726)" />
    <linearGradient
       x1="22.686766"
       y1="36.3904"
       x2="21.408455"
       y2="35.739632"
       id="linearGradient2955"
       xlink:href="#linearGradient4356"
       gradientUnits="userSpaceOnUse"
       gradientTransform="matrix(-2.8347379,0.6090996,0.6090996,2.8347379,66.23987,24.272598)" />
    <linearGradient
       x1="22.686766"
       y1="36.3904"
       x2="21.408455"
       y2="35.739632"
       id="linearGradient2958"
       xlink:href="#linearGradient4356"
       gradientUnits="userSpaceOnUse"
       gradientTransform="matrix(-2.8347379,0.6090996,0.6090996,2.8347379,153.214,-38.51777)" />
    <linearGradient
       x1="20.661695"
       y1="35.817974"
       x2="22.626925"
       y2="36.217758"
       id="linearGradient2961"
       xlink:href="#linearGradient4356"
       gradientUnits="userSpaceOnUse"
       gradientTransform="matrix(2.8512357,0.5265033,-0.5265033,2.8512357,11.495564,-34.766642)" />
    <radialGradient
       cx="29.344931"
       cy="17.064077"
       r="9.1620579"
       fx="29.344931"
       fy="17.064077"
       id="radialGradient2965"
       xlink:href="#linearGradient3800"
       gradientUnits="userSpaceOnUse"
       gradientTransform="matrix(2.2847521,0,0,2.2847521,11.465067,-16.58979)" />
    <radialGradient
       cx="31.112698"
       cy="19.008621"
       r="8.6620579"
       fx="31.112698"
       fy="19.008621"
       id="radialGradient2968"
       xlink:href="#linearGradient3816"
       gradientUnits="userSpaceOnUse"
       gradientTransform="matrix(2.8994389,0,0,2.8994389,-6.935346,-16.930842)" />
    <linearGradient
       x1="30.935921"
       y1="29.553486"
       x2="30.935921"
       y2="35.803486"
       id="linearGradient2974"
       xlink:href="#linearGradient3824"
       gradientUnits="userSpaceOnUse"
       gradientTransform="matrix(2.8994389,0,0,2.8994389,-6.572916,-27.078878)" />
    <radialGradient
       cx="28.089741"
       cy="27.203083"
       r="13.56536"
       fx="28.089741"
       fy="27.203083"
       id="radialGradient2977"
       xlink:href="#linearGradient4163"
       gradientUnits="userSpaceOnUse"
       gradientTransform="matrix(3.7622075,0,0,2.5655134,-30.807886,-12.75429)" />
    <linearGradient
       x1="22.686766"
       y1="36.3904"
       x2="21.408455"
       y2="35.739632"
       id="linearGradient2980"
       xlink:href="#linearGradient4356"
       gradientUnits="userSpaceOnUse"
       gradientTransform="matrix(-2.8347379,0.6090996,0.6090996,2.8347379,114.64033,-59.316754)" />
    <linearGradient
       x1="30.935921"
       y1="29.553486"
       x2="30.935921"
       y2="35.803486"
       id="linearGradient2983"
       xlink:href="#linearGradient3824"
       gradientUnits="userSpaceOnUse"
       gradientTransform="matrix(2.8994389,0,0,2.8994389,-42.577826,-47.37495)" />
    <linearGradient
       x1="20.661695"
       y1="35.817974"
       x2="22.626925"
       y2="36.217758"
       id="linearGradient2986"
       xlink:href="#linearGradient4356"
       gradientUnits="userSpaceOnUse"
       gradientTransform="matrix(2.8512357,0.5265033,-0.5265033,2.8512357,54.93055,-97.268947)" />
    <radialGradient
       cx="31.112698"
       cy="19.008621"
       r="8.6620579"
       fx="31.112698"
       fy="19.008621"
       id="radialGradient2989"
       xlink:href="#linearGradient3816"
       gradientUnits="userSpaceOnUse"
       gradientTransform="matrix(5.1479827,0,0,2.7810925,-77.436136,37.893412)" />
    <linearGradient
       id="linearGradient3824-4">
      <stop
         id="stop3826-0"
         style="stop-color:#ffffff;stop-opacity:1"
         offset="0" />
      <stop
         id="stop3828-5"
         style="stop-color:#c9c9c9;stop-opacity:1"
         offset="1" />
    </linearGradient>
    <linearGradient
       x1="30.935921"
       y1="29.553486"
       x2="30.935921"
       y2="35.803486"
       id="linearGradient3048"
       xlink:href="#linearGradient3824-4"
       gradientUnits="userSpaceOnUse"
       gradientTransform="matrix(-2.8994389,0,0,2.8994389,206.6697,-31.949674)" />
  </defs>
  <g
     id="layer1"
     style="display:inline" />
  <g
     id="g3073">
    <path
       d="m 127.32361,90.758145 a 44.592124,24.089984 0 1 1 -89.18424,0 44.592124,24.089984 0 1 1 89.18424,0 z"
       id="path4177"
       style="fill:url(#radialGradient2989);fill-opacity:1;fill-rule:evenodd;stroke:none;stroke-width:1px;marker:none;visibility:visible;display:inline;overflow:visible" />
    <path
       d="m 58.907704,51.306412 12.30128,0 -7.17574,-6.66319 -1.53766,2.05021 -1.53767,-1.53766 -2.05021,6.15064 z"
       id="path4173"
       style="fill:url(#linearGradient2983);fill-opacity:1;fill-rule:evenodd;stroke:none;stroke-width:1px;marker:none;visibility:visible;display:inline;overflow:visible" />
    <path
       d="m 73.027304,67.858592 c 3.56993,-1.68451 5.23169,-5.8056 5.23169,-5.8056 -2.78091,-11.72238 -11.52861,-19.84034 -11.52861,-19.84034 0,0 7.14594,18.38998 6.29692,25.64594 z"
       id="path4370"
       style="opacity:0.22784807;fill:url(#linearGradient2980);fill-opacity:1;fill-rule:evenodd;stroke:none;stroke-width:1px;marker:none;visibility:visible;display:inline;overflow:visible" />
    <path
       d="m 68.772414,93.642282 30.75319,0 c 8.713406,0 17.340046,-3.19499 20.502126,-12.30129 3.00277,-8.64751 0.51255,-25.11511 -18.96447,-38.44149 l -36.391276,0 c -19.47702,12.30128 -21.91103,29.12437 -17.42681,38.95404 4.56834,10.01406 12.30128,11.78874 21.52724,11.78874 z"
       id="path4308"
       style="fill:url(#radialGradient2977);fill-opacity:1;fill-rule:evenodd;stroke:#204a87;stroke-width:2.89943886px;stroke-linecap:round;stroke-linejoin:round;stroke-miterlimit:4;stroke-opacity:1;stroke-dasharray:none;stroke-dashoffset:0;marker:none;visibility:visible;display:inline;overflow:visible" />
    <path
       d="m 90.297803,51.118063 c 0,0 5.636148,4.454637 5.150605,9.821116 5.347712,-4.831483 5.501362,-14.089703 5.501362,-14.089703 l -10.651967,4.268587 z"
       id="path4312-4"
       style="fill:#729fcf;fill-opacity:1;fill-rule:evenodd;stroke:none;stroke-width:1px;marker:none;visibility:visible;display:inline;overflow:visible" />
    <path
       d="m 70.822624,47.512482 c 9.22596,8.20085 13.32638,37.92894 13.32638,37.92894 0,0 4.10043,-29.72809 11.27617,-38.44149 l -24.60255,0.51255 z"
       id="path4310"
       style="fill:url(#linearGradient2974);fill-opacity:1;fill-rule:evenodd;stroke:none;stroke-width:1px;marker:none;visibility:visible;display:inline;overflow:visible" />
    <path
       d="m 77.431724,50.587802 c 0,0 -6.23763,4.81404 -5.70027,10.61349 -5.91841,-5.22129 -6.08846,-15.22647 -6.08846,-15.22647 l 11.78873,4.61298 z"
       id="path4312"
       style="fill:#729fcf;fill-opacity:1;fill-rule:evenodd;stroke:none;stroke-width:1px;marker:none;visibility:visible;display:inline;overflow:visible" />
    <path
       d="m 68.565644,90.620752 30.42511,-0.0641 c 7.653716,0 15.231216,-2.80644 18.008736,-10.80526 2.63759,-7.59583 -0.27464,-22.06071 -17.382936,-33.76639 l -33.41524,-0.70476 c -17.1083,10.80524 -20.41965,25.58239 -16.41671,34.92137 4.00294,9.33899 9.84421,10.35504 18.78104,10.4191 z"
       id="path4314"
       style="opacity:0.21518986;fill:none;stroke:#ffffff;stroke-width:2.89943814px;stroke-linecap:round;stroke-linejoin:round;stroke-miterlimit:4;stroke-opacity:1;stroke-dasharray:none;stroke-dashoffset:0;marker:none;visibility:visible;display:inline;overflow:visible" />
    <path
       d="m 66.965121,43.516732 c 0,0 6.23763,4.81404 5.70027,10.61349 5.918409,-5.22129 6.088459,-15.22647 6.088459,-15.22647 l -11.788729,4.61298 z"
       id="path4316"
       style="fill:#729fcf;fill-opacity:1;fill-rule:evenodd;stroke:none;stroke-width:1px;marker:none;visibility:visible;display:inline;overflow:visible" />
    <path
       d="m 108.38913,38.183493 a 25.115109,25.115109 0 1 1 -50.230217,0 25.115109,25.115109 0 1 1 50.230217,0 z"
       id="path4318"
       style="fill:url(#radialGradient2968);fill-opacity:1;fill-rule:evenodd;stroke:none;stroke-width:1px;marker:none;visibility:visible;display:inline;overflow:visible" />
    <path
       d="m 108.75156,28.035457 a 25.115109,25.115109 0 1 1 -50.230217,0 25.115109,25.115109 0 1 1 50.230217,0 z"
       id="path4320"
       style="fill:url(#radialGradient2965);fill-opacity:1;fill-rule:evenodd;stroke:#c17d11;stroke-width:2.89943886px;stroke-linecap:round;stroke-linejoin:round;stroke-miterlimit:4;stroke-opacity:1;stroke-dasharray:none;stroke-dashoffset:0;marker:none;visibility:visible;display:inline;overflow:visible" />
    <path
       d="m 105.66485,28.035492 a 22.028335,22.028335 0 1 1 -44.056668,0 22.028335,22.028335 0 1 1 44.056668,0 z"
       id="path4322"
       style="opacity:0.19620254;fill:none;stroke:#ffffff;stroke-width:2.89944124px;stroke-linecap:round;stroke-linejoin:round;stroke-miterlimit:4;stroke-opacity:1;stroke-dasharray:none;stroke-dashoffset:0;marker:none;visibility:visible;display:inline;overflow:visible" />
    <path
       d="m 56.785014,91.146322 c -3.61736,-1.58011 -5.23637,-5.38797 -5.23637,-5.38797 2.43925,-11.79821 10.7857,-20.43007 10.7857,-20.43007 0,0 -6.60875,18.58979 -5.54933,25.81804 z"
       id="path4354"
       style="opacity:0.22784807;fill:url(#linearGradient2961);fill-opacity:1;fill-rule:evenodd;stroke:none;stroke-width:1px;marker:none;visibility:visible;display:inline;overflow:visible" />
    <path
       d="m 111.60096,88.657582 c 3.56993,-1.68452 5.23168,-5.80562 5.23168,-5.80562 -2.7809,-11.72238 -11.5286,-19.84033 -11.5286,-19.84033 0,0 7.14594,18.38998 6.29692,25.64595 z"
       id="path4364"
       style="opacity:0.22784807;fill:url(#linearGradient2958);fill-opacity:1;fill-rule:evenodd;stroke:none;stroke-width:1px;marker:none;visibility:visible;display:inline;overflow:visible" />
    <g
       transform="matrix(1.5549637,0,0,1.5549637,5.9152518,51.189468)"
       id="g4603">
      <path
         d="m 42.5,39.125 a 17.6875,6.625 0 1 1 -35.375,0 17.6875,6.625 0 1 1 35.375,0 z"
         transform="matrix(0.751118,0,0,0.578703,17.04087,19.36341)"
         id="path2258"
         style="opacity:0.19886367;fill:url(#radialGradient2260);fill-opacity:1;fill-rule:nonzero;stroke:none;stroke-width:1;marker:none;visibility:visible;display:inline;overflow:visible" />
      <path
         d="m 42.5,39.125 a 17.6875,6.625 0 1 1 -35.375,0 17.6875,6.625 0 1 1 35.375,0 z"
         transform="matrix(0.836071,0,0,0.685436,-7.959607,15.71781)"
         id="path3039"
         style="opacity:0.3125;fill:url(#radialGradient3047);fill-opacity:1;fill-rule:nonzero;stroke:none;stroke-width:1;marker:none;visibility:visible;display:inline;overflow:visible" />
      <path
         d="M 17.906713,21.215676 36.899302,40.6474 c 0.768486,0.87827 3.20351,1.557061 4.830485,0 1.571126,-1.503613 1.207621,-3.622864 -0.329351,-5.159837 L 23.176333,15.946056 c 2.25,-6.25 -2.303889,-11.499568 -8.178889,-10.374568 l -1.262514,1.1527294 3.952215,3.7326476 0.219568,3.293516 -2.950842,2.693603 -3.526399,-0.388144 -3.6228634,-3.403296 c 0,0 -1.2701213,1.254904 -1.2701213,1.254904 -0.5907635,5.641317 5.3077257,10.683228 11.3702257,7.308228 z"
         id="path2140"
         style="fill:url(#linearGradient3055);fill-opacity:1;fill-rule:nonzero;stroke:#888a85;stroke-width:0.9999997;stroke-linecap:butt;stroke-linejoin:miter;stroke-miterlimit:4;stroke-opacity:1;stroke-dasharray:none;stroke-dashoffset:0;marker:none;visibility:visible;display:inline;overflow:visible" />
      <path
         d="m 18.117385,19.9401 19.202882,20.027612 c 0.594907,0.679893 2.479927,1.205365 3.739414,0 1.216253,-1.163989 0.934853,-2.80456 -0.25496,-3.994374 L 22.313189,16.352183 c 1.5,-6.5 -1.858788,-10.0046375 -6.858788,-9.8796375 l -0.270131,0.2733768 3.602923,3.2362667 0.130166,4.181794 -3.613917,3.298483 -4.242306,-0.458209 -3.1765824,-2.991481 -0.3526371,0.430059 c -0.3125,5.96875 6.4917185,8.684765 10.5854685,5.497265 z"
         id="path3057"
         style="opacity:0.42613639;fill:none;stroke:#ffffff;stroke-width:0.99999917;stroke-linecap:butt;stroke-linejoin:miter;stroke-miterlimit:4;stroke-opacity:1;stroke-dasharray:none;stroke-dashoffset:0;marker:none;visibility:visible;display:inline;overflow:visible" />
      <rect
         width="23.268276"
         height="2.0554912"
         rx="0.88388073"
         ry="0.88388073"
         x="28.185335"
         y="-2.6184492"
         transform="matrix(0.697938,0.716158,-0.716158,0.697938,0,0)"
         id="rect3059"
         style="opacity:0.17045456;fill:none;stroke:url(#linearGradient3067);stroke-width:0.9999972;stroke-linecap:butt;stroke-linejoin:miter;stroke-miterlimit:4;stroke-opacity:1;stroke-dasharray:none;stroke-dashoffset:0;marker:none;visibility:visible;display:inline;overflow:visible" />
      <path
         d="M 22.498794,30.12538 C 23.332335,29.410917 35.782628,16.676871 35.782628,16.676871 l 3.073945,-0.219568 4.830485,-6.6968124 -4.024327,-3.5851919 -6.257674,5.3794063 0,3.073946 -12.734915,13.228942 c -0.60381,0.60381 1.060166,2.926489 1.828652,2.267787 z"
         id="path2144"
         style="fill:url(#linearGradient3083);fill-opacity:1;fill-rule:nonzero;stroke:#878f9d;stroke-width:0.9999997;stroke-linecap:butt;stroke-linejoin:miter;stroke-miterlimit:4;stroke-opacity:1;stroke-dasharray:none;stroke-dashoffset:0;marker:none;visibility:visible;display:inline;overflow:visible" />
      <path
         d="M 22.401987,29.085455 C 23.04876,28.531078 35.426388,15.855648 35.426388,15.855648 l 2.928583,-0.247999 4.213916,-5.662065 -2.889731,-2.5489894 -5.476578,4.7174724 0.155258,2.850955 -12.676105,13.292323 c -0.468518,0.468518 0.123961,1.33922 0.720256,0.82811 z"
         id="path3085"
         style="opacity:0.53977272;fill:none;stroke:url(#linearGradient2256);stroke-width:1.00000024;stroke-linecap:butt;stroke-linejoin:miter;stroke-miterlimit:4;stroke-opacity:1;stroke-dasharray:none;stroke-dashoffset:0;marker:none;visibility:visible;display:inline;overflow:visible" />
      <path
         d="m 8.4653111,43.611561 c 1.3165875,1.465229 4.9736849,2.128165 6.5954439,-0.709914 0.707107,-1.237436 2.093943,-4.702802 8.281128,-10.271268 1.039146,-0.934171 2.139909,-3.071138 1.206747,-4.223867 l -2.415243,-2.415243 c -0.988053,-1.097837 -3.734414,-0.585749 -4.861175,0.950876 -3.358757,4.596194 -8.8460727,8.25488 -10.0835097,8.696822 -2.3679195,0.845685 -2.1014106,4.336149 -0.5348231,5.996487 l 1.8114319,1.976107 z"
         id="path2142"
         style="fill:url(#linearGradient3093);fill-opacity:1;fill-rule:nonzero;stroke:#204a87;stroke-width:0.9999997;stroke-linecap:butt;stroke-linejoin:miter;stroke-miterlimit:4;stroke-opacity:1;stroke-dashoffset:0;marker:none;visibility:visible;display:inline;overflow:visible" />
      <path
         d="m 43.25,37.5 a 1.375,1.375 0 1 1 -2.75,0 1.375,1.375 0 1 1 2.75,0 z"
         transform="matrix(0.87827,0,0,0.87827,2.427204,5.077464)"
         id="path2146"
         style="fill:#ffffff;fill-opacity:1;fill-rule:nonzero;stroke:#a1a1a1;stroke-width:1.13860166;stroke-linecap:butt;stroke-linejoin:miter;stroke-miterlimit:4;stroke-opacity:1;stroke-dasharray:none;stroke-dashoffset:0;marker:none;visibility:visible;display:inline;overflow:visible" />
      <path
         d="m 20.771261,28.20101 a 1.767767,1.767767 0 1 1 -3.535534,0 1.767767,1.767767 0 1 1 3.535534,0 z"
         transform="matrix(0.570876,0,0,0.570876,9.154848,11.25111)"
         id="path3101"
         style="opacity:0.60227272;fill:#ffffff;fill-opacity:1;fill-rule:nonzero;stroke:none;stroke-width:1;marker:none;visibility:visible;display:inline;overflow:visible" />
      <path
         d="m 18.678905,29.624807 c 0,0 -7.169891,7.299613 -10.5286477,8.53705"
         id="path3103"
         style="fill:none;stroke:url(#linearGradient2263);stroke-width:2.29450917;stroke-linecap:round;stroke-linejoin:round;stroke-miterlimit:4;stroke-opacity:1;stroke-dasharray:none;stroke-dashoffset:0;marker:none;visibility:visible;display:inline;overflow:visible" />
      <path
         d="m 8.8060013,42.48669 c 1.4412657,1.745617 4.5995337,2.161229 5.5911597,-0.370589 0.681307,-1.739512 3.333622,-5.665787 8.197584,-10.043353 0.816909,-0.734385 1.682258,-2.414329 0.948666,-3.32053 l -1.898707,-1.898707 c -0.776743,-0.863048 -2.935753,-0.460478 -3.82154,0.747517 -2.640436,3.613229 -8.4833446,8.339554 -9.8957495,8.805626 -2.1867947,0.72161 -1.7769924,3.221299 -0.5454432,4.526549 l 1.42403,1.553487 z"
         id="path2270"
         style="opacity:0.19886367;fill:none;stroke:#ffffff;stroke-width:0.99999946;stroke-linecap:butt;stroke-linejoin:miter;stroke-miterlimit:4;stroke-opacity:1;stroke-dasharray:none;stroke-dashoffset:0;marker:none;visibility:visible;display:inline;overflow:visible" />
      <path
         d="m 20.824602,31.261024 c 0,0 -7.322763,6.617405 -8.913753,10.860045"
         id="path2247"
         style="opacity:0.27840911;fill:none;stroke:url(#linearGradient2271);stroke-width:2.29450917;stroke-linecap:round;stroke-linejoin:round;stroke-miterlimit:4;stroke-opacity:1;stroke-dashoffset:0;marker:none;visibility:visible;display:inline;overflow:visible" />
    </g>
  </g>
</svg>
