<?xml version="1.0" encoding="UTF-8" standalone="no"?>
<!-- Created with Inkscape (http://www.inkscape.org/) -->

<svg
   xmlns:svg="http://www.w3.org/2000/svg"
   xmlns="http://www.w3.org/2000/svg"
   xmlns:xlink="http://www.w3.org/1999/xlink"
   version="1.0"
   width="128"
   height="128"
   id="svg2108">
  <defs
     id="defs3">
    <linearGradient
       id="linearGradient2238">
      <stop
         id="stop2240"
         style="stop-color:#ffffff;stop-opacity:1"
         offset="0" />
      <stop
         id="stop2242"
         style="stop-color:#ffffff;stop-opacity:0"
         offset="1" />
    </linearGradient>
    <linearGradient
       id="linearGradient2187">
      <stop
         id="stop2189"
         style="stop-color:#ffffff;stop-opacity:1"
         offset="0" />
      <stop
         id="stop2191"
         style="stop-color:#ffffff;stop-opacity:0"
         offset="1" />
    </linearGradient>
    <linearGradient
       id="linearGradient8662">
      <stop
         id="stop8664"
         style="stop-color:#000000;stop-opacity:1"
         offset="0" />
      <stop
         id="stop8666"
         style="stop-color:#000000;stop-opacity:0"
         offset="1" />
    </linearGradient>
    <linearGradient
       x1="33"
       y1="35.75"
       x2="31.5"
       y2="42.5"
       id="linearGradient2246"
       xlink:href="#linearGradient2240"
       gradientUnits="userSpaceOnUse" />
    <radialGradient
       cx="16.563837"
       cy="11.132236"
       r="19.0625"
       fx="16.563837"
       fy="11.132236"
       id="radialGradient4997"
       xlink:href="#linearGradient4991"
       gradientUnits="userSpaceOnUse"
       gradientTransform="matrix(-0.01290127,1.685197,1.713082,0.01311475,-1.041499,-10.11571)" />
    <linearGradient
       x1="17.060806"
       y1="11.39502"
       x2="12.624337"
       y2="12.583769"
       id="linearGradient1764"
       xlink:href="#linearGradient2187"
       gradientUnits="userSpaceOnUse"
       gradientTransform="matrix(0,-1.171926,1.171926,0,1.782801,54.10111)" />
    <radialGradient
       cx="24.837126"
       cy="36.421127"
       r="15.644737"
       fx="24.837126"
       fy="36.421127"
       id="radialGradient8668"
       xlink:href="#linearGradient8662"
       gradientUnits="userSpaceOnUse"
       gradientTransform="matrix(1,0,0,0.536723,0,16.87306)" />
    <linearGradient
       id="linearGradient4991">
      <stop
         id="stop4993"
         style="stop-color:#ffffff;stop-opacity:1"
         offset="0" />
      <stop
         id="stop4995"
         style="stop-color:#ffffff;stop-opacity:0"
         offset="1" />
    </linearGradient>
    <linearGradient
       id="linearGradient2240">
      <stop
         id="stop30138"
         style="stop-color:#99b00b;stop-opacity:1"
         offset="0" />
      <stop
         id="stop2244"
         style="stop-color:#99b00b;stop-opacity:0"
         offset="1" />
    </linearGradient>
    <linearGradient
       x1="9.5974464"
       y1="21.469084"
       x2="47.863079"
       y2="21.469084"
       id="linearGradient30171"
       xlink:href="#linearGradient2238"
       gradientUnits="userSpaceOnUse"
       gradientTransform="scale(0.8909429,1.1224064)" />
  </defs>
  <g
     id="layer1"
     style="display:inline" />
  <g
     id="layer2"
     style="display:inline">
    <g
       transform="matrix(2.7323127,0,0,2.7323127,-2.8510842,-4.6106905)"
       id="g30165">
      <path
         d="m 40.481863,36.421127 c 0,4.637476 -7.004387,8.396894 -15.644737,8.396894 -8.64035,0 -15.6447375,-3.759418 -15.6447375,-8.396894 0,-4.637476 7.0043875,-8.396894 15.6447375,-8.396894 8.64035,0 15.644737,3.759418 15.644737,8.396894 l 0,0 z"
         transform="matrix(1.489736,0,0,-1.001252,-12.64716,75.3126)"
         id="path8660"
         style="opacity:0.14117647;fill:url(#radialGradient8668);fill-opacity:1;fill-rule:evenodd;stroke:none;stroke-width:1;marker:none;visibility:visible;display:inline;overflow:visible" />
      <path
         d="M 38.37476,45.034369 C -1.6510486,46.355509 4.6747954,12.29355 25.49479,12.49765 l 0,-9.3754104 16.648481,14.5865794 -16.648481,15.29753 c 0,0 0,-9.66838 0,-9.66838 -14.06311,-0.58597 -18.1775286,21.43258 12.87997,21.6964 z"
         id="path1432"
         style="fill:url(#linearGradient2246);fill-opacity:1;fill-rule:nonzero;stroke:url(#linearGradient30171);stroke-width:1.00000012;stroke-linecap:butt;stroke-linejoin:miter;stroke-miterlimit:4;stroke-opacity:1;stroke-dasharray:none;stroke-dashoffset:0;marker:none;visibility:visible;display:block;overflow:visible" />
      <path
         d="M 16.92492,39.315519 C 5.2018204,33.235892 8.7371274,13.087489 26.5085,13.549959 l 0,-8.0990912 c 0,0 14.047738,12.2637212 14.047738,12.2637212 L 26.5085,30.658617 c 0,0 0,-8.277638 0,-8.277638 -14.83985,-0.34827 -14.15991,12.7576 -9.58358,16.93454 z"
         id="path2177"
         style="opacity:0.69886361;fill:none;stroke:url(#linearGradient1764);stroke-width:0.9999997;stroke-linecap:butt;stroke-linejoin:miter;stroke-miterlimit:10;stroke-opacity:1;stroke-dasharray:none;stroke-dashoffset:0;marker:none;visibility:visible;display:block;overflow:visible" />
      <path
         d="M 26.036989,4.5686095 36.723727,14.798241 c -6.9375,-1e-6 -4.686738,8.937183 -10.811738,11.812183 l 0.0625,-3.666815 c -15.1875,-0.0625 -14.3125,15.5 -3.25,19.75 -19.0881476,-4.881928 -16.4374986,-29.3125 3.1875,-29.812499 l 0.125,-8.3125005 z"
         id="path4989"
         style="opacity:0.49431817;fill:url(#radialGradient4997);fill-opacity:1;fill-rule:nonzero;stroke:none;stroke-width:0.9999997;marker:none;visibility:visible;display:inline;overflow:visible" />
    </g>
  </g>
</svg>
