<?xml version="1.0" encoding="UTF-8" standalone="no"?>
<!-- Created with Inkscape (http://www.inkscape.org/) -->

<svg
   xmlns:svg="http://www.w3.org/2000/svg"
   xmlns="http://www.w3.org/2000/svg"
   xmlns:xlink="http://www.w3.org/1999/xlink"
   version="1.2"
   width="128"
   height="128"
   id="svg2108">
  <defs
     id="defs3">
    <linearGradient
       id="linearGradient4356">
      <stop
         id="stop4358"
         style="stop-color:#000000;stop-opacity:1"
         offset="0" />
      <stop
         id="stop4360"
         style="stop-color:#000000;stop-opacity:0"
         offset="1" />
    </linearGradient>
    <linearGradient
       id="linearGradient4344">
      <stop
         id="stop4346"
         style="stop-color:#727e0a;stop-opacity:1"
         offset="0" />
      <stop
         id="stop4348"
         style="stop-color:#5b6508;stop-opacity:1"
         offset="1" />
    </linearGradient>
    <linearGradient
       id="linearGradient4338">
      <stop
         id="stop4340"
         style="stop-color:#e9b15e;stop-opacity:1"
         offset="0" />
      <stop
         id="stop4342"
         style="stop-color:#966416;stop-opacity:1"
         offset="1" />
    </linearGradient>
    <linearGradient
       id="linearGradient3816">
      <stop
         id="stop3818"
         style="stop-color:#000000;stop-opacity:1"
         offset="0" />
      <stop
         id="stop3820"
         style="stop-color:#000000;stop-opacity:0"
         offset="1" />
    </linearGradient>
    <radialGradient
       cx="31.112698"
       cy="19.008621"
       r="8.6620579"
       fx="31.112698"
       fy="19.008621"
       id="radialGradient4179"
       xlink:href="#linearGradient3816"
       gradientUnits="userSpaceOnUse" />
    <radialGradient
       cx="31.112698"
       cy="19.008621"
       r="8.6620579"
       fx="31.112698"
       fy="19.008621"
       id="radialGradient2339"
       xlink:href="#linearGradient3816"
       gradientUnits="userSpaceOnUse" />
    <radialGradient
       cx="29.344931"
       cy="17.064077"
       r="9.1620579"
       fx="29.344931"
       fy="17.064077"
       id="radialGradient2341"
       xlink:href="#linearGradient4338"
       gradientUnits="userSpaceOnUse"
       gradientTransform="matrix(0.787998,0,0,0.787998,6.221198,3.617627)" />
    <radialGradient
       cx="16.214741"
       cy="19.836468"
       r="13.56536"
       fx="16.214741"
       fy="19.836468"
       id="radialGradient2383"
       xlink:href="#linearGradient4344"
       gradientUnits="userSpaceOnUse"
       gradientTransform="matrix(2.8994389,0,0,1.9771767,11.79611,32.952566)" />
    <linearGradient
       x1="20.661695"
       y1="35.817974"
       x2="22.626925"
       y2="36.217758"
       id="linearGradient2387"
       xlink:href="#linearGradient4356"
       gradientUnits="userSpaceOnUse"
       gradientTransform="matrix(-2.8512357,0.5265033,0.5265033,2.8512357,133.59163,-18.137463)" />
    <radialGradient
       cx="15.491823"
       cy="10.943316"
       r="18.370251"
       fx="15.491823"
       fy="10.943316"
       id="radialGradient2813"
       xlink:href="#linearGradient2807"
       gradientUnits="userSpaceOnUse"
       gradientTransform="matrix(1.402663,0,0,1.115648,-6.237984,0.0533075)" />
    <radialGradient
       cx="131.23691"
       cy="424.15677"
       r="35.934704"
       fx="131.23691"
       fy="424.15677"
       id="radialGradient2798"
       xlink:href="#linearGradient8543"
       gradientUnits="userSpaceOnUse"
       gradientTransform="matrix(0.101953,-0.04272301,0.09621296,0.229599,-48.67227,-64.24148)" />
    <radialGradient
       cx="29.898689"
       cy="45.673546"
       r="30.365856"
       fx="29.898689"
       fy="45.673546"
       id="radialGradient18290"
       xlink:href="#linearGradient18284"
       gradientUnits="userSpaceOnUse"
       gradientTransform="matrix(1,0,0,0.415385,0,26.70146)" />
    <radialGradient
       cx="340.35886"
       cy="409.83737"
       r="103.26014"
       fx="340.35886"
       fy="409.83737"
       id="radialGradient13895"
       xlink:href="#linearGradient8543"
       gradientUnits="userSpaceOnUse"
       gradientTransform="matrix(0.105628,-0.04514018,0.06692574,0.156607,-46.01605,-24.35485)" />
    <radialGradient
       cx="424.99243"
       cy="270.67969"
       r="38.451698"
       fx="424.99243"
       fy="270.67969"
       id="radialGradient11208"
       xlink:href="#linearGradient11202"
       gradientUnits="userSpaceOnUse"
       gradientTransform="matrix(0.08174351,0.01024998,-0.04335971,0.345793,6.123413,-84.50421)" />
    <radialGradient
       cx="293.81989"
       cy="243.06874"
       r="48.782982"
       fx="293.81989"
       fy="243.06874"
       id="radialGradient10317"
       xlink:href="#linearGradient8543"
       gradientUnits="userSpaceOnUse"
       gradientTransform="matrix(0.272962,-0.071724,0.05616202,0.213737,-78.54657,-24.30491)" />
    <radialGradient
       cx="500.97794"
       cy="286.46918"
       r="40.975471"
       fx="500.97794"
       fy="286.46918"
       id="radialGradient9434"
       xlink:href="#linearGradient8543"
       gradientUnits="userSpaceOnUse"
       gradientTransform="matrix(0.224796,0.01017229,-0.00975947,0.215674,-73.87964,-54.89804)" />
    <radialGradient
       cx="420.87839"
       cy="685.99139"
       r="235.88632"
       fx="420.87839"
       fy="685.99139"
       id="radialGradient8549"
       xlink:href="#linearGradient8543"
       gradientUnits="userSpaceOnUse"
       gradientTransform="matrix(0.163532,-0.01065754,0.01078108,0.165425,-46.18187,-65.65506)" />
    <radialGradient
       cx="336.73767"
       cy="-72.420044"
       r="297.21338"
       fx="336.73767"
       fy="-72.420044"
       id="radialGradient7666"
       xlink:href="#linearGradient5012"
       gradientUnits="userSpaceOnUse"
       gradientTransform="matrix(0.136507,0,-4.484926e-5,0.07137743,-23.39816,12.31028)" />
    <linearGradient
       id="linearGradient5012">
      <stop
         id="stop5014"
         style="stop-color:#fdf188;stop-opacity:1"
         offset="0" />
      <stop
         id="stop5016"
         style="stop-color:#d3bc00;stop-opacity:1"
         offset="1" />
    </linearGradient>
    <linearGradient
       id="linearGradient8543">
      <stop
         id="stop8545"
         style="stop-color:#fffef5;stop-opacity:0.94117647"
         offset="0" />
      <stop
         id="stop8547"
         style="stop-color:#fce94f;stop-opacity:0"
         offset="1" />
    </linearGradient>
    <linearGradient
       id="linearGradient11202">
      <stop
         id="stop11204"
         style="stop-color:#c4a000;stop-opacity:1"
         offset="0" />
      <stop
         id="stop11206"
         style="stop-color:#c4a000;stop-opacity:0"
         offset="1" />
    </linearGradient>
    <linearGradient
       id="linearGradient18284">
      <stop
         id="stop18286"
         style="stop-color:#000000;stop-opacity:1"
         offset="0" />
      <stop
         id="stop20913"
         style="stop-color:#000000;stop-opacity:1"
         offset="0.5" />
      <stop
         id="stop19165"
         style="stop-color:#000000;stop-opacity:0"
         offset="1" />
    </linearGradient>
    <linearGradient
       id="linearGradient2807">
      <stop
         id="stop2809"
         style="stop-color:#ffffff;stop-opacity:1"
         offset="0" />
      <stop
         id="stop2811"
         style="stop-color:#ffffff;stop-opacity:0"
         offset="1" />
    </linearGradient>
  </defs>
  <g
     id="layer1"
     style="display:inline" />
  <g
     id="layer2"
     style="display:inline">
    <path
       d="m 39.774755,19.008621 a 8.6620579,8.6620579 0 1 1 -17.324115,0 8.6620579,8.6620579 0 1 1 17.324115,0 z"
       transform="matrix(5.1479827,0,0,1.6932259,-96.037255,78.585083)"
       id="path4306"
       style="fill:url(#radialGradient4179);fill-opacity:1;fill-rule:evenodd;stroke:none;stroke-width:1px;marker:none;visibility:visible;display:inline;overflow:visible" />
    <path
       d="m 49.0863,109.50432 30.7532,0 c 8.7134,0 17.34004,-3.19498 20.50212,-12.301276 3.00278,-8.647507 0.51256,-25.115108 -18.96446,-38.441492 l -36.39128,0 C 25.50885,71.062828 23.07484,87.885926 27.55907,97.715595 32.12741,107.72965 39.86034,109.50432 49.0863,109.50432 z"
       id="path2329"
       style="fill:url(#radialGradient2383);fill-opacity:1;fill-rule:evenodd;stroke:#404604;stroke-width:2.89943886px;stroke-linecap:round;stroke-linejoin:round;stroke-miterlimit:4;stroke-opacity:1;stroke-dasharray:none;stroke-dashoffset:0;marker:none;visibility:visible;display:inline;overflow:visible" />
    <path
       d="m 49.39209,106.41873 29.91256,0 c 7.65371,0 15.23122,-2.80642 18.00874,-10.805243 2.63758,-7.595834 -0.27465,-22.060711 -17.38295,-33.766392 l -33.41524,0 C 29.4069,72.652338 26.54404,87.429479 30.48291,96.063703 c 4.01276,8.796187 10.80525,10.355027 18.90918,10.355027 z"
       id="path3838"
       style="opacity:0.21518986;fill:none;stroke:#ffffff;stroke-width:2.89943814px;stroke-linecap:round;stroke-linejoin:round;stroke-miterlimit:4;stroke-opacity:1;stroke-dasharray:none;stroke-dashoffset:0;marker:none;visibility:visible;display:inline;overflow:visible" />
    <path
       d="m 39.774755,19.008621 a 8.6620579,8.6620579 0 1 1 -17.324115,0 8.6620579,8.6620579 0 1 1 17.324115,0 z"
       transform="matrix(2.8994389,0,0,2.8994389,-26.62145,-1.068792)"
       id="path3814"
       style="fill:url(#radialGradient2339);fill-opacity:1;fill-rule:evenodd;stroke:none;stroke-width:1px;marker:none;visibility:visible;display:inline;overflow:visible" />
    <path
       d="m 39.774755,19.008621 a 8.6620579,8.6620579 0 1 1 -17.324115,0 8.6620579,8.6620579 0 1 1 17.324115,0 z"
       transform="matrix(2.8994389,0,0,2.8994389,-26.25902,-11.216828)"
       id="path2327"
       style="fill:url(#radialGradient2341);fill-opacity:1;fill-rule:evenodd;stroke:#6f4709;stroke-width:1px;stroke-linecap:round;stroke-linejoin:round;stroke-miterlimit:4;stroke-opacity:1;stroke-dasharray:none;stroke-dashoffset:0;marker:none;visibility:visible;display:inline;overflow:visible" />
    <path
       d="m 39.774755,19.008621 a 8.6620579,8.6620579 0 1 1 -17.324115,0 8.6620579,8.6620579 0 1 1 17.324115,0 z"
       transform="matrix(2.5430833,0,0,2.5430833,-15.17178,-4.442965)"
       id="path3834"
       style="opacity:0.12658231;fill:none;stroke:#ffffff;stroke-width:1.14012825px;stroke-linecap:round;stroke-linejoin:round;stroke-miterlimit:4;stroke-opacity:1;stroke-dasharray:none;stroke-dashoffset:0;marker:none;visibility:visible;display:inline;overflow:visible" />
    <path
       d="m 88.302187,107.7755 c 3.61736,-1.5801 5.23637,-5.38796 5.23637,-5.38796 -2.43925,-11.79821 -10.7857,-20.43007 -10.7857,-20.43007 0,0 6.60875,18.58979 5.54933,25.81803 z"
       id="path2385"
       style="opacity:0.22784807;fill:url(#linearGradient2387);fill-opacity:1;fill-rule:evenodd;stroke:none;stroke-width:1px;marker:none;visibility:visible;display:inline;overflow:visible" />
    <g
       transform="matrix(1.3442815,0,0,1.3442815,2.3043024,60.255529)"
       id="g2843">
      <g
         transform="matrix(0.9513678,0,0,0.6674808,23.276149,-39.384972)"
         id="g4215">
        <path
           d="m 60.264545,45.673546 a 30.365856,12.613509 0 1 1 -60.7317119,0 30.365856,12.613509 0 1 1 60.7317119,0 z"
           transform="matrix(0.742527,0,-0.05812964,1.428611,4.500517,-36.68345)"
           id="path17409"
           style="fill:url(#radialGradient18290);fill-opacity:1;stroke:none" />
        <path
           d="M 23.152758,1.1801876 C 20.380218,1.2190783 17.86582,1.8908769 15.634281,3.0196314 14.541531,5.1714614 10.9437,7.7293655 9.4689484,8.0015561 6.5691703,11.460832 4.6887193,15.805035 3.9754523,19.98162 c -4.375e-4,0.0026 4.366e-4,0.0052 0,0.0077 -1.1863594,1.549717 -1.6900108,3.396594 -1.3773472,5.53256 1.1211744,7.659314 3.2821678,14.888292 8.1850959,16.556275 7.154429,2.433946 21.871769,1.785847 25.129507,0.458258 7.13903,-2.909286 7.771453,-9.285098 8.891432,-16.780256 0.305554,-2.044832 -0.144835,-3.841202 -1.230601,-5.372942 -0.009,-0.0556 -0.01849,-0.111474 -0.02832,-0.167342 C 42.763966,15.777007 40.697859,11.326849 37.602582,7.8466935 35.508773,7.62926 31.462964,4.270333 30.483158,2.6229925 28.330506,1.7020155 25.961342,1.1801876 23.407632,1.1801876 c -0.08532,0 -0.170037,-0.00119 -0.254874,0 z"
           id="path3120"
           style="fill:url(#radialGradient7666);fill-opacity:1;stroke:#c4a000;stroke-width:1;stroke-miterlimit:4;stroke-opacity:1;stroke-dasharray:none" />
        <path
           d="M 43.629688,22.792984 C 39.033494,39.233217 10.438199,40.802737 3.7832765,23.04227 3.7410682,39.366403 10.103414,44.083889 28.189955,43.247454 c 3.061977,-0.140689 10.00982,0.04287 14.614484,-9.136776 2.238365,-11.5104 0.825249,-11.317694 0.825249,-11.317694 z"
           id="path7668"
           style="opacity:0.66666667;fill:url(#radialGradient8549);fill-opacity:1;fill-rule:evenodd;stroke:none" />
        <path
           d="m 34.691565,7.6783057 2.500881,1.1253976 c 0,0 -1.310404,10.1226397 -6.669016,16.4849717 1.771665,-6.455834 4.188975,-17.6103693 4.168135,-17.6103693 z"
           id="path8553"
           style="fill:url(#radialGradient9434);fill-opacity:1;fill-rule:evenodd;stroke:none" />
        <path
           d="m 15.872437,4.1562328 c 1.50053,9.0656942 6.50229,19.4860282 6.002115,20.0070452 -4.584948,-6.981624 -6.502291,-12.921217 -8.00282,-17.9229779 0,-0.083363 2.000705,-2.0632267 2.000705,-2.0840673 z"
           id="path9436"
           style="fill:url(#radialGradient10317);fill-opacity:1;fill-rule:evenodd;stroke:none" />
        <path
           d="M 30.21082,3.8227818 C 26.126047,20.328594 25.959322,23.079563 25.959322,23.079563 c 0,0 6.335566,-16.7559003 6.335566,-17.1727135 0,-8e-7 -1.583891,-1.5005286 -2.084068,-2.0840677 z"
           id="path10319"
           style="fill:url(#radialGradient11208);fill-opacity:1;fill-rule:evenodd;stroke:none" />
        <flowRoot
           id="flowRoot12974"
           xml:space="preserve"><flowRegion
             id="flowRegion12976"><rect
               width="40.055775"
               height="16.02231"
               x="86.787514"
               y="412.80496"
               id="rect12978" /></flowRegion><flowPara
             id="flowPara12980" /></flowRoot>        <path
           d="m 16.18209,34.476182 -0.04467,-9.569745 14.493727,0 1.642604,-1.263542 -16.931465,0 0.04467,10.640581 0.795134,0.192706 z"
           id="path13014"
           style="fill:url(#radialGradient13895);fill-opacity:1;fill-rule:evenodd;stroke:none" />
        <path
           d="m 31.043495,24.81709 0.08168,9.804611 0.686144,-0.214742 0.01198,-10.85341 -0.779803,1.263541 z"
           id="path13897"
           style="fill:#958401;fill-opacity:1;fill-rule:evenodd;stroke:none" />
        <path
           d="m 4.2551267,24.106065 c 0,0 2.3166503,8.115689 10.2209413,8.766037 1.105608,2.490418 -1.13497,4.124601 -1.13497,4.124601 L 9.7315781,36.745641 c 0,0 -6.2387745,-7.992942 -6.4882087,-9.900882 -0.2494325,-1.907937 0.1632835,-3.407793 0.1632835,-3.407793 l 0.8484738,0.669099 z"
           id="path16526"
           style="fill:url(#radialGradient2798);fill-opacity:1;fill-rule:evenodd;stroke:none" />
        <path
           d="M 23.184204,2.3889904 C 20.570275,2.4256563 18.199721,3.0590226 16.095844,4.1232033 15.065608,6.1519314 11.673602,8.563503 10.283218,8.8201221 7.5493302,12.0815 5.776456,16.17718 5.1039936,20.11483 c -4.124e-4,0.0024 4.116e-4,0.0049 0,0.0073 -1.1184901,1.46106 -1.8584936,3.246475 -1.5637169,5.260247 1.0570343,7.22114 2.9276025,13.709677 7.3279793,15.639454 5.923141,2.597582 21.539722,1.785935 24.611092,0.534295 6.73062,-2.742852 7.061699,-8.930694 8.117606,-15.997069 0.288074,-1.927851 -0.13655,-3.621454 -1.160201,-5.065566 -0.0084,-0.05242 -0.01743,-0.105097 -0.0267,-0.157769 C 41.673494,16.150755 39.725585,11.955182 36.807382,8.6741189 34.833356,8.4691243 31.019,5.3023548 30.095246,3.7492553 28.065743,2.8809656 25.832115,2.3889904 23.424497,2.3889904 c -0.08044,0 -0.160309,-0.00112 -0.240293,0 z"
           id="path2703"
           style="opacity:0.74444442;fill:none;stroke:#ffffff;stroke-width:0.99999976;stroke-miterlimit:4;stroke-opacity:1;stroke-dasharray:none" />
        <path
           d="m 22.59375,2.78125 c -2.329557,0.1165682 -4.440971,0.7250384 -6.34375,1.6875 -1.010725,1.9903059 -4.354698,4.373241 -5.71875,4.625 -2.6821095,3.199611 -4.4027734,7.199424 -5.0625,11.0625 -4.046e-4,0.0024 4.038e-4,0.02888 0,0.03125 -1.0973069,1.43339 -1.4580267,3.591148 -1.4580267,3.591148 4.685267,3.605062 7.6416117,0.213892 14.3188727,-2.01722 12.59928,1.923141 18.748338,-0.995945 22.514154,-5.667678 0.0069,-0.0085 -0.0035,-0.02088 0,-0.03125 C 39.852567,13.479666 38.411479,11.016387 36.5625,8.9375 34.62586,8.7363873 30.875008,5.6486852 29.96875,4.125 27.977684,3.2731547 25.79952,2.78125 23.4375,2.78125 c -0.07892,10e-8 -0.171531,-0.0011 -0.25,0 -0.200346,0.00281 -0.39633,-0.00988 -0.59375,0 z"
           id="path2800"
           style="opacity:0.5944443;fill:url(#radialGradient2813);fill-opacity:1;stroke:none" />
      </g>
    </g>
  </g>
</svg>
