<?xml version="1.0" encoding="UTF-8" standalone="no"?>
<!-- Created with Inkscape (http://www.inkscape.org/) -->

<svg
   xmlns:svg="http://www.w3.org/2000/svg"
   xmlns="http://www.w3.org/2000/svg"
   xmlns:xlink="http://www.w3.org/1999/xlink"
   version="1.0"
   width="128"
   height="128"
   id="svg2">
  <defs
     id="defs4">
    <linearGradient
       id="linearGradient2870">
      <stop
         id="stop2872"
         style="stop-color:#3465a4;stop-opacity:1"
         offset="0" />
      <stop
         id="stop2874"
         style="stop-color:#204a87;stop-opacity:1"
         offset="1" />
    </linearGradient>
    <linearGradient
       id="linearGradient1970">
      <stop
         id="stop1972"
         style="stop-color:#204a87;stop-opacity:1"
         offset="0" />
      <stop
         id="stop1974"
         style="stop-color:#204a87;stop-opacity:0"
         offset="1" />
    </linearGradient>
    <linearGradient
       id="linearGradient2975">
      <stop
         id="stop2977"
         style="stop-color:#d3d7cf;stop-opacity:1"
         offset="0" />
      <stop
         id="stop2979"
         style="stop-color:#ffffff;stop-opacity:1"
         offset="1" />
    </linearGradient>
    <linearGradient
       id="linearGradient2966">
      <stop
         id="stop2968"
         style="stop-color:#000000;stop-opacity:1"
         offset="0" />
      <stop
         id="stop2970"
         style="stop-color:#000000;stop-opacity:0"
         offset="1" />
    </linearGradient>
    <linearGradient
       id="linearGradient2949">
      <stop
         id="stop2951"
         style="stop-color:#babdb6;stop-opacity:1"
         offset="0" />
      <stop
         id="stop2954"
         style="stop-color:#555753;stop-opacity:1"
         offset="1" />
    </linearGradient>
    <linearGradient
       id="linearGradient2885">
      <stop
         id="stop2887"
         style="stop-color:#000000;stop-opacity:0"
         offset="0" />
      <stop
         id="stop2893"
         style="stop-color:#000000;stop-opacity:1"
         offset="0.5" />
      <stop
         id="stop2889"
         style="stop-color:#000000;stop-opacity:0"
         offset="1" />
    </linearGradient>
    <linearGradient
       id="linearGradient2871">
      <stop
         id="stop2873"
         style="stop-color:#000000;stop-opacity:1"
         offset="0" />
      <stop
         id="stop2875"
         style="stop-color:#000000;stop-opacity:0"
         offset="1" />
    </linearGradient>
    <linearGradient
       id="linearGradient2851">
      <stop
         id="stop2853"
         style="stop-color:#204a87;stop-opacity:1"
         offset="0" />
      <stop
         id="stop2855"
         style="stop-color:#204a87;stop-opacity:0"
         offset="1" />
    </linearGradient>
    <linearGradient
       id="linearGradient2843">
      <stop
         id="stop2845"
         style="stop-color:#ffffff;stop-opacity:1"
         offset="0" />
      <stop
         id="stop2847"
         style="stop-color:#ffffff;stop-opacity:0"
         offset="1" />
    </linearGradient>
    <linearGradient
       id="linearGradient3061">
      <stop
         id="stop3063"
         style="stop-color:#000000;stop-opacity:1"
         offset="0" />
      <stop
         id="stop3069"
         style="stop-color:#474946;stop-opacity:1"
         offset="0.5" />
      <stop
         id="stop3065"
         style="stop-color:#000000;stop-opacity:1"
         offset="1" />
    </linearGradient>
    <linearGradient
       id="linearGradient3053">
      <stop
         id="stop3055"
         style="stop-color:#ffffff;stop-opacity:1"
         offset="0" />
      <stop
         id="stop3057"
         style="stop-color:#ffffff;stop-opacity:0"
         offset="1" />
    </linearGradient>
    <linearGradient
       id="linearGradient3009">
      <stop
         id="stop3011"
         style="stop-color:#3465a4;stop-opacity:1"
         offset="0" />
      <stop
         id="stop3013"
         style="stop-color:#888a85;stop-opacity:1"
         offset="1" />
    </linearGradient>
    <linearGradient
       id="linearGradient2972">
      <stop
         id="stop2974"
         style="stop-color:#3465a4;stop-opacity:1"
         offset="0" />
      <stop
         id="stop2976"
         style="stop-color:#888a85;stop-opacity:1"
         offset="1" />
    </linearGradient>
    <linearGradient
       id="linearGradient2951">
      <stop
         id="stop2953"
         style="stop-color:#ffffff;stop-opacity:0"
         offset="0" />
      <stop
         id="stop1976"
         style="stop-color:#ffffff;stop-opacity:1"
         offset="0.2" />
      <stop
         id="stop1978"
         style="stop-color:#ffffff;stop-opacity:1"
         offset="0.5566265" />
      <stop
         id="stop2955"
         style="stop-color:#ffffff;stop-opacity:0"
         offset="1" />
    </linearGradient>
    <linearGradient
       id="linearGradient2941">
      <stop
         id="stop2943"
         style="stop-color:#2e3436;stop-opacity:1"
         offset="0" />
      <stop
         id="stop2945"
         style="stop-color:#eeeeec;stop-opacity:1"
         offset="1" />
    </linearGradient>
    <linearGradient
       id="linearGradient2931">
      <stop
         id="stop2933"
         style="stop-color:#ffffff;stop-opacity:1"
         offset="0" />
      <stop
         id="stop2935"
         style="stop-color:#ffffff;stop-opacity:0"
         offset="1" />
    </linearGradient>
    <linearGradient
       id="linearGradient2907">
      <stop
         id="stop2909"
         style="stop-color:#555753;stop-opacity:1"
         offset="0" />
      <stop
         id="stop2911"
         style="stop-color:#2e3436;stop-opacity:1"
         offset="1" />
    </linearGradient>
    <linearGradient
       id="linearGradient2899">
      <stop
         id="stop2901"
         style="stop-color:#1a1a1a;stop-opacity:1"
         offset="0" />
      <stop
         id="stop2903"
         style="stop-color:#555753;stop-opacity:1"
         offset="1" />
    </linearGradient>
    <linearGradient
       x1="83.8125"
       y1="19.496916"
       x2="86.3125"
       y2="36"
       id="linearGradient1968"
       xlink:href="#linearGradient2951"
       gradientUnits="userSpaceOnUse"
       gradientTransform="translate(-50,0)" />
    <linearGradient
       x1="90.598061"
       y1="12.11433"
       x2="65.869003"
       y2="10.434952"
       id="linearGradient2521"
       xlink:href="#linearGradient2899"
       gradientUnits="userSpaceOnUse"
       gradientTransform="matrix(0.9984,0,0,1,-49.9128,0)" />
    <radialGradient
       cx="65.359207"
       cy="7.6079164"
       r="19.032827"
       fx="65.359207"
       fy="7.6079164"
       id="radialGradient2523"
       xlink:href="#linearGradient2907"
       gradientUnits="userSpaceOnUse"
       gradientTransform="matrix(1.978344,0,0,0.173638,-107.4175,7.676856)" />
    <radialGradient
       cx="2"
       cy="36"
       r="2"
       fx="2"
       fy="36"
       id="radialGradient2525"
       xlink:href="#linearGradient2871"
       gradientUnits="userSpaceOnUse"
       gradientTransform="matrix(2,0,0,2,-10,-108)" />
    <radialGradient
       cx="2"
       cy="36"
       r="2"
       fx="2"
       fy="36"
       id="radialGradient2527"
       xlink:href="#linearGradient2871"
       gradientUnits="userSpaceOnUse"
       gradientTransform="matrix(2,0,0,2,38,-36)" />
    <linearGradient
       x1="14.0625"
       y1="32"
       x2="14.0625"
       y2="40.001007"
       id="linearGradient2529"
       xlink:href="#linearGradient2885"
       gradientUnits="userSpaceOnUse" />
    <linearGradient
       x1="70.216614"
       y1="8.8990822"
       x2="75.291542"
       y2="42.916157"
       id="linearGradient2531"
       xlink:href="#linearGradient3009"
       gradientUnits="userSpaceOnUse"
       gradientTransform="translate(-50,0)" />
    <linearGradient
       x1="35.1875"
       y1="42.312241"
       x2="32.8125"
       y2="22.157804"
       id="linearGradient2533"
       xlink:href="#linearGradient2870"
       gradientUnits="userSpaceOnUse" />
    <linearGradient
       x1="79.3125"
       y1="20.309416"
       x2="80.6875"
       y2="22.875"
       id="linearGradient2535"
       xlink:href="#linearGradient1970"
       gradientUnits="userSpaceOnUse"
       gradientTransform="translate(-50,0)" />
    <linearGradient
       x1="87.1875"
       y1="24.746109"
       x2="87.1875"
       y2="29.582914"
       id="linearGradient2537"
       xlink:href="#linearGradient2941"
       gradientUnits="userSpaceOnUse"
       gradientTransform="translate(-50,0)" />
    <linearGradient
       x1="15.904867"
       y1="28.589727"
       x2="16.907635"
       y2="24.847351"
       id="linearGradient2539"
       xlink:href="#linearGradient3061"
       gradientUnits="userSpaceOnUse" />
    <linearGradient
       x1="70.216614"
       y1="8.8990822"
       x2="75.291542"
       y2="42.916157"
       id="linearGradient2541"
       xlink:href="#linearGradient2972"
       gradientUnits="userSpaceOnUse"
       gradientTransform="translate(-50,0)" />
    <linearGradient
       x1="66.75"
       y1="55.5"
       x2="52.625"
       y2="-4.875"
       id="linearGradient2543"
       xlink:href="#linearGradient2931"
       gradientUnits="userSpaceOnUse" />
    <linearGradient
       x1="23"
       y1="23.5"
       x2="46.880234"
       y2="23.5"
       id="linearGradient2545"
       xlink:href="#linearGradient2851"
       gradientUnits="userSpaceOnUse" />
    <linearGradient
       x1="23.069899"
       y1="30.631689"
       x2="6.980577"
       y2="30.631689"
       id="linearGradient2547"
       xlink:href="#linearGradient2843"
       gradientUnits="userSpaceOnUse" />
    <linearGradient
       x1="26.125"
       y1="25.907301"
       x2="26.125"
       y2="21.723757"
       id="linearGradient2549"
       xlink:href="#linearGradient3053"
       gradientUnits="userSpaceOnUse" />
    <linearGradient
       x1="16.4375"
       y1="28.703588"
       x2="16.4375"
       y2="25.648201"
       id="linearGradient2551"
       xlink:href="#linearGradient2949"
       gradientUnits="userSpaceOnUse" />
    <linearGradient
       x1="17.0625"
       y1="25.373756"
       x2="17.0625"
       y2="28.593903"
       id="linearGradient2553"
       xlink:href="#linearGradient2975"
       gradientUnits="userSpaceOnUse" />
    <linearGradient
       x1="17.9375"
       y1="29.124975"
       x2="17.4375"
       y2="25.249989"
       id="linearGradient2555"
       xlink:href="#linearGradient2966"
       gradientUnits="userSpaceOnUse" />
    <linearGradient
       x1="17.9375"
       y1="29.124975"
       x2="17.4375"
       y2="25.249989"
       id="linearGradient2557"
       xlink:href="#linearGradient2966"
       gradientUnits="userSpaceOnUse" />
    <linearGradient
       x1="17.9375"
       y1="29.124975"
       x2="17.4375"
       y2="25.249989"
       id="linearGradient2559"
       xlink:href="#linearGradient2966"
       gradientUnits="userSpaceOnUse" />
  </defs>
  <g
     id="layer1">
    <g
       transform="matrix(2.132166,0,0,2.132166,16.479732,14.702806)"
       id="g2488">
      <path
         d="m 6.4968,7.5 -1.9968,2 0,15.5 39,0 0,-15.5 -0.0624,0 -1.9968,-2 -34.944,0 z"
         id="rect2853"
         style="fill:url(#linearGradient2521);fill-opacity:1;fill-rule:nonzero;stroke:#000000;stroke-width:1.00000024;stroke-linecap:round;stroke-linejoin:round;stroke-miterlimit:4;stroke-opacity:1;stroke-dasharray:none;stroke-dashoffset:1.20000057;marker:none;visibility:visible;display:inline;overflow:visible" />
      <path
         d="M 6.616789,7.9946858 4.998544,9.7052704 5.005131,10.001073 43.058594,10 43.0642,9.7734375 41.39985,8 6.616789,7.9946858 z"
         id="path2862"
         style="fill:url(#radialGradient2523);fill-opacity:1;fill-rule:nonzero;stroke:none;stroke-width:1.00000024;marker:none;visibility:visible;display:inline;overflow:visible" />
      <path
         d="m 56.90625,8.46875 -1.4375,1.4375 0,14.125 37.125,0 0,-14.0625 -1.5,-1.5 -34.1875,0 z"
         transform="translate(-50,0)"
         id="path2919"
         style="opacity:0.1;fill:none;stroke:#ffffff;stroke-width:1.00000024;stroke-linecap:round;stroke-linejoin:round;stroke-miterlimit:4;stroke-opacity:1;stroke-dasharray:none;stroke-dashoffset:1.20000057;marker:none;visibility:visible;display:inline;overflow:visible" />
      <g
         transform="translate(0,-0.5)"
         id="g2895"
         style="opacity:0.7">
        <rect
           width="4"
           height="8"
           rx="0.25"
           ry="0.33333334"
           x="-6"
           y="-40"
           transform="scale(-1,-1)"
           id="rect2869"
           style="fill:url(#radialGradient2525);fill-opacity:1;stroke:none" />
        <rect
           width="4"
           height="8"
           rx="0.25"
           ry="0.33333334"
           x="42"
           y="32"
           id="rect2879"
           style="fill:url(#radialGradient2527);fill-opacity:1;stroke:none" />
        <rect
           width="36"
           height="8"
           x="6"
           y="32"
           id="rect2883"
           style="fill:url(#linearGradient2529);fill-opacity:1;stroke:none" />
      </g>
      <path
         d="m 6.5,11.5 0,5 -2,0 0,19.96875 c 0,0.566049 0.4652,1.031251 1.03125,1.03125 l 36.9375,0 c 0.56605,0 1.031252,-0.465202 1.03125,-1.03125 l 0,-19.96875 -1,0 0,-5 c -0.01027,-3.08e-4 -0.02092,0 -0.03125,0 L 6.5,11.5 z"
         id="rect1879"
         style="fill:url(#linearGradient2531);fill-opacity:1;fill-rule:nonzero;stroke:url(#linearGradient2533);stroke-width:1.00000072;stroke-linecap:round;stroke-linejoin:round;stroke-miterlimit:4;stroke-opacity:1;stroke-dasharray:none;stroke-dashoffset:1.20000057;marker:none;visibility:visible;display:inline;overflow:visible" />
      <path
         d="m 8.5,35.5 0,-17.999994 31.999973,0 0,17.999994"
         id="rect2774"
         style="opacity:0.6;fill:none;stroke:url(#linearGradient2535);stroke-width:0.9999997;stroke-linecap:round;stroke-linejoin:round;stroke-miterlimit:4;stroke-opacity:1;stroke-dashoffset:1.20000057;marker:none;visibility:visible;display:inline;overflow:visible" />
      <rect
         width="31.000013"
         height="6.0000124"
         x="8.9999847"
         y="24"
         id="rect2776"
         style="fill:url(#linearGradient2537);fill-opacity:1;fill-rule:nonzero;stroke:none;stroke-width:0.99999976;marker:none;visibility:visible;display:inline;overflow:visible" />
      <path
         d="m 9,24 0,6 16.34375,0 C 25.764262,28.994106 26.000001,27.895117 26,26.75 26,25.79336 25.829472,24.863923 25.53125,24 L 9,24 z"
         id="path2827"
         style="fill:url(#linearGradient2539);fill-opacity:1;fill-rule:nonzero;stroke:none;stroke-width:0.94752491;marker:none;visibility:visible;display:inline;overflow:visible" />
      <path
         d="m 35.90625,27.046875 c 0,1.958885 -1.699919,3.546875 -3.796875,3.546875 -2.096956,0 -3.796875,-1.58799 -3.796875,-3.546875 0,-1.958885 1.699919,-3.546875 3.796875,-3.546875 2.096956,0 3.796875,1.58799 3.796875,3.546875 z"
         transform="matrix(1.053505,0,0,1.057278,-1.32736,-1.846054)"
         id="path2778"
         style="fill:#ffffff;fill-opacity:1;fill-rule:nonzero;stroke:#d3d7cf;stroke-width:0.94752491;stroke-linecap:round;stroke-linejoin:round;stroke-miterlimit:4;stroke-opacity:1;stroke-dasharray:none;stroke-dashoffset:1.20000057;marker:none;visibility:visible;display:inline;overflow:visible" />
      <path
         d="m 35.90625,27.046875 c 0,1.958885 -1.699919,3.546875 -3.796875,3.546875 -2.096956,0 -3.796875,-1.58799 -3.796875,-3.546875 0,-1.958885 1.699919,-3.546875 3.796875,-3.546875 2.096956,0 3.796875,1.58799 3.796875,3.546875 z"
         transform="matrix(1.053505,0,0,1.057278,-17.32736,-1.846054)"
         id="path2815"
         style="fill:#ffffff;fill-opacity:1;fill-rule:nonzero;stroke:#d3d7cf;stroke-width:0.94752491;stroke-linecap:round;stroke-linejoin:round;stroke-miterlimit:4;stroke-opacity:1;stroke-dasharray:none;stroke-dashoffset:1.20000057;marker:none;visibility:visible;display:inline;overflow:visible" />
      <path
         d="m 9,18 0,6 31,0 0,-6 -31,0 z m 0,12 0,7 31,0 0,-7 -31,0 z"
         id="rect2829"
         style="fill:url(#linearGradient2541);fill-opacity:1;fill-rule:nonzero;stroke:none;stroke-width:0.99999982;marker:none;visibility:visible;display:inline;overflow:visible" />
      <path
         d="m 57.5,12.5 0,4 c -5.5e-5,0.552262 -0.447738,0.999945 -1,1 l -1,0 0,18.96875 c 0,0.01816 0.01309,0.03125 0.03125,0.03125 l 36.9375,0 c 0.01816,0 0.03125,-0.0131 0.03125,-0.03125 L 92.5,17.5 c -0.552262,-5.5e-5 -0.999945,-0.447738 -1,-1 l 0,-4 -34,0 z"
         transform="translate(-50,0)"
         id="path2838"
         style="opacity:0.15;fill:none;stroke:url(#linearGradient2543);stroke-width:1;stroke-linecap:round;stroke-linejoin:miter;stroke-miterlimit:4;stroke-opacity:1;stroke-dasharray:none;stroke-dashoffset:1.20000057;marker:none;visibility:visible;display:inline;overflow:visible" />
      <path
         d="m 9.5,23.5 30,0"
         id="path2990"
         style="opacity:0.4;fill:#204a87;fill-opacity:1;fill-rule:evenodd;stroke:url(#linearGradient2545);stroke-width:1px;stroke-linecap:square;stroke-linejoin:miter;stroke-opacity:1" />
      <path
         d="m 39.5,30.5 -30,0"
         id="path2992"
         style="opacity:0.2;fill:none;stroke:url(#linearGradient2547);stroke-width:1px;stroke-linecap:square;stroke-linejoin:miter;stroke-opacity:1" />
      <path
         d="m 9,24 31,0 0,3 C 27.589319,29.91851 19.498538,23.799598 9,27 l 0,-3 z"
         id="rect3015"
         style="opacity:0.49729728;fill:url(#linearGradient2549);fill-opacity:1;fill-rule:nonzero;stroke:none;stroke-width:1;marker:none;visibility:visible;display:inline;overflow:visible" />
      <path
         d="m 16,24.5 0,0.9375 c -0.147207,0.048 -0.283915,0.10148 -0.40625,0.1875 l -0.78125,-0.4375 -0.5,0.875 0.71875,0.40625 C 15.011257,26.560269 15,26.652966 15,26.75 c 0,0.09703 0.01126,0.189732 0.03125,0.28125 l -0.71875,0.40625 0.5,0.875 0.78125,-0.4375 C 15.716085,27.96102 15.852793,28.014497 16,28.0625 L 16,29 l 1,0 0,-0.9375 c 0.147207,-0.048 0.283915,-0.10148 0.40625,-0.1875 l 0.78125,0.4375 0.5,-0.875 -0.71875,-0.40625 C 17.988743,26.939732 18,26.847034 18,26.75 c 0,-0.09703 -0.01126,-0.189732 -0.03125,-0.28125 l 0.71875,-0.40625 -0.5,-0.875 -0.78125,0.4375 C 17.283915,25.53898 17.147207,25.485503 17,25.4375 l 0,-0.9375 -1,0 z m 16,0 0,0.9375 c -0.147207,0.048 -0.283915,0.10148 -0.40625,0.1875 l -0.78125,-0.4375 -0.5,0.875 0.71875,0.40625 C 31.011257,26.560269 31,26.652966 31,26.75 c 0,0.09703 0.01126,0.189732 0.03125,0.28125 l -0.71875,0.40625 0.5,0.875 0.78125,-0.4375 C 31.716085,27.96102 31.852793,28.014497 32,28.0625 L 32,29 l 1,0 0,-0.9375 c 0.147207,-0.048 0.283915,-0.10148 0.40625,-0.1875 l 0.78125,0.4375 0.5,-0.875 -0.71875,-0.40625 C 33.988743,26.939732 34,26.847034 34,26.75 c 0,-0.09703 -0.01126,-0.189732 -0.03125,-0.28125 l 0.71875,-0.40625 -0.5,-0.875 -0.78125,0.4375 C 33.283915,25.53898 33.147207,25.485503 33,25.4375 l 0,-0.9375 -1,0 z"
         id="path2780"
         style="fill:url(#linearGradient2551);fill-opacity:1;fill-rule:nonzero;stroke:url(#linearGradient2553);stroke-width:0.2;stroke-linecap:round;stroke-linejoin:round;stroke-miterlimit:4;stroke-opacity:1;stroke-dasharray:none;stroke-dashoffset:1.20000057;marker:none;visibility:visible;display:inline;overflow:visible" />
      <rect
         width="12"
         height="2"
         rx="1"
         ry="1"
         x="9"
         y="14"
         id="rect3039"
         style="opacity:0.1;fill:#ffffff;fill-opacity:1;fill-rule:nonzero;stroke:none;stroke-width:1;marker:none;visibility:visible;display:inline;overflow:visible" />
      <path
         d="m 11.585054,21.902882 c -0.09299,0.04825 -0.189928,0.08465 -0.290811,0.109218 -0.100886,0.02456 -0.206156,0.03684 -0.315812,0.03684 -0.327218,0 -0.586447,-0.09124 -0.777688,-0.273704 -0.191243,-0.183347 -0.2868636,-0.43161 -0.2868634,-0.744791 -2e-7,-0.314057 0.09562,-0.56232 0.2868634,-0.744791 0.191241,-0.183345 0.45047,-0.275018 0.777688,-0.27502 0.109656,2e-6 0.214926,0.01228 0.315812,0.03684 0.100883,0.02457 0.19782,0.06097 0.290811,0.109219 l 0,0.406608 c -0.09387,-0.06404 -0.186419,-0.110971 -0.277652,-0.140799 -0.09124,-0.02982 -0.187296,-0.04474 -0.288179,-0.04474 -0.180716,1e-6 -0.322831,0.0579 -0.426347,0.173696 -0.103517,0.1158 -0.155275,0.27546 -0.155274,0.478983 -10e-7,0.202647 0.05176,0.361869 0.155274,0.477666 0.103516,0.115798 0.245631,0.173697 0.426347,0.173697 0.100883,0 0.196943,-0.01491 0.288179,-0.04474 0.09123,-0.02983 0.183784,-0.07676 0.277652,-0.1408 l 0,0.406609 m 1.494845,-0.964544 c -0.04123,-0.0193 -0.08246,-0.03334 -0.123693,-0.04211 -0.04035,-0.0096 -0.08115,-0.01447 -0.122377,-0.01447 -0.121062,1e-6 -0.21449,0.03904 -0.280284,0.117113 -0.06492,0.0772 -0.09738,0.188173 -0.09737,0.332919 l 0,0.678997 -0.471087,0 0,-1.473791 0.471087,0 0,0.242123 c 0.06053,-0.0965 0.129833,-0.166678 0.20791,-0.210542 0.07895,-0.04474 0.173257,-0.06711 0.282915,-0.06711 0.01579,1e-6 0.0329,8.79e-4 0.05132,0.0026 0.01842,8.78e-4 0.04518,0.0035 0.08027,0.0079 l 0.0013,0.426347 m 0.938227,-0.100008 c -0.104395,2e-6 -0.184225,0.03772 -0.239492,0.113167 -0.05439,0.07457 -0.08159,0.18247 -0.08158,0.323707 -1e-6,0.141239 0.02719,0.24958 0.08158,0.325024 0.05527,0.07457 0.135097,0.111851 0.239492,0.11185 0.102638,10e-7 0.181152,-0.03728 0.235543,-0.11185 0.05439,-0.07544 0.08158,-0.183785 0.08159,-0.325024 -1e-6,-0.141237 -0.0272,-0.24914 -0.08159,-0.323707 -0.05439,-0.07544 -0.132905,-0.113165 -0.235543,-0.113167 m 0,-0.336866 c 0.253526,1e-6 0.451347,0.06843 0.593464,0.205278 0.142991,0.136853 0.214487,0.32634 0.214489,0.568462 -2e-6,0.242124 -0.0715,0.431611 -0.214489,0.568463 -0.142117,0.136852 -0.339938,0.205278 -0.593464,0.205278 -0.254406,0 -0.453543,-0.06843 -0.597412,-0.205278 -0.142993,-0.136852 -0.21449,-0.326339 -0.21449,-0.568463 0,-0.242122 0.0715,-0.431609 0.21449,-0.568462 0.143869,-0.136851 0.343006,-0.205277 0.597412,-0.205278 m 2.302799,0.08159 0,0.35792 c -0.100886,-0.04211 -0.198261,-0.07369 -0.292127,-0.09474 -0.09387,-0.02105 -0.18247,-0.03158 -0.265809,-0.03158 -0.08948,2e-6 -0.156152,0.01141 -0.200014,0.03421 -0.04299,0.02193 -0.06448,0.05615 -0.06448,0.10264 -1e-6,0.03772 0.01623,0.06667 0.04869,0.08685 0.03334,0.02018 0.09255,0.03509 0.177645,0.04474 l 0.0829,0.01184 c 0.241244,0.03071 0.403536,0.08115 0.486877,0.151327 0.08334,0.07018 0.125008,0.180277 0.125009,0.330287 -1e-6,0.157029 -0.0579,0.27502 -0.173697,0.353973 -0.115799,0.07895 -0.288618,0.11843 -0.518458,0.11843 -0.09738,0 -0.198261,-0.0079 -0.302654,-0.02369 -0.103517,-0.01491 -0.210103,-0.03772 -0.31976,-0.06843 l 0,-0.357921 c 0.09387,0.04562 0.189926,0.07983 0.288179,0.102639 0.09913,0.02281 0.199575,0.03421 0.301337,0.03421 0.09211,0 0.161415,-0.01272 0.20791,-0.03816 0.04649,-0.02544 0.06974,-0.06316 0.06974,-0.113166 -1e-6,-0.04211 -0.01623,-0.07325 -0.04869,-0.09343 -0.03158,-0.02105 -0.09518,-0.03728 -0.190803,-0.04869 l -0.0829,-0.01053 c -0.209665,-0.02632 -0.356605,-0.07501 -0.440821,-0.146064 -0.08422,-0.07106 -0.126325,-0.178959 -0.126325,-0.323707 0,-0.156151 0.05351,-0.271949 0.160538,-0.347394 0.107025,-0.07544 0.271072,-0.113165 0.492141,-0.113166 0.08685,1e-6 0.178082,0.0066 0.273704,0.01974 0.09562,0.01316 0.199575,0.03378 0.311865,0.06185 m 1.60538,0 0,0.35792 c -0.100886,-0.04211 -0.198261,-0.07369 -0.292127,-0.09474 -0.09387,-0.02105 -0.18247,-0.03158 -0.265808,-0.03158 -0.08948,2e-6 -0.156153,0.01141 -0.200015,0.03421 -0.04299,0.02193 -0.06448,0.05615 -0.06448,0.10264 -1e-6,0.03772 0.01623,0.06667 0.04869,0.08685 0.03333,0.02018 0.09255,0.03509 0.177645,0.04474 l 0.0829,0.01184 c 0.241244,0.03071 0.403536,0.08115 0.486877,0.151327 0.08334,0.07018 0.125008,0.180277 0.125009,0.330287 -1e-6,0.157029 -0.0579,0.27502 -0.173697,0.353973 -0.115799,0.07895 -0.288618,0.11843 -0.518458,0.11843 -0.09738,0 -0.198261,-0.0079 -0.302654,-0.02369 -0.103517,-0.01491 -0.210103,-0.03772 -0.31976,-0.06843 l 0,-0.357921 c 0.09387,0.04562 0.189926,0.07983 0.288179,0.102639 0.09913,0.02281 0.199575,0.03421 0.301337,0.03421 0.09211,0 0.161415,-0.01272 0.20791,-0.03816 0.04649,-0.02544 0.06974,-0.06316 0.06974,-0.113166 -10e-7,-0.04211 -0.01623,-0.07325 -0.04869,-0.09343 -0.03158,-0.02105 -0.09518,-0.03728 -0.190804,-0.04869 l -0.0829,-0.01053 c -0.209664,-0.02632 -0.356605,-0.07501 -0.440821,-0.146064 -0.08422,-0.07106 -0.126325,-0.178959 -0.126325,-0.323707 0,-0.156151 0.05351,-0.271949 0.160538,-0.347394 0.107025,-0.07544 0.271072,-0.113165 0.492141,-0.113166 0.08685,1e-6 0.178082,0.0066 0.273704,0.01974 0.09562,0.01316 0.199575,0.03378 0.311865,0.06185 m 1.138241,-0.536881 0.553987,0 0.447401,0.70005 0.447401,-0.70005 0.555304,0 -0.748739,1.136924 0,0.827692 -0.506616,0 0,-0.827692 -0.748738,-1.136924 m 2.659403,0.792162 c -0.104394,2e-6 -0.184224,0.03772 -0.239491,0.113167 -0.05439,0.07457 -0.08159,0.18247 -0.08159,0.323707 0,0.141239 0.02719,0.24958 0.08159,0.325024 0.05527,0.07457 0.135097,0.111851 0.239491,0.11185 0.102638,10e-7 0.181153,-0.03728 0.235544,-0.11185 0.05439,-0.07544 0.08158,-0.183785 0.08159,-0.325024 -10e-7,-0.141237 -0.0272,-0.24914 -0.08159,-0.323707 -0.05439,-0.07544 -0.132906,-0.113165 -0.235544,-0.113167 m 0,-0.336866 c 0.253526,1e-6 0.451348,0.06843 0.593465,0.205278 0.142991,0.136853 0.214487,0.32634 0.214489,0.568462 -2e-6,0.242124 -0.0715,0.431611 -0.214489,0.568463 -0.142117,0.136852 -0.339939,0.205278 -0.593465,0.205278 -0.254405,0 -0.453542,-0.06843 -0.597411,-0.205278 -0.142994,-0.136852 -0.21449,-0.326339 -0.21449,-0.568463 0,-0.242122 0.0715,-0.431609 0.21449,-0.568462 0.143869,-0.136851 0.343006,-0.205277 0.597411,-0.205278 m 1.135609,0.935594 0,-0.900065 0.473719,0 0,0.147379 c -10e-7,0.07983 -4.4e-4,0.180277 -0.0013,0.301338 -8.78e-4,0.120185 -0.0013,0.200454 -0.0013,0.240807 -1e-6,0.11843 0.0031,0.203962 0.0092,0.256597 0.0061,0.05176 0.01667,0.08948 0.03158,0.113166 0.0193,0.03071 0.0443,0.05439 0.07501,0.07106 0.03158,0.01667 0.06755,0.025 0.107902,0.025 0.09825,0 0.175451,-0.03772 0.231596,-0.113166 0.05614,-0.07544 0.08422,-0.180276 0.08422,-0.314497 l 0,-0.727684 0.471087,0 0,1.473791 -0.471087,0 0,-0.213173 c -0.07106,0.08597 -0.146503,0.149572 -0.226332,0.190803 -0.07895,0.04035 -0.166241,0.06053 -0.261862,0.06053 -0.170188,0 -0.300022,-0.0522 -0.389502,-0.156591 -0.0886,-0.104393 -0.132904,-0.256158 -0.132904,-0.455296 m 3.0318,-0.49872 c -0.04123,-0.0193 -0.08246,-0.03334 -0.123693,-0.04211 -0.04036,-0.0096 -0.08115,-0.01447 -0.122377,-0.01447 -0.121063,1e-6 -0.21449,0.03904 -0.280284,0.117113 -0.06492,0.0772 -0.09738,0.188173 -0.09737,0.332919 l 0,0.678997 -0.471087,0 0,-1.473791 0.471087,0 0,0.242123 c 0.06053,-0.0965 0.129833,-0.166678 0.20791,-0.210542 0.07895,-0.04474 0.173257,-0.06711 0.282915,-0.06711 0.01579,1e-6 0.0329,8.79e-4 0.05132,0.0026 0.01842,8.78e-4 0.04518,0.0035 0.08027,0.0079 l 0.0013,0.426347 m 1.194823,-0.89217 1.367205,0 0,0.382922 -0.860589,0 0,0.365816 0.809269,0 0,0.382923 -0.809269,0 0,0.832955 -0.506616,0 0,-1.964616 m 1.821185,0.490825 0.471087,0 0,1.473791 -0.471087,0 0,-1.473791 m 0,-0.573726 0.471087,0 0,0.384238 -0.471087,0 0,-0.384238 m 2.408071,1.150083 0,0.897434 -0.473719,0 0,-0.146063 0,-0.540829 c -1e-6,-0.127201 -0.0031,-0.214927 -0.0092,-0.263177 -0.0053,-0.04825 -0.01491,-0.08378 -0.02895,-0.106587 -0.01842,-0.0307 -0.04343,-0.05439 -0.07501,-0.07106 -0.03158,-0.01754 -0.06755,-0.02632 -0.107902,-0.02632 -0.09825,10e-7 -0.175453,0.03816 -0.231596,0.114482 -0.05615,0.07544 -0.08422,0.180277 -0.08422,0.314496 l 0,0.725053 -0.471087,0 0,-1.473791 0.471087,0 0,0.215805 c 0.07106,-0.08597 0.146501,-0.149132 0.226332,-0.189488 0.07983,-0.04123 0.167994,-0.06185 0.264493,-0.06185 0.170187,1e-6 0.299144,0.0522 0.386871,0.15659 0.0886,0.104395 0.132902,0.25616 0.132904,0.455296 m 1.44221,0.647416 c -0.06492,0.08597 -0.136414,0.149134 -0.214489,0.189487 -0.07808,0.04035 -0.168434,0.06053 -0.271073,0.06053 -0.179838,0 -0.328533,-0.07062 -0.446085,-0.211857 -0.117552,-0.142116 -0.176328,-0.32283 -0.176328,-0.542145 0,-0.220191 0.05878,-0.400467 0.176328,-0.540829 0.117552,-0.141237 0.266247,-0.211856 0.446085,-0.211857 0.102639,1e-6 0.192996,0.02018 0.271073,0.06053 0.07807,0.04036 0.149571,0.103957 0.214489,0.190804 l 0,-0.218437 0.473719,0 0,1.325096 c -2e-6,0.236859 -0.07501,0.417574 -0.225017,0.542145 -0.149135,0.125447 -0.365817,0.188171 -0.650047,0.188171 -0.09211,0 -0.181154,-0.007 -0.267125,-0.02105 -0.08597,-0.01404 -0.172381,-0.03553 -0.259229,-0.06448 l 0,-0.367132 c 0.08246,0.04737 0.163169,0.08246 0.242123,0.105271 0.07895,0.02369 0.158344,0.03553 0.238175,0.03553 0.154396,-1e-6 0.267562,-0.03377 0.339498,-0.101324 0.07193,-0.06755 0.107902,-0.173258 0.107903,-0.317128 l 0,-0.101323 m -0.310549,-0.917172 c -0.09738,1e-6 -0.173259,0.03597 -0.227648,0.107903 -0.05439,0.07194 -0.08159,0.173697 -0.08159,0.305285 -10e-7,0.135098 0.02632,0.237737 0.07895,0.307917 0.05263,0.0693 0.129395,0.103955 0.23028,0.103955 0.09825,0 0.174573,-0.03597 0.228964,-0.107903 0.05439,-0.07193 0.08158,-0.173257 0.08158,-0.303969 -10e-7,-0.131588 -0.0272,-0.233349 -0.08158,-0.305285 -0.05439,-0.07193 -0.130712,-0.107902 -0.228964,-0.107903 m 2.710723,0.426347 0,0.13422 -1.101396,0 c 0.0114,0.110535 0.05132,0.193436 0.119746,0.248702 0.06843,0.05527 0.164046,0.0829 0.286863,0.0829 0.09913,0 0.200452,-0.01447 0.303969,-0.04342 0.104392,-0.02983 0.211417,-0.07457 0.321076,-0.13422 l 0,0.363184 c -0.111413,0.04211 -0.222825,0.07369 -0.334235,0.09474 -0.111413,0.02193 -0.222824,0.0329 -0.334235,0.0329 -0.266686,0 -0.474157,-0.06755 -0.622413,-0.202647 -0.14738,-0.135974 -0.221069,-0.326339 -0.221069,-0.571094 0,-0.240367 0.07237,-0.429416 0.217121,-0.567146 0.145624,-0.137728 0.345639,-0.206593 0.600044,-0.206594 0.231594,1e-6 0.416695,0.06974 0.555303,0.209226 0.139482,0.139485 0.209224,0.325901 0.209226,0.559251 M 34.673575,21.11335 c -10e-7,-0.08948 -0.02632,-0.161414 -0.07895,-0.215805 -0.05176,-0.05527 -0.119746,-0.0829 -0.203962,-0.0829 -0.09124,2e-6 -0.165364,0.02588 -0.222385,0.07764 -0.05702,0.05088 -0.09255,0.124571 -0.106586,0.221068 l 0.611886,0 m 1.934351,-0.175012 c -0.04123,-0.0193 -0.08246,-0.03334 -0.123693,-0.04211 -0.04036,-0.0096 -0.08115,-0.01447 -0.122377,-0.01447 -0.121063,1e-6 -0.21449,0.03904 -0.280284,0.117113 -0.06492,0.0772 -0.09738,0.188173 -0.09737,0.332919 l 0,0.678997 -0.471087,0 0,-1.473791 0.471087,0 0,0.242123 c 0.06053,-0.0965 0.129833,-0.166678 0.20791,-0.210542 0.07895,-0.04474 0.173257,-0.06711 0.282915,-0.06711 0.01579,1e-6 0.0329,8.79e-4 0.05132,0.0026 0.01842,8.78e-4 0.04518,0.0035 0.08027,0.0079 l 0.0013,0.426347 m 1.38826,-0.355289 0,0.35792 c -0.100886,-0.04211 -0.198261,-0.07369 -0.292127,-0.09474 -0.09387,-0.02105 -0.18247,-0.03158 -0.265809,-0.03158 -0.08948,2e-6 -0.156152,0.01141 -0.200014,0.03421 -0.04299,0.02193 -0.06448,0.05615 -0.06448,0.10264 -10e-7,0.03772 0.01623,0.06667 0.04869,0.08685 0.03334,0.02018 0.09255,0.03509 0.177645,0.04474 l 0.0829,0.01184 c 0.241244,0.03071 0.403536,0.08115 0.486877,0.151327 0.08334,0.07018 0.125008,0.180277 0.125009,0.330287 -10e-7,0.157029 -0.0579,0.27502 -0.173697,0.353973 -0.115799,0.07895 -0.288618,0.11843 -0.518458,0.11843 -0.09738,0 -0.198261,-0.0079 -0.302654,-0.02369 -0.103517,-0.01491 -0.210103,-0.03772 -0.31976,-0.06843 l 0,-0.357921 c 0.09387,0.04562 0.189926,0.07983 0.288179,0.102639 0.09913,0.02281 0.199575,0.03421 0.301337,0.03421 0.09211,0 0.161415,-0.01272 0.20791,-0.03816 0.04649,-0.02544 0.06974,-0.06316 0.06974,-0.113166 -10e-7,-0.04211 -0.01623,-0.07325 -0.04869,-0.09343 -0.03158,-0.02105 -0.09518,-0.03728 -0.190803,-0.04869 l -0.0829,-0.01053 c -0.209665,-0.02632 -0.356605,-0.07501 -0.440821,-0.146064 -0.08422,-0.07106 -0.126325,-0.178959 -0.126325,-0.323707 0,-0.156151 0.05351,-0.271949 0.160538,-0.347394 0.107025,-0.07544 0.271072,-0.113165 0.492141,-0.113166 0.08685,1e-6 0.178082,0.0066 0.273704,0.01974 0.09562,0.01316 0.199575,0.03378 0.311865,0.06185"
         transform="scale(1.023758,0.976793)"
         id="text3043"
         style="font-size:10.77973175px;font-style:normal;font-weight:bold;opacity:0.6;fill:#ffffff;fill-opacity:1;stroke:none;font-family:Bitstream Vera Sans" />
      <path
         d="m 17.844898,27.88487 -0.911004,1.053403 0.703412,0 0.207592,-1.053403 m -0.01716,-0.56273 0.75145,0 -0.317393,1.616133 0.365431,0 -0.09093,0.478664 -0.365431,0 -0.09093,0.466654 -0.626208,0 0.09264,-0.466654 -1.15291,0 0.111517,-0.566162 1.322758,-1.528635 m 3.215109,0.959043 c 0.09493,-0.117806 0.202444,-0.208163 0.322541,-0.271071 0.121236,-0.06291 0.247049,-0.09436 0.377441,-0.09436 0.171561,2e-6 0.306524,0.04747 0.404891,0.142398 0.0995,0.09379 0.149257,0.223034 0.14926,0.387734 -3e-6,0.03431 -0.0029,0.07377 -0.0086,0.118379 -0.0046,0.04347 -0.01201,0.09322 -0.0223,0.149261 l -0.22818,1.170067 -0.619346,0 0.193867,-1.001934 0.0051,-0.02574 c 0.02973,-0.141825 0.0446,-0.232754 0.04461,-0.272786 -3e-6,-0.06291 -0.0183,-0.112659 -0.0549,-0.149261 -0.03546,-0.0366 -0.08407,-0.0549 -0.145829,-0.0549 -0.11781,2e-6 -0.217889,0.04861 -0.300237,0.14583 -0.08121,0.09608 -0.139541,0.2339 -0.174996,0.413469 l -0.185289,0.945318 -0.619346,0 0.197299,-1.001934 c 0.01715,-0.08578 0.02916,-0.150403 0.03603,-0.193867 0.0069,-0.04461 0.01029,-0.07949 0.01029,-0.104654 -2e-6,-0.06405 -0.01773,-0.113803 -0.05318,-0.149261 -0.03546,-0.0366 -0.08464,-0.0549 -0.147545,-0.0549 -0.113233,2e-6 -0.21274,0.05033 -0.298521,0.150977 -0.08464,0.09951 -0.143543,0.235615 -0.176711,0.408322 l -0.185289,0.945318 -0.615915,0 0.374009,-1.921517 0.617631,0 -0.05662,0.281365 c 0.09608,-0.108656 0.198441,-0.190434 0.307099,-0.245337 0.108656,-0.0549 0.221888,-0.08235 0.339697,-0.08235 0.132674,2e-6 0.246478,0.03431 0.341412,0.102938 0.09493,0.06748 0.152118,0.154981 0.171564,0.262493 m 3.664608,0 c 0.09493,-0.117806 0.202443,-0.208163 0.32254,-0.271071 0.121236,-0.06291 0.247049,-0.09436 0.377441,-0.09436 0.171561,2e-6 0.306524,0.04747 0.404891,0.142398 0.0995,0.09379 0.149257,0.223034 0.14926,0.387734 -3e-6,0.03431 -0.0029,0.07377 -0.0086,0.118379 -0.0046,0.04347 -0.01201,0.09322 -0.0223,0.149261 l -0.22818,1.170067 -0.619346,0 0.193867,-1.001934 0.0051,-0.02574 c 0.02973,-0.141825 0.0446,-0.232754 0.04461,-0.272786 -3e-6,-0.06291 -0.0183,-0.112659 -0.0549,-0.149261 -0.03546,-0.0366 -0.08407,-0.0549 -0.145829,-0.0549 -0.11781,2e-6 -0.217889,0.04861 -0.300237,0.14583 -0.08121,0.09608 -0.139541,0.2339 -0.174996,0.413469 l -0.185289,0.945318 -0.619346,0 0.197299,-1.001934 c 0.01715,-0.08578 0.02916,-0.150403 0.03603,-0.193867 0.0069,-0.04461 0.01029,-0.07949 0.01029,-0.104654 -1e-6,-0.06405 -0.01773,-0.113803 -0.05318,-0.149261 -0.03546,-0.0366 -0.08464,-0.0549 -0.147545,-0.0549 -0.113233,2e-6 -0.21274,0.05033 -0.298521,0.150977 -0.08464,0.09951 -0.143543,0.235615 -0.176711,0.408322 l -0.185289,0.945318 -0.615915,0 0.37401,-1.921517 0.61763,0 -0.05662,0.281365 c 0.09608,-0.108656 0.198441,-0.190434 0.307099,-0.245337 0.108656,-0.0549 0.221888,-0.08235 0.339697,-0.08235 0.132674,2e-6 0.246479,0.03431 0.341413,0.102938 0.09493,0.06748 0.152117,0.154981 0.171564,0.262493"
         transform="scale(0.853817,1.171211)"
         id="text3047"
         style="font-size:14.05452347px;font-style:italic;font-weight:bold;opacity:0.6;fill:#ffffff;fill-opacity:1;stroke:none;font-family:Bitstream Vera Sans" />
      <rect
         width="3"
         height="3"
         x="10"
         y="32"
         id="rect3051"
         style="opacity:0.3;fill:#ffffff;fill-opacity:1;fill-rule:nonzero;stroke:none;stroke-width:1;marker:none;visibility:visible;display:inline;overflow:visible" />
      <g
         id="g2993"
         style="opacity:0.4">
        <path
           d="m 35,13 0,3 c 2.5,0 2.5,-3 0,-3 z"
           id="path3026"
           style="fill:#ffffff;fill-opacity:1;fill-rule:nonzero;stroke:none;stroke-width:1;marker:none;visibility:visible;display:inline;overflow:visible" />
        <path
           d="m 39,14 c 0.0051,-1.000109 2,-1 2,-1 l 0,3 -2,0 c 3,-1 0,-1.093615 0,-2 z"
           id="path3031"
           style="fill:#ffffff;fill-opacity:1;fill-rule:nonzero;stroke:none;stroke-width:1;marker:none;visibility:visible;display:inline;overflow:visible" />
        <path
           d="m 37,13 0,3 c 2.5,0 2.5,-3 0,-3 z"
           id="path2859"
           style="fill:#ffffff;fill-opacity:1;fill-rule:nonzero;stroke:none;stroke-width:1;marker:none;visibility:visible;display:inline;overflow:visible" />
      </g>
      <g
         id="g2962"
         style="opacity:0.1;fill-opacity:1;stroke:url(#linearGradient2559)">
        <path
           d="m 35.90625,27.046875 c 0,1.958885 -1.699919,3.546875 -3.796875,3.546875 -2.096956,0 -3.796875,-1.58799 -3.796875,-3.546875 0,-1.958885 1.699919,-3.546875 3.796875,-3.546875 2.096956,0 3.796875,1.58799 3.796875,3.546875 z"
           transform="matrix(0.731214,0,0,0.733036,9.021239,6.923655)"
           id="path2958"
           style="fill:none;stroke:url(#linearGradient2555);stroke-width:0.4097665;stroke-linecap:butt;stroke-linejoin:round;stroke-miterlimit:4;stroke-opacity:1;stroke-dasharray:0.40976651, 0.81953301;stroke-dashoffset:0;marker:none;visibility:visible;display:inline;overflow:visible" />
        <path
           d="m 35.90625,27.046875 c 0,1.958885 -1.699919,3.546875 -3.796875,3.546875 -2.096956,0 -3.796875,-1.58799 -3.796875,-3.546875 0,-1.958885 1.699919,-3.546875 3.796875,-3.546875 2.096956,0 3.796875,1.58799 3.796875,3.546875 z"
           transform="matrix(0.731214,0,0,0.733036,-6.97876,6.923655)"
           id="path2960"
           style="fill:none;stroke:url(#linearGradient2557);stroke-width:0.4097665;stroke-linecap:butt;stroke-linejoin:round;stroke-miterlimit:4;stroke-opacity:1;stroke-dasharray:0.40976651, 0.81953301;stroke-dashoffset:0;marker:none;visibility:visible;display:inline;overflow:visible" />
      </g>
      <path
         d="m 8.5,17.500006 31.999973,0 0,17.999994"
         id="path1966"
         style="opacity:0.3;fill:none;stroke:url(#linearGradient1968);stroke-width:0.9999997;stroke-linecap:round;stroke-linejoin:round;stroke-miterlimit:4;stroke-opacity:1;stroke-dashoffset:1.20000057;marker:none;visibility:visible;display:inline;overflow:visible" />
    </g>
  </g>
</svg>
