<?xml version="1.0" encoding="UTF-8" standalone="no"?>
<!-- Created with Inkscape (http://www.inkscape.org/) -->

<svg
   xmlns:svg="http://www.w3.org/2000/svg"
   xmlns="http://www.w3.org/2000/svg"
   xmlns:xlink="http://www.w3.org/1999/xlink"
   version="1.0"
   width="128"
   height="128"
   id="svg2108">
  <defs
     id="defs3">
    <linearGradient
       id="linearGradient4356">
      <stop
         id="stop4358"
         style="stop-color:#000000;stop-opacity:1"
         offset="0" />
      <stop
         id="stop4360"
         style="stop-color:#000000;stop-opacity:0"
         offset="1" />
    </linearGradient>
    <linearGradient
       id="linearGradient4344">
      <stop
         id="stop4346"
         style="stop-color:#727e0a;stop-opacity:1"
         offset="0" />
      <stop
         id="stop4348"
         style="stop-color:#5b6508;stop-opacity:1"
         offset="1" />
    </linearGradient>
    <linearGradient
       id="linearGradient4338">
      <stop
         id="stop4340"
         style="stop-color:#e9b15e;stop-opacity:1"
         offset="0" />
      <stop
         id="stop4342"
         style="stop-color:#966416;stop-opacity:1"
         offset="1" />
    </linearGradient>
    <linearGradient
       id="linearGradient3816">
      <stop
         id="stop3818"
         style="stop-color:#000000;stop-opacity:1"
         offset="0" />
      <stop
         id="stop3820"
         style="stop-color:#000000;stop-opacity:0"
         offset="1" />
    </linearGradient>
    <radialGradient
       cx="31.112698"
       cy="19.008621"
       r="8.6620579"
       fx="31.112698"
       fy="19.008621"
       id="radialGradient4179"
       xlink:href="#linearGradient3816"
       gradientUnits="userSpaceOnUse" />
    <radialGradient
       cx="31.112698"
       cy="19.008621"
       r="8.6620579"
       fx="31.112698"
       fy="19.008621"
       id="radialGradient2339"
       xlink:href="#linearGradient3816"
       gradientUnits="userSpaceOnUse" />
    <radialGradient
       cx="29.344931"
       cy="17.064077"
       r="9.1620579"
       fx="29.344931"
       fy="17.064077"
       id="radialGradient2341"
       xlink:href="#linearGradient4338"
       gradientUnits="userSpaceOnUse"
       gradientTransform="matrix(0.787998,0,0,0.787998,6.221198,3.617627)" />
    <radialGradient
       cx="16.214741"
       cy="19.836468"
       r="13.56536"
       fx="16.214741"
       fy="19.836468"
       id="radialGradient2383"
       xlink:href="#linearGradient4344"
       gradientUnits="userSpaceOnUse"
       gradientTransform="matrix(2.8994389,0,0,1.9771767,22.402711,21.638858)" />
    <linearGradient
       x1="20.661695"
       y1="35.817974"
       x2="22.626925"
       y2="36.217758"
       id="linearGradient2387"
       xlink:href="#linearGradient4356"
       gradientUnits="userSpaceOnUse"
       gradientTransform="matrix(-2.8512357,0.5265033,0.5265033,2.8512357,144.19823,-29.451171)" />
    <radialGradient
       cx="17.3125"
       cy="25.53125"
       r="9.6875"
       fx="17.3125"
       fy="25.53125"
       id="radialGradient3107"
       xlink:href="#linearGradient3101"
       gradientUnits="userSpaceOnUse"
       gradientTransform="matrix(1,0,0,0.351613,0,16.55413)" />
    <linearGradient
       id="linearGradient3101">
      <stop
         id="stop3103"
         style="stop-color:#000000;stop-opacity:1"
         offset="0" />
      <stop
         id="stop3105"
         style="stop-color:#000000;stop-opacity:0"
         offset="1" />
    </linearGradient>
  </defs>
  <g
     id="layer1"
     style="display:inline" />
  <g
     id="layer2"
     style="display:inline">
    <path
       d="m 39.774755,19.008621 a 8.6620579,8.6620579 0 1 1 -17.324115,0 8.6620579,8.6620579 0 1 1 17.324115,0 z"
       transform="matrix(5.1479827,0,0,1.6932259,-85.430654,67.271375)"
       id="path4306"
       style="fill:url(#radialGradient4179);fill-opacity:1;fill-rule:evenodd;stroke:none;stroke-width:1px;marker:none;visibility:visible;display:inline;overflow:visible" />
    <path
       d="m 59.692901,98.190612 30.7532,0 c 8.7134,0 17.340039,-3.19498 20.502119,-12.301276 3.00278,-8.647507 0.51256,-25.115108 -18.964459,-38.441492 l -36.39128,0 c -19.47703,12.301276 -21.91104,29.124374 -17.42681,38.954043 4.56834,10.014055 12.30127,11.788725 21.52723,11.788725 z"
       id="path2329"
       style="fill:url(#radialGradient2383);fill-opacity:1;fill-rule:evenodd;stroke:#404604;stroke-width:2.89943886px;stroke-linecap:round;stroke-linejoin:round;stroke-miterlimit:4;stroke-opacity:1;stroke-dasharray:none;stroke-dashoffset:0;marker:none;visibility:visible;display:inline;overflow:visible" />
    <path
       d="m 59.998691,95.105022 29.91256,0 c 7.65371,0 15.231219,-2.80642 18.008739,-10.805243 2.63758,-7.595834 -0.27465,-22.060711 -17.382949,-33.766392 l -33.41524,0 c -17.1083,10.805243 -19.97116,25.582384 -16.03229,34.216608 4.01276,8.796187 10.80525,10.355027 18.90918,10.355027 z"
       id="path3838"
       style="opacity:0.21518986;fill:none;stroke:#ffffff;stroke-width:2.89943814px;stroke-linecap:round;stroke-linejoin:round;stroke-miterlimit:4;stroke-opacity:1;stroke-dasharray:none;stroke-dashoffset:0;marker:none;visibility:visible;display:inline;overflow:visible" />
    <path
       d="m 39.774755,19.008621 a 8.6620579,8.6620579 0 1 1 -17.324115,0 8.6620579,8.6620579 0 1 1 17.324115,0 z"
       transform="matrix(2.8994389,0,0,2.8994389,-16.014849,-12.3825)"
       id="path3814"
       style="fill:url(#radialGradient2339);fill-opacity:1;fill-rule:evenodd;stroke:none;stroke-width:1px;marker:none;visibility:visible;display:inline;overflow:visible" />
    <path
       d="m 39.774755,19.008621 a 8.6620579,8.6620579 0 1 1 -17.324115,0 8.6620579,8.6620579 0 1 1 17.324115,0 z"
       transform="matrix(2.8994389,0,0,2.8994389,-15.652419,-22.530536)"
       id="path2327"
       style="fill:url(#radialGradient2341);fill-opacity:1;fill-rule:evenodd;stroke:#6f4709;stroke-width:1px;stroke-linecap:round;stroke-linejoin:round;stroke-miterlimit:4;stroke-opacity:1;stroke-dasharray:none;stroke-dashoffset:0;marker:none;visibility:visible;display:inline;overflow:visible" />
    <path
       d="m 39.774755,19.008621 a 8.6620579,8.6620579 0 1 1 -17.324115,0 8.6620579,8.6620579 0 1 1 17.324115,0 z"
       transform="matrix(2.5430833,0,0,2.5430833,-4.5651786,-15.756673)"
       id="path3834"
       style="opacity:0.12658231;fill:none;stroke:#ffffff;stroke-width:1.14012825px;stroke-linecap:round;stroke-linejoin:round;stroke-miterlimit:4;stroke-opacity:1;stroke-dasharray:none;stroke-dashoffset:0;marker:none;visibility:visible;display:inline;overflow:visible" />
    <path
       d="m 98.908788,96.461792 c 3.617362,-1.5801 5.236372,-5.38796 5.236372,-5.38796 -2.43925,-11.79821 -10.785702,-20.43007 -10.785702,-20.43007 0,0 6.60875,18.58979 5.54933,25.81803 z"
       id="path2385"
       style="opacity:0.22784807;fill:url(#linearGradient2387);fill-opacity:1;fill-rule:evenodd;stroke:none;stroke-width:1px;marker:none;visibility:visible;display:inline;overflow:visible" />
    <g
       transform="matrix(1.3442815,0,0,1.3442815,2.3043024,60.255529)"
       id="g2843">
      <g
         transform="matrix(0.3844792,0,0,0.3844792,-2.9787643,2.0958182)"
         id="g3184">
        <g
           id="g3186"
           style="display:inline" />
        <g
           id="g3188"
           style="display:inline">
          <g
             transform="matrix(1.3442815,0,0,1.3442815,2.3043024,60.255529)"
             id="g3190">
            <path
               d="m 27,25.53125 a 9.6875,3.40625 0 1 1 -19.375,0 9.6875,3.40625 0 1 1 19.375,0 z"
               transform="matrix(4.0464463,0,0,4.0464463,-24.560293,-67.083671)"
               id="path3099"
               style="opacity:0.40909089;fill:url(#radialGradient3107);fill-opacity:1;fill-rule:nonzero;stroke:none;stroke-width:1.10533953;marker:none;visibility:visible;display:inline;overflow:visible" />
            <path
               d="m 46.138718,23.42804 a 22.0087,21.213204 0 1 1 -44.0173992,0 22.0087,21.213204 0 1 1 44.0173992,0 z"
               transform="matrix(1.751053,0,0,1.8167163,3.259719,-43.369005)"
               id="path1650"
               style="fill:#980101;fill-opacity:1;fill-rule:nonzero;stroke:#69090d;stroke-width:0.98214942;stroke-linecap:round;stroke-linejoin:round;stroke-miterlimit:4;stroke-opacity:1;stroke-dasharray:none;stroke-dashoffset:0" />
            <path
               d="m 46.138718,23.42804 a 22.0087,21.213204 0 1 1 -44.0173992,0 22.0087,21.213204 0 1 1 44.0173992,0 z"
               transform="matrix(1.6944338,0,0,1.7579747,4.8842982,-42.162072)"
               id="path3392"
               style="fill:#980101;fill-opacity:1;fill-rule:nonzero;stroke:#ff0014;stroke-width:0.98214942;stroke-linecap:round;stroke-linejoin:round;stroke-miterlimit:4;stroke-opacity:1;stroke-dasharray:none;stroke-dashoffset:0" />
            <path
               d="m 40.260803,-21.254127 c -0.237224,0 -0.434894,0.323458 -0.434894,0.711645 l 1.973753,26.7688386 c 0,0.3881872 0.197671,0.7116453 0.434895,0.7116472 0,0 1.558623,0.022064 2.843543,0 0.423268,-0.00727 0.552797,0.037652 0.936696,0 1.28492,0.022064 2.843543,0 2.843543,0 0.237225,0 0.434895,-0.32346 0.434895,-0.7116472 l 1.973754,-26.7688386 c 0,-0.388187 -0.197671,-0.656904 -0.434897,-0.656904 l -4.783843,0 c -0.01763,-0.0036 -0.0152,-0.05474 -0.03345,-0.05474 l -5.753993,0 z"
               id="rect1872"
               style="fill:#ffffff;fill-opacity:1;fill-rule:nonzero;stroke:none" />
            <path
               d="m -11.875,34.0625 a 4.5625,3.8125 0 1 1 -9.125,0 4.5625,3.8125 0 1 1 9.125,0 z"
               transform="matrix(0.9358623,0,0,1.1199673,61.011816,-22.671132)"
               id="path2062"
               style="fill:#ffffff;fill-opacity:1;fill-rule:nonzero;stroke:none" />
            <path
               d="m 81.434081,-2.5253288 c 0,20.0766248 -11.218857,-7.9823662 -34.617211,0.7162443 C 23.233245,6.9584037 8.6926665,17.551296 8.6926665,-2.5253288 c 0,-20.0766272 16.2940755,-36.3707002 36.3707075,-36.3707002 20.076631,0 36.370707,16.294073 36.370707,36.3707002 z"
               id="path3068"
               style="fill:#d40000;fill-opacity:0.21390375;fill-rule:nonzero;stroke:none" />
          </g>
        </g>
      </g>
    </g>
  </g>
</svg>
