<?xml version="1.0" encoding="UTF-8" standalone="no"?>
<!-- Created with Inkscape (http://www.inkscape.org/) -->

<svg
   xmlns:svg="http://www.w3.org/2000/svg"
   xmlns="http://www.w3.org/2000/svg"
   xmlns:xlink="http://www.w3.org/1999/xlink"
   version="1.0"
   width="128"
   height="128"
   id="svg2108">
  <defs
     id="defs3">
    <linearGradient
       id="linearGradient5123">
      <stop
         id="stop5125"
         style="stop-color:#ffffff;stop-opacity:1"
         offset="0" />
      <stop
         id="stop5127"
         style="stop-color:#ffffff;stop-opacity:0"
         offset="1" />
    </linearGradient>
    <linearGradient
       x1="271.0217"
       y1="-441.05182"
       x2="285.02859"
       y2="-431.96991"
       id="linearGradient13145"
       xlink:href="#linearGradient6470"
       gradientUnits="userSpaceOnUse"
       gradientTransform="translate(-34.00007,207.0001)" />
    <linearGradient
       id="linearGradient6470">
      <stop
         id="stop6472"
         style="stop-color:#ffffff;stop-opacity:1"
         offset="0" />
      <stop
         id="stop6474"
         style="stop-color:#ffffff;stop-opacity:0"
         offset="1" />
    </linearGradient>
    <linearGradient
       x1="287.5173"
       y1="-439.75281"
       x2="289.67633"
       y2="-436.32199"
       id="linearGradient13147"
       xlink:href="#linearGradient6497"
       gradientUnits="userSpaceOnUse" />
    <linearGradient
       id="linearGradient6497">
      <stop
         id="stop6499"
         style="stop-color:#ffffff;stop-opacity:1"
         offset="0" />
      <stop
         id="stop6501"
         style="stop-color:#ffffff;stop-opacity:0"
         offset="1" />
    </linearGradient>
    <linearGradient
       x1="286.51172"
       y1="-441.29074"
       x2="289.85379"
       y2="-436.14453"
       id="linearGradient13149"
       xlink:href="#linearGradient6513"
       gradientUnits="userSpaceOnUse" />
    <linearGradient
       id="linearGradient6513">
      <stop
         id="stop6515"
         style="stop-color:#ffffff;stop-opacity:1"
         offset="0" />
      <stop
         id="stop6517"
         style="stop-color:#ffffff;stop-opacity:0"
         offset="1" />
    </linearGradient>
    <linearGradient
       x1="285.94086"
       y1="-439.939"
       x2="289.39124"
       y2="-436.4429"
       id="linearGradient13151"
       xlink:href="#linearGradient6538"
       gradientUnits="userSpaceOnUse" />
    <linearGradient
       id="linearGradient6538">
      <stop
         id="stop6540"
         style="stop-color:#ffffff;stop-opacity:1"
         offset="0" />
      <stop
         id="stop6542"
         style="stop-color:#ffffff;stop-opacity:0"
         offset="1" />
    </linearGradient>
    <linearGradient
       x1="275.94193"
       y1="-437.10501"
       x2="279.97546"
       y2="-431.91833"
       id="linearGradient13153"
       xlink:href="#linearGradient6527"
       gradientUnits="userSpaceOnUse"
       gradientTransform="translate(-35.00007,207.0001)" />
    <linearGradient
       id="linearGradient6527">
      <stop
         id="stop6530"
         style="stop-color:#ffffff;stop-opacity:1"
         offset="0" />
      <stop
         id="stop6532"
         style="stop-color:#ffffff;stop-opacity:0"
         offset="1" />
    </linearGradient>
    <linearGradient
       x1="286.66589"
       y1="-439.48358"
       x2="289.76562"
       y2="-436.70703"
       id="linearGradient13155"
       xlink:href="#linearGradient6549"
       gradientUnits="userSpaceOnUse" />
    <linearGradient
       id="linearGradient6549">
      <stop
         id="stop6551"
         style="stop-color:#ffffff;stop-opacity:1"
         offset="0" />
      <stop
         id="stop6553"
         style="stop-color:#ffffff;stop-opacity:0"
         offset="1" />
    </linearGradient>
    <linearGradient
       x1="284.80219"
       y1="-441.23294"
       x2="288.89954"
       y2="-436.83109"
       id="linearGradient13157"
       xlink:href="#linearGradient6538"
       gradientUnits="userSpaceOnUse" />
    <linearGradient
       x1="228.50261"
       y1="-392.30591"
       x2="266.36395"
       y2="-379.26862"
       id="linearGradient13495"
       xlink:href="#linearGradient8302"
       gradientUnits="userSpaceOnUse"
       gradientTransform="translate(69,155)" />
    <linearGradient
       id="linearGradient8302">
      <stop
         id="stop8304"
         style="stop-color:#ffffff;stop-opacity:1"
         offset="0" />
      <stop
         id="stop8306"
         style="stop-color:#ffffff;stop-opacity:0"
         offset="1" />
    </linearGradient>
    <linearGradient
       x1="240.07379"
       y1="-393.4072"
       x2="245.82706"
       y2="-388.55029"
       id="linearGradient13497"
       xlink:href="#linearGradient8331"
       gradientUnits="userSpaceOnUse" />
    <linearGradient
       id="linearGradient8331">
      <stop
         id="stop8333"
         style="stop-color:#ffffff;stop-opacity:1"
         offset="0" />
      <stop
         id="stop8335"
         style="stop-color:#ffffff;stop-opacity:0"
         offset="1" />
    </linearGradient>
    <linearGradient
       x1="246.74042"
       y1="-391.31381"
       x2="252.69785"
       y2="-385.35165"
       id="linearGradient13499"
       xlink:href="#linearGradient8381"
       gradientUnits="userSpaceOnUse" />
    <linearGradient
       id="linearGradient8381">
      <stop
         id="stop8383"
         style="stop-color:#ffffff;stop-opacity:1"
         offset="0" />
      <stop
         id="stop8385"
         style="stop-color:#ffffff;stop-opacity:0"
         offset="1" />
    </linearGradient>
    <linearGradient
       x1="230.87598"
       y1="-390.43951"
       x2="235.25652"
       y2="-386.95901"
       id="linearGradient13501"
       xlink:href="#linearGradient8315"
       gradientUnits="userSpaceOnUse" />
    <linearGradient
       id="linearGradient8315">
      <stop
         id="stop8317"
         style="stop-color:#ffffff;stop-opacity:1"
         offset="0" />
      <stop
         id="stop8319"
         style="stop-color:#ffffff;stop-opacity:0"
         offset="1" />
    </linearGradient>
    <linearGradient
       x1="238.00478"
       y1="-388.47476"
       x2="245.65462"
       y2="-382.64539"
       id="linearGradient13503"
       xlink:href="#linearGradient8397"
       gradientUnits="userSpaceOnUse" />
    <linearGradient
       id="linearGradient8397">
      <stop
         id="stop8400"
         style="stop-color:#ffffff;stop-opacity:1"
         offset="0" />
      <stop
         id="stop8402"
         style="stop-color:#ffffff;stop-opacity:0"
         offset="1" />
    </linearGradient>
    <radialGradient
       cx="-229.75"
       cy="-343.95554"
       r="14.50138"
       fx="-229.75"
       fy="-343.95554"
       id="radialGradient9407"
       xlink:href="#linearGradient5123"
       gradientUnits="userSpaceOnUse"
       gradientTransform="matrix(0.930946,0,0,0.448244,234.76593,185.03806)" />
    <linearGradient
       x1="271.0217"
       y1="-441.05182"
       x2="285.02859"
       y2="-431.96991"
       id="linearGradient9508"
       xlink:href="#linearGradient6470"
       gradientUnits="userSpaceOnUse"
       gradientTransform="translate(-34.00007,207.0001)" />
    <linearGradient
       x1="287.5173"
       y1="-439.75281"
       x2="289.67633"
       y2="-436.32199"
       id="linearGradient9510"
       xlink:href="#linearGradient6497"
       gradientUnits="userSpaceOnUse" />
    <linearGradient
       x1="286.51172"
       y1="-441.29074"
       x2="289.85379"
       y2="-436.14453"
       id="linearGradient9512"
       xlink:href="#linearGradient6513"
       gradientUnits="userSpaceOnUse" />
    <linearGradient
       x1="285.94086"
       y1="-439.939"
       x2="289.39124"
       y2="-436.4429"
       id="linearGradient9514"
       xlink:href="#linearGradient6538"
       gradientUnits="userSpaceOnUse" />
    <linearGradient
       x1="275.94193"
       y1="-437.10501"
       x2="279.97546"
       y2="-431.91833"
       id="linearGradient9516"
       xlink:href="#linearGradient6527"
       gradientUnits="userSpaceOnUse"
       gradientTransform="translate(-35.00007,207.0001)" />
    <linearGradient
       x1="286.66589"
       y1="-439.48358"
       x2="289.76562"
       y2="-436.70703"
       id="linearGradient9518"
       xlink:href="#linearGradient6549"
       gradientUnits="userSpaceOnUse" />
    <linearGradient
       x1="284.80219"
       y1="-441.23294"
       x2="288.89954"
       y2="-436.83109"
       id="linearGradient9520"
       xlink:href="#linearGradient6538"
       gradientUnits="userSpaceOnUse" />
    <radialGradient
       cx="-229.75"
       cy="-343.95554"
       r="14.50138"
       fx="-229.75"
       fy="-343.95554"
       id="radialGradient9522"
       xlink:href="#linearGradient5123"
       gradientUnits="userSpaceOnUse"
       gradientTransform="matrix(0.930946,0,0,0.448244,250.20343,189.03756)" />
  </defs>
  <g
     id="layer1"
     style="display:inline" />
  <g
     id="layer2"
     style="display:inline">
    <g
       transform="matrix(2.5313899,0,0,3.0201142,-712.99191,751.20922)"
       id="g12825">
      <path
         d="m 311.5,-242.99998 c -2.77242,0 -5.10823,1.57371 -6.40625,3.8125 -0.94436,-0.47504 -1.96519,-0.8125 -3.09375,-0.8125 -3.864,0 -7,3.136 -7,7 0,3.864 3.136,7 7,7 2.41967,0 4.43009,-1.31932 5.6875,-3.1875 1.1342,0.68962 2.38898,1.1875 3.8125,1.1875 0.91312,0 1.75295,-0.23202 2.5625,-0.53125 0.50994,0.86773 1.17912,1.57972 2,2.15625 -0.007,0.13038 -0.0625,0.24282 -0.0625,0.375 0,3.864 3.13599,7 7,7 3.864,0 7,-3.136 7,-7 0,-2.36969 -1.25898,-4.35834 -3.0625,-5.625 0.007,-0.13038 0.0625,-0.24282 0.0625,-0.375 0,-3.864 -3.13599,-7 -7,-7 -0.6227,0 -1.17519,0.22219 -1.75,0.375 -1.19453,-2.55884 -3.74134,-4.375 -6.75,-4.375 z"
         id="path12827"
         style="fill:#555753;fill-opacity:1;stroke:none" />
      <path
         d="m 311.5,-241.99998 c -2.78048,0 -5.13451,1.76185 -6.0625,4.21875 -0.98542,-0.70944 -2.13143,-1.21875 -3.4375,-1.21875 -3.312,0 -6,2.688 -6,6 0,3.312 2.688,6 6,6 2.42775,0 4.49324,-1.45558 5.4375,-3.53125 1.12076,0.91756 2.50214,1.53125 4.0625,1.53125 1.07454,0 2.04428,-0.31896 2.9375,-0.78125 0.3984,0.99976 1.10114,1.78632 1.9375,2.4375 -0.18001,0.59562 -0.375,1.18965 -0.375,1.84375 0,3.588 2.912,6.5 6.5,6.5 3.588,0 6.5,-2.912 6.5,-6.5 0,-2.36079 -1.33433,-4.33019 -3.21875,-5.46875 0.0626,-0.34723 0.21875,-0.66608 0.21875,-1.03125 0,-3.312 -2.688,-6 -6,-6 -0.85298,0 -1.6713,0.17868 -2.40625,0.5 -0.85377,-2.59388 -3.21524,-4.49999 -6.09375,-4.5 z"
         id="path12829"
         style="fill:url(#linearGradient13495);fill-opacity:1;stroke:none" />
      <path
         d="m 248.54804,-383.6666 c 0,3.72219 -3.01743,6.73961 -6.73962,6.73961 -3.72218,0 -6.73961,-3.01742 -6.73961,-6.73961 0,-3.72219 3.01743,-6.73962 6.73961,-6.73962 3.72219,0 6.73962,3.01743 6.73962,6.73962 z"
         transform="matrix(0.964447,0,0,0.964447,89.28852,144.5262)"
         id="path12831"
         style="fill:#888a85;fill-opacity:1;stroke:none" />
      <g
         id="g12833">
        <path
           d="m 250.18322,-389.30136 c 0,3.4415 -2.78988,6.23138 -6.23138,6.23138 -3.4415,0 -6.23138,-2.78988 -6.23138,-6.23138 0,-3.4415 2.78988,-6.23138 6.23138,-6.23138 3.4415,0 6.23138,2.78988 6.23138,6.23138 l 0,0 z"
           transform="matrix(0.88263,0,0,0.88263,96.18078,108.1091)"
           id="path12835"
           style="fill:#888a85;fill-opacity:1;stroke:none" />
        <path
           d="m 250.18322,-389.30136 c 0,3.4415 -2.78988,6.23138 -6.23138,6.23138 -3.4415,0 -6.23138,-2.78988 -6.23138,-6.23138 0,-3.4415 2.78988,-6.23138 6.23138,-6.23138 3.4415,0 6.23138,2.78988 6.23138,6.23138 l 0,0 z"
           transform="matrix(0.88263,0,0,0.88263,96.18078,108.1091)"
           id="path12837"
           style="opacity:0.49444442;fill:url(#linearGradient13497);fill-opacity:1;stroke:none" />
      </g>
      <g
         id="g12839">
        <path
           d="m 257.25429,-385.7879 c 0,3.33166 -2.70084,6.03251 -6.03251,6.03251 -3.33166,0 -6.0325,-2.70085 -6.0325,-6.03251 0,-3.33166 2.70084,-6.0325 6.0325,-6.0325 3.33167,0 6.03251,2.70084 6.03251,6.0325 z"
           transform="matrix(0.911728,0,0,0.911728,90.45407,120.2336)"
           id="path12841"
           style="fill:#888a85;fill-opacity:1;stroke:none" />
        <path
           d="m 257.25429,-385.7879 c 0,3.33166 -2.70084,6.03251 -6.03251,6.03251 -3.33166,0 -6.0325,-2.70085 -6.0325,-6.03251 0,-3.33166 2.70084,-6.0325 6.0325,-6.0325 3.33167,0 6.03251,2.70084 6.03251,6.0325 z"
           transform="matrix(0.911728,0,0,0.911728,90.45407,120.2336)"
           id="path12843"
           style="opacity:0.49444442;fill:url(#linearGradient13499);fill-opacity:1;stroke:none" />
      </g>
      <g
         id="g12845">
        <path
           d="m 237.80885,-387.88715 c 0,2.41637 -1.95885,4.37522 -4.37522,4.37522 -2.41638,0 -4.37523,-1.95885 -4.37523,-4.37522 0,-2.41637 1.95885,-4.37523 4.37523,-4.37523 2.41637,0 4.37522,1.95886 4.37522,4.37523 z"
           transform="matrix(1.142799,0,0,1.142799,35.23229,210.277)"
           id="path12847"
           style="fill:#888a85;fill-opacity:1;stroke:none" />
        <path
           d="m 237.80885,-387.88715 c 0,2.41637 -1.95885,4.37522 -4.37522,4.37522 -2.41638,0 -4.37523,-1.95885 -4.37523,-4.37522 0,-2.41637 1.95885,-4.37523 4.37523,-4.37523 2.41637,0 4.37522,1.95886 4.37522,4.37523 z"
           transform="matrix(1.142799,0,0,1.142799,35.23229,210.277)"
           id="path12849"
           style="opacity:0.49444442;fill:url(#linearGradient13501);fill-opacity:1;stroke:none" />
      </g>
      <g
         id="g12851">
        <path
           d="m 248.54804,-383.6666 c 0,3.72219 -3.01743,6.73961 -6.73962,6.73961 -3.72218,0 -6.73961,-3.01742 -6.73961,-6.73961 0,-3.72219 3.01743,-6.73962 6.73961,-6.73962 3.72219,0 6.73962,3.01743 6.73962,6.73962 z"
           transform="matrix(1.038636,0,0,1.038636,59.84906,169.4899)"
           id="path12853"
           style="fill:#888a85;fill-opacity:1;stroke:none" />
        <path
           d="m 248.54804,-383.6666 c 0,3.72219 -3.01743,6.73961 -6.73962,6.73961 -3.72218,0 -6.73961,-3.01742 -6.73961,-6.73961 0,-3.72219 3.01743,-6.73962 6.73961,-6.73962 3.72219,0 6.73962,3.01743 6.73962,6.73962 z"
           transform="matrix(1.038636,0,0,1.038636,59.84907,169.4899)"
           id="path12855"
           style="opacity:0.49444442;fill:url(#linearGradient13503);fill-opacity:1;stroke:none" />
      </g>
    </g>
    <g
       transform="matrix(2.5313899,0,0,3.0201142,-10.842401,-5.9723708)"
       id="g9468">
      <g
         transform="translate(-225.18126,253.09536)"
         id="g12891">
        <path
           d="m 246.49993,-238.49993 c -2.27083,0 -4.10991,1.55028 -4.71875,3.625 -0.69323,-0.36383 -1.44451,-0.625 -2.28125,-0.625 -2.76,0 -5.00001,2.23999 -5,5 0,0.57893 0.16252,1.1077 0.34375,1.625 -1.37347,0.77074 -2.34375,2.189 -2.34375,3.875 0,2.484 2.016,4.50001 4.5,4.5 0.17713,0 18.82287,0 19,0 2.48399,0 4.5,-2.016 4.5,-4.5 0,-1.686 -0.97028,-3.10426 -2.34375,-3.875 0.18124,-0.51729 0.34375,-1.04608 0.34375,-1.625 0,-2.76 -2.24,-4.99999 -5,-5 -0.83674,0 -1.58802,0.26117 -2.28125,0.625 -0.60884,-2.07472 -2.44792,-3.625 -4.71875,-3.625 z"
           id="path12893"
           style="fill:#888a85;fill-opacity:1;stroke:#555753;stroke-width:1;stroke-linecap:butt;stroke-linejoin:miter;stroke-miterlimit:2;stroke-opacity:1;stroke-dasharray:none;stroke-dashoffset:0" />
        <path
           d="m 246.49993,-237.99993 c -2.18972,0 -3.7236,1.33577 -4.39555,3.84352 -0.66846,-0.34362 -1.54759,-0.83335 -2.35445,-0.83335 -2.71651,0 -4.75514,1.93882 -4.75513,4.54554 0,0.54677 0.26721,1.33344 0.44196,1.82201 -1.32443,0.72795 -2.43683,1.8905 -2.43683,3.37255 0,2.34605 1.54617,4.25009 4.33928,4.25009 0.17081,0 18.15064,0 18.32144,0 2.77101,0 4.33928,-1.90404 4.33928,-4.25009 0,-1.59237 -1.1124,-2.66669 -2.43683,-3.39464 0.17476,-0.48856 0.46407,-1.25316 0.46407,-1.79992 0,-2.60671 -2.11581,-4.56763 -4.77723,-4.56764 -0.80687,0 -1.64181,0.48974 -2.31027,0.83336 -0.64885,-2.42154 -2.25001,-3.82143 -4.43974,-3.82143 z"
           id="path12895"
           style="fill:url(#linearGradient13145);fill-opacity:1;stroke:none" />
        <path
           d="m 291.6875,-437.59375 c 0,1.82944 -1.48306,3.3125 -3.3125,3.3125 -1.82944,0 -3.3125,-1.48306 -3.3125,-3.3125 0,-1.82944 1.48306,-3.3125 3.3125,-3.3125 1.82944,0 3.3125,1.48306 3.3125,3.3125 z"
           transform="matrix(1.056604,0,0,1.056604,-58.19825,228.8634)"
           id="path12897"
           style="fill:#888a85;fill-opacity:1;stroke:none" />
        <path
           d="m 291.6875,-437.59375 c 0,1.82944 -1.48306,3.3125 -3.3125,3.3125 -1.82944,0 -3.3125,-1.48306 -3.3125,-3.3125 0,-1.82944 1.48306,-3.3125 3.3125,-3.3125 1.82944,0 3.3125,1.48306 3.3125,3.3125 z"
           transform="matrix(1.056604,0,0,1.056604,-58.19825,228.8634)"
           id="path12899"
           style="opacity:0.47777776;fill:url(#linearGradient13147);fill-opacity:1;stroke:none" />
        <rect
           width="20"
           height="9"
           x="236.99994"
           y="-230.99992"
           id="rect12901"
           style="fill:#888a85;fill-opacity:1;stroke:none" />
        <path
           d="m 291.6875,-437.59375 c 0,1.82944 -1.48306,3.3125 -3.3125,3.3125 -1.82944,0 -3.3125,-1.48306 -3.3125,-3.3125 0,-1.82944 1.48306,-3.3125 3.3125,-3.3125 1.82944,0 3.3125,1.48306 3.3125,3.3125 z"
           transform="matrix(0.90566,0,0,0.90566,-24.16987,171.3114)"
           id="path12903"
           style="fill:#888a85;fill-opacity:1;stroke:none" />
        <path
           d="m 291.6875,-437.59375 c 0,1.82944 -1.48306,3.3125 -3.3125,3.3125 -1.82944,0 -3.3125,-1.48306 -3.3125,-3.3125 0,-1.82944 1.48306,-3.3125 3.3125,-3.3125 1.82944,0 3.3125,1.48306 3.3125,3.3125 z"
           transform="matrix(1.056604,0,0,1.056604,-51.19818,231.8633)"
           id="path12905"
           style="fill:#888a85;fill-opacity:1;stroke:none" />
        <path
           d="m 291.6875,-437.59375 c 0,1.82944 -1.48306,3.3125 -3.3125,3.3125 -1.82944,0 -3.3125,-1.48306 -3.3125,-3.3125 0,-1.82944 1.48306,-3.3125 3.3125,-3.3125 1.82944,0 3.3125,1.48306 3.3125,3.3125 z"
           transform="matrix(1.056604,0,0,1.056604,-51.19825,231.8634)"
           id="path12907"
           style="opacity:0.47777776;fill:url(#linearGradient13149);fill-opacity:1;stroke:none" />
        <path
           d="m 291.6875,-437.59375 c 0,1.82944 -1.48306,3.3125 -3.3125,3.3125 -1.82944,0 -3.3125,-1.48306 -3.3125,-3.3125 0,-1.82944 1.48306,-3.3125 3.3125,-3.3125 1.82944,0 3.3125,1.48306 3.3125,3.3125 z"
           transform="matrix(1.056604,0,0,1.056604,-65.19825,231.8634)"
           id="path12909"
           style="fill:#888a85;fill-opacity:1;stroke:none" />
        <path
           d="m 291.6875,-437.59375 c 0,1.82944 -1.48306,3.3125 -3.3125,3.3125 -1.82944,0 -3.3125,-1.48306 -3.3125,-3.3125 0,-1.82944 1.48306,-3.3125 3.3125,-3.3125 1.82944,0 3.3125,1.48306 3.3125,3.3125 z"
           transform="matrix(1.056604,0,0,1.056604,-65.19825,231.8634)"
           id="path12911"
           style="opacity:0.47777776;fill:url(#linearGradient13151);fill-opacity:1;stroke:none" />
        <path
           d="m 245.46868,-233.96868 c -3.57938,0 -6.46875,2.92063 -6.46875,6.5 0,2.37068 1.34943,4.33779 3.25,5.46875 l 6.46875,0 c 1.90057,-1.13096 3.25,-3.12931 3.25,-5.5 0,-3.57938 -2.92063,-6.46875 -6.5,-6.46875 z"
           id="path12913"
           style="fill:#888a85;fill-opacity:1;stroke:none" />
        <path
           d="m 245.49993,-233.99993 c -3.588,0 -6.5,2.91201 -6.5,6.5 0,2.3764 1.34485,4.36632 3.25,5.5 l 6.5,0 c 1.90515,-1.13368 3.25,-3.1236 3.25,-5.5 0,-3.588 -2.912,-6.49999 -6.5,-6.5 z"
           id="path12915"
           style="opacity:0.47777776;fill:url(#linearGradient13153);fill-opacity:1;stroke:none" />
        <path
           d="m 291.6875,-437.59375 c 0,1.82944 -1.48306,3.3125 -3.3125,3.3125 -1.82944,0 -3.3125,-1.48306 -3.3125,-3.3125 0,-1.82944 1.48306,-3.3125 3.3125,-3.3125 1.82944,0 3.3125,1.48306 3.3125,3.3125 z"
           transform="matrix(0.90566,0,0,0.90566,-24.16977,171.3113)"
           id="path12917"
           style="opacity:0.47777776;fill:url(#linearGradient13155);fill-opacity:1;stroke:none" />
        <path
           d="m 258.95633,-230.33389 c -0.002,2.68456 -3.26926,3.71395 -3.26926,3.71395 0,0 2.34874,-1.62595 2.33685,-3.70501 0,0 0.93241,-0.009 0.93241,-0.009 z"
           id="path12919"
           style="fill:#555753;fill-opacity:1;fill-rule:evenodd;stroke:none" />
        <path
           d="m 291.6875,-437.59375 c 0,1.82944 -1.48306,3.3125 -3.3125,3.3125 -1.82944,0 -3.3125,-1.48306 -3.3125,-3.3125 0,-1.82944 1.48306,-3.3125 3.3125,-3.3125 1.82944,0 3.3125,1.48306 3.3125,3.3125 z"
           transform="matrix(1.207547,0,0,1.207547,-98.22652,302.4154)"
           id="path12921"
           style="fill:#888a85;fill-opacity:1;stroke:none" />
        <path
           d="m 291.6875,-437.59375 c 0,1.82944 -1.48306,3.3125 -3.3125,3.3125 -1.82944,0 -3.3125,-1.48306 -3.3125,-3.3125 0,-1.82944 1.48306,-3.3125 3.3125,-3.3125 1.82944,0 3.3125,1.48306 3.3125,3.3125 z"
           transform="matrix(1.207547,0,0,1.207547,-98.22652,302.4154)"
           id="path12923"
           style="opacity:0.47777776;fill:url(#linearGradient13157);fill-opacity:1;stroke:none" />
      </g>
      <path
         d="m 21.02789,15.111956 c -2.0001,0 -3.68558,1.0795 -4.53057,2.61494 -0.59491,-0.22191 -1.24464,-0.35337 -1.92595,-0.35337 -2.83021,0 -5.1175304,2.11817 -5.1175304,4.7175 0,0.45375 0.14453,0.85683 0.27514,1.27213 -1.38232,0.86527 -2.34783,2.25357 -2.34783,3.90473 0,2.65283 0.65162,4.99335 5.2275804,4.80585 0.04512,-0.0018 17.45148,0.09698 17.70041,-0.01803 3.08521,0.22595 4.07201,-2.44573 4.07201,-4.69946 0,-1.70051 -0.83694,-3.04985 -2.30927,-3.87759 0.04796,-0.25856 -0.03856,-0.55119 -0.03856,-0.82225 0,-2.59932 -2.30565,-4.71749 -5.13587,-4.71749 -0.39349,0 -0.7324,0.13482 -1.10054,0.21202 -0.73846,-1.76812 -2.58501,-3.03898 -4.76902,-3.03898 z"
         id="path11418"
         style="fill:url(#radialGradient9407);fill-opacity:1;stroke:none" />
    </g>
    <g
       transform="matrix(2.5313899,0,0,3.0201142,-5.7841588,-18.063655)"
       id="g9488">
      <g
         transform="translate(-210.16696,257.11136)"
         id="g12857">
        <path
           d="m 246.49993,-238.49993 c -2.27083,0 -4.10991,1.55028 -4.71875,3.625 -0.69323,-0.36383 -1.44451,-0.625 -2.28125,-0.625 -2.76,0 -5.00001,2.23999 -5,5 0,0.57893 0.16252,1.1077 0.34375,1.625 -1.37347,0.77074 -2.34375,2.189 -2.34375,3.875 0,2.484 2.016,4.50001 4.5,4.5 0.17713,0 18.82287,0 19,0 2.48399,0 4.5,-2.016 4.5,-4.5 0,-1.686 -0.97028,-3.10426 -2.34375,-3.875 0.18124,-0.51729 0.34375,-1.04608 0.34375,-1.625 0,-2.76 -2.24,-4.99999 -5,-5 -0.83674,0 -1.58802,0.26117 -2.28125,0.625 -0.60884,-2.07472 -2.44792,-3.625 -4.71875,-3.625 z"
           id="path12859"
           style="fill:#888a85;fill-opacity:1;stroke:#555753;stroke-width:1;stroke-linecap:butt;stroke-linejoin:miter;stroke-miterlimit:2;stroke-opacity:1;stroke-dasharray:none;stroke-dashoffset:0" />
        <path
           d="m 246.49993,-237.99993 c -2.18972,0 -3.7236,1.33577 -4.39555,3.84352 -0.66846,-0.34362 -1.54759,-0.83335 -2.35445,-0.83335 -2.71651,0 -4.75514,1.93882 -4.75513,4.54554 0,0.54677 0.26721,1.33344 0.44196,1.82201 -1.32443,0.72795 -2.43683,1.8905 -2.43683,3.37255 0,2.34605 1.54617,4.25009 4.33928,4.25009 0.17081,0 18.15064,0 18.32144,0 2.77101,0 4.33928,-1.90404 4.33928,-4.25009 0,-1.59237 -1.1124,-2.66669 -2.43683,-3.39464 0.17476,-0.48856 0.46407,-1.25316 0.46407,-1.79992 0,-2.60671 -2.11581,-4.56763 -4.77723,-4.56764 -0.80687,0 -1.64181,0.48974 -2.31027,0.83336 -0.64885,-2.42154 -2.25001,-3.82143 -4.43974,-3.82143 z"
           id="path12861"
           style="fill:url(#linearGradient9508);fill-opacity:1;stroke:none" />
        <path
           d="m 291.6875,-437.59375 c 0,1.82944 -1.48306,3.3125 -3.3125,3.3125 -1.82944,0 -3.3125,-1.48306 -3.3125,-3.3125 0,-1.82944 1.48306,-3.3125 3.3125,-3.3125 1.82944,0 3.3125,1.48306 3.3125,3.3125 z"
           transform="matrix(1.056604,0,0,1.056604,-58.19825,228.8634)"
           id="path12863"
           style="fill:#888a85;fill-opacity:1;stroke:none" />
        <path
           d="m 291.6875,-437.59375 c 0,1.82944 -1.48306,3.3125 -3.3125,3.3125 -1.82944,0 -3.3125,-1.48306 -3.3125,-3.3125 0,-1.82944 1.48306,-3.3125 3.3125,-3.3125 1.82944,0 3.3125,1.48306 3.3125,3.3125 z"
           transform="matrix(1.056604,0,0,1.056604,-58.19825,228.8634)"
           id="path12865"
           style="opacity:0.47777776;fill:url(#linearGradient9510);fill-opacity:1;stroke:none" />
        <rect
           width="20"
           height="9"
           x="236.99994"
           y="-230.99992"
           id="rect12867"
           style="fill:#888a85;fill-opacity:1;stroke:none" />
        <path
           d="m 291.6875,-437.59375 c 0,1.82944 -1.48306,3.3125 -3.3125,3.3125 -1.82944,0 -3.3125,-1.48306 -3.3125,-3.3125 0,-1.82944 1.48306,-3.3125 3.3125,-3.3125 1.82944,0 3.3125,1.48306 3.3125,3.3125 z"
           transform="matrix(0.90566,0,0,0.90566,-24.16987,171.3114)"
           id="path12869"
           style="fill:#888a85;fill-opacity:1;stroke:none" />
        <path
           d="m 291.6875,-437.59375 c 0,1.82944 -1.48306,3.3125 -3.3125,3.3125 -1.82944,0 -3.3125,-1.48306 -3.3125,-3.3125 0,-1.82944 1.48306,-3.3125 3.3125,-3.3125 1.82944,0 3.3125,1.48306 3.3125,3.3125 z"
           transform="matrix(1.056604,0,0,1.056604,-51.19818,231.8633)"
           id="path12871"
           style="fill:#888a85;fill-opacity:1;stroke:none" />
        <path
           d="m 291.6875,-437.59375 c 0,1.82944 -1.48306,3.3125 -3.3125,3.3125 -1.82944,0 -3.3125,-1.48306 -3.3125,-3.3125 0,-1.82944 1.48306,-3.3125 3.3125,-3.3125 1.82944,0 3.3125,1.48306 3.3125,3.3125 z"
           transform="matrix(1.056604,0,0,1.056604,-51.19825,231.8634)"
           id="path12873"
           style="opacity:0.47777776;fill:url(#linearGradient9512);fill-opacity:1;stroke:none" />
        <path
           d="m 291.6875,-437.59375 c 0,1.82944 -1.48306,3.3125 -3.3125,3.3125 -1.82944,0 -3.3125,-1.48306 -3.3125,-3.3125 0,-1.82944 1.48306,-3.3125 3.3125,-3.3125 1.82944,0 3.3125,1.48306 3.3125,3.3125 z"
           transform="matrix(1.056604,0,0,1.056604,-65.19825,231.8634)"
           id="path12875"
           style="fill:#888a85;fill-opacity:1;stroke:none" />
        <path
           d="m 291.6875,-437.59375 c 0,1.82944 -1.48306,3.3125 -3.3125,3.3125 -1.82944,0 -3.3125,-1.48306 -3.3125,-3.3125 0,-1.82944 1.48306,-3.3125 3.3125,-3.3125 1.82944,0 3.3125,1.48306 3.3125,3.3125 z"
           transform="matrix(1.056604,0,0,1.056604,-65.19825,231.8634)"
           id="path12877"
           style="opacity:0.47777776;fill:url(#linearGradient9514);fill-opacity:1;stroke:none" />
        <path
           d="m 245.46868,-233.96868 c -3.57938,0 -6.46875,2.92063 -6.46875,6.5 0,2.37068 1.34943,4.33779 3.25,5.46875 l 6.46875,0 c 1.90057,-1.13096 3.25,-3.12931 3.25,-5.5 0,-3.57938 -2.92063,-6.46875 -6.5,-6.46875 z"
           id="path12879"
           style="fill:#888a85;fill-opacity:1;stroke:none" />
        <path
           d="m 245.49993,-233.99993 c -3.588,0 -6.5,2.91201 -6.5,6.5 0,2.3764 1.34485,4.36632 3.25,5.5 l 6.5,0 c 1.90515,-1.13368 3.25,-3.1236 3.25,-5.5 0,-3.588 -2.912,-6.49999 -6.5,-6.5 z"
           id="path12881"
           style="opacity:0.47777776;fill:url(#linearGradient9516);fill-opacity:1;stroke:none" />
        <path
           d="m 291.6875,-437.59375 c 0,1.82944 -1.48306,3.3125 -3.3125,3.3125 -1.82944,0 -3.3125,-1.48306 -3.3125,-3.3125 0,-1.82944 1.48306,-3.3125 3.3125,-3.3125 1.82944,0 3.3125,1.48306 3.3125,3.3125 z"
           transform="matrix(0.90566,0,0,0.90566,-24.16977,171.3113)"
           id="path12883"
           style="opacity:0.47777776;fill:url(#linearGradient9518);fill-opacity:1;stroke:none" />
        <path
           d="m 258.95633,-230.33389 c -0.002,2.68456 -3.26926,3.71395 -3.26926,3.71395 0,0 2.34874,-1.62595 2.33685,-3.70501 0,0 0.93241,-0.009 0.93241,-0.009 z"
           id="path12885"
           style="fill:#555753;fill-opacity:1;fill-rule:evenodd;stroke:none" />
        <path
           d="m 291.6875,-437.59375 c 0,1.82944 -1.48306,3.3125 -3.3125,3.3125 -1.82944,0 -3.3125,-1.48306 -3.3125,-3.3125 0,-1.82944 1.48306,-3.3125 3.3125,-3.3125 1.82944,0 3.3125,1.48306 3.3125,3.3125 z"
           transform="matrix(1.207547,0,0,1.207547,-98.22652,302.4154)"
           id="path12887"
           style="fill:#888a85;fill-opacity:1;stroke:none" />
        <path
           d="m 291.6875,-437.59375 c 0,1.82944 -1.48306,3.3125 -3.3125,3.3125 -1.82944,0 -3.3125,-1.48306 -3.3125,-3.3125 0,-1.82944 1.48306,-3.3125 3.3125,-3.3125 1.82944,0 3.3125,1.48306 3.3125,3.3125 z"
           transform="matrix(1.207547,0,0,1.207547,-98.22652,302.4154)"
           id="path12889"
           style="opacity:0.47777776;fill:url(#linearGradient9520);fill-opacity:1;stroke:none" />
      </g>
      <path
         d="m 36.46539,19.111476 c -2.0001,0 -3.68558,1.0795 -4.53057,2.61494 -0.59491,-0.22191 -1.24464,-0.35337 -1.92595,-0.35337 -2.83021,0 -5.11753,2.11817 -5.11753,4.7175 0,0.45375 0.14453,0.85683 0.27514,1.27213 -1.38232,0.86527 -2.34783,2.25357 -2.34783,3.90473 0,2.65283 0.65162,4.99335 5.22758,4.80585 0.04512,-0.0018 17.45148,0.09698 17.70041,-0.01803 3.08521,0.22595 4.07201,-2.44573 4.07201,-4.69946 0,-1.70051 -0.83694,-3.04985 -2.30927,-3.87759 0.04796,-0.25856 -0.03856,-0.55119 -0.03856,-0.82225 0,-2.59932 -2.30565,-4.71749 -5.13587,-4.71749 -0.39349,0 -0.7324,0.13482 -1.10054,0.21202 -0.73846,-1.76812 -2.58501,-3.03898 -4.76902,-3.03898 z"
         id="path13209"
         style="fill:url(#radialGradient9522);fill-opacity:1;stroke:none" />
    </g>
  </g>
</svg>
