<?xml version="1.0" encoding="UTF-8" standalone="no"?>
<!-- Created with Inkscape (http://www.inkscape.org/) -->

<svg
   xmlns:svg="http://www.w3.org/2000/svg"
   xmlns="http://www.w3.org/2000/svg"
   xmlns:xlink="http://www.w3.org/1999/xlink"
   version="1.0"
   width="128"
   height="128"
   id="svg2108">
  <defs
     id="defs3">
    <linearGradient
       id="linearGradient4356">
      <stop
         id="stop4358"
         style="stop-color:#000000;stop-opacity:1"
         offset="0" />
      <stop
         id="stop4360"
         style="stop-color:#000000;stop-opacity:0"
         offset="1" />
    </linearGradient>
    <linearGradient
       id="linearGradient4344">
      <stop
         id="stop4346"
         style="stop-color:#727e0a;stop-opacity:1"
         offset="0" />
      <stop
         id="stop4348"
         style="stop-color:#5b6508;stop-opacity:1"
         offset="1" />
    </linearGradient>
    <linearGradient
       id="linearGradient4338">
      <stop
         id="stop4340"
         style="stop-color:#e9b15e;stop-opacity:1"
         offset="0" />
      <stop
         id="stop4342"
         style="stop-color:#966416;stop-opacity:1"
         offset="1" />
    </linearGradient>
    <linearGradient
       id="linearGradient3824">
      <stop
         id="stop3826"
         style="stop-color:#ffffff;stop-opacity:1"
         offset="0" />
      <stop
         id="stop3828"
         style="stop-color:#c9c9c9;stop-opacity:1"
         offset="1" />
    </linearGradient>
    <linearGradient
       id="linearGradient3816">
      <stop
         id="stop3818"
         style="stop-color:#000000;stop-opacity:1"
         offset="0" />
      <stop
         id="stop3820"
         style="stop-color:#000000;stop-opacity:0"
         offset="1" />
    </linearGradient>
    <linearGradient
       id="linearGradient4386">
      <stop
         id="stop4388"
         style="stop-color:#d2d2d2;stop-opacity:1"
         offset="0" />
      <stop
         id="stop4390"
         style="stop-color:#dfdfdf;stop-opacity:1"
         offset="1" />
    </linearGradient>
    <linearGradient
       id="linearGradient4412">
      <stop
         id="stop4414"
         style="stop-color:#ffffff;stop-opacity:1"
         offset="0" />
      <stop
         id="stop4416"
         style="stop-color:#ffffff;stop-opacity:0"
         offset="1" />
    </linearGradient>
    <linearGradient
       id="linearGradient4420">
      <stop
         id="stop4422"
         style="stop-color:#ffffff;stop-opacity:1"
         offset="0" />
      <stop
         id="stop4424"
         style="stop-color:#ffffff;stop-opacity:0"
         offset="1" />
    </linearGradient>
    <linearGradient
       id="linearGradient4449">
      <stop
         id="stop4451"
         style="stop-color:#ffffff;stop-opacity:1"
         offset="0" />
      <stop
         id="stop4453"
         style="stop-color:#ffffff;stop-opacity:0"
         offset="1" />
    </linearGradient>
    <linearGradient
       id="linearGradient4509">
      <stop
         id="stop4511"
         style="stop-color:#000000;stop-opacity:1"
         offset="0" />
      <stop
         id="stop4513"
         style="stop-color:#000000;stop-opacity:0"
         offset="1" />
    </linearGradient>
    <linearGradient
       id="linearGradient5048">
      <stop
         id="stop5050"
         style="stop-color:#000000;stop-opacity:0"
         offset="0" />
      <stop
         id="stop5056"
         style="stop-color:#000000;stop-opacity:1"
         offset="0.5" />
      <stop
         id="stop5052"
         style="stop-color:#000000;stop-opacity:0"
         offset="1" />
    </linearGradient>
    <linearGradient
       id="linearGradient5060">
      <stop
         id="stop5062"
         style="stop-color:#000000;stop-opacity:1"
         offset="0" />
      <stop
         id="stop5064"
         style="stop-color:#000000;stop-opacity:0"
         offset="1" />
    </linearGradient>
    <linearGradient
       x1="302.85715"
       y1="366.64789"
       x2="302.85715"
       y2="609.50507"
       id="linearGradient25151"
       xlink:href="#linearGradient5048"
       gradientUnits="userSpaceOnUse"
       gradientTransform="matrix(2.774389,0,0,1.969706,-1892.179,-872.8854)" />
    <radialGradient
       cx="605.71429"
       cy="486.64789"
       r="117.14286"
       fx="605.71429"
       fy="486.64789"
       id="radialGradient25153"
       xlink:href="#linearGradient5060"
       gradientUnits="userSpaceOnUse"
       gradientTransform="matrix(2.774389,0,0,1.969706,-1891.633,-872.8854)" />
    <radialGradient
       cx="605.71429"
       cy="486.64789"
       r="117.14286"
       fx="605.71429"
       fy="486.64789"
       id="radialGradient25155"
       xlink:href="#linearGradient5060"
       gradientUnits="userSpaceOnUse"
       gradientTransform="matrix(-2.774389,0,0,1.969706,112.7623,-872.8854)" />
    <linearGradient
       x1="16.36447"
       y1="39.918777"
       x2="16.36447"
       y2="30.928421"
       id="linearGradient25284"
       xlink:href="#linearGradient4509"
       gradientUnits="userSpaceOnUse"
       gradientTransform="matrix(2.8081147,0,0,2.8081175,49.651079,-1.6112485)" />
    <linearGradient
       x1="16.36447"
       y1="39.918777"
       x2="16.36447"
       y2="30.928421"
       id="linearGradient25287"
       xlink:href="#linearGradient4509"
       gradientUnits="userSpaceOnUse"
       gradientTransform="matrix(2.8081147,0,0,2.8081175,43.977592,-1.6112485)" />
    <linearGradient
       x1="16.36447"
       y1="39.918777"
       x2="16.36447"
       y2="30.928421"
       id="linearGradient25290"
       xlink:href="#linearGradient4509"
       gradientUnits="userSpaceOnUse"
       gradientTransform="matrix(2.8081147,0,0,2.8081175,38.304388,-1.6112485)" />
    <linearGradient
       x1="16.36447"
       y1="39.918777"
       x2="16.36447"
       y2="30.928421"
       id="linearGradient25293"
       xlink:href="#linearGradient4509"
       gradientUnits="userSpaceOnUse"
       gradientTransform="matrix(2.8081147,0,0,2.8081175,32.631137,-1.6112485)" />
    <linearGradient
       x1="16.36447"
       y1="39.918777"
       x2="16.36447"
       y2="30.928421"
       id="linearGradient25296"
       xlink:href="#linearGradient4509"
       gradientUnits="userSpaceOnUse"
       gradientTransform="matrix(2.8081147,0,0,2.8081175,26.957886,-1.6112485)" />
    <linearGradient
       x1="16.36447"
       y1="39.918777"
       x2="16.36447"
       y2="30.928421"
       id="linearGradient25299"
       xlink:href="#linearGradient4509"
       gradientUnits="userSpaceOnUse"
       gradientTransform="matrix(2.8081147,0,0,2.8081175,21.284601,-1.6112485)" />
    <linearGradient
       x1="16.36447"
       y1="39.918777"
       x2="16.36447"
       y2="30.928421"
       id="linearGradient25302"
       xlink:href="#linearGradient4449"
       gradientUnits="userSpaceOnUse"
       gradientTransform="matrix(2.8081147,0,0,2.8081175,52.487617,-1.6112485)" />
    <linearGradient
       x1="16.36447"
       y1="39.918777"
       x2="16.36447"
       y2="30.928421"
       id="linearGradient25305"
       xlink:href="#linearGradient4449"
       gradientUnits="userSpaceOnUse"
       gradientTransform="matrix(2.8081147,0,0,2.8081175,46.814366,-1.6112485)" />
    <linearGradient
       x1="16.36447"
       y1="39.918777"
       x2="16.36447"
       y2="30.928421"
       id="linearGradient25308"
       xlink:href="#linearGradient4449"
       gradientUnits="userSpaceOnUse"
       gradientTransform="matrix(2.8081147,0,0,2.8081175,41.140982,-1.6112485)" />
    <linearGradient
       x1="16.36447"
       y1="39.918777"
       x2="16.36447"
       y2="30.928421"
       id="linearGradient25311"
       xlink:href="#linearGradient4449"
       gradientUnits="userSpaceOnUse"
       gradientTransform="matrix(2.8081147,0,0,2.8081175,35.467734,-1.6112485)" />
    <linearGradient
       x1="16.36447"
       y1="39.918777"
       x2="16.36447"
       y2="30.928421"
       id="linearGradient25314"
       xlink:href="#linearGradient4449"
       gradientUnits="userSpaceOnUse"
       gradientTransform="matrix(2.8081147,0,0,2.8081175,29.794485,-1.6112485)" />
    <linearGradient
       x1="16.36447"
       y1="39.918777"
       x2="16.36447"
       y2="30.928421"
       id="linearGradient25317"
       xlink:href="#linearGradient4449"
       gradientUnits="userSpaceOnUse"
       gradientTransform="matrix(2.8081147,0,0,2.8081175,24.121262,-1.6112485)" />
    <linearGradient
       x1="27.324621"
       y1="26.887815"
       x2="22.311644"
       y2="26.7868"
       id="linearGradient25327"
       xlink:href="#linearGradient4420"
       gradientUnits="userSpaceOnUse"
       gradientTransform="matrix(2.7372324,0,0,2.2504624,16.555444,12.081191)" />
    <linearGradient
       x1="27.324621"
       y1="26.887815"
       x2="22.311644"
       y2="26.7868"
       id="linearGradient25329"
       xlink:href="#linearGradient4412"
       gradientUnits="userSpaceOnUse"
       gradientTransform="matrix(2.7372324,0,0,2.2504624,16.555444,12.081191)" />
    <linearGradient
       x1="24.349752"
       y1="34.463955"
       x2="23.233509"
       y2="10.018264"
       id="linearGradient25335"
       xlink:href="#linearGradient4386"
       gradientUnits="userSpaceOnUse"
       gradientTransform="matrix(2.8415131,0,0,2.83799,16.212165,-1.9889876)" />
    <radialGradient
       cx="605.71429"
       cy="486.64789"
       r="117.14286"
       fx="605.71429"
       fy="486.64789"
       id="radialGradient5031"
       xlink:href="#linearGradient5060"
       gradientUnits="userSpaceOnUse"
       gradientTransform="matrix(-2.774389,0,0,1.969706,112.7623,-872.8854)" />
    <radialGradient
       cx="605.71429"
       cy="486.64789"
       r="117.14286"
       fx="605.71429"
       fy="486.64789"
       id="radialGradient5029"
       xlink:href="#linearGradient5060"
       gradientUnits="userSpaceOnUse"
       gradientTransform="matrix(2.774389,0,0,1.969706,-1891.633,-872.8854)" />
    <linearGradient
       x1="302.85715"
       y1="366.64789"
       x2="302.85715"
       y2="609.50507"
       id="linearGradient5027"
       xlink:href="#linearGradient5048"
       gradientUnits="userSpaceOnUse"
       gradientTransform="matrix(2.774389,0,0,1.969706,-1892.179,-872.8854)" />
    <linearGradient
       id="linearGradient6732">
      <stop
         id="stop6734"
         style="stop-color:#ffffff;stop-opacity:1"
         offset="0" />
      <stop
         id="stop6736"
         style="stop-color:#dddddd;stop-opacity:1"
         offset="1" />
    </linearGradient>
    <linearGradient
       x1="302.85715"
       y1="366.64789"
       x2="302.85715"
       y2="609.50507"
       id="linearGradient4874"
       xlink:href="#linearGradient5048"
       gradientUnits="userSpaceOnUse"
       gradientTransform="matrix(2.774389,0,0,1.969706,-1892.179,-872.8854)" />
    <radialGradient
       cx="605.71429"
       cy="486.64789"
       r="117.14286"
       fx="605.71429"
       fy="486.64789"
       id="radialGradient4876"
       xlink:href="#linearGradient5060"
       gradientUnits="userSpaceOnUse"
       gradientTransform="matrix(2.774389,0,0,1.969706,-1891.633,-872.8854)" />
    <radialGradient
       cx="605.71429"
       cy="486.64789"
       r="117.14286"
       fx="605.71429"
       fy="486.64789"
       id="radialGradient4878"
       xlink:href="#linearGradient5060"
       gradientUnits="userSpaceOnUse"
       gradientTransform="matrix(-2.774389,0,0,1.969706,112.7623,-872.8854)" />
    <linearGradient
       x1="22.686766"
       y1="36.3904"
       x2="21.408455"
       y2="35.739632"
       id="linearGradient6958"
       xlink:href="#linearGradient4356"
       gradientUnits="userSpaceOnUse"
       gradientTransform="matrix(-0.977685,0.210075,0.210075,0.977685,61.56807,-4.448329)" />
    <linearGradient
       x1="20.661695"
       y1="35.817974"
       x2="22.626925"
       y2="36.217758"
       id="linearGradient6956"
       xlink:href="#linearGradient4356"
       gradientUnits="userSpaceOnUse"
       gradientTransform="matrix(0.983375,0.181588,-0.181588,0.983375,12.69019,-3.154589)" />
    <linearGradient
       x1="30.935921"
       y1="29.553486"
       x2="30.935921"
       y2="35.803486"
       id="linearGradient6954"
       xlink:href="#linearGradient3824"
       gradientUnits="userSpaceOnUse"
       gradientTransform="translate(7.344424,-0.329669)" />
    <radialGradient
       cx="29.344931"
       cy="17.064077"
       r="9.1620579"
       fx="29.344931"
       fy="17.064077"
       id="radialGradient6952"
       xlink:href="#linearGradient4338"
       gradientUnits="userSpaceOnUse"
       gradientTransform="matrix(0.787998,0,0,0.787998,6.221198,3.617627)" />
    <radialGradient
       cx="31.112698"
       cy="19.008621"
       r="8.6620579"
       fx="31.112698"
       fy="19.008621"
       id="radialGradient6950"
       xlink:href="#linearGradient3816"
       gradientUnits="userSpaceOnUse" />
    <radialGradient
       cx="16.214741"
       cy="19.836468"
       r="13.56536"
       fx="16.214741"
       fy="19.836468"
       id="radialGradient6948"
       xlink:href="#linearGradient4344"
       gradientUnits="userSpaceOnUse"
       gradientTransform="matrix(1,0,0,0.681917,19.76231,14.9041)" />
    <linearGradient
       x1="16.25"
       y1="12.25"
       x2="31.5"
       y2="36.625"
       id="linearGradient5350"
       xlink:href="#linearGradient6732"
       gradientUnits="userSpaceOnUse"
       gradientTransform="matrix(1.107828,0,0,1,5.0164304,74.24913)" />
  </defs>
  <g
     id="layer1"
     style="display:inline" />
  <g
     id="layer2"
     style="display:inline">
    <g
       transform="matrix(0.04030136,0,0,0.05919351,119.8361,105.27309)"
       id="g6707"
       style="display:inline">
      <rect
         width="1339.6335"
         height="478.35718"
         x="-1559.2523"
         y="-150.69685"
         id="rect6709"
         style="opacity:0.40206185;fill:url(#linearGradient25151);fill-opacity:1;fill-rule:nonzero;stroke:none;stroke-width:1;marker:none;visibility:visible;display:inline;overflow:visible" />
      <path
         d="m -219.61876,-150.68038 c 0,0 0,478.33079 0,478.33079 142.874166,0.90045 345.40022,-107.16966 345.40014,-239.196175 0,-132.026537 -159.436816,-239.134595 -345.40014,-239.134615 z"
         id="path6711"
         style="opacity:0.40206185;fill:url(#radialGradient25153);fill-opacity:1;fill-rule:nonzero;stroke:none;stroke-width:1;marker:none;visibility:visible;display:inline;overflow:visible" />
      <path
         d="m -1559.2523,-150.68038 c 0,0 0,478.33079 0,478.33079 -142.8742,0.90045 -345.4002,-107.16966 -345.4002,-239.196175 0,-132.026537 159.4368,-239.134595 345.4002,-239.134615 z"
         id="path6713"
         style="opacity:0.40206185;fill:url(#radialGradient25155);fill-opacity:1;fill-rule:nonzero;stroke:none;stroke-width:1;marker:none;visibility:visible;display:inline;overflow:visible" />
    </g>
    <path
       d="m 51.636509,19.562416 0,95.177864 62.405741,0 0,-95.751224 -11.48144,-12.0405717 -40.016925,0 -10.907376,12.6139317 z"
       id="path3626"
       style="fill:url(#linearGradient25335);fill-opacity:1;fill-rule:evenodd;stroke:#5e5e5e;stroke-width:2.83662605px;stroke-linecap:round;stroke-linejoin:round;stroke-opacity:1" />
    <path
       d="m 63.122843,8.3667973 -10.068019,14.1831307 59.569116,0 L 101.71692,8.7839483 63.122843,8.3667973 z"
       id="path5791"
       style="fill:#ffffff;fill-opacity:0.65536726;fill-rule:evenodd;stroke:none" />
    <rect
       width="45.386024"
       height="11.346502"
       x="61.564693"
       y="28.223171"
       id="rect4553"
       style="opacity:0.34857142;fill:#ffffff;fill-opacity:1;fill-rule:evenodd;stroke:#ffffff;stroke-width:2.83662605;stroke-linecap:butt;stroke-linejoin:miter;stroke-miterlimit:4;stroke-opacity:1;stroke-dasharray:none;stroke-dashoffset:0;marker:none;visibility:visible;display:inline;overflow:visible" />
    <path
       d="m 54.473132,21.29705 0,90.60658 56.732538,0 0,-91.12985 -10.50603,-10.9886527 -36.245784,0 -9.980724,11.5119227 z"
       id="path4394"
       style="fill:none;stroke:#ffffff;stroke-width:2.83662724;stroke-linecap:butt;stroke-linejoin:miter;stroke-miterlimit:4;stroke-opacity:1;stroke-dasharray:none" />
    <rect
       width="31.202894"
       height="11.346499"
       x="75.747818"
       y="65.099304"
       id="rect4408"
       style="opacity:0.52571429;fill:url(#linearGradient25327);fill-opacity:1;fill-rule:evenodd;stroke:url(#linearGradient25329);stroke-width:2.83662701;stroke-linecap:butt;stroke-linejoin:miter;stroke-miterlimit:4;stroke-opacity:1;stroke-dasharray:none;stroke-dashoffset:0;marker:none;visibility:visible;display:inline;overflow:visible" />
    <rect
       width="31.202871"
       height="11.346502"
       x="74.329491"
       y="63.680996"
       id="rect4398"
       style="fill:#c8c8c8;fill-opacity:1;fill-rule:evenodd;stroke:#acacac;stroke-width:2.83662534;stroke-linecap:butt;stroke-linejoin:miter;stroke-miterlimit:4;stroke-opacity:1;stroke-dasharray:none;stroke-dashoffset:0;marker:none;visibility:visible;display:inline;overflow:visible" />
    <rect
       width="45.386024"
       height="11.346502"
       x="61.564709"
       y="45.242928"
       id="rect4551"
       style="opacity:0.34857142;fill:#ffffff;fill-opacity:1;fill-rule:evenodd;stroke:#ffffff;stroke-width:2.83662558;stroke-linecap:butt;stroke-linejoin:miter;stroke-miterlimit:4;stroke-opacity:1;stroke-dasharray:none;stroke-dashoffset:0;marker:none;visibility:visible;display:inline;overflow:visible" />
    <rect
       width="45.386032"
       height="11.346502"
       x="60.146381"
       y="43.824615"
       id="rect4430"
       style="fill:#c8c8c8;fill-opacity:1;fill-rule:evenodd;stroke:#acacac;stroke-width:2.83662653;stroke-linecap:butt;stroke-linejoin:miter;stroke-miterlimit:4;stroke-opacity:1;stroke-dasharray:none;stroke-dashoffset:0;marker:none;visibility:visible;display:inline;overflow:visible" />
    <rect
       width="45.386032"
       height="11.346502"
       x="60.146404"
       y="26.804861"
       id="rect4436"
       style="fill:#c8c8c8;fill-opacity:1;fill-rule:evenodd;stroke:#acacac;stroke-width:2.83662605;stroke-linecap:butt;stroke-linejoin:miter;stroke-miterlimit:4;stroke-opacity:1;stroke-dasharray:none;stroke-dashoffset:0;marker:none;visibility:visible;display:inline;overflow:visible" />
    <path
       d="m 68.185294,26.231213 a 2.171828,2.171828 0 1 1 -4.343656,0 2.171828,2.171828 0 1 1 4.343656,0 z"
       transform="matrix(1.9593699,0,0,1.9593562,-64.942997,19.375822)"
       id="path4396"
       style="fill:#d40000;fill-opacity:1;fill-rule:evenodd;stroke:#979797;stroke-width:1.44772947;stroke-linecap:butt;stroke-linejoin:miter;stroke-miterlimit:4;stroke-opacity:1;stroke-dasharray:none;stroke-dashoffset:0;marker:none;visibility:visible;display:inline;overflow:visible" />
    <path
       d="m 16.667518,25.574614 a 0.5050765,0.5050765 0 1 1 -1.010153,0 0.5050765,0.5050765 0 1 1 1.010153,0 z"
       transform="matrix(2.5342538,0,0,2.5342343,22.034079,5.0640409)"
       id="path4445"
       style="fill:#f44800;fill-opacity:1;fill-rule:evenodd;stroke:none;stroke-width:1;marker:none;visibility:visible;display:inline;overflow:visible" />
    <rect
       width="2.8366244"
       height="28.36627"
       x="70.07457"
       y="82.119102"
       id="rect4457"
       style="fill:url(#linearGradient25317);fill-opacity:1;fill-rule:evenodd;stroke:none;stroke-width:1;marker:none;visibility:visible;display:inline;overflow:visible" />
    <rect
       width="2.8366244"
       height="28.36627"
       x="75.747795"
       y="82.119102"
       id="rect4461"
       style="fill:url(#linearGradient25314);fill-opacity:1;fill-rule:evenodd;stroke:none;stroke-width:1;marker:none;visibility:visible;display:inline;overflow:visible" />
    <rect
       width="2.8366244"
       height="28.36627"
       x="81.421043"
       y="82.119102"
       id="rect4465"
       style="fill:url(#linearGradient25311);fill-opacity:1;fill-rule:evenodd;stroke:none;stroke-width:1;marker:none;visibility:visible;display:inline;overflow:visible" />
    <rect
       width="2.8366244"
       height="28.36627"
       x="87.094292"
       y="82.119102"
       id="rect4469"
       style="fill:url(#linearGradient25308);fill-opacity:1;fill-rule:evenodd;stroke:none;stroke-width:1;marker:none;visibility:visible;display:inline;overflow:visible" />
    <rect
       width="2.8366244"
       height="28.36627"
       x="92.767578"
       y="82.119102"
       id="rect4473"
       style="fill:url(#linearGradient25305);fill-opacity:1;fill-rule:evenodd;stroke:none;stroke-width:1;marker:none;visibility:visible;display:inline;overflow:visible" />
    <rect
       width="2.8366244"
       height="28.36627"
       x="98.440826"
       y="82.119102"
       id="rect4477"
       style="opacity:0.54285709;fill:url(#linearGradient25302);fill-opacity:1;fill-rule:evenodd;stroke:none;stroke-width:1;marker:none;visibility:visible;display:inline;overflow:visible" />
    <rect
       width="2.8366244"
       height="28.36627"
       x="67.237907"
       y="82.119102"
       id="rect4481"
       style="opacity:0.16000001;fill:url(#linearGradient25299);fill-opacity:1;fill-rule:evenodd;stroke:none;stroke-width:1;marker:none;visibility:visible;display:inline;overflow:visible" />
    <rect
       width="2.8366244"
       height="28.36627"
       x="72.911194"
       y="82.119102"
       id="rect4483"
       style="opacity:0.29142851;fill:url(#linearGradient25296);fill-opacity:1;fill-rule:evenodd;stroke:none;stroke-width:1;marker:none;visibility:visible;display:inline;overflow:visible" />
    <rect
       width="2.8366244"
       height="28.36627"
       x="78.58445"
       y="82.119102"
       id="rect4485"
       style="opacity:0.29142851;fill:url(#linearGradient25293);fill-opacity:1;fill-rule:evenodd;stroke:none;stroke-width:1;marker:none;visibility:visible;display:inline;overflow:visible" />
    <rect
       width="2.8366244"
       height="28.36627"
       x="84.257698"
       y="82.119102"
       id="rect4487"
       style="opacity:0.29142851;fill:url(#linearGradient25290);fill-opacity:1;fill-rule:evenodd;stroke:none;stroke-width:1;marker:none;visibility:visible;display:inline;overflow:visible" />
    <rect
       width="2.8366244"
       height="28.36627"
       x="89.930916"
       y="82.119102"
       id="rect4489"
       style="opacity:0.29142851;fill:url(#linearGradient25287);fill-opacity:1;fill-rule:evenodd;stroke:none;stroke-width:1;marker:none;visibility:visible;display:inline;overflow:visible" />
    <rect
       width="2.8366244"
       height="28.36627"
       x="95.604164"
       y="82.119102"
       id="rect4491"
       style="opacity:0.22857145;fill:url(#linearGradient25284);fill-opacity:1;fill-rule:evenodd;stroke:none;stroke-width:1;marker:none;visibility:visible;display:inline;overflow:visible" />
    <g
       transform="matrix(0.0304695,0,0,0.02656403,59.942287,113.67595)"
       id="g28852">
      <rect
         width="1339.6335"
         height="478.35718"
         x="-1559.2523"
         y="-150.69685"
         id="rect28854"
         style="opacity:0.40206185;fill:url(#linearGradient4874);fill-opacity:1;fill-rule:nonzero;stroke:none;stroke-width:1;marker:none;visibility:visible;display:inline;overflow:visible" />
      <path
         d="m -219.61876,-150.68038 c 0,0 0,478.33079 0,478.33079 142.874166,0.90045 345.40022,-107.16966 345.40014,-239.196175 0,-132.026537 -159.436816,-239.134595 -345.40014,-239.134615 z"
         id="path28856"
         style="opacity:0.40206185;fill:url(#radialGradient4876);fill-opacity:1;fill-rule:nonzero;stroke:none;stroke-width:1;marker:none;visibility:visible;display:inline;overflow:visible" />
      <path
         d="m -1559.2523,-150.68038 c 0,0 0,478.33079 0,478.33079 -142.8742,0.90045 -345.4002,-107.16966 -345.4002,-239.196175 0,-132.026537 159.4368,-239.134595 345.4002,-239.134615 z"
         id="path28858"
         style="opacity:0.40206185;fill:url(#radialGradient4878);fill-opacity:1;fill-rule:nonzero;stroke:none;stroke-width:1;marker:none;visibility:visible;display:inline;overflow:visible" />
    </g>
    <g
       transform="matrix(1.2023116,0,0,1.2023116,-7.492512,-23.513958)"
       id="g5356">
      <g
         transform="matrix(0.02495993,0,0,0.01485743,53.666499,111.35825)"
         id="g5022"
         style="display:inline">
        <rect
           width="1339.6335"
           height="478.35718"
           x="-1559.2523"
           y="-150.69685"
           id="rect4173"
           style="opacity:0.40206185;fill:url(#linearGradient5027);fill-opacity:1;fill-rule:nonzero;stroke:none;stroke-width:1;marker:none;visibility:visible;display:inline;overflow:visible" />
        <path
           d="m -219.61876,-150.68038 c 0,0 0,478.33079 0,478.33079 142.874166,0.90045 345.40022,-107.16966 345.40014,-239.196175 0,-132.026537 -159.436816,-239.134595 -345.40014,-239.134615 z"
           id="path5058"
           style="opacity:0.40206185;fill:url(#radialGradient5029);fill-opacity:1;fill-rule:nonzero;stroke:none;stroke-width:1;marker:none;visibility:visible;display:inline;overflow:visible" />
        <path
           d="m -1559.2523,-150.68038 c 0,0 0,478.33079 0,478.33079 -142.8742,0.90045 -345.4002,-107.16966 -345.4002,-239.196175 0,-132.026537 159.4368,-239.134595 345.4002,-239.134615 z"
           id="path5018"
           style="opacity:0.40206185;fill:url(#radialGradient5031);fill-opacity:1;fill-rule:nonzero;stroke:none;stroke-width:1;marker:none;visibility:visible;display:inline;overflow:visible" />
      </g>
      <rect
         width="43.897678"
         height="30"
         rx="2.75"
         ry="2.75"
         x="9.4477425"
         y="83.24913"
         id="rect5857"
         style="fill:url(#linearGradient5350);fill-opacity:1;fill-rule:evenodd;stroke:#939393;stroke-width:1;stroke-linecap:butt;stroke-linejoin:miter;stroke-miterlimit:4;stroke-opacity:1;stroke-dasharray:none;stroke-dashoffset:0;marker:none;visibility:visible;display:inline;overflow:visible" />
      <rect
         width="41.900925"
         height="27.74136"
         rx="1.7500004"
         ry="1.7500002"
         x="10.442017"
         y="84.378456"
         id="rect6740"
         style="fill:none;stroke:#ffffff;stroke-width:1.00000024;stroke-linecap:butt;stroke-linejoin:miter;stroke-miterlimit:4;stroke-opacity:1;stroke-dasharray:none;stroke-dashoffset:0;marker:none;visibility:visible;display:inline;overflow:visible" />
      <g
         transform="matrix(0.4348,0,0,0.4348,2.7719494,83.19058)"
         id="g6935">
        <path
           d="m 32.623488,41.30637 10.606602,0 c 3.005204,0 5.980484,-1.101932 7.071067,-4.242641 1.035639,-2.982476 0.176777,-8.662058 -6.540737,-13.258252 l -12.551146,0 c -6.717514,4.24264 -7.556991,10.044831 -6.010407,13.435028 1.575595,3.45379 4.24264,4.065865 7.424621,4.065865 z"
           id="path2329"
           style="fill:url(#radialGradient6948);fill-opacity:1;fill-rule:evenodd;stroke:#404604;stroke-width:2.29990602px;stroke-linecap:round;stroke-linejoin:round;stroke-miterlimit:4;stroke-opacity:1;stroke-dasharray:none;stroke-dashoffset:0;marker:none;visibility:visible;display:inline;overflow:visible" />
        <path
           d="m 37.694681,26.457128 c 0,0 -2.151323,1.660335 -1.965991,3.660533 -2.041226,-1.800794 -2.099873,-5.251524 -2.099873,-5.251524 l 4.065864,1.590991 z"
           id="path3812"
           style="fill:#9db029;fill-opacity:1;fill-rule:evenodd;stroke:none;stroke-width:1px;marker:none;visibility:visible;display:inline;overflow:visible" />
        <path
           d="m 33.2112,39.482542 9.297094,0 c 2.378845,0 4.734002,-0.872261 5.59728,-3.358368 0.819787,-2.360854 -0.08536,-6.85667 -5.402777,-10.494902 l -10.38576,0 c -5.317416,3.358368 -6.207218,7.951238 -4.982982,10.634833 1.247203,2.733935 3.358368,3.218437 5.877145,3.218437 z"
           id="path3838"
           style="opacity:0.21518986;fill:none;stroke:#ffffff;stroke-width:2.29990482px;stroke-linecap:round;stroke-linejoin:round;stroke-miterlimit:4;stroke-opacity:1;stroke-dasharray:none;stroke-dashoffset:0;marker:none;visibility:visible;display:inline;overflow:visible" />
        <path
           d="m 38.673109,26.457128 c 0,0 2.151323,1.660335 1.965991,3.660533 2.041226,-1.800794 2.099873,-5.251524 2.099873,-5.251524 l -4.065864,1.590991 z"
           id="path3810"
           style="fill:#9db029;fill-opacity:1;fill-rule:evenodd;stroke:none;stroke-width:1px;marker:none;visibility:visible;display:inline;overflow:visible" />
        <path
           d="m 39.774755,19.008621 a 8.6620579,8.6620579 0 1 1 -17.324115,0 8.6620579,8.6620579 0 1 1 17.324115,0 z"
           transform="translate(6.512314,3.170331)"
           id="path3814"
           style="fill:url(#radialGradient6950);fill-opacity:1;fill-rule:evenodd;stroke:none;stroke-width:1px;marker:none;visibility:visible;display:inline;overflow:visible" />
        <path
           d="m 39.774755,19.008621 a 8.6620579,8.6620579 0 1 1 -17.324115,0 8.6620579,8.6620579 0 1 1 17.324115,0 z"
           transform="translate(6.637314,-0.329669)"
           id="path2327"
           style="fill:url(#radialGradient6952);fill-opacity:1;fill-rule:evenodd;stroke:#6f4709;stroke-width:2.29990602px;stroke-linecap:round;stroke-linejoin:round;stroke-miterlimit:4;stroke-opacity:1;stroke-dasharray:none;stroke-dashoffset:0;marker:none;visibility:visible;display:inline;overflow:visible" />
        <path
           d="m 39.774755,19.008621 a 8.6620579,8.6620579 0 1 1 -17.324115,0 8.6620579,8.6620579 0 1 1 17.324115,0 z"
           transform="matrix(0.747377,0,0,0.747377,14.49712,4.47236)"
           id="path3834"
           style="opacity:0.12658231;fill:none;stroke:#ffffff;stroke-width:3.07730651px;stroke-linecap:round;stroke-linejoin:round;stroke-miterlimit:4;stroke-opacity:1;stroke-dasharray:none;stroke-dashoffset:0;marker:none;visibility:visible;display:inline;overflow:visible" />
        <path
           d="m 42.346208,33.704972 4.24264,0 -2.474873,-2.298097 -0.53033,0.707107 -0.530331,-0.53033 -0.707106,2.12132 z"
           id="path4173"
           style="fill:url(#linearGradient6954);fill-opacity:1;fill-rule:evenodd;stroke:none;stroke-width:1px;marker:none;visibility:visible;display:inline;overflow:visible" />
        <path
           d="m 28.310268,40.272078 c -1.247607,-0.544969 -1.805994,-1.858277 -1.805994,-1.858277 0.841281,-4.069136 3.719925,-7.046216 3.719925,-7.046216 0,0 -2.279321,6.411514 -1.913931,8.904493 z"
           id="path4368"
           style="opacity:0.22784807;fill:url(#linearGradient6956);fill-opacity:1;fill-rule:evenodd;stroke:none;stroke-width:1px;marker:none;visibility:visible;display:inline;overflow:visible" />
        <path
           d="m 47.215975,39.413727 c 1.231251,-0.580978 1.80438,-2.002321 1.80438,-2.002321 -0.95912,-4.042983 -3.976149,-6.842821 -3.976149,-6.842821 0,0 2.464593,6.342602 2.171769,8.845142 z"
           id="path4370"
           style="opacity:0.22784807;fill:url(#linearGradient6958);fill-opacity:1;fill-rule:evenodd;stroke:none;stroke-width:1px;marker:none;visibility:visible;display:inline;overflow:visible" />
      </g>
      <path
         d="m 28.237231,90.5026 c -1e-6,0.376956 -0.08854,0.666044 -0.265613,0.867265 -0.177076,0.199881 -0.418542,0.299821 -0.724398,0.299821 -0.124758,0 -0.244149,-0.02348 -0.358175,-0.07043 l 0,-0.53525 c 0.100611,0.07646 0.211954,0.114697 0.334028,0.114697 0.150245,0 0.26293,-0.05567 0.338053,-0.167014 0.07646,-0.112684 0.114696,-0.281039 0.114696,-0.505067 l 0,-1.784837 0.561409,0 0,1.780813 m 1.567518,-1.030256 c 0.313904,2e-6 0.56409,0.09659 0.750557,0.289759 0.186463,0.193175 0.279696,0.452751 0.279698,0.778729 -2e-6,0.354151 -0.09994,0.630495 -0.29982,0.829033 -0.199882,0.197198 -0.468178,0.295796 -0.804887,0.295797 -0.309883,-10e-7 -0.56208,-0.09726 -0.756594,-0.291772 -0.193173,-0.194514 -0.28976,-0.449395 -0.289759,-0.764643 -1e-6,-0.354149 0.101281,-0.631835 0.303844,-0.833058 0.202563,-0.202561 0.474883,-0.303843 0.816961,-0.303845 m -0.04628,1.760691 c 0.163659,0 0.296465,-0.05835 0.398419,-0.175063 0.103292,-0.11805 0.154939,-0.278356 0.154941,-0.48092 -2e-6,-0.205245 -0.05098,-0.366893 -0.152929,-0.484945 -0.101954,-0.11939 -0.232748,-0.179086 -0.392382,-0.179087 -0.158296,10e-7 -0.292444,0.06238 -0.402444,0.187136 -0.110002,0.123417 -0.165002,0.286407 -0.165002,0.488969 0,0.199881 0.05366,0.357505 0.160978,0.472871 0.108659,0.114026 0.241465,0.171039 0.398419,0.171039 m 3.418758,0.374272 -0.539274,0 0,-1.128854 c -2e-6,-0.189147 -0.02884,-0.325978 -0.08653,-0.410492 -0.05768,-0.08585 -0.156283,-0.128781 -0.295796,-0.128782 -0.122075,10e-7 -0.223357,0.04628 -0.303844,0.138843 -0.08049,0.09256 -0.120734,0.210613 -0.120734,0.35415 l 0,1.175135 -0.545311,0 0,-3.050522 0.545311,0 0,1.277758 c 0.07378,-0.120731 0.165672,-0.211281 0.275674,-0.271649 0.111342,-0.06037 0.240794,-0.09055 0.388358,-0.09055 0.226709,2e-6 0.397076,0.07043 0.511104,0.211283 0.114023,0.140857 0.171036,0.35214 0.171038,0.633849 l 0,1.289831 m 2.471004,0 -0.539275,0 0,-1.128854 c -1e-6,-0.189147 -0.02884,-0.325978 -0.08653,-0.410492 -0.05768,-0.08585 -0.156284,-0.128781 -0.295796,-0.128782 -0.122076,10e-7 -0.223357,0.04628 -0.303845,0.138843 -0.08049,0.09256 -0.120734,0.210613 -0.120733,0.35415 l 0,1.175135 -0.545311,0 0,-2.060511 0.545311,0 0,0.287747 c 0.07378,-0.120731 0.165672,-0.211281 0.275674,-0.271649 0.111341,-0.06037 0.240794,-0.09055 0.388358,-0.09055 0.226708,2e-6 0.397076,0.07043 0.511103,0.211283 0.114024,0.140857 0.171037,0.35214 0.171039,0.633849 l 0,1.289831 m 1.764715,-2.88552 1.010133,0 c 0.488297,3e-6 0.85452,0.117382 1.098671,0.352138 0.245488,0.234761 0.368233,0.586228 0.368236,1.054402 -3e-6,0.452079 -0.138175,0.811595 -0.414517,1.078549 -0.275005,0.266954 -0.647936,0.400431 -1.118793,0.400431 l -0.94373,0 0,-2.88552 m 0.561409,2.44082 0.370248,0 c 0.303172,0 0.541285,-0.09055 0.714337,-0.271649 0.17439,-0.181099 0.261586,-0.428602 0.261589,-0.742509 -3e-6,-0.304514 -0.08452,-0.541284 -0.25354,-0.710313 C 38.89796,89.269112 38.662531,89.184599 38.3607,89.184597 l -0.386346,0 0,1.97801 m 3.356379,-1.690263 c 0.313904,2e-6 0.564089,0.09659 0.750557,0.289759 0.186463,0.193175 0.279696,0.452751 0.279698,0.778729 -2e-6,0.354151 -0.09994,0.630495 -0.29982,0.829033 -0.199882,0.197198 -0.468178,0.295796 -0.804887,0.295797 -0.309883,-10e-7 -0.562081,-0.09726 -0.756594,-0.291772 -0.193174,-0.194514 -0.28976,-0.449395 -0.28976,-0.764643 0,-0.354149 0.101282,-0.631835 0.303845,-0.833058 0.202563,-0.202561 0.474883,-0.303843 0.816961,-0.303845 m -0.04628,1.760691 c 0.163659,0 0.296465,-0.05835 0.398419,-0.175063 0.103292,-0.11805 0.154939,-0.278356 0.15494,-0.48092 -1e-6,-0.205245 -0.05098,-0.366893 -0.152928,-0.484945 -0.101954,-0.11939 -0.232748,-0.179086 -0.392383,-0.179087 -0.158295,10e-7 -0.292443,0.06238 -0.402443,0.187136 -0.110002,0.123417 -0.165003,0.286407 -0.165002,0.488969 -10e-7,0.199881 0.05366,0.357505 0.160977,0.472871 0.108659,0.114026 0.241465,0.171039 0.39842,0.171039 m 3.300038,-0.537263 -1.372333,0 c -10e-7,0.169028 0.05165,0.300492 0.154941,0.394395 0.104634,0.09256 0.249514,0.138844 0.434639,0.138843 0.203903,10e-7 0.40043,-0.06104 0.58958,-0.183112 l 0,0.446713 c -0.211956,0.110001 -0.449397,0.165002 -0.712325,0.165002 -0.317932,0 -0.566776,-0.09323 -0.746533,-0.279699 -0.178417,-0.186465 -0.267625,-0.441345 -0.267625,-0.764642 0,-0.348784 0.09524,-0.626469 0.285735,-0.833059 0.191831,-0.207927 0.444028,-0.311891 0.756594,-0.311893 0.275001,2e-6 0.489638,0.08586 0.643909,0.257563 0.15561,0.17037 0.233416,0.408482 0.233418,0.714338 l 0,0.255551 m -0.503055,-0.362199 c -10e-7,-0.143537 -0.03622,-0.25555 -0.10866,-0.33604 -0.0711,-0.08049 -0.172381,-0.120731 -0.303844,-0.120733 -0.119393,2e-6 -0.222687,0.04159 -0.309882,0.124757 -0.0872,0.08183 -0.136161,0.192504 -0.146892,0.332016 l 0.869278,0"
         id="text6970"
         style="font-size:4.12102222px;font-style:normal;font-variant:normal;font-weight:bold;font-stretch:normal;text-align:start;line-height:120.00000477%;writing-mode:lr-tb;text-anchor:start;fill:#000000;fill-opacity:1;stroke:none;font-family:Segoe" />
      <rect
         width="17.375"
         height="2"
         rx="1.03125"
         ry="1.03125"
         x="27.894279"
         y="94.726982"
         id="rect6978"
         style="opacity:0.3976608;fill:#8d8d8d;fill-opacity:1;fill-rule:evenodd;stroke:none;stroke-width:1;marker:none;visibility:visible;display:inline;overflow:visible" />
      <rect
         width="14"
         height="2"
         rx="1.03125"
         ry="1.03125"
         x="27.894279"
         y="97.74913"
         id="rect6980"
         style="opacity:0.3976608;fill:#8d8d8d;fill-opacity:1;fill-rule:evenodd;stroke:none;stroke-width:1;marker:none;visibility:visible;display:inline;overflow:visible" />
      <g
         transform="matrix(1,0,0,0.833333,6.8942794,79.74913)"
         id="g7033"
         style="opacity:0.48538011">
        <rect
           width="1"
           height="6"
           rx="0"
           ry="0"
           x="6"
           y="30"
           id="rect7003"
           style="fill:#000000;fill-opacity:1;fill-rule:evenodd;stroke:none;stroke-width:1;marker:none;visibility:visible;display:inline;overflow:visible" />
        <rect
           width="1.9375"
           height="3.6000135"
           rx="0"
           ry="0"
           x="8.0846453"
           y="30"
           id="rect7005"
           style="fill:#000000;fill-opacity:1;fill-rule:evenodd;stroke:none;stroke-width:1;marker:none;visibility:visible;display:inline;overflow:visible" />
        <rect
           width="1"
           height="3.6000135"
           x="11"
           y="30"
           id="rect7007"
           style="fill:#000000;fill-opacity:1;fill-rule:evenodd;stroke:none;stroke-width:1;marker:none;visibility:visible;display:inline;overflow:visible" />
        <rect
           width="2"
           height="3.6000135"
           x="13"
           y="30"
           id="rect7009"
           style="fill:#000000;fill-opacity:1;fill-rule:evenodd;stroke:none;stroke-width:1;marker:none;visibility:visible;display:inline;overflow:visible" />
        <rect
           width="1"
           height="3.6000135"
           x="16"
           y="30"
           id="rect7011"
           style="fill:#000000;fill-opacity:1;fill-rule:evenodd;stroke:none;stroke-width:1;marker:none;visibility:visible;display:inline;overflow:visible" />
        <rect
           width="1"
           height="3.6000135"
           x="18"
           y="30"
           id="rect7013"
           style="fill:#000000;fill-opacity:1;fill-rule:evenodd;stroke:none;stroke-width:1;marker:none;visibility:visible;display:inline;overflow:visible" />
        <rect
           width="1"
           height="3.6000135"
           x="21"
           y="30"
           id="rect7015"
           style="fill:#000000;fill-opacity:1;fill-rule:evenodd;stroke:none;stroke-width:1;marker:none;visibility:visible;display:inline;overflow:visible" />
        <rect
           width="2"
           height="3.6000135"
           x="23"
           y="30"
           id="rect7017"
           style="fill:#000000;fill-opacity:1;fill-rule:evenodd;stroke:none;stroke-width:1;marker:none;visibility:visible;display:inline;overflow:visible" />
        <rect
           width="2"
           height="3.6000135"
           x="26"
           y="30"
           id="rect7019"
           style="fill:#000000;fill-opacity:1;fill-rule:evenodd;stroke:none;stroke-width:1;marker:none;visibility:visible;display:inline;overflow:visible" />
        <rect
           width="1"
           height="3.6000135"
           x="29"
           y="30"
           id="rect7021"
           style="fill:#000000;fill-opacity:1;fill-rule:evenodd;stroke:none;stroke-width:1;marker:none;visibility:visible;display:inline;overflow:visible" />
        <rect
           width="1"
           height="3.6000135"
           x="31"
           y="30"
           id="rect7023"
           style="fill:#000000;fill-opacity:1;fill-rule:evenodd;stroke:none;stroke-width:1;marker:none;visibility:visible;display:inline;overflow:visible" />
        <rect
           width="1"
           height="3.6000135"
           x="33"
           y="30"
           id="rect7025"
           style="fill:#000000;fill-opacity:1;fill-rule:evenodd;stroke:none;stroke-width:1;marker:none;visibility:visible;display:inline;overflow:visible" />
        <rect
           width="2"
           height="3.6000135"
           x="35"
           y="30"
           id="rect7027"
           style="fill:#000000;fill-opacity:1;fill-rule:evenodd;stroke:none;stroke-width:1;marker:none;visibility:visible;display:inline;overflow:visible" />
        <rect
           width="2"
           height="3.6000135"
           x="39"
           y="30"
           id="rect7029"
           style="fill:#000000;fill-opacity:1;fill-rule:evenodd;stroke:none;stroke-width:1;marker:none;visibility:visible;display:inline;overflow:visible" />
        <rect
           width="1"
           height="6"
           x="42"
           y="30"
           id="rect7031"
           style="fill:#000000;fill-opacity:1;fill-rule:evenodd;stroke:none;stroke-width:1;marker:none;visibility:visible;display:inline;overflow:visible" />
      </g>
      <path
         d="m 15.831771,109.14733 c 0.07496,0.016 0.133377,0.0494 0.175252,0.10003 0.04239,0.0507 0.06359,0.11322 0.06359,0.18766 0,0.11425 -0.03929,0.20265 -0.117868,0.2652 -0.07858,0.0626 -0.190244,0.0938 -0.334994,0.0938 -0.04859,0 -0.09874,-0.005 -0.150437,-0.0147 -0.05118,-0.009 -0.104169,-0.0235 -0.158968,-0.0426 l 0,-0.15121 c 0.04343,0.0253 0.09099,0.0445 0.142683,0.0574 0.0517,0.0129 0.105719,0.0194 0.162069,0.0194 0.09822,0 0.172925,-0.0194 0.224105,-0.0582 0.0517,-0.0388 0.07754,-0.0951 0.07755,-0.16905 -1e-6,-0.0682 -0.02404,-0.12149 -0.07212,-0.15974 -0.04756,-0.0388 -0.113991,-0.0582 -0.19929,-0.0582 l -0.134929,0 0,-0.12873 0.141132,0 c 0.07703,0 0.135962,-0.0153 0.176803,-0.0457 0.04084,-0.031 0.06126,-0.0755 0.06126,-0.13338 0,-0.0594 -0.0212,-0.10494 -0.06359,-0.13648 -0.04187,-0.032 -0.102102,-0.0481 -0.18068,-0.0481 -0.04291,0 -0.08892,0.005 -0.13803,0.0139 -0.04911,0.009 -0.103136,0.0238 -0.162069,0.0434 l 0,-0.13958 c 0.05945,-0.0165 0.115024,-0.0289 0.166721,-0.0372 0.05221,-0.008 0.101325,-0.0124 0.147336,-0.0124 0.118902,0 0.212989,0.0271 0.282264,0.0814 0.06927,0.0538 0.103909,0.12666 0.10391,0.21868 -1e-6,0.0641 -0.01835,0.11839 -0.05506,0.16284 -0.03671,0.044 -0.08892,0.0744 -0.156641,0.0915 m 0.671539,0.49241 0.546692,0 0,0.13182 -0.735126,0 0,-0.13182 c 0.05945,-0.0615 0.140356,-0.14398 0.242716,-0.24737 0.102876,-0.10391 0.167497,-0.17086 0.193863,-0.20084 0.05015,-0.0563 0.08504,-0.10391 0.104685,-0.14268 0.02016,-0.0393 0.03024,-0.0778 0.03024,-0.11555 -10e-7,-0.0615 -0.02171,-0.11166 -0.06514,-0.15043 -0.04291,-0.0388 -0.099,-0.0582 -0.168273,-0.0582 -0.04911,0 -0.101067,0.009 -0.155865,0.0256 -0.05428,0.0171 -0.11244,0.0429 -0.174476,0.0775 l 0,-0.15819 c 0.06307,-0.0253 0.122004,-0.0445 0.176802,-0.0574 0.0548,-0.0129 0.104944,-0.0194 0.150437,-0.0194 0.119936,0 0.215575,0.03 0.286917,0.09 0.07134,0.06 0.107011,0.1401 0.107012,0.24039 -1e-6,0.0476 -0.009,0.0928 -0.02714,0.13571 -0.01758,0.0424 -0.04989,0.0925 -0.09693,0.15043 -0.01293,0.015 -0.05402,0.0584 -0.123296,0.13028 -0.06927,0.0713 -0.166981,0.17137 -0.293121,0.3001 m 1.306633,-0.88944 -0.395479,0.61803 0.395479,0 0,-0.61803 m -0.0411,-0.13648 0.196965,0 0,0.75451 0.16517,0 0,0.13028 -0.16517,0 0,0.27295 -0.155866,0 0,-0.27295 -0.522653,0 0,-0.15122 0.481554,-0.73357 m 0.623462,0 0.614932,0 0,0.13182 -0.471474,0 0,0.28382 c 0.02275,-0.008 0.04549,-0.0134 0.06824,-0.0171 0.02275,-0.004 0.04549,-0.006 0.06824,-0.006 0.129241,1e-5 0.231601,0.0354 0.307078,0.10624 0.07548,0.0708 0.113215,0.16672 0.113216,0.28769 -1e-6,0.12459 -0.03877,0.22152 -0.116317,0.2908 -0.07755,0.0687 -0.186884,0.10313 -0.328016,0.10313 -0.04859,0 -0.09822,-0.004 -0.148886,-0.0124 -0.05015,-0.008 -0.102101,-0.0207 -0.155865,-0.0372 l 0,-0.15741 c 0.04653,0.0253 0.0946,0.0442 0.144233,0.0566 0.04963,0.0124 0.102101,0.0186 0.157417,0.0186 0.08943,0 0.160259,-0.0235 0.212473,-0.0706 0.05221,-0.047 0.07832,-0.11089 0.07832,-0.19154 0,-0.0806 -0.02611,-0.14449 -0.07832,-0.19153 -0.05221,-0.047 -0.123039,-0.0706 -0.212473,-0.0706 -0.04187,0 -0.08375,0.005 -0.125623,0.014 -0.04136,0.009 -0.08375,0.0238 -0.127174,0.0434 l 0,-0.58158 m 1.850223,0.10313 c -0.08065,0 -0.14139,0.0398 -0.18223,0.11942 -0.04032,0.0791 -0.06049,0.19826 -0.06049,0.35748 0,0.15871 0.02016,0.27787 0.06049,0.35749 0.04084,0.0791 0.101583,0.11864 0.18223,0.11864 0.08116,0 0.141907,-0.0395 0.182231,-0.11864 0.04084,-0.0796 0.06126,-0.19878 0.06126,-0.35749 -1e-6,-0.15922 -0.02042,-0.27838 -0.06126,-0.35748 -0.04032,-0.0796 -0.101068,-0.11942 -0.182231,-0.11942 m 0,-0.12407 c 0.129758,0 0.228757,0.0514 0.296998,0.15431 0.06875,0.10236 0.103133,0.25125 0.103134,0.44666 -1e-6,0.1949 -0.03438,0.34379 -0.103134,0.44666 -0.06824,0.10236 -0.16724,0.15354 -0.296998,0.15354 -0.129759,0 -0.229016,-0.0512 -0.297772,-0.15354 -0.06824,-0.10287 -0.10236,-0.25176 -0.10236,-0.44666 0,-0.19541 0.03412,-0.3443 0.10236,-0.44666 0.06876,-0.10287 0.168013,-0.15431 0.297772,-0.15431 m 0.677743,0.0209 0.614932,0 0,0.13182 -0.471473,0 0,0.28382 c 0.02275,-0.008 0.04549,-0.0134 0.06824,-0.0171 0.02275,-0.004 0.04549,-0.006 0.06824,-0.006 0.129241,1e-5 0.2316,0.0354 0.307078,0.10624 0.07548,0.0708 0.113215,0.16672 0.113216,0.28769 -1e-6,0.12459 -0.03877,0.22152 -0.116318,0.2908 -0.07755,0.0687 -0.186884,0.10313 -0.328015,0.10313 -0.04859,0 -0.09822,-0.004 -0.148886,-0.0124 -0.05015,-0.008 -0.102102,-0.0207 -0.155866,-0.0372 l 0,-0.15741 c 0.04653,0.0253 0.09461,0.0442 0.144234,0.0566 0.04963,0.0124 0.1021,0.0186 0.157416,0.0186 0.08943,0 0.160259,-0.0235 0.212473,-0.0706 0.05221,-0.047 0.07832,-0.11089 0.07832,-0.19154 -1e-6,-0.0806 -0.02611,-0.14449 -0.07832,-0.19153 -0.05221,-0.047 -0.123038,-0.0706 -0.212473,-0.0706 -0.04188,0 -0.08375,0.005 -0.125623,0.014 -0.04136,0.009 -0.08375,0.0238 -0.127174,0.0434 l 0,-0.58158 m 1.011187,0 0.614932,0 0,0.13182 -0.471474,0 0,0.28382 c 0.02275,-0.008 0.04549,-0.0134 0.06824,-0.0171 0.02275,-0.004 0.04549,-0.006 0.06824,-0.006 0.129242,1e-5 0.231601,0.0354 0.307079,0.10624 0.07548,0.0708 0.113214,0.16672 0.113215,0.28769 -10e-7,0.12459 -0.03877,0.22152 -0.116317,0.2908 -0.07755,0.0687 -0.186884,0.10313 -0.328016,0.10313 -0.04859,0 -0.09822,-0.004 -0.148886,-0.0124 -0.05015,-0.008 -0.102101,-0.0207 -0.155865,-0.0372 l 0,-0.15741 c 0.04653,0.0253 0.0946,0.0442 0.144233,0.0566 0.04963,0.0124 0.102101,0.0186 0.157417,0.0186 0.08943,0 0.160259,-0.0235 0.212473,-0.0706 0.05221,-0.047 0.07832,-0.11089 0.07832,-0.19154 0,-0.0806 -0.02611,-0.14449 -0.07832,-0.19153 -0.05221,-0.047 -0.123039,-0.0706 -0.212473,-0.0706 -0.04188,0 -0.08375,0.005 -0.125623,0.014 -0.04136,0.009 -0.08375,0.0238 -0.127174,0.0434 l 0,-0.58158 m 0.970088,0 0.744432,0 0,0.0667 -0.420294,1.09105 -0.16362,0 0.395479,-1.02592 -0.555997,0 0,-0.13182 m 1.557879,0 0.614931,0 0,0.13182 -0.471473,0 0,0.28382 c 0.02275,-0.008 0.04549,-0.0134 0.06824,-0.0171 0.02275,-0.004 0.04549,-0.006 0.06824,-0.006 0.129241,1e-5 0.2316,0.0354 0.307078,0.10624 0.07548,0.0708 0.113215,0.16672 0.113216,0.28769 -1e-6,0.12459 -0.03877,0.22152 -0.116318,0.2908 -0.07755,0.0687 -0.186884,0.10313 -0.328015,0.10313 -0.04859,0 -0.09822,-0.004 -0.148886,-0.0124 -0.05015,-0.008 -0.102101,-0.0207 -0.155866,-0.0372 l 0,-0.15741 c 0.04653,0.0253 0.09461,0.0442 0.144234,0.0566 0.04963,0.0124 0.1021,0.0186 0.157416,0.0186 0.08943,0 0.160259,-0.0235 0.212473,-0.0706 0.05221,-0.047 0.07832,-0.11089 0.07832,-0.19154 -10e-7,-0.0806 -0.02611,-0.14449 -0.07832,-0.19153 -0.05221,-0.047 -0.123038,-0.0706 -0.212473,-0.0706 -0.04187,0 -0.08375,0.005 -0.125623,0.014 -0.04136,0.009 -0.08375,0.0238 -0.127173,0.0434 l 0,-0.58158 m 1.036776,1.02592 0.255898,0 0,-0.88324 -0.278386,0.0558 0,-0.14268 0.276836,-0.0558 0.15664,0 0,1.02592 0.255899,0 0,0.13182 -0.666887,0 0,-0.13182 m 1.31904,-0.92279 c -0.08065,0 -0.141391,0.0398 -0.182231,0.11942 -0.04032,0.0791 -0.06048,0.19826 -0.06048,0.35748 0,0.15871 0.02016,0.27787 0.06048,0.35749 0.04084,0.0791 0.101584,0.11864 0.182231,0.11864 0.08116,0 0.141907,-0.0395 0.182231,-0.11864 0.04084,-0.0796 0.06126,-0.19878 0.06126,-0.35749 0,-0.15922 -0.02042,-0.27838 -0.06126,-0.35748 -0.04032,-0.0796 -0.101068,-0.11942 -0.182231,-0.11942 m 0,-0.12407 c 0.129758,0 0.228757,0.0514 0.296997,0.15431 0.06876,0.10236 0.103134,0.25125 0.103135,0.44666 -1e-6,0.1949 -0.03438,0.34379 -0.103135,0.44666 -0.06824,0.10236 -0.167239,0.15354 -0.296997,0.15354 -0.129759,0 -0.229016,-0.0512 -0.297773,-0.15354 -0.06824,-0.10287 -0.102359,-0.25176 -0.102359,-0.44666 0,-0.19541 0.03412,-0.3443 0.102359,-0.44666 0.06876,-0.10287 0.168014,-0.15431 0.297773,-0.15431 m 1.030573,0.53739 c -0.07031,0 -0.12614,0.024 -0.167497,0.0721 -0.04084,0.0481 -0.06126,0.114 -0.06126,0.19774 0,0.0832 0.02042,0.14915 0.06126,0.19774 0.04136,0.0481 0.09719,0.0721 0.167497,0.0721 0.07031,0 0.125881,-0.024 0.166722,-0.0721 0.04136,-0.0486 0.06204,-0.1145 0.06204,-0.19774 -1e-6,-0.0837 -0.02068,-0.14966 -0.06204,-0.19774 -0.04084,-0.0481 -0.09641,-0.0721 -0.166722,-0.0721 m 0.310955,-0.49086 0,0.14268 c -0.03929,-0.0186 -0.0791,-0.0328 -0.119419,-0.0426 -0.03981,-0.01 -0.07935,-0.0147 -0.118644,-0.0147 -0.103393,0 -0.182489,0.0349 -0.237287,0.10468 -0.05428,0.0698 -0.0853,0.17525 -0.09305,0.31639 0.0305,-0.045 0.06876,-0.0794 0.114766,-0.10314 0.04601,-0.0243 0.09667,-0.0364 0.151988,-0.0365 0.116317,1e-5 0.208079,0.0354 0.275285,0.10624 0.06772,0.0703 0.101583,0.16621 0.101584,0.28769 -10e-7,0.11891 -0.03515,0.21429 -0.105461,0.28614 -0.07031,0.0719 -0.163879,0.10779 -0.280713,0.10779 -0.133895,0 -0.236254,-0.0512 -0.307078,-0.15354 -0.07083,-0.10287 -0.106237,-0.25176 -0.106237,-0.44666 0,-0.183 0.04342,-0.32879 0.130276,-0.43735 0.08685,-0.10908 0.203426,-0.16362 0.349728,-0.16362 0.03929,0 0.07884,0.004 0.118644,0.0116 0.04032,0.008 0.0822,0.0194 0.125622,0.0349 m 0.852995,-0.0256 0.614932,0 0,0.13182 -0.471474,0 0,0.28382 c 0.02275,-0.008 0.04549,-0.0134 0.06824,-0.0171 0.02275,-0.004 0.04549,-0.006 0.06824,-0.006 0.129241,1e-5 0.2316,0.0354 0.307078,0.10624 0.07548,0.0708 0.113215,0.16672 0.113215,0.28769 0,0.12459 -0.03877,0.22152 -0.116317,0.2908 -0.07755,0.0687 -0.186884,0.10313 -0.328015,0.10313 -0.0486,0 -0.09822,-0.004 -0.148887,-0.0124 -0.05015,-0.008 -0.102101,-0.0207 -0.155865,-0.0372 l 0,-0.15741 c 0.04653,0.0253 0.0946,0.0442 0.144234,0.0566 0.04963,0.0124 0.1021,0.0186 0.157416,0.0186 0.08944,0 0.160259,-0.0235 0.212473,-0.0706 0.05221,-0.047 0.07832,-0.11089 0.07832,-0.19154 -1e-6,-0.0806 -0.02611,-0.14449 -0.07832,-0.19153 -0.05221,-0.047 -0.123038,-0.0706 -0.212473,-0.0706 -0.04187,0 -0.08375,0.005 -0.125623,0.014 -0.04136,0.009 -0.08375,0.0238 -0.127174,0.0434 l 0,-0.58158 m 1.440011,0.13648 -0.39548,0.61803 0.39548,0 0,-0.61803 m -0.0411,-0.13648 0.196964,0 0,0.75451 0.165171,0 0,0.13028 -0.165171,0 0,0.27295 -0.155865,0 0,-0.27295 -0.522654,0 0,-0.15122 0.481555,-0.73357 m 0.956905,0.10313 c -0.08065,0 -0.141391,0.0398 -0.182231,0.11942 -0.04032,0.0791 -0.06048,0.19826 -0.06048,0.35748 0,0.15871 0.02016,0.27787 0.06048,0.35749 0.04084,0.0791 0.101584,0.11864 0.182231,0.11864 0.08116,0 0.141907,-0.0395 0.182231,-0.11864 0.04084,-0.0796 0.06126,-0.19878 0.06126,-0.35749 -10e-7,-0.15922 -0.02042,-0.27838 -0.06126,-0.35748 -0.04032,-0.0796 -0.101068,-0.11942 -0.182231,-0.11942 m 0,-0.12407 c 0.129758,0 0.228757,0.0514 0.296997,0.15431 0.06876,0.10236 0.103134,0.25125 0.103135,0.44666 -10e-7,0.1949 -0.03438,0.34379 -0.103135,0.44666 -0.06824,0.10236 -0.167239,0.15354 -0.296997,0.15354 -0.129759,0 -0.229017,-0.0512 -0.297773,-0.15354 -0.06824,-0.10287 -0.102359,-0.25176 -0.102359,-0.44666 0,-0.19541 0.03412,-0.3443 0.102359,-0.44666 0.06876,-0.10287 0.168014,-0.15431 0.297773,-0.15431 m 1.030572,0.53739 c -0.07031,0 -0.12614,0.024 -0.167497,0.0721 -0.04084,0.0481 -0.06126,0.114 -0.06126,0.19774 0,0.0832 0.02042,0.14915 0.06126,0.19774 0.04136,0.0481 0.09719,0.0721 0.167497,0.0721 0.07031,0 0.12588,-0.024 0.166721,-0.0721 0.04136,-0.0486 0.06204,-0.1145 0.06204,-0.19774 0,-0.0837 -0.02068,-0.14966 -0.06204,-0.19774 -0.04084,-0.0481 -0.09641,-0.0721 -0.166721,-0.0721 m 0.310955,-0.49086 0,0.14268 c -0.03929,-0.0186 -0.0791,-0.0328 -0.119419,-0.0426 -0.03981,-0.01 -0.07935,-0.0147 -0.118644,-0.0147 -0.103394,0 -0.18249,0.0349 -0.237288,0.10468 -0.05428,0.0698 -0.0853,0.17525 -0.09305,0.31639 0.0305,-0.045 0.06876,-0.0794 0.114767,-0.10314 0.04601,-0.0243 0.09667,-0.0364 0.151988,-0.0365 0.116317,1e-5 0.208078,0.0354 0.275285,0.10624 0.06772,0.0703 0.101583,0.16621 0.101584,0.28769 -10e-7,0.11891 -0.03516,0.21429 -0.105461,0.28614 -0.07031,0.0719 -0.163879,0.10779 -0.280713,0.10779 -0.133895,0 -0.236254,-0.0512 -0.307078,-0.15354 -0.07082,-0.10287 -0.106237,-0.25176 -0.106237,-0.44666 0,-0.183 0.04342,-0.32879 0.130276,-0.43735 0.08685,-0.10908 0.203425,-0.16362 0.349727,-0.16362 0.03929,0 0.07884,0.004 0.118644,0.0116 0.04032,0.008 0.0822,0.0194 0.125623,0.0349 m 0.852996,-0.0256 0.614932,0 0,0.13182 -0.471474,0 0,0.28382 c 0.02275,-0.008 0.04549,-0.0134 0.06824,-0.0171 0.02275,-0.004 0.04549,-0.006 0.06824,-0.006 0.129241,1e-5 0.231601,0.0354 0.307078,0.10624 0.07548,0.0708 0.113215,0.16672 0.113216,0.28769 -1e-6,0.12459 -0.03877,0.22152 -0.116317,0.2908 -0.07755,0.0687 -0.186884,0.10313 -0.328016,0.10313 -0.04859,0 -0.09822,-0.004 -0.148886,-0.0124 -0.05015,-0.008 -0.102101,-0.0207 -0.155865,-0.0372 l 0,-0.15741 c 0.04653,0.0253 0.0946,0.0442 0.144233,0.0566 0.04963,0.0124 0.102101,0.0186 0.157417,0.0186 0.08943,0 0.160259,-0.0235 0.212473,-0.0706 0.05221,-0.047 0.07832,-0.11089 0.07832,-0.19154 0,-0.0806 -0.02611,-0.14449 -0.07832,-0.19153 -0.05221,-0.047 -0.123039,-0.0706 -0.212473,-0.0706 -0.04188,0 -0.08375,0.005 -0.125623,0.014 -0.04136,0.009 -0.08375,0.0238 -0.127174,0.0434 l 0,-0.58158 m 1.44001,0.13648 -0.395479,0.61803 0.395479,0 0,-0.61803 m -0.0411,-0.13648 0.196965,0 0,0.75451 0.165171,0 0,0.13028 -0.165171,0 0,0.27295 -0.155866,0 0,-0.27295 -0.522653,0 0,-0.15122 0.481554,-0.73357 m 0.976292,0.51645 c -0.07031,0 -0.12614,0.024 -0.167497,0.0721 -0.04084,0.0481 -0.06126,0.114 -0.06126,0.19774 0,0.0832 0.02042,0.14915 0.06126,0.19774 0.04136,0.0481 0.09719,0.0721 0.167497,0.0721 0.07031,0 0.125881,-0.024 0.166722,-0.0721 0.04136,-0.0486 0.06204,-0.1145 0.06204,-0.19774 -10e-7,-0.0837 -0.02068,-0.14966 -0.06204,-0.19774 -0.04084,-0.0481 -0.09642,-0.0721 -0.166722,-0.0721 m 0.310955,-0.49086 0,0.14268 c -0.03929,-0.0186 -0.0791,-0.0328 -0.119419,-0.0426 -0.03981,-0.01 -0.07935,-0.0147 -0.118644,-0.0147 -0.103394,0 -0.18249,0.0349 -0.237288,0.10468 -0.05428,0.0698 -0.0853,0.17525 -0.09305,0.31639 0.0305,-0.045 0.06876,-0.0794 0.114767,-0.10314 0.04601,-0.0243 0.09667,-0.0364 0.151988,-0.0365 0.116317,1e-5 0.208079,0.0354 0.275285,0.10624 0.06772,0.0703 0.101583,0.16621 0.101584,0.28769 -1e-6,0.11891 -0.03516,0.21429 -0.105461,0.28614 -0.07031,0.0719 -0.163879,0.10779 -0.280713,0.10779 -0.133895,0 -0.236254,-0.0512 -0.307078,-0.15354 -0.07082,-0.10287 -0.106237,-0.25176 -0.106237,-0.44666 0,-0.183 0.04342,-0.32879 0.130276,-0.43735 0.08685,-0.10908 0.203426,-0.16362 0.349728,-0.16362 0.03929,0 0.07884,0.004 0.118643,0.0116 0.04032,0.008 0.0822,0.0194 0.125623,0.0349 m 0.347402,-0.0256 0.614931,0 0,0.13182 -0.471473,0 0,0.28382 c 0.02275,-0.008 0.04549,-0.0134 0.06824,-0.0171 0.02275,-0.004 0.04549,-0.006 0.06824,-0.006 0.129241,1e-5 0.2316,0.0354 0.307078,0.10624 0.07548,0.0708 0.113215,0.16672 0.113216,0.28769 -10e-7,0.12459 -0.03877,0.22152 -0.116318,0.2908 -0.07754,0.0687 -0.186884,0.10313 -0.328015,0.10313 -0.0486,0 -0.09822,-0.004 -0.148886,-0.0124 -0.05015,-0.008 -0.102101,-0.0207 -0.155866,-0.0372 l 0,-0.15741 c 0.04653,0.0253 0.0946,0.0442 0.144234,0.0566 0.04963,0.0124 0.102101,0.0186 0.157416,0.0186 0.08944,0 0.160259,-0.0235 0.212474,-0.0706 0.05221,-0.047 0.07832,-0.11089 0.07832,-0.19154 -1e-6,-0.0806 -0.02611,-0.14449 -0.07832,-0.19153 -0.05221,-0.047 -0.123039,-0.0706 -0.212474,-0.0706 -0.04187,0 -0.08375,0.005 -0.125622,0.014 -0.04136,0.009 -0.08375,0.0238 -0.127174,0.0434 l 0,-0.58158 m 1.47568,0 0.744432,0 0,0.0667 -0.420294,1.09105 -0.16362,0 0.395479,-1.02592 -0.555997,0 0,-0.13182 m 1.385731,0.10313 c -0.08065,0 -0.141391,0.0398 -0.182231,0.11942 -0.04032,0.0791 -0.06048,0.19826 -0.06048,0.35748 0,0.15871 0.02016,0.27787 0.06048,0.35749 0.04084,0.0791 0.101583,0.11864 0.182231,0.11864 0.08116,0 0.141906,-0.0395 0.18223,-0.11864 0.04084,-0.0796 0.06126,-0.19878 0.06126,-0.35749 -10e-7,-0.15922 -0.02042,-0.27838 -0.06126,-0.35748 -0.04032,-0.0796 -0.101067,-0.11942 -0.18223,-0.11942 m 0,-0.12407 c 0.129758,0 0.228757,0.0514 0.296997,0.15431 0.06876,0.10236 0.103134,0.25125 0.103135,0.44666 -10e-7,0.1949 -0.03438,0.34379 -0.103135,0.44666 -0.06824,0.10236 -0.167239,0.15354 -0.296997,0.15354 -0.129759,0 -0.229017,-0.0512 -0.297773,-0.15354 -0.06824,-0.10287 -0.10236,-0.25176 -0.102359,-0.44666 -10e-7,-0.19541 0.03412,-0.3443 0.102359,-0.44666 0.06876,-0.10287 0.168014,-0.15431 0.297773,-0.15431 m 1.030571,0.53739 c -0.07031,0 -0.126141,0.024 -0.167498,0.0721 -0.04084,0.0481 -0.06126,0.114 -0.06126,0.19774 0,0.0832 0.02042,0.14915 0.06126,0.19774 0.04136,0.0481 0.09719,0.0721 0.167498,0.0721 0.07031,0 0.12588,-0.024 0.166721,-0.0721 0.04136,-0.0486 0.06204,-0.1145 0.06204,-0.19774 0,-0.0837 -0.02068,-0.14966 -0.06204,-0.19774 -0.04084,-0.0481 -0.09642,-0.0721 -0.166721,-0.0721 m 0.310955,-0.49086 0,0.14268 c -0.03929,-0.0186 -0.0791,-0.0328 -0.119419,-0.0426 -0.03981,-0.01 -0.07935,-0.0147 -0.118644,-0.0147 -0.103394,0 -0.18249,0.0349 -0.237288,0.10468 -0.05428,0.0698 -0.0853,0.17525 -0.09305,0.31639 0.0305,-0.045 0.06876,-0.0794 0.114767,-0.10314 0.04601,-0.0243 0.09667,-0.0364 0.151988,-0.0365 0.116317,1e-5 0.208078,0.0354 0.275285,0.10624 0.06772,0.0703 0.101583,0.16621 0.101584,0.28769 -10e-7,0.11891 -0.03515,0.21429 -0.105462,0.28614 -0.07031,0.0719 -0.163879,0.10779 -0.280712,0.10779 -0.133895,0 -0.236254,-0.0512 -0.307079,-0.15354 -0.07082,-0.10287 -0.106236,-0.25176 -0.106236,-0.44666 0,-0.183 0.04342,-0.32879 0.130275,-0.43735 0.08685,-0.10908 0.203426,-0.16362 0.349728,-0.16362 0.03929,0 0.07884,0.004 0.118644,0.0116 0.04032,0.008 0.0822,0.0194 0.125623,0.0349 m 0.347403,-0.0256 0.614932,0 0,0.13182 -0.471473,0 0,0.28382 c 0.02275,-0.008 0.04549,-0.0134 0.06824,-0.0171 0.02275,-0.004 0.04549,-0.006 0.06824,-0.006 0.129241,1e-5 0.2316,0.0354 0.307078,0.10624 0.07548,0.0708 0.113215,0.16672 0.113216,0.28769 -10e-7,0.12459 -0.03877,0.22152 -0.116318,0.2908 -0.07755,0.0687 -0.186884,0.10313 -0.328015,0.10313 -0.04859,0 -0.09822,-0.004 -0.148887,-0.0124 -0.05015,-0.008 -0.102101,-0.0207 -0.155865,-0.0372 l 0,-0.15741 c 0.04653,0.0253 0.09461,0.0442 0.144234,0.0566 0.04963,0.0124 0.1021,0.0186 0.157416,0.0186 0.08944,0 0.160259,-0.0235 0.212473,-0.0706 0.05221,-0.047 0.07832,-0.11089 0.07832,-0.19154 -10e-7,-0.0806 -0.02611,-0.14449 -0.07832,-0.19153 -0.05221,-0.047 -0.123038,-0.0706 -0.212473,-0.0706 -0.04187,0 -0.08375,0.005 -0.125623,0.014 -0.04136,0.009 -0.08375,0.0238 -0.127174,0.0434 l 0,-0.58158 m 1.47568,0 0.744432,0 0,0.0667 -0.420293,1.09105 -0.16362,0 0.395479,-1.02592 -0.555998,0 0,-0.13182 m 1.405116,0.51645 c -0.07031,0 -0.126141,0.024 -0.167498,0.0721 -0.04084,0.0481 -0.06126,0.114 -0.06126,0.19774 0,0.0832 0.02042,0.14915 0.06126,0.19774 0.04136,0.0481 0.09719,0.0721 0.167498,0.0721 0.07031,0 0.12588,-0.024 0.166721,-0.0721 0.04136,-0.0486 0.06204,-0.1145 0.06204,-0.19774 0,-0.0837 -0.02068,-0.14966 -0.06204,-0.19774 -0.04084,-0.0481 -0.09642,-0.0721 -0.166721,-0.0721 m 0.310955,-0.49086 0,0.14268 c -0.03929,-0.0186 -0.0791,-0.0328 -0.119419,-0.0426 -0.03981,-0.01 -0.07935,-0.0147 -0.118644,-0.0147 -0.103394,0 -0.18249,0.0349 -0.237288,0.10468 -0.05428,0.0698 -0.0853,0.17525 -0.09305,0.31639 0.0305,-0.045 0.06876,-0.0794 0.114767,-0.10314 0.04601,-0.0243 0.09667,-0.0364 0.151988,-0.0365 0.116317,1e-5 0.208078,0.0354 0.275285,0.10624 0.06772,0.0703 0.101583,0.16621 0.101584,0.28769 -10e-7,0.11891 -0.03516,0.21429 -0.105462,0.28614 -0.07031,0.0719 -0.163879,0.10779 -0.280712,0.10779 -0.133895,0 -0.236254,-0.0512 -0.307079,-0.15354 -0.07082,-0.10287 -0.106236,-0.25176 -0.106236,-0.44666 0,-0.183 0.04342,-0.32879 0.130275,-0.43735 0.08685,-0.10908 0.203426,-0.16362 0.349728,-0.16362 0.03929,0 0.07884,0.004 0.118644,0.0116 0.04032,0.008 0.0822,0.0194 0.125623,0.0349 m 0.306303,-0.0256 0.744432,0 0,0.0667 -0.420294,1.09105 -0.16362,0 0.395479,-1.02592 -0.555997,0 0,-0.13182 m 1.055387,1.1337 0,-0.14268 c 0.03929,0.0186 0.0791,0.0328 0.119419,0.0427 0.04032,0.01 0.07987,0.0147 0.118644,0.0147 0.103393,0 0.18223,-0.0346 0.236512,-0.10391 0.0548,-0.0698 0.08607,-0.17551 0.09383,-0.31716 -0.02998,0.0445 -0.06798,0.0786 -0.113991,0.10236 -0.04601,0.0238 -0.09693,0.0357 -0.152764,0.0357 -0.115801,0 -0.207562,-0.0349 -0.275285,-0.10469 -0.06721,-0.0703 -0.100808,-0.1662 -0.100808,-0.28769 0,-0.1189 0.03515,-0.21428 0.105461,-0.28614 0.07031,-0.0719 0.163878,-0.10779 0.280713,-0.10779 0.133893,0 0.235994,0.0514 0.306302,0.15431 0.07082,0.10236 0.106236,0.25125 0.106237,0.44666 -1e-6,0.18249 -0.04343,0.32828 -0.130275,0.43736 -0.08633,0.10856 -0.202652,0.16284 -0.348953,0.16284 -0.03929,0 -0.0791,-0.004 -0.119419,-0.0116 -0.04032,-0.008 -0.0822,-0.0194 -0.125623,-0.0349 m 0.311731,-0.49085 c 0.07031,0 0.125881,-0.024 0.166721,-0.0721 0.04136,-0.0481 0.06204,-0.11399 0.06204,-0.19774 0,-0.0832 -0.02068,-0.14889 -0.06204,-0.19697 -0.04084,-0.0486 -0.09641,-0.0729 -0.166721,-0.0729 -0.07031,0 -0.12614,0.0243 -0.167497,0.0729 -0.04084,0.0481 -0.06126,0.11374 -0.06126,0.19697 0,0.0837 0.02042,0.14966 0.06126,0.19774 0.04136,0.0481 0.09719,0.0721 0.167497,0.0721 m 0.699456,0.49085 0,-0.14268 c 0.03929,0.0186 0.0791,0.0328 0.119419,0.0427 0.04032,0.01 0.07987,0.0147 0.118644,0.0147 0.103392,0 0.18223,-0.0346 0.236512,-0.10391 0.0548,-0.0698 0.08607,-0.17551 0.09383,-0.31716 -0.02998,0.0445 -0.06798,0.0786 -0.113991,0.10236 -0.04601,0.0238 -0.09693,0.0357 -0.152763,0.0357 -0.115801,0 -0.207563,-0.0349 -0.275285,-0.10469 -0.06721,-0.0703 -0.100809,-0.1662 -0.100809,-0.28769 0,-0.1189 0.03515,-0.21428 0.105462,-0.28614 0.07031,-0.0719 0.163878,-0.10779 0.280712,-0.10779 0.133894,0 0.235995,0.0514 0.306303,0.15431 0.07082,0.10236 0.106236,0.25125 0.106237,0.44666 -1e-6,0.18249 -0.04343,0.32828 -0.130276,0.43736 -0.08633,0.10856 -0.202651,0.16284 -0.348952,0.16284 -0.03929,0 -0.0791,-0.004 -0.11942,-0.0116 -0.04032,-0.008 -0.0822,-0.0194 -0.125622,-0.0349 m 0.31173,-0.49085 c 0.07031,0 0.125881,-0.024 0.166722,-0.0721 0.04136,-0.0481 0.06203,-0.11399 0.06204,-0.19774 -1e-6,-0.0832 -0.02068,-0.14889 -0.06204,-0.19697 -0.04084,-0.0486 -0.09642,-0.0729 -0.166722,-0.0729 -0.07031,0 -0.12614,0.0243 -0.167497,0.0729 -0.04084,0.0481 -0.06126,0.11374 -0.06126,0.19697 -1e-6,0.0837 0.02042,0.14966 0.06126,0.19774 0.04136,0.0481 0.09719,0.0721 0.167497,0.0721"
         id="text7050"
         style="font-size:1.58812129px;font-style:normal;font-variant:normal;font-weight:normal;font-stretch:normal;line-height:120.00000477%;writing-mode:lr-tb;text-anchor:start;fill:#000000;fill-opacity:1;stroke:none;font-family:Bitstream Vera Sans" />
    </g>
  </g>
</svg>
