<?xml version="1.0" encoding="UTF-8" standalone="no"?>
<!-- Created with Inkscape (http://www.inkscape.org/) -->

<svg
   xmlns:svg="http://www.w3.org/2000/svg"
   xmlns="http://www.w3.org/2000/svg"
   xmlns:xlink="http://www.w3.org/1999/xlink"
   version="1.0"
   width="128"
   height="128"
   id="svg1306">
  <defs
     id="defs1308">
    <linearGradient
       id="linearGradient4409">
      <stop
         id="stop4411"
         style="stop-color:#ffffff;stop-opacity:1"
         offset="0" />
      <stop
         id="stop4413"
         style="stop-color:#ffffff;stop-opacity:0"
         offset="1" />
    </linearGradient>
    <linearGradient
       id="linearGradient6028">
      <stop
         id="stop6030"
         style="stop-color:#ffffff;stop-opacity:1"
         offset="0" />
      <stop
         id="stop6032"
         style="stop-color:#ffffff;stop-opacity:0"
         offset="1" />
    </linearGradient>
    <linearGradient
       id="linearGradient6036">
      <stop
         id="stop6038"
         style="stop-color:#ffffff;stop-opacity:1"
         offset="0" />
      <stop
         id="stop6040"
         style="stop-color:#ffffff;stop-opacity:0"
         offset="1" />
    </linearGradient>
    <linearGradient
       x1="12.2744"
       y1="32.4165"
       x2="35.391201"
       y2="14.2033"
       id="aigrd2"
       gradientUnits="userSpaceOnUse">
      <stop
         id="stop3043"
         style="stop-color:#fbfbfb;stop-opacity:1"
         offset="0" />
      <stop
         id="stop3045"
         style="stop-color:#b6b6b6;stop-opacity:1"
         offset="0.5" />
      <stop
         id="stop3047"
         style="stop-color:#e4e4e4;stop-opacity:1"
         offset="1" />
    </linearGradient>
    <linearGradient
       x1="14.9966"
       y1="11.1885"
       x2="32.511002"
       y2="34.307499"
       id="aigrd1"
       gradientUnits="userSpaceOnUse">
      <stop
         id="stop3034"
         style="stop-color:#ebebeb;stop-opacity:1"
         offset="0" />
      <stop
         id="stop3036"
         style="stop-color:#ffffff;stop-opacity:1"
         offset="0.5" />
      <stop
         id="stop3038"
         style="stop-color:#ebebeb;stop-opacity:1"
         offset="1" />
    </linearGradient>
    <linearGradient
       id="linearGradient23419">
      <stop
         id="stop23421"
         style="stop-color:#000000;stop-opacity:1"
         offset="0" />
      <stop
         id="stop23423"
         style="stop-color:#000000;stop-opacity:0"
         offset="1" />
    </linearGradient>
    <radialGradient
       cx="23.334524"
       cy="41.63604"
       r="22.627417"
       fx="23.334524"
       fy="41.63604"
       id="radialGradient2422"
       xlink:href="#linearGradient23419"
       gradientUnits="userSpaceOnUse"
       gradientTransform="matrix(1,0,0,0.25,0,31.22703)" />
    <linearGradient
       x1="14.9966"
       y1="11.1885"
       x2="32.511002"
       y2="34.307499"
       id="linearGradient2424"
       xlink:href="#aigrd1"
       gradientUnits="userSpaceOnUse"
       gradientTransform="matrix(1.190476,0,0,1.190476,18.392284,13.27991)" />
    <linearGradient
       x1="12.2744"
       y1="32.4165"
       x2="35.391201"
       y2="14.2033"
       id="linearGradient2426"
       xlink:href="#aigrd2"
       gradientUnits="userSpaceOnUse"
       gradientTransform="matrix(1.190476,0,0,1.190476,18.392284,13.279909)" />
    <linearGradient
       x1="25.985928"
       y1="24.919628"
       x2="15.889072"
       y2="11.669628"
       id="linearGradient2428"
       xlink:href="#linearGradient4409"
       gradientUnits="userSpaceOnUse"
       gradientTransform="translate(23.201228,16.75968)" />
    <linearGradient
       x1="10.50172"
       y1="3.6100161"
       x2="48.798885"
       y2="54.698483"
       id="linearGradient2430"
       xlink:href="#linearGradient6036"
       gradientUnits="userSpaceOnUse"
       gradientTransform="translate(22.616708,15.77991)" />
    <linearGradient
       x1="28.702885"
       y1="31.494707"
       x2="17.742729"
       y2="18.366575"
       id="linearGradient2432"
       xlink:href="#linearGradient6028"
       gradientUnits="userSpaceOnUse" />
  </defs>
  <g
     id="layer1">
    <g
       transform="matrix(1.7678813,0,0,1.7678813,-20.773302,-7.9476688)"
       id="g2413">
      <path
         d="m 45.961941,41.63604 c 0.0019,3.124536 -10.129274,5.657728 -22.627417,5.657728 -12.498142,0 -22.6293472,-2.533192 -22.62741646,-5.657728 -0.001931,-3.124536 10.12927446,-5.657728 22.62741646,-5.657728 12.498143,0 22.629348,2.533192 22.627417,5.657728 l 0,0 z"
         transform="matrix(1,0,0,1.066291,23.616708,12.894804)"
         id="path23417"
         style="opacity:0.55;fill:url(#radialGradient2422);fill-opacity:1;fill-rule:evenodd;stroke:none;stroke-width:2;marker:none;visibility:visible;display:inline;overflow:visible" />
      <path
         d="m 46.963714,19.946577 c -11.54762,0 -20.833334,9.285714 -20.833334,20.833333 0,11.54762 9.285714,20.833335 20.833334,20.833335 11.54762,0 20.833335,-9.285715 20.833335,-20.833335 0,-11.547619 -9.285715,-20.833333 -20.833335,-20.833333 l 0,0 z m 0,25.833334 c -2.738095,0 -5,-2.261905 -5,-5.000001 0,-2.738095 2.261905,-5 5,-5 2.738095,0 5,2.261905 5,5 0,2.738096 -2.261905,5.000001 -5,5.000001 z"
         id="path3040"
         style="fill:url(#linearGradient2424);fill-rule:nonzero;stroke:none" />
      <path
         d="m 46.963714,19.946576 c -11.54762,0 -20.833334,9.285715 -20.833334,20.833334 0,11.54762 9.285714,20.833335 20.833334,20.833335 11.54762,0 20.833335,-9.285715 20.833335,-20.833335 0,-11.547619 -9.285715,-20.833334 -20.833335,-20.833334 l 0,0 z m 0,25.833335 c -2.738095,0 -5,-2.261905 -5,-5.000001 0,-2.738095 2.261905,-5 5,-5 2.738095,0 5,2.261905 5,5 0,2.738096 -2.261905,5.000001 -5,5.000001 z"
         id="path3049"
         style="fill:url(#linearGradient2426);fill-rule:nonzero;stroke:#808080;stroke-miterlimit:4;stroke-opacity:1" />
      <path
         d="m 46.111766,20.572016 c -10.761691,0.40591 -19.299611,9.217352 -19.299611,20.082434 0,4.925505 1.747124,9.40239 4.666833,12.88648 L 42.596341,44.130636 C 41.875,43.287295 41.547106,42.087468 41.547106,40.90445 c 0,-3.39039 2.304289,-5.567375 5.567375,-5.567375 1.483925,0 2.971087,0.673427 3.858466,1.746298 L 62.3403,27.798079 c -3.675171,-4.424154 -9.244275,-7.226063 -15.475819,-7.226063 -0.260761,0 -0.494434,-0.0097 -0.752715,0 z"
         id="path3531"
         style="fill:url(#linearGradient2428);fill-opacity:1;fill-rule:nonzero;stroke:none" />
      <path
         d="m 46.963714,30.675745 c -5.642586,0 -10.104166,4.592803 -10.104166,10.104165 0,5.642588 4.592804,10.104166 10.104166,10.104166 5.642586,0 10.104166,-4.592802 10.104166,-10.104166 0,-5.642586 -4.592804,-10.104165 -10.104166,-10.104165 l 0,0 z m 0,15.615529 c -3.018127,0 -5.511362,-2.493235 -5.511362,-5.511364 0,-3.018127 2.493235,-5.511362 5.511362,-5.511362 3.018127,0 5.511362,2.493235 5.511362,5.511362 0,3.018129 -2.493235,5.511364 -5.511362,5.511364 z"
         id="path3051"
         style="opacity:0.51098902;fill:#eeeeec;fill-rule:nonzero;stroke:none" />
      <path
         d="m 46.96371,20.982275 c -10.973544,0 -19.797631,8.824089 -19.797631,19.797632 0,10.973544 8.824087,19.797631 19.797631,19.797631 10.973544,0 19.797631,-8.824087 19.797631,-19.797631 0,-10.973543 -8.824087,-19.797632 -19.797631,-19.797632 l 0,0 z"
         id="path5264"
         style="opacity:0.54644811;fill:none;stroke:url(#linearGradient2430);stroke-miterlimit:4;stroke-opacity:1" />
      <path
         d="m 30.405591,24.930641 c 0,3.368272 -2.730524,6.098796 -6.098796,6.098796 -3.368272,0 -6.098796,-2.730524 -6.098796,-6.098796 0,-3.368272 2.730524,-6.098796 6.098796,-6.098796 3.368272,0 6.098796,2.730524 6.098796,6.098796 l 0,0 z"
         transform="translate(22.705096,15.868299)"
         id="path6026"
         style="opacity:0.67213111;fill:none;stroke:url(#linearGradient2432);stroke-width:0.93053865;stroke-linecap:butt;stroke-linejoin:miter;stroke-miterlimit:4;stroke-opacity:1;stroke-dashoffset:0;marker:none;visibility:visible;display:inline;overflow:visible" />
    </g>
  </g>
</svg>
