<?xml version="1.0" encoding="UTF-8" standalone="no"?>
<!-- Created with Inkscape (http://www.inkscape.org/) -->

<svg
   xmlns:svg="http://www.w3.org/2000/svg"
   xmlns="http://www.w3.org/2000/svg"
   xmlns:xlink="http://www.w3.org/1999/xlink"
   version="1.0"
   width="128"
   height="128"
   id="svg2108">
  <defs
     id="defs3">
    <linearGradient
       id="linearGradient4356">
      <stop
         id="stop4358"
         style="stop-color:#000000;stop-opacity:1"
         offset="0" />
      <stop
         id="stop4360"
         style="stop-color:#000000;stop-opacity:0"
         offset="1" />
    </linearGradient>
    <linearGradient
       id="linearGradient4163">
      <stop
         id="stop4165"
         style="stop-color:#3b74bc;stop-opacity:1"
         offset="0" />
      <stop
         id="stop4167"
         style="stop-color:#2d5990;stop-opacity:1"
         offset="1" />
    </linearGradient>
    <linearGradient
       id="linearGradient3824">
      <stop
         id="stop3826"
         style="stop-color:#ffffff;stop-opacity:1"
         offset="0" />
      <stop
         id="stop3828"
         style="stop-color:#c9c9c9;stop-opacity:1"
         offset="1" />
    </linearGradient>
    <linearGradient
       id="linearGradient3816">
      <stop
         id="stop3818"
         style="stop-color:#000000;stop-opacity:1"
         offset="0" />
      <stop
         id="stop3820"
         style="stop-color:#000000;stop-opacity:0"
         offset="1" />
    </linearGradient>
    <linearGradient
       id="linearGradient3800">
      <stop
         id="stop3802"
         style="stop-color:#f4d9b1;stop-opacity:1"
         offset="0" />
      <stop
         id="stop3804"
         style="stop-color:#df9725;stop-opacity:1"
         offset="1" />
    </linearGradient>
    <radialGradient
       cx="31.112698"
       cy="19.008621"
       r="8.6620579"
       fx="31.112698"
       fy="19.008621"
       id="radialGradient4179"
       xlink:href="#linearGradient3816"
       gradientUnits="userSpaceOnUse" />
    <radialGradient
       cx="31.112698"
       cy="19.008621"
       r="8.6620579"
       fx="31.112698"
       fy="19.008621"
       id="radialGradient2237"
       xlink:href="#linearGradient3816"
       gradientUnits="userSpaceOnUse" />
    <radialGradient
       cx="29.344931"
       cy="17.064077"
       r="9.1620579"
       fx="29.344931"
       fy="17.064077"
       id="radialGradient2239"
       xlink:href="#linearGradient3800"
       gradientUnits="userSpaceOnUse"
       gradientTransform="matrix(0.787998,0,0,0.787998,6.221198,3.617627)" />
    <linearGradient
       x1="22.686766"
       y1="36.3904"
       x2="21.408455"
       y2="35.739632"
       id="linearGradient2246"
       xlink:href="#linearGradient4356"
       gradientUnits="userSpaceOnUse"
       gradientTransform="matrix(-2.8347379,0.6090996,0.6090996,2.8347379,134.07039,-29.845765)" />
    <linearGradient
       x1="20.661695"
       y1="35.817974"
       x2="22.626925"
       y2="36.217758"
       id="linearGradient2249"
       xlink:href="#linearGradient4356"
       gradientUnits="userSpaceOnUse"
       gradientTransform="matrix(2.8512357,0.5265033,-0.5265033,2.8512357,-7.64805,-26.094637)" />
    <linearGradient
       x1="30.935921"
       y1="29.553486"
       x2="30.935921"
       y2="35.803486"
       id="linearGradient2258"
       xlink:href="#linearGradient3824"
       gradientUnits="userSpaceOnUse"
       gradientTransform="matrix(2.8994389,0,0,2.8994389,-24.655861,-16.285552)" />
    <radialGradient
       cx="28.089741"
       cy="27.203083"
       r="13.56536"
       fx="28.089741"
       fy="27.203083"
       id="radialGradient2261"
       xlink:href="#linearGradient4163"
       gradientUnits="userSpaceOnUse"
       gradientTransform="matrix(3.7622075,0,0,2.5655134,-49.9515,-4.0822851)" />
    <linearGradient
       x1="22.686766"
       y1="36.3904"
       x2="21.408455"
       y2="35.739632"
       id="linearGradient2264"
       xlink:href="#linearGradient4356"
       gradientUnits="userSpaceOnUse"
       gradientTransform="matrix(-2.8347379,0.6090996,0.6090996,2.8347379,95.49672,-50.644748)" />
  </defs>
  <g
     id="layer1"
     style="display:inline" />
  <g
     id="layer2"
     style="display:inline">
    <path
       d="m 39.774755,19.008621 a 8.6620579,8.6620579 0 1 1 -17.324115,0 8.6620579,8.6620579 0 1 1 17.324115,0 z"
       transform="matrix(5.1479827,0,0,1.6932259,-96.037255,70.585083)"
       id="path4306"
       style="fill:url(#radialGradient4179);fill-opacity:1;fill-rule:evenodd;stroke:none;stroke-width:1px;marker:none;visibility:visible;display:inline;overflow:visible" />
    <path
       d="m 53.88369,76.530602 c 3.56993,-1.68451 5.23169,-5.805607 5.23169,-5.805607 C 56.33447,59.002613 47.58677,50.884654 47.58677,50.884654 c 0,0 7.14594,18.389986 6.29692,25.645948 z"
       id="path4370"
       style="opacity:0.22784807;fill:url(#linearGradient2264);fill-opacity:1;fill-rule:evenodd;stroke:none;stroke-width:1px;marker:none;visibility:visible;display:inline;overflow:visible" />
    <path
       d="m 49.6288,102.31428 30.75319,0 c 8.71341,0 17.34005,-3.19499 20.50213,-12.30128 3.00277,-8.647508 0.51255,-25.115109 -18.96447,-38.441493 l -36.39128,0 C 26.05135,63.872783 23.61734,80.695881 28.10156,90.52555 32.6699,100.5396 40.40284,102.31428 49.6288,102.31428 z"
       id="path4308"
       style="fill:url(#radialGradient2261);fill-opacity:1;fill-rule:evenodd;stroke:#204a87;stroke-width:2.89943886px;stroke-linecap:round;stroke-linejoin:round;stroke-miterlimit:4;stroke-opacity:1;stroke-dasharray:none;stroke-dashoffset:0;marker:none;visibility:visible;display:inline;overflow:visible" />
    <path
       d="m 52.739671,58.305807 c 9.22596,8.200851 13.32638,37.928939 13.32638,37.928939 0,0 4.10043,-29.728085 11.27617,-38.441491 l -24.60255,0.512552 z"
       id="path4310"
       style="fill:url(#linearGradient2258);fill-opacity:1;fill-rule:evenodd;stroke:none;stroke-width:1px;marker:none;visibility:visible;display:inline;overflow:visible" />
    <path
       d="m 49.42203,99.29275 30.42511,-0.06406 c 7.65372,0 15.23122,-2.80643 18.00874,-10.80525 2.63759,-7.595832 -0.27464,-22.060709 -17.38294,-33.76639 L 47.0577,53.952289 C 29.9494,64.757532 26.63805,79.534673 30.64099,88.87366 c 4.00294,9.33898 9.84421,10.35503 18.78104,10.41909 z"
       id="path4314"
       style="opacity:0.21518986;fill:none;stroke:#ffffff;stroke-width:2.89943814px;stroke-linecap:round;stroke-linejoin:round;stroke-miterlimit:4;stroke-opacity:1;stroke-dasharray:none;stroke-dashoffset:0;marker:none;visibility:visible;display:inline;overflow:visible" />
    <path
       d="m 39.774755,19.008621 a 8.6620579,8.6620579 0 1 1 -17.324115,0 8.6620579,8.6620579 0 1 1 17.324115,0 z"
       transform="matrix(2.8994389,0,0,2.8994389,-26.078956,-8.258837)"
       id="path4318"
       style="fill:url(#radialGradient2237);fill-opacity:1;fill-rule:evenodd;stroke:none;stroke-width:1px;marker:none;visibility:visible;display:inline;overflow:visible" />
    <path
       d="m 59.39697,60.592623 9.899495,0 -2.828427,7.071068 7.424621,22.627417 -8.131728,5.303301 -8.131728,-4.949748 6.010408,-22.98097 -4.242641,-7.071068 z"
       id="path2269"
       style="fill:#ce3d3d;fill-opacity:1;fill-rule:evenodd;stroke:none" />
    <path
       d="m 64.28811,61.259807 c 0,0 -6.23763,4.81404 -5.70027,10.613492 -5.91841,-5.221292 -6.08846,-15.226473 -6.08846,-15.226473 l 11.78873,4.612981 z"
       id="path4312"
       style="fill:#ffffff;fill-opacity:1;fill-rule:evenodd;stroke:none;stroke-width:1px;marker:none;visibility:visible;display:inline;overflow:visible" />
    <path
       d="m 65.15603,61.259807 c 0,0 6.23763,4.81404 5.70027,10.613492 5.91841,-5.221292 6.08846,-15.226473 6.08846,-15.226473 l -11.78873,4.612981 z"
       id="path4316"
       style="fill:#ffffff;fill-opacity:1;fill-rule:evenodd;stroke:none;stroke-width:1px;marker:none;visibility:visible;display:inline;overflow:visible" />
    <path
       d="m 39.774755,19.008621 a 8.6620579,8.6620579 0 1 1 -17.324115,0 8.6620579,8.6620579 0 1 1 17.324115,0 z"
       transform="matrix(2.8994389,0,0,2.8994389,-25.716526,-18.406873)"
       id="path4320"
       style="fill:url(#radialGradient2239);fill-opacity:1;fill-rule:evenodd;stroke:#c17d11;stroke-width:1px;stroke-linecap:round;stroke-linejoin:round;stroke-miterlimit:4;stroke-opacity:1;stroke-dasharray:none;stroke-dashoffset:0;marker:none;visibility:visible;display:inline;overflow:visible" />
    <path
       d="m 39.774755,19.008621 a 8.6620579,8.6620579 0 1 1 -17.324115,0 8.6620579,8.6620579 0 1 1 17.324115,0 z"
       transform="matrix(2.5430833,0,0,2.5430833,-14.629283,-11.63301)"
       id="path4322"
       style="opacity:0.19620254;fill:none;stroke:#ffffff;stroke-width:1.14012825px;stroke-linecap:round;stroke-linejoin:round;stroke-miterlimit:4;stroke-opacity:1;stroke-dasharray:none;stroke-dashoffset:0;marker:none;visibility:visible;display:inline;overflow:visible" />
    <path
       d="m 37.6414,99.81832 c -3.61736,-1.58011 -5.23637,-5.38796 -5.23637,-5.38796 2.43925,-11.798214 10.7857,-20.430075 10.7857,-20.430075 0,0 -6.60875,18.589795 -5.54933,25.818035 z"
       id="path4354"
       style="opacity:0.22784807;fill:url(#linearGradient2249);fill-opacity:1;fill-rule:evenodd;stroke:none;stroke-width:1px;marker:none;visibility:visible;display:inline;overflow:visible" />
    <path
       d="m 92.45735,97.32958 c 3.56993,-1.68451 5.23168,-5.80561 5.23168,-5.80561 -2.7809,-11.722378 -11.5286,-19.840337 -11.5286,-19.840337 0,0 7.14594,18.389987 6.29692,25.645947 z"
       id="path4364"
       style="opacity:0.22784807;fill:url(#linearGradient2246);fill-opacity:1;fill-rule:evenodd;stroke:none;stroke-width:1px;marker:none;visibility:visible;display:inline;overflow:visible" />
  </g>
</svg>
