<?xml version="1.0" encoding="UTF-8" standalone="no"?>
<!-- Created with Inkscape (http://www.inkscape.org/) -->

<svg
   xmlns:svg="http://www.w3.org/2000/svg"
   xmlns="http://www.w3.org/2000/svg"
   xmlns:xlink="http://www.w3.org/1999/xlink"
   version="1.0"
   width="128"
   height="128"
   id="svg2108">
  <defs
     id="defs3">
    <linearGradient
       id="linearGradient4356">
      <stop
         id="stop4358"
         style="stop-color:#000000;stop-opacity:1"
         offset="0" />
      <stop
         id="stop4360"
         style="stop-color:#000000;stop-opacity:0"
         offset="1" />
    </linearGradient>
    <linearGradient
       id="linearGradient4163">
      <stop
         id="stop4165"
         style="stop-color:#3b74bc;stop-opacity:1"
         offset="0" />
      <stop
         id="stop4167"
         style="stop-color:#2d5990;stop-opacity:1"
         offset="1" />
    </linearGradient>
    <linearGradient
       id="linearGradient3824">
      <stop
         id="stop3826"
         style="stop-color:#ffffff;stop-opacity:1"
         offset="0" />
      <stop
         id="stop3828"
         style="stop-color:#c9c9c9;stop-opacity:1"
         offset="1" />
    </linearGradient>
    <linearGradient
       id="linearGradient3816">
      <stop
         id="stop3818"
         style="stop-color:#000000;stop-opacity:1"
         offset="0" />
      <stop
         id="stop3820"
         style="stop-color:#000000;stop-opacity:0"
         offset="1" />
    </linearGradient>
    <linearGradient
       id="linearGradient3800">
      <stop
         id="stop3802"
         style="stop-color:#f4d9b1;stop-opacity:1"
         offset="0" />
      <stop
         id="stop3804"
         style="stop-color:#df9725;stop-opacity:1"
         offset="1" />
    </linearGradient>
    <linearGradient
       id="linearGradient2245">
      <stop
         id="stop2247"
         style="stop-color:#dde1d9;stop-opacity:1"
         offset="0" />
      <stop
         id="stop2249"
         style="stop-color:#cacdc6;stop-opacity:1"
         offset="1" />
    </linearGradient>
    <linearGradient
       id="linearGradient5048">
      <stop
         id="stop5050"
         style="stop-color:#000000;stop-opacity:0"
         offset="0" />
      <stop
         id="stop5056"
         style="stop-color:#000000;stop-opacity:1"
         offset="0.5" />
      <stop
         id="stop5052"
         style="stop-color:#000000;stop-opacity:0"
         offset="1" />
    </linearGradient>
    <linearGradient
       id="linearGradient5060">
      <stop
         id="stop5062"
         style="stop-color:#000000;stop-opacity:1"
         offset="0" />
      <stop
         id="stop5064"
         style="stop-color:#000000;stop-opacity:0"
         offset="1" />
    </linearGradient>
    <linearGradient
       id="linearGradient2224">
      <stop
         id="stop2226"
         style="stop-color:#32342f;stop-opacity:0.54639173"
         offset="0" />
      <stop
         id="stop2228"
         style="stop-color:#32342f;stop-opacity:0"
         offset="1" />
    </linearGradient>
    <linearGradient
       id="linearGradient2238">
      <stop
         id="stop2240"
         style="stop-color:#ffffff;stop-opacity:1"
         offset="0" />
      <stop
         id="stop2242"
         style="stop-color:#ffffff;stop-opacity:0"
         offset="1" />
    </linearGradient>
    <linearGradient
       x1="25.273239"
       y1="47.35099"
       x2="32.302197"
       y2="47.35099"
       id="linearGradient2222"
       gradientUnits="userSpaceOnUse"
       gradientTransform="scale(1.2092831,0.8269362)">
      <stop
         id="stop2224"
         style="stop-color:#5187d6;stop-opacity:1"
         offset="0" />
      <stop
         id="stop2227"
         style="stop-color:#1e4580;stop-opacity:1"
         offset="1" />
    </linearGradient>
    <linearGradient
       x1="12.2744"
       y1="32.4165"
       x2="35.391201"
       y2="14.2033"
       id="aigrd2"
       gradientUnits="userSpaceOnUse">
      <stop
         id="stop3043"
         style="stop-color:#fbfbfb;stop-opacity:1"
         offset="0" />
      <stop
         id="stop3045"
         style="stop-color:#b6b6b6;stop-opacity:1"
         offset="0.5" />
      <stop
         id="stop3047"
         style="stop-color:#e4e4e4;stop-opacity:1"
         offset="1" />
    </linearGradient>
    <linearGradient
       x1="14.9966"
       y1="11.1885"
       x2="32.511002"
       y2="34.307499"
       id="aigrd1"
       gradientUnits="userSpaceOnUse">
      <stop
         id="stop3034"
         style="stop-color:#ebebeb;stop-opacity:1"
         offset="0" />
      <stop
         id="stop3036"
         style="stop-color:#ffffff;stop-opacity:1"
         offset="0.5" />
      <stop
         id="stop3038"
         style="stop-color:#ebebeb;stop-opacity:1"
         offset="1" />
    </linearGradient>
    <radialGradient
       cx="31.112698"
       cy="19.008621"
       r="8.6620579"
       fx="31.112698"
       fy="19.008621"
       id="radialGradient4179"
       xlink:href="#linearGradient3816"
       gradientUnits="userSpaceOnUse" />
    <linearGradient
       x1="14.260854"
       y1="9.285902"
       x2="16.851845"
       y2="16.268581"
       id="linearGradient2287"
       xlink:href="#linearGradient2254"
       gradientUnits="userSpaceOnUse"
       gradientTransform="matrix(1.284317,0,0,1,14.61983,4.452335)" />
    <linearGradient
       x1="14.260854"
       y1="9.285902"
       x2="16.851845"
       y2="16.268581"
       id="linearGradient2283"
       xlink:href="#linearGradient2254"
       gradientUnits="userSpaceOnUse"
       gradientTransform="matrix(0.751222,0,0,1,-0.197462,7.612867)" />
    <linearGradient
       id="linearGradient2254">
      <stop
         id="stop2256"
         style="stop-color:#ffffff;stop-opacity:1"
         offset="0" />
      <stop
         id="stop2258"
         style="stop-color:#ffffff;stop-opacity:0"
         offset="1" />
    </linearGradient>
    <linearGradient
       x1="26.076092"
       y1="26.696676"
       x2="30.811172"
       y2="42.007351"
       id="linearGradient2265"
       xlink:href="#linearGradient2259"
       gradientUnits="userSpaceOnUse" />
    <linearGradient
       x1="33.396004"
       y1="36.921333"
       x2="34.170048"
       y2="38.070381"
       id="linearGradient2257"
       xlink:href="#linearGradient2251"
       gradientUnits="userSpaceOnUse" />
    <linearGradient
       x1="35.996582"
       y1="40.458221"
       x2="33.664921"
       y2="37.770721"
       id="linearGradient2230"
       xlink:href="#linearGradient2224"
       gradientUnits="userSpaceOnUse" />
    <linearGradient
       x1="25.404572"
       y1="3.8180194"
       x2="25.464211"
       y2="9.3233509"
       id="linearGradient15240"
       xlink:href="#linearGradient15234"
       gradientUnits="userSpaceOnUse"
       gradientTransform="matrix(1.052632,0,0,1,-1.789474,0)" />
    <linearGradient
       x1="22.308331"
       y1="18.99214"
       x2="35.785294"
       y2="39.498238"
       id="linearGradient15224"
       xlink:href="#linearGradient15218"
       gradientUnits="userSpaceOnUse"
       gradientTransform="matrix(1.065698,0,0,0.987595,-1.564439,0.07487332)" />
    <linearGradient
       x1="6.1071744"
       y1="10.45129"
       x2="33.857143"
       y2="37.87986"
       id="linearGradient14490"
       xlink:href="#linearGradient14484"
       gradientUnits="userSpaceOnUse" />
    <linearGradient
       id="linearGradient14484">
      <stop
         id="stop14486"
         style="stop-color:#c68827;stop-opacity:1"
         offset="0" />
      <stop
         id="stop14488"
         style="stop-color:#89601f;stop-opacity:1"
         offset="1" />
    </linearGradient>
    <linearGradient
       id="linearGradient15218">
      <stop
         id="stop15220"
         style="stop-color:#f0f0ef;stop-opacity:1"
         offset="0" />
      <stop
         id="stop2269"
         style="stop-color:#e8e8e8;stop-opacity:1"
         offset="0.59928656" />
      <stop
         id="stop2267"
         style="stop-color:#ffffff;stop-opacity:1"
         offset="0.82758623" />
      <stop
         id="stop15222"
         style="stop-color:#d8d8d3;stop-opacity:1"
         offset="1" />
    </linearGradient>
    <linearGradient
       id="linearGradient15234">
      <stop
         id="stop15236"
         style="stop-color:#97978a;stop-opacity:1"
         offset="0" />
      <stop
         id="stop15242"
         style="stop-color:#c2c2b9;stop-opacity:1"
         offset="0.5" />
      <stop
         id="stop15238"
         style="stop-color:#7d7d6f;stop-opacity:1"
         offset="1" />
    </linearGradient>
    <linearGradient
       id="linearGradient2251">
      <stop
         id="stop2253"
         style="stop-color:#ffffff;stop-opacity:1"
         offset="0" />
      <stop
         id="stop14663"
         style="stop-color:#ffffff;stop-opacity:0"
         offset="1" />
    </linearGradient>
    <linearGradient
       id="linearGradient2259">
      <stop
         id="stop2261"
         style="stop-color:#ffffff;stop-opacity:1"
         offset="0" />
      <stop
         id="stop2263"
         style="stop-color:#ffffff;stop-opacity:0"
         offset="1" />
    </linearGradient>
    <linearGradient
       x1="302.85715"
       y1="366.64789"
       x2="302.85715"
       y2="609.50507"
       id="linearGradient14736"
       xlink:href="#linearGradient5048"
       gradientUnits="userSpaceOnUse"
       gradientTransform="matrix(2.774389,0,0,1.969706,-1892.179,-872.8854)" />
    <radialGradient
       cx="605.71429"
       cy="486.64789"
       r="117.14286"
       fx="605.71429"
       fy="486.64789"
       id="radialGradient14738"
       xlink:href="#linearGradient5060"
       gradientUnits="userSpaceOnUse"
       gradientTransform="matrix(2.774389,0,0,1.969706,-1891.633,-872.8854)" />
    <radialGradient
       cx="605.71429"
       cy="486.64789"
       r="117.14286"
       fx="605.71429"
       fy="486.64789"
       id="radialGradient14740"
       xlink:href="#linearGradient5060"
       gradientUnits="userSpaceOnUse"
       gradientTransform="matrix(-2.774389,0,0,1.969706,112.7623,-872.8854)" />
    <linearGradient
       x1="10.611532"
       y1="7.8059688"
       x2="23.498116"
       y2="7.8059688"
       id="linearGradient14742"
       xlink:href="#linearGradient2245"
       gradientUnits="userSpaceOnUse"
       gradientTransform="scale(1.4072265,0.7106176)" />
    <linearGradient
       x1="22.686766"
       y1="36.3904"
       x2="21.408455"
       y2="35.739632"
       id="linearGradient2252"
       xlink:href="#linearGradient4356"
       gradientUnits="userSpaceOnUse"
       gradientTransform="matrix(-2.8347379,0.6090996,0.6090996,2.8347379,245.07039,-28.845765)" />
    <linearGradient
       x1="20.661695"
       y1="35.817974"
       x2="22.626925"
       y2="36.217758"
       id="linearGradient2250"
       xlink:href="#linearGradient4356"
       gradientUnits="userSpaceOnUse"
       gradientTransform="matrix(2.8512357,0.5265033,-0.5265033,2.8512357,103.35195,-25.094637)" />
    <radialGradient
       cx="29.344931"
       cy="17.064077"
       r="9.1620579"
       fx="29.344931"
       fy="17.064077"
       id="radialGradient2248"
       xlink:href="#linearGradient3800"
       gradientUnits="userSpaceOnUse"
       gradientTransform="matrix(0.787998,0,0,0.787998,6.221198,3.617627)" />
    <radialGradient
       cx="31.112698"
       cy="19.008621"
       r="8.6620579"
       fx="31.112698"
       fy="19.008621"
       id="radialGradient2246"
       xlink:href="#linearGradient3816"
       gradientUnits="userSpaceOnUse" />
    <linearGradient
       x1="30.935921"
       y1="29.553486"
       x2="30.935921"
       y2="35.803486"
       id="linearGradient2244"
       xlink:href="#linearGradient3824"
       gradientUnits="userSpaceOnUse"
       gradientTransform="matrix(2.8994389,0,0,2.8994389,85.283474,-17.406873)" />
    <radialGradient
       cx="28.089741"
       cy="27.203083"
       r="13.56536"
       fx="28.089741"
       fy="27.203083"
       id="radialGradient2242"
       xlink:href="#linearGradient4163"
       gradientUnits="userSpaceOnUse"
       gradientTransform="matrix(3.7622075,0,0,2.5655134,61.0485,-3.0822851)" />
    <linearGradient
       x1="22.686766"
       y1="36.3904"
       x2="21.408455"
       y2="35.739632"
       id="linearGradient2240"
       xlink:href="#linearGradient4356"
       gradientUnits="userSpaceOnUse"
       gradientTransform="matrix(-2.8347379,0.6090996,0.6090996,2.8347379,206.49672,-49.644748)" />
    <linearGradient
       x1="110.95935"
       y1="78.326614"
       x2="120.01285"
       y2="78.326614"
       id="linearGradient15849"
       xlink:href="#linearGradient2238"
       gradientUnits="userSpaceOnUse"
       gradientTransform="scale(1.3587326,0.73598)" />
    <linearGradient
       id="linearGradient6604">
      <stop
         id="stop6606"
         style="stop-color:#ffa196;stop-opacity:1"
         offset="0" />
      <stop
         id="stop6608"
         style="stop-color:#ff1f06;stop-opacity:0"
         offset="1" />
    </linearGradient>
    <linearGradient
       id="linearGradient6617">
      <stop
         id="stop6619"
         style="stop-color:#ffffff;stop-opacity:0.24742268"
         offset="0" />
      <stop
         id="stop6621"
         style="stop-color:#ffffff;stop-opacity:0"
         offset="1" />
    </linearGradient>
    <linearGradient
       id="linearGradient6625">
      <stop
         id="stop6627"
         style="stop-color:#1d2349;stop-opacity:1"
         offset="0" />
      <stop
         id="stop6637"
         style="stop-color:#4c5279;stop-opacity:1"
         offset="0.35315102" />
      <stop
         id="stop6633"
         style="stop-color:#b3bdff;stop-opacity:1"
         offset="0.46551725" />
      <stop
         id="stop6635"
         style="stop-color:#727cbe;stop-opacity:1"
         offset="0.64982164" />
      <stop
         id="stop6629"
         style="stop-color:#323c7e;stop-opacity:1"
         offset="1" />
    </linearGradient>
    <linearGradient
       id="linearGradient6665">
      <stop
         id="stop6667"
         style="stop-color:#000000;stop-opacity:1"
         offset="0" />
      <stop
         id="stop6669"
         style="stop-color:#000000;stop-opacity:0"
         offset="1" />
    </linearGradient>
    <linearGradient
       id="linearGradient6684">
      <stop
         id="stop6686"
         style="stop-color:#d5dbff;stop-opacity:1"
         offset="0" />
      <stop
         id="stop6688"
         style="stop-color:#6579ff;stop-opacity:0"
         offset="1" />
    </linearGradient>
    <radialGradient
       cx="24.452202"
       cy="19.818913"
       r="33.156136"
       fx="24.452202"
       fy="19.818913"
       id="radialGradient17456"
       xlink:href="#linearGradient6665"
       gradientUnits="userSpaceOnUse"
       gradientTransform="matrix(1.024478,0,0,0.976107,-59.596791,48.64412)" />
    <radialGradient
       cx="24.452202"
       cy="19.818913"
       r="33.156136"
       fx="24.452202"
       fy="19.818913"
       id="radialGradient17458"
       xlink:href="#linearGradient6665"
       gradientUnits="userSpaceOnUse"
       gradientTransform="matrix(1.024478,0,0,0.976107,-60.303899,48.467343)" />
    <linearGradient
       x1="38.506161"
       y1="22.886259"
       x2="38.250904"
       y2="35.01786"
       id="linearGradient17460"
       xlink:href="#linearGradient6625"
       gradientUnits="userSpaceOnUse"
       gradientTransform="matrix(0.843938,0,0,1.184922,-62.523568,50.687012)" />
    <linearGradient
       x1="37.502811"
       y1="35.458244"
       x2="36.499001"
       y2="27.403761"
       id="linearGradient17462"
       xlink:href="#linearGradient6684"
       gradientUnits="userSpaceOnUse"
       gradientTransform="matrix(0.843938,0,0,1.184922,-61.243238,48.997672)" />
    <radialGradient
       cx="28.789101"
       cy="20.971201"
       r="13.2807"
       fx="28.789101"
       fy="20.971201"
       id="radialGradient17464"
       xlink:href="#aigrd1"
       gradientUnits="userSpaceOnUse"
       gradientTransform="matrix(1.310386,0,0,1.310386,-69.88592,44.621695)" />
    <radialGradient
       cx="26.887432"
       cy="20.479359"
       r="14.6944"
       fx="26.887432"
       fy="20.479359"
       id="radialGradient17466"
       xlink:href="#aigrd2"
       gradientUnits="userSpaceOnUse"
       gradientTransform="matrix(1.135551,0,0,1.135551,-65.783563,46.920239)" />
    <linearGradient
       x1="15.338736"
       y1="5.9244628"
       x2="43.14098"
       y2="49.895073"
       id="linearGradient17468"
       xlink:href="#linearGradient6604"
       gradientUnits="userSpaceOnUse"
       gradientTransform="matrix(0.975728,0,0,0.931033,-61.37524,50.976064)" />
    <linearGradient
       x1="18.570419"
       y1="9.4436626"
       x2="29.957399"
       y2="22.783224"
       id="linearGradient17470"
       xlink:href="#linearGradient6617"
       gradientUnits="userSpaceOnUse"
       gradientTransform="matrix(1.02867,0,0,0.972129,-62.523568,50.187012)" />
  </defs>
  <g
     id="layer1"
     style="display:inline" />
  <g
     id="layer2"
     style="display:inline">
    <g
       transform="translate(13.939525,-1.8493639)"
       id="g15828">
      <g
         id="g15830"
         style="display:inline" />
      <g
         id="g15832"
         style="display:inline">
        <g
           id="g2254">
          <path
             d="m 39.774755,19.008621 c 0.0015,4.78495 -3.877107,8.66469 -8.662058,8.66469 -4.78495,0 -8.663511,-3.87974 -8.662057,-8.66469 -0.0015,-4.78495 3.877107,-8.66469 8.662057,-8.66469 4.784951,0 8.663512,3.87974 8.662058,8.66469 l 0,0 z"
             transform="matrix(5.1479827,0,0,1.6932259,-96.037255,70.585083)"
             id="path4306"
             style="fill:url(#radialGradient4179);fill-opacity:1;fill-rule:evenodd;stroke:none;stroke-width:1px;marker:none;visibility:visible;display:inline;overflow:visible" />
          <g
             transform="translate(-111,-1)"
             id="g2224">
            <path
               d="m 150.76409,60.978416 12.30128,0 -7.17574,-6.663192 -1.53766,2.050214 -1.53767,-1.53766 -2.05021,6.150638 z"
               id="path4173"
               style="fill:url(#linearGradient15849);fill-opacity:1;fill-rule:evenodd;stroke:none;stroke-width:1px;marker:none;visibility:visible;display:inline;overflow:visible" />
            <path
               d="m 164.88369,77.530602 c 3.56993,-1.68451 5.23169,-5.805607 5.23169,-5.805607 -2.78091,-11.722382 -11.52861,-19.840341 -11.52861,-19.840341 0,0 7.14594,18.389986 6.29692,25.645948 z"
               id="path4370"
               style="opacity:0.22784807;fill:url(#linearGradient2240);fill-opacity:1;fill-rule:evenodd;stroke:none;stroke-width:1px;marker:none;visibility:visible;display:inline;overflow:visible" />
            <path
               d="m 160.6288,103.31428 30.75319,0 c 8.71341,0 17.34005,-3.19499 20.50213,-12.30128 3.00277,-8.647508 0.51255,-25.115109 -18.96447,-38.441493 l -36.39128,0 c -19.47702,12.301276 -21.91103,29.124374 -17.42681,38.954043 4.56834,10.01405 12.30128,11.78873 21.52724,11.78873 z"
               id="path4308"
               style="fill:url(#radialGradient2242);fill-opacity:1;fill-rule:evenodd;stroke:#204a87;stroke-width:2.89943886px;stroke-linecap:round;stroke-linejoin:round;stroke-miterlimit:4;stroke-opacity:1;stroke-dasharray:none;stroke-dashoffset:0;marker:none;visibility:visible;display:inline;overflow:visible" />
            <path
               d="m 162.67901,57.184486 c 9.22596,8.200851 13.32638,37.928944 13.32638,37.928944 0,0 4.10043,-29.72809 11.27617,-38.441496 l -24.60255,0.512552 z"
               id="path4310"
               style="fill:url(#linearGradient2244);fill-opacity:1;fill-rule:evenodd;stroke:none;stroke-width:1px;marker:none;visibility:visible;display:inline;overflow:visible" />
            <path
               d="m 169.28811,60.259807 c 0,0 -6.23763,4.81404 -5.70027,10.613492 -5.91841,-5.221292 -6.08846,-15.226473 -6.08846,-15.226473 l 11.78873,4.612981 z"
               id="path4312"
               style="fill:#729fcf;fill-opacity:1;fill-rule:evenodd;stroke:none;stroke-width:1px;marker:none;visibility:visible;display:inline;overflow:visible" />
            <path
               d="m 160.42203,100.29275 30.42511,-0.0641 c 7.65372,0 15.23122,-2.80643 18.00874,-10.80525 2.63759,-7.595832 -0.27464,-22.060709 -17.38294,-33.76639 L 158.0577,54.952289 c -17.1083,10.805243 -20.41965,25.582384 -16.41671,34.921371 4.00294,9.33898 9.84421,10.35503 18.78104,10.41909 z"
               id="path4314"
               style="opacity:0.21518986;fill:none;stroke:#ffffff;stroke-width:2.89943814px;stroke-linecap:round;stroke-linejoin:round;stroke-miterlimit:4;stroke-opacity:1;stroke-dasharray:none;stroke-dashoffset:0;marker:none;visibility:visible;display:inline;overflow:visible" />
            <path
               d="m 182.15603,60.259807 c 0,0 6.23763,4.81404 5.70027,10.613492 5.91841,-5.221292 6.08846,-15.226473 6.08846,-15.226473 l -11.78873,4.612981 z"
               id="path4316"
               style="fill:#729fcf;fill-opacity:1;fill-rule:evenodd;stroke:none;stroke-width:1px;marker:none;visibility:visible;display:inline;overflow:visible" />
            <path
               d="m 39.774755,19.008621 c 0.0015,4.78495 -3.877107,8.66469 -8.662058,8.66469 -4.78495,0 -8.663511,-3.87974 -8.662057,-8.66469 -0.0015,-4.78495 3.877107,-8.66469 8.662057,-8.66469 4.784951,0 8.663512,3.87974 8.662058,8.66469 l 0,0 z"
               transform="matrix(2.8994389,0,0,2.8994389,84.921044,-7.258837)"
               id="path4318"
               style="fill:url(#radialGradient2246);fill-opacity:1;fill-rule:evenodd;stroke:none;stroke-width:1px;marker:none;visibility:visible;display:inline;overflow:visible" />
            <path
               d="m 39.774755,19.008621 c 0.0015,4.78495 -3.877107,8.66469 -8.662058,8.66469 -4.78495,0 -8.663511,-3.87974 -8.662057,-8.66469 -0.0015,-4.78495 3.877107,-8.66469 8.662057,-8.66469 4.784951,0 8.663512,3.87974 8.662058,8.66469 l 0,0 z"
               transform="matrix(2.8994389,0,0,2.8994389,85.283474,-17.406873)"
               id="path4320"
               style="fill:url(#radialGradient2248);fill-opacity:1;fill-rule:evenodd;stroke:#c17d11;stroke-width:1px;stroke-linecap:round;stroke-linejoin:round;stroke-miterlimit:4;stroke-opacity:1;stroke-dasharray:none;stroke-dashoffset:0;marker:none;visibility:visible;display:inline;overflow:visible" />
            <path
               d="m 39.774755,19.008621 c 0.0015,4.78495 -3.877107,8.66469 -8.662058,8.66469 -4.78495,0 -8.663511,-3.87974 -8.662057,-8.66469 -0.0015,-4.78495 3.877107,-8.66469 8.662057,-8.66469 4.784951,0 8.663512,3.87974 8.662058,8.66469 l 0,0 z"
               transform="matrix(2.5430833,0,0,2.5430833,96.370717,-10.63301)"
               id="path4322"
               style="opacity:0.19620254;fill:none;stroke:#ffffff;stroke-width:1.14012825px;stroke-linecap:round;stroke-linejoin:round;stroke-miterlimit:4;stroke-opacity:1;stroke-dasharray:none;stroke-dashoffset:0;marker:none;visibility:visible;display:inline;overflow:visible" />
            <path
               d="m 148.6414,100.81832 c -3.61736,-1.58011 -5.23637,-5.38796 -5.23637,-5.38796 2.43925,-11.798214 10.7857,-20.430075 10.7857,-20.430075 0,0 -6.60875,18.589795 -5.54933,25.818035 z"
               id="path4354"
               style="opacity:0.22784807;fill:url(#linearGradient2250);fill-opacity:1;fill-rule:evenodd;stroke:none;stroke-width:1px;marker:none;visibility:visible;display:inline;overflow:visible" />
            <path
               d="m 203.45735,98.32958 c 3.56993,-1.68451 5.23168,-5.80561 5.23168,-5.80561 -2.7809,-11.722378 -11.5286,-19.840337 -11.5286,-19.840337 0,0 7.14594,18.389987 6.29692,25.645947 z"
               id="path4364"
               style="opacity:0.22784807;fill:url(#linearGradient2252);fill-opacity:1;fill-rule:evenodd;stroke:none;stroke-width:1px;marker:none;visibility:visible;display:inline;overflow:visible" />
          </g>
        </g>
      </g>
    </g>
    <g
       transform="translate(4.7008389,72.40739)"
       id="g14708">
      <g
         transform="matrix(0.02325216,0,0,0.01485743,44.80627,43.06039)"
         id="g14710"
         style="display:inline">
        <rect
           width="1339.6335"
           height="478.35718"
           x="-1559.2523"
           y="-150.69685"
           id="rect14712"
           style="opacity:0.40206185;fill:url(#linearGradient14736);fill-opacity:1;fill-rule:nonzero;stroke:none;stroke-width:1;marker:none;visibility:visible;display:inline;overflow:visible" />
        <path
           d="m -219.61876,-150.68038 c 0,0 0,478.33079 0,478.33079 142.874166,0.90045 345.40022,-107.16966 345.40014,-239.196175 0,-132.026537 -159.436816,-239.134595 -345.40014,-239.134615 z"
           id="path14714"
           style="opacity:0.40206185;fill:url(#radialGradient14738);fill-opacity:1;fill-rule:nonzero;stroke:none;stroke-width:1;marker:none;visibility:visible;display:inline;overflow:visible" />
        <path
           d="m -1559.2523,-150.68038 c 0,0 0,478.33079 0,478.33079 -142.8742,0.90045 -345.4002,-107.16966 -345.4002,-239.196175 0,-132.026537 159.4368,-239.134595 345.4002,-239.134615 z"
           id="path14716"
           style="opacity:0.40206185;fill:url(#radialGradient14740);fill-opacity:1;fill-rule:nonzero;stroke:none;stroke-width:1;marker:none;visibility:visible;display:inline;overflow:visible" />
      </g>
      <rect
         width="39.035683"
         height="41.045437"
         rx="1.3879371"
         ry="1.3879364"
         x="4.4643173"
         y="4.5"
         id="rect12368"
         style="fill:url(#linearGradient14490);fill-opacity:1;fill-rule:evenodd;stroke:#714c16;stroke-width:0.99999976;stroke-linecap:butt;stroke-linejoin:miter;stroke-miterlimit:4;stroke-opacity:1;stroke-dasharray:none;stroke-dashoffset:0" />
      <rect
         width="30.951559"
         height="35.976688"
         rx="0.56650835"
         ry="0.56650835"
         x="8.5323219"
         y="6.5295157"
         id="rect12413"
         style="fill:url(#linearGradient15224);fill-opacity:1;fill-rule:evenodd;stroke:#888a85;stroke-width:1.00000024;stroke-linecap:butt;stroke-linejoin:miter;stroke-miterlimit:4;stroke-opacity:1;stroke-dasharray:none;stroke-dashoffset:0" />
      <rect
         width="12"
         height="4"
         rx="0.98387533"
         ry="0.98387533"
         x="18"
         y="0"
         id="rect13756"
         style="fill:#5c5c5c;fill-opacity:1;fill-rule:evenodd;stroke:none" />
      <rect
         width="29.014147"
         height="34.040764"
         rx="0"
         ry="0"
         x="9.5171413"
         y="7.4665856"
         id="rect15244"
         style="fill:none;stroke:url(#linearGradient2265);stroke-width:1.00000048;stroke-linecap:butt;stroke-linejoin:miter;stroke-miterlimit:4;stroke-opacity:1;stroke-dasharray:none;stroke-dashoffset:0" />
      <rect
         width="37.085655"
         height="39.092987"
         rx="0.47879848"
         ry="0.47879848"
         x="5.4393425"
         y="5.4307775"
         id="rect15974"
         style="fill:none;stroke:#c68827;stroke-width:0.99999976;stroke-linecap:butt;stroke-linejoin:miter;stroke-miterlimit:4;stroke-opacity:1;stroke-dasharray:none;stroke-dashoffset:0" />
      <rect
         width="18.947376"
         height="7"
         rx="1.3879377"
         ry="1.3879364"
         x="14.791488"
         y="4.4722719"
         id="rect2208"
         style="opacity:0.10795456;fill:#000000;fill-opacity:1;fill-rule:evenodd;stroke:#000000;stroke-width:1.00000012;stroke-linecap:butt;stroke-linejoin:miter;stroke-miterlimit:4;stroke-opacity:1;stroke-dasharray:none;stroke-dashoffset:0" />
      <rect
         width="18.947376"
         height="7"
         rx="1.3879377"
         ry="1.3879364"
         x="14.526322"
         y="3.5"
         id="rect2285"
         style="fill:url(#linearGradient15240);fill-opacity:1;fill-rule:evenodd;stroke:#5c5c5c;stroke-width:1.00000012;stroke-linecap:butt;stroke-linejoin:miter;stroke-miterlimit:4;stroke-opacity:1;stroke-dasharray:none;stroke-dashoffset:0" />
      <rect
         width="9.6973763"
         height="3.5826404"
         rx="0.32543635"
         ry="0.32543635"
         x="19.151323"
         y="1.2086792"
         id="rect2281"
         style="fill:url(#linearGradient2283);fill-opacity:1;fill-rule:evenodd;stroke:none" />
      <rect
         width="18.093992"
         height="6.1875"
         rx="1.0129364"
         ry="1.0129364"
         x="14.953014"
         y="3.9375"
         id="rect13754"
         style="fill:url(#linearGradient2287);fill-opacity:1;fill-rule:evenodd;stroke:none" />
      <path
         d="m 39.018306,36.25 0.04419,5.8125 -8.5,-0.04419 L 39.018306,36.25 z"
         id="path2212"
         style="opacity:0.48863639;fill:url(#linearGradient2222);fill-opacity:1;fill-rule:evenodd;stroke:none;stroke-width:1.00000024;marker:none;visibility:visible;display:inline;overflow:visible" />
      <path
         d="m 30.059082,42.086864 c 1.791141,0.167652 8.989727,-4.369586 9.48084,-8.388009 -1.563262,2.423097 -4.954951,1.968591 -9.063709,2.127601 0,0 0.395369,5.760408 -0.417131,6.260408 z"
         id="path2210"
         style="fill:url(#linearGradient2230);fill-opacity:1;fill-rule:evenodd;stroke:#868a84;stroke-width:1.00000024;stroke-linecap:butt;stroke-linejoin:miter;stroke-miterlimit:4;stroke-opacity:1;stroke-dasharray:none;stroke-dashoffset:0;marker:none;visibility:visible;display:inline;overflow:visible" />
      <path
         d="m 19.46875,1.46875 c -0.0021,0.0021 0.0017,0.028784 0,0.03125 -0.0012,0.00278 -0.03063,-0.00302 -0.03125,0 l 0,2.875 c 0,0.00642 0.02891,0.025698 0.03125,0.03125 0.0025,0.00166 -0.0028,0.03008 0,0.03125 l -3.53125,0 c -0.01776,0 -0.04522,-0.00174 -0.0625,0 -0.03403,0.00517 -0.09355,0.019776 -0.125,0.03125 -0.138168,0.058246 -0.267672,0.1990199 -0.3125,0.34375 -0.01051,0.041035 0,0.1118489 0,0.15625 l 0,4.15625 c 0,0.01776 -0.0017,0.045215 0,0.0625 0.0052,0.034032 0.01978,0.093546 0.03125,0.125 0.0097,0.023028 0.01843,0.0726 0.03125,0.09375 0.0046,0.00682 0.02634,0.02467 0.03125,0.03125 0.02087,0.025314 0.06844,0.072876 0.09375,0.09375 0.01316,0.00983 0.0484,0.0227 0.0625,0.03125 0.01454,0.00788 0.04715,0.024778 0.0625,0.03125 0.03145,0.011474 0.09097,0.026079 0.125,0.03125 0.01728,0.00174 0.04474,0 0.0625,0 l 16.125,0 c 0.01776,0 0.04521,0.00174 0.0625,0 0.03403,-0.00517 0.09355,-0.019776 0.125,-0.03125 0.01535,-0.00647 0.04796,-0.023372 0.0625,-0.03125 0.0141,-0.00855 0.04934,-0.021421 0.0625,-0.03125 0.02531,-0.020874 0.07288,-0.068436 0.09375,-0.09375 0.0049,-0.00658 0.02665,-0.02443 0.03125,-0.03125 0.01282,-0.02115 0.02154,-0.070722 0.03125,-0.09375 0.01147,-0.031454 0.02608,-0.090968 0.03125,-0.125 0.0017,-0.017285 0,-0.04474 0,-0.0625 l 0,-4.15625 c 0,-0.044401 0.01051,-0.1152152 0,-0.15625 -0.04483,-0.1447302 -0.174332,-0.2855036 -0.3125,-0.34375 -0.03145,-0.011474 -0.09097,-0.026079 -0.125,-0.03125 -0.01729,-0.00174 -0.04474,0 -0.0625,0 l -3.53125,0 c 0.0028,-0.00117 -0.0025,-0.029586 0,-0.03125 0.0023,-0.00555 0.03125,-0.024827 0.03125,-0.03125 l 0,-2.875 c -6.16e-4,-0.00302 -0.03008,0.00278 -0.03125,0 -0.0017,-0.00247 0.0021,-0.029154 0,-0.03125 -0.0028,-0.00117 -0.02823,6.157e-4 -0.03125,0 l -9,0 c -0.003,6.157e-4 -0.02847,-0.00117 -0.03125,0 z"
         id="rect2232"
         style="opacity:0.31681818;fill:none;stroke:url(#linearGradient14742);stroke-width:0.99999994;stroke-linecap:butt;stroke-linejoin:miter;stroke-miterlimit:4;stroke-opacity:1;stroke-dasharray:none;stroke-dashoffset:0" />
      <path
         d="m 31.509519,40.68705 c 1.369779,-0.683829 4.529264,-2.601034 5.828645,-4.482038 -1.792523,0.376484 -2.990921,0.589573 -5.727588,0.695482 0,0 0.08656,3.011586 -0.101057,3.786556 z"
         id="path2247"
         style="opacity:0.36931817;fill:none;stroke:url(#linearGradient2257);stroke-width:0.99999982;stroke-linecap:butt;stroke-linejoin:miter;stroke-miterlimit:4;stroke-opacity:1;stroke-dasharray:none;stroke-dashoffset:0;marker:none;visibility:visible;display:inline;overflow:visible" />
      <rect
         width="21"
         height="2"
         x="14"
         y="15"
         id="rect2271"
         style="opacity:0.17045456;fill:#000000;fill-opacity:1;fill-rule:evenodd;stroke:none;stroke-width:1;marker:none;visibility:visible;display:inline;overflow:visible" />
      <rect
         width="20"
         height="2"
         x="14"
         y="19"
         id="rect2273"
         style="opacity:0.17045456;fill:#000000;fill-opacity:1;fill-rule:evenodd;stroke:none;stroke-width:1;marker:none;visibility:visible;display:inline;overflow:visible" />
      <rect
         width="18"
         height="2"
         x="14"
         y="23"
         id="rect2275"
         style="opacity:0.17045456;fill:#000000;fill-opacity:1;fill-rule:evenodd;stroke:none;stroke-width:1;marker:none;visibility:visible;display:inline;overflow:visible" />
      <rect
         width="21"
         height="2"
         x="14"
         y="27"
         id="rect2277"
         style="opacity:0.17045456;fill:#000000;fill-opacity:1;fill-rule:evenodd;stroke:none;stroke-width:1;marker:none;visibility:visible;display:inline;overflow:visible" />
      <rect
         width="13"
         height="2"
         x="14"
         y="31"
         id="rect2279"
         style="opacity:0.17045456;fill:#000000;fill-opacity:1;fill-rule:evenodd;stroke:none;stroke-width:1;marker:none;visibility:visible;display:inline;overflow:visible" />
    </g>
    <g
       transform="matrix(0.4720325,0,0,0.4720325,111.75473,44.566741)"
       id="g17446">
      <path
         d="m -35.854128,68.30271 c 0,0 -5.904865,8.175967 -5.904865,11.923286 0,3.747318 6.813306,1.703326 9.538628,4.428649 2.725322,2.725322 -6.359086,9.765738 -6.359086,9.765738 l 9.084408,-2.498212 3.633764,3.860873 c 0,-4.655759 5.337089,-8.403077 2.611767,-11.241954 -2.838878,-2.838878 -10.90129,-2.498213 -11.35551,-6.245531 -0.454221,-3.747318 -1.135551,-9.879294 -1.135551,-9.879294 l -0.113555,-0.113555 z"
         id="path16437"
         style="opacity:0.48044691;fill:url(#radialGradient17456);fill-opacity:1;fill-rule:nonzero;stroke:none;stroke-width:1;marker:none;visibility:visible;display:inline;overflow:visible" />
      <path
         d="m -24.327078,58.392324 c 1.321528,3.057376 3.643133,2.901818 3.700549,6.982515 0.03275,2.275762 1.832456,3.470743 1.832456,5.795517 0,2.324773 -4.015015,3.473472 -5.382529,4.840984 -1.367515,1.367516 0.107885,4.874427 -3.60203,5.904959 -3.674662,1.02074 -5.470058,-0.410252 -7.794832,-0.410252 -2.324776,0 -7.887818,4.482688 -9.939091,2.431415 -2.051272,-2.051271 -2.095036,-6.533959 -3.872804,-8.311727 -1.914521,-1.914521 -4.939435,-4.5894 -4.939435,-8.008186 0,-3.418785 1.974205,-5.223586 4.802684,-8.401985 2.918275,-3.279305 3.008531,-8.205087 6.427317,-8.205087 3.418785,0 4.729182,0.93781 7.638964,0.864272 4.638337,-0.117224 5.20674,-2.323322 8.618072,-0.5935 3.007702,1.525149 1.476157,4.717693 2.510679,7.111075 z"
         id="path16439"
         style="opacity:0.48044691;fill:url(#radialGradient17458);fill-opacity:1;fill-rule:nonzero;stroke:none" />
      <path
         d="m -37.621898,67.065271 c 0,0 -5.904865,8.175967 -5.904865,11.923286 0,3.747318 6.813306,1.703326 9.538628,4.428649 2.725322,2.725322 -6.359086,9.765738 -6.359086,9.765738 l 9.084408,-2.498212 3.633764,3.860873 c 0,-4.655759 5.337089,-8.403077 2.611767,-11.241954 -2.838878,-2.838878 -10.90129,-2.498213 -11.35551,-6.245531 -0.454221,-3.747318 -1.135551,-9.879294 -1.135551,-9.879294 l -0.113555,-0.113555 z"
         id="path16441"
         style="fill:url(#linearGradient17460);fill-opacity:1;fill-rule:nonzero;stroke:#1f254f;stroke-width:1;stroke-miterlimit:6.5999999;stroke-opacity:1" />
      <path
         d="m -40.440025,80.600093 c 4.552,0.448384 7.429014,1.235525 7.806622,3.989107 0.330114,2.407239 -4.232143,6.732959 -4.232143,6.732959 l 5.843888,-1.624746 2.84137,2.96095 c 0.662912,-3.71094 4.364808,-6.222004 2.678906,-8.504604 -2.114688,-2.863148 -8.966049,-2.243467 -9.293599,-4.945752 -0.32755,-2.702286 -8.334061,1.124615 -5.645044,1.392086 z"
         id="path16443"
         style="fill:none;stroke:url(#linearGradient17462);stroke-width:0.72112519;stroke-miterlimit:6.5999999;stroke-opacity:1" />
      <path
         d="m -26.307753,58.244481 c 1.266321,2.929654 3.490941,2.780595 3.545959,6.690821 0.03138,2.180692 1.755905,3.325753 1.755905,5.553409 0,2.227656 -3.847288,3.328368 -5.157674,4.638753 -1.310387,1.310388 0.103378,4.670798 -3.451556,5.658279 -3.521153,0.978099 -5.241546,-0.393114 -7.469203,-0.393114 -2.227658,0 -7.558305,4.295424 -9.523886,2.329843 -1.96558,-1.965579 -2.007516,-6.261003 -3.711018,-7.964505 -1.834542,-1.834542 -4.733091,-4.397678 -4.733091,-7.673644 0,-3.275966 1.891733,-5.005371 4.602053,-8.050993 2.796364,-3.142311 2.88285,-7.862319 6.158816,-7.862319 3.275966,0 4.531621,0.898633 7.319847,0.828167 4.444571,-0.112326 4.989229,-2.226265 8.258052,-0.568707 2.882056,1.461437 1.414491,4.520612 2.405796,6.81401 z"
         id="path16445"
         style="fill:url(#radialGradient17464);fill-rule:nonzero;stroke:#4c0901;stroke-linecap:round;stroke-linejoin:round;stroke-miterlimit:4;stroke-opacity:1" />
      <path
         d="m -26.266388,66.565271 c 0,6.245531 -5.10998,11.35551 -11.35551,11.35551 -6.245531,0 -11.35551,-5.109979 -11.35551,-11.35551 0,-6.24553 5.109979,-11.35551 11.35551,-11.35551 6.24553,0 11.35551,5.10998 11.35551,11.35551 z"
         id="path16447"
         style="fill:url(#radialGradient17466);fill-rule:nonzero;stroke:none" />
      <path
         d="m -27.354267,59.027796 c 1.153261,2.668087 3.179261,2.532336 3.229367,6.093447 0.02858,1.985994 1.599132,3.028821 1.599132,5.057586 0,2.028765 -3.503791,3.031202 -4.697182,4.224592 -1.193393,1.193394 0.09415,4.253777 -3.143392,5.153093 -3.206775,0.890771 -4.773567,-0.358015 -6.802333,-0.358015 -2.028766,0 -6.883479,3.911917 -8.673568,2.121828 -1.790087,-1.790087 -1.828279,-5.702004 -3.379688,-7.253413 -1.670749,-1.670749 -4.310508,-4.005041 -4.310508,-6.98852 0,-2.983479 1.722834,-4.558479 4.191169,-7.332179 2.546698,-2.861757 2.625462,-7.16035 5.608941,-7.16035 2.983479,0 4.127026,0.8184 6.666312,0.754226 4.047747,-0.102298 4.543777,-2.027499 7.52075,-0.517931 2.624739,1.330955 1.288202,4.117 2.191,6.205636 z"
         id="path16449"
         style="fill:#a40000;fill-rule:nonzero;stroke:url(#linearGradient17468);stroke-linecap:round;stroke-linejoin:round;stroke-miterlimit:4;stroke-opacity:1" />
      <path
         d="m -37.579988,56.050132 c -5.867816,0 -10.646262,4.742232 -10.646262,10.61005 0,3.670993 1.983705,6.780628 4.816166,8.690826 7.240471,-3.896962 5.953804,-10.805188 15.607276,-12.746547 -1.599006,-3.849102 -5.351588,-6.554329 -9.77718,-6.554329 z"
         id="path16451"
         style="fill:url(#linearGradient17470);fill-opacity:1;fill-rule:nonzero;stroke:none;stroke-width:1;marker:none;visibility:visible;display:inline;overflow:visible" />
    </g>
  </g>
</svg>
